<svg width="348" height="440" viewBox="0 0 348 440" fill="none" xmlns="http://www.w3.org/2000/svg">
<g filter="url(#filter0_d)">
<rect x="50" y="26" width="248" height="340" rx="12" fill="url(#paint0_linear)"/>
</g>
<path d="M50 286H298V354C298 360.627 292.627 366 286 366H62C55.3726 366 50 360.627 50 354V286Z" fill="#008FDF"/>
<path d="M65.558 308.656C65.4647 308.432 65.3387 308.147 65.18 307.802C65.0307 307.457 64.8673 307.083 64.69 306.682C64.5127 306.281 64.3213 305.87 64.116 305.45C63.92 305.021 63.7333 304.619 63.556 304.246C63.3787 303.863 63.2107 303.523 63.052 303.224C62.9027 302.925 62.7813 302.697 62.688 302.538C62.5853 303.639 62.5013 304.834 62.436 306.122C62.3707 307.401 62.3147 308.693 62.268 310H60.938C60.9753 309.16 61.0173 308.315 61.064 307.466C61.1107 306.607 61.162 305.767 61.218 304.946C61.2833 304.115 61.3487 303.308 61.414 302.524C61.4887 301.74 61.568 300.998 61.652 300.298H62.842C63.094 300.709 63.3647 301.194 63.654 301.754C63.9433 302.314 64.2327 302.902 64.522 303.518C64.8113 304.125 65.0913 304.736 65.362 305.352C65.6327 305.959 65.88 306.514 66.104 307.018C66.328 306.514 66.5753 305.959 66.846 305.352C67.1167 304.736 67.3967 304.125 67.686 303.518C67.9753 302.902 68.2647 302.314 68.554 301.754C68.8433 301.194 69.114 300.709 69.366 300.298H70.556C70.8733 303.425 71.1113 306.659 71.27 310H69.94C69.8933 308.693 69.8373 307.401 69.772 306.122C69.7067 304.834 69.6227 303.639 69.52 302.538C69.4267 302.697 69.3007 302.925 69.142 303.224C68.9927 303.523 68.8293 303.863 68.652 304.246C68.4747 304.619 68.2833 305.021 68.078 305.45C67.882 305.87 67.6953 306.281 67.518 306.682C67.3407 307.083 67.1727 307.457 67.014 307.802C66.8647 308.147 66.7433 308.432 66.65 308.656H65.558ZM75.7793 309.062C76.0873 309.062 76.358 309.057 76.5913 309.048C76.834 309.029 77.0346 309.001 77.1933 308.964V306.794C77.1 306.747 76.946 306.71 76.7313 306.682C76.526 306.645 76.274 306.626 75.9753 306.626C75.7793 306.626 75.5693 306.64 75.3453 306.668C75.1306 306.696 74.93 306.757 74.7433 306.85C74.566 306.934 74.4166 307.055 74.2953 307.214C74.174 307.363 74.1133 307.564 74.1133 307.816C74.1133 308.283 74.2626 308.609 74.5613 308.796C74.86 308.973 75.266 309.062 75.7793 309.062ZM75.6673 302.538C76.19 302.538 76.6286 302.608 76.9833 302.748C77.3473 302.879 77.6366 303.07 77.8513 303.322C78.0753 303.565 78.234 303.859 78.3273 304.204C78.4206 304.54 78.4673 304.913 78.4673 305.324V309.874C78.3553 309.893 78.1966 309.921 77.9913 309.958C77.7953 309.986 77.5713 310.014 77.3193 310.042C77.0673 310.07 76.792 310.093 76.4933 310.112C76.204 310.14 75.9146 310.154 75.6253 310.154C75.2146 310.154 74.8366 310.112 74.4913 310.028C74.146 309.944 73.8473 309.813 73.5953 309.636C73.3433 309.449 73.1473 309.207 73.0073 308.908C72.8673 308.609 72.7973 308.25 72.7973 307.83C72.7973 307.429 72.8766 307.083 73.0353 306.794C73.2033 306.505 73.4273 306.271 73.7073 306.094C73.9873 305.917 74.314 305.786 74.6873 305.702C75.0606 305.618 75.4526 305.576 75.8633 305.576C75.994 305.576 76.1293 305.585 76.2693 305.604C76.4093 305.613 76.54 305.632 76.6613 305.66C76.792 305.679 76.904 305.697 76.9973 305.716C77.0906 305.735 77.156 305.749 77.1933 305.758V305.394C77.1933 305.179 77.17 304.969 77.1233 304.764C77.0766 304.549 76.9926 304.363 76.8713 304.204C76.75 304.036 76.582 303.905 76.3673 303.812C76.162 303.709 75.8913 303.658 75.5553 303.658C75.126 303.658 74.748 303.691 74.4213 303.756C74.104 303.812 73.866 303.873 73.7073 303.938L73.5533 302.86C73.7213 302.785 74.0013 302.715 74.3933 302.65C74.7853 302.575 75.21 302.538 75.6673 302.538ZM80.6298 302.93C80.9284 302.855 81.3251 302.776 81.8198 302.692C82.3144 302.608 82.8838 302.566 83.5278 302.566C84.1064 302.566 84.5871 302.65 84.9698 302.818C85.3524 302.977 85.6558 303.205 85.8798 303.504C86.1131 303.793 86.2764 304.143 86.3698 304.554C86.4631 304.965 86.5098 305.417 86.5098 305.912V310H85.2078V306.192C85.2078 305.744 85.1751 305.361 85.1098 305.044C85.0538 304.727 84.9558 304.47 84.8158 304.274C84.6758 304.078 84.4891 303.938 84.2558 303.854C84.0224 303.761 83.7331 303.714 83.3878 303.714C83.2478 303.714 83.1031 303.719 82.9538 303.728C82.8044 303.737 82.6598 303.751 82.5198 303.77C82.3891 303.779 82.2678 303.793 82.1558 303.812C82.0531 303.831 81.9784 303.845 81.9318 303.854V310H80.6298V302.93ZM94.4648 309.79C94.1662 309.865 93.7695 309.944 93.2748 310.028C92.7895 310.112 92.2248 310.154 91.5808 310.154C91.0208 310.154 90.5495 310.075 90.1668 309.916C89.7842 309.748 89.4762 309.515 89.2428 309.216C89.0095 308.917 88.8415 308.567 88.7388 308.166C88.6362 307.755 88.5848 307.303 88.5848 306.808V302.72H89.8868V306.528C89.8868 307.415 90.0268 308.049 90.3068 308.432C90.5868 308.815 91.0582 309.006 91.7208 309.006C91.8608 309.006 92.0055 309.001 92.1548 308.992C92.3042 308.983 92.4442 308.973 92.5748 308.964C92.7055 308.945 92.8222 308.931 92.9248 308.922C93.0368 308.903 93.1162 308.885 93.1628 308.866V302.72H94.4648V309.79ZM99.1719 309.062C99.4799 309.062 99.7506 309.057 99.9839 309.048C100.227 309.029 100.427 309.001 100.586 308.964V306.794C100.493 306.747 100.339 306.71 100.124 306.682C99.9186 306.645 99.6666 306.626 99.3679 306.626C99.1719 306.626 98.9619 306.64 98.7379 306.668C98.5232 306.696 98.3226 306.757 98.1359 306.85C97.9586 306.934 97.8092 307.055 97.6879 307.214C97.5666 307.363 97.5059 307.564 97.5059 307.816C97.5059 308.283 97.6552 308.609 97.9539 308.796C98.2526 308.973 98.6586 309.062 99.1719 309.062ZM99.0599 302.538C99.5826 302.538 100.021 302.608 100.376 302.748C100.74 302.879 101.029 303.07 101.244 303.322C101.468 303.565 101.627 303.859 101.72 304.204C101.813 304.54 101.86 304.913 101.86 305.324V309.874C101.748 309.893 101.589 309.921 101.384 309.958C101.188 309.986 100.964 310.014 100.712 310.042C100.46 310.07 100.185 310.093 99.8859 310.112C99.5966 310.14 99.3072 310.154 99.0179 310.154C98.6072 310.154 98.2292 310.112 97.8839 310.028C97.5386 309.944 97.2399 309.813 96.9879 309.636C96.7359 309.449 96.5399 309.207 96.3999 308.908C96.2599 308.609 96.1899 308.25 96.1899 307.83C96.1899 307.429 96.2692 307.083 96.4279 306.794C96.5959 306.505 96.8199 306.271 97.0999 306.094C97.3799 305.917 97.7066 305.786 98.0799 305.702C98.4532 305.618 98.8452 305.576 99.2559 305.576C99.3866 305.576 99.5219 305.585 99.6619 305.604C99.8019 305.613 99.9326 305.632 100.054 305.66C100.185 305.679 100.297 305.697 100.39 305.716C100.483 305.735 100.549 305.749 100.586 305.758V305.394C100.586 305.179 100.563 304.969 100.516 304.764C100.469 304.549 100.385 304.363 100.264 304.204C100.143 304.036 99.9746 303.905 99.7599 303.812C99.5546 303.709 99.2839 303.658 98.9479 303.658C98.5186 303.658 98.1406 303.691 97.8139 303.756C97.4966 303.812 97.2586 303.873 97.0999 303.938L96.9459 302.86C97.1139 302.785 97.3939 302.715 97.7859 302.65C98.1779 302.575 98.6026 302.538 99.0599 302.538ZM106.206 310.14C105.404 310.121 104.834 309.949 104.498 309.622C104.162 309.295 103.994 308.787 103.994 308.096V299.36L105.296 299.136V307.886C105.296 308.101 105.315 308.278 105.352 308.418C105.39 308.558 105.45 308.67 105.534 308.754C105.618 308.838 105.73 308.903 105.87 308.95C106.01 308.987 106.183 309.02 106.388 309.048L106.206 310.14ZM115.795 304.26C115.636 304.129 115.407 304.003 115.109 303.882C114.81 303.761 114.483 303.7 114.129 303.7C113.755 303.7 113.433 303.77 113.163 303.91C112.901 304.041 112.687 304.227 112.519 304.47C112.351 304.703 112.229 304.983 112.155 305.31C112.08 305.637 112.043 305.987 112.043 306.36C112.043 307.209 112.253 307.867 112.673 308.334C113.093 308.791 113.653 309.02 114.353 309.02C114.707 309.02 115.001 309.006 115.235 308.978C115.477 308.941 115.664 308.903 115.795 308.866V304.26ZM115.795 299.36L117.097 299.136V309.79C116.798 309.874 116.415 309.958 115.949 310.042C115.482 310.126 114.945 310.168 114.339 310.168C113.779 310.168 113.275 310.079 112.827 309.902C112.379 309.725 111.996 309.473 111.679 309.146C111.361 308.819 111.114 308.423 110.937 307.956C110.769 307.48 110.685 306.948 110.685 306.36C110.685 305.8 110.755 305.287 110.895 304.82C111.044 304.353 111.259 303.952 111.539 303.616C111.819 303.28 112.159 303.019 112.561 302.832C112.971 302.645 113.438 302.552 113.961 302.552C114.381 302.552 114.749 302.608 115.067 302.72C115.393 302.832 115.636 302.939 115.795 303.042V299.36ZM121.799 309.062C122.107 309.062 122.378 309.057 122.611 309.048C122.854 309.029 123.054 309.001 123.213 308.964V306.794C123.12 306.747 122.966 306.71 122.751 306.682C122.546 306.645 122.294 306.626 121.995 306.626C121.799 306.626 121.589 306.64 121.365 306.668C121.15 306.696 120.95 306.757 120.763 306.85C120.586 306.934 120.436 307.055 120.315 307.214C120.194 307.363 120.133 307.564 120.133 307.816C120.133 308.283 120.282 308.609 120.581 308.796C120.88 308.973 121.286 309.062 121.799 309.062ZM121.687 302.538C122.21 302.538 122.648 302.608 123.003 302.748C123.367 302.879 123.656 303.07 123.871 303.322C124.095 303.565 124.254 303.859 124.347 304.204C124.44 304.54 124.487 304.913 124.487 305.324V309.874C124.375 309.893 124.216 309.921 124.011 309.958C123.815 309.986 123.591 310.014 123.339 310.042C123.087 310.07 122.812 310.093 122.513 310.112C122.224 310.14 121.934 310.154 121.645 310.154C121.234 310.154 120.856 310.112 120.511 310.028C120.166 309.944 119.867 309.813 119.615 309.636C119.363 309.449 119.167 309.207 119.027 308.908C118.887 308.609 118.817 308.25 118.817 307.83C118.817 307.429 118.896 307.083 119.055 306.794C119.223 306.505 119.447 306.271 119.727 306.094C120.007 305.917 120.334 305.786 120.707 305.702C121.08 305.618 121.472 305.576 121.883 305.576C122.014 305.576 122.149 305.585 122.289 305.604C122.429 305.613 122.56 305.632 122.681 305.66C122.812 305.679 122.924 305.697 123.017 305.716C123.11 305.735 123.176 305.749 123.213 305.758V305.394C123.213 305.179 123.19 304.969 123.143 304.764C123.096 304.549 123.012 304.363 122.891 304.204C122.77 304.036 122.602 303.905 122.387 303.812C122.182 303.709 121.911 303.658 121.575 303.658C121.146 303.658 120.768 303.691 120.441 303.756C120.124 303.812 119.886 303.873 119.727 303.938L119.573 302.86C119.741 302.785 120.021 302.715 120.413 302.65C120.805 302.575 121.23 302.538 121.687 302.538ZM127.867 302.72H130.625V303.812H127.867V307.172C127.867 307.536 127.895 307.839 127.951 308.082C128.007 308.315 128.091 308.502 128.203 308.642C128.315 308.773 128.455 308.866 128.623 308.922C128.791 308.978 128.987 309.006 129.211 309.006C129.603 309.006 129.916 308.964 130.149 308.88C130.392 308.787 130.56 308.721 130.653 308.684L130.905 309.762C130.775 309.827 130.546 309.907 130.219 310C129.893 310.103 129.519 310.154 129.099 310.154C128.605 310.154 128.194 310.093 127.867 309.972C127.55 309.841 127.293 309.65 127.097 309.398C126.901 309.146 126.761 308.838 126.677 308.474C126.603 308.101 126.565 307.671 126.565 307.186V300.69L127.867 300.466V302.72ZM134.746 309.062C135.054 309.062 135.325 309.057 135.558 309.048C135.801 309.029 136.001 309.001 136.16 308.964V306.794C136.067 306.747 135.913 306.71 135.698 306.682C135.493 306.645 135.241 306.626 134.942 306.626C134.746 306.626 134.536 306.64 134.312 306.668C134.097 306.696 133.897 306.757 133.71 306.85C133.533 306.934 133.383 307.055 133.262 307.214C133.141 307.363 133.08 307.564 133.08 307.816C133.08 308.283 133.229 308.609 133.528 308.796C133.827 308.973 134.233 309.062 134.746 309.062ZM134.634 302.538C135.157 302.538 135.595 302.608 135.95 302.748C136.314 302.879 136.603 303.07 136.818 303.322C137.042 303.565 137.201 303.859 137.294 304.204C137.387 304.54 137.434 304.913 137.434 305.324V309.874C137.322 309.893 137.163 309.921 136.958 309.958C136.762 309.986 136.538 310.014 136.286 310.042C136.034 310.07 135.759 310.093 135.46 310.112C135.171 310.14 134.881 310.154 134.592 310.154C134.181 310.154 133.803 310.112 133.458 310.028C133.113 309.944 132.814 309.813 132.562 309.636C132.31 309.449 132.114 309.207 131.974 308.908C131.834 308.609 131.764 308.25 131.764 307.83C131.764 307.429 131.843 307.083 132.002 306.794C132.17 306.505 132.394 306.271 132.674 306.094C132.954 305.917 133.281 305.786 133.654 305.702C134.027 305.618 134.419 305.576 134.83 305.576C134.961 305.576 135.096 305.585 135.236 305.604C135.376 305.613 135.507 305.632 135.628 305.66C135.759 305.679 135.871 305.697 135.964 305.716C136.057 305.735 136.123 305.749 136.16 305.758V305.394C136.16 305.179 136.137 304.969 136.09 304.764C136.043 304.549 135.959 304.363 135.838 304.204C135.717 304.036 135.549 303.905 135.334 303.812C135.129 303.709 134.858 303.658 134.522 303.658C134.093 303.658 133.715 303.691 133.388 303.756C133.071 303.812 132.833 303.873 132.674 303.938L132.52 302.86C132.688 302.785 132.968 302.715 133.36 302.65C133.752 302.575 134.177 302.538 134.634 302.538ZM144.139 310H142.837V302.72H144.139V310ZM143.481 301.404C143.247 301.404 143.047 301.329 142.879 301.18C142.72 301.021 142.641 300.811 142.641 300.55C142.641 300.289 142.72 300.083 142.879 299.934C143.047 299.775 143.247 299.696 143.481 299.696C143.714 299.696 143.91 299.775 144.069 299.934C144.237 300.083 144.321 300.289 144.321 300.55C144.321 300.811 144.237 301.021 144.069 301.18C143.91 301.329 143.714 301.404 143.481 301.404ZM146.378 302.93C146.676 302.855 147.073 302.776 147.568 302.692C148.062 302.608 148.632 302.566 149.276 302.566C149.854 302.566 150.335 302.65 150.718 302.818C151.1 302.977 151.404 303.205 151.628 303.504C151.861 303.793 152.024 304.143 152.118 304.554C152.211 304.965 152.258 305.417 152.258 305.912V310H150.956V306.192C150.956 305.744 150.923 305.361 150.858 305.044C150.802 304.727 150.704 304.47 150.564 304.274C150.424 304.078 150.237 303.938 150.004 303.854C149.77 303.761 149.481 303.714 149.136 303.714C148.996 303.714 148.851 303.719 148.702 303.728C148.552 303.737 148.408 303.751 148.268 303.77C148.137 303.779 148.016 303.793 147.904 303.812C147.801 303.831 147.726 303.845 147.68 303.854V310H146.378V302.93ZM159.471 306.374C159.471 305.525 159.261 304.871 158.841 304.414C158.421 303.957 157.861 303.728 157.161 303.728C156.769 303.728 156.461 303.742 156.237 303.77C156.022 303.798 155.85 303.831 155.719 303.868V308.46C155.878 308.591 156.106 308.717 156.405 308.838C156.704 308.959 157.03 309.02 157.385 309.02C157.758 309.02 158.076 308.955 158.337 308.824C158.608 308.684 158.827 308.497 158.995 308.264C159.163 308.021 159.284 307.741 159.359 307.424C159.434 307.097 159.471 306.747 159.471 306.374ZM160.829 306.374C160.829 306.925 160.754 307.433 160.605 307.9C160.465 308.367 160.255 308.768 159.975 309.104C159.695 309.44 159.35 309.701 158.939 309.888C158.538 310.075 158.076 310.168 157.553 310.168C157.133 310.168 156.76 310.112 156.433 310C156.116 309.888 155.878 309.781 155.719 309.678V312.59H154.417V302.944C154.725 302.869 155.108 302.79 155.565 302.706C156.032 302.613 156.568 302.566 157.175 302.566C157.735 302.566 158.239 302.655 158.687 302.832C159.135 303.009 159.518 303.261 159.835 303.588C160.152 303.915 160.395 304.316 160.563 304.792C160.74 305.259 160.829 305.786 160.829 306.374ZM168.457 309.79C168.158 309.865 167.762 309.944 167.267 310.028C166.782 310.112 166.217 310.154 165.573 310.154C165.013 310.154 164.542 310.075 164.159 309.916C163.776 309.748 163.468 309.515 163.235 309.216C163.002 308.917 162.834 308.567 162.731 308.166C162.628 307.755 162.577 307.303 162.577 306.808V302.72H163.879V306.528C163.879 307.415 164.019 308.049 164.299 308.432C164.579 308.815 165.05 309.006 165.713 309.006C165.853 309.006 165.998 309.001 166.147 308.992C166.296 308.983 166.436 308.973 166.567 308.964C166.698 308.945 166.814 308.931 166.917 308.922C167.029 308.903 167.108 308.885 167.155 308.866V302.72H168.457V309.79ZM171.918 302.72H174.676V303.812H171.918V307.172C171.918 307.536 171.946 307.839 172.002 308.082C172.058 308.315 172.142 308.502 172.254 308.642C172.366 308.773 172.506 308.866 172.674 308.922C172.842 308.978 173.038 309.006 173.262 309.006C173.654 309.006 173.967 308.964 174.2 308.88C174.443 308.787 174.611 308.721 174.704 308.684L174.956 309.762C174.825 309.827 174.597 309.907 174.27 310C173.943 310.103 173.57 310.154 173.15 310.154C172.655 310.154 172.245 310.093 171.918 309.972C171.601 309.841 171.344 309.65 171.148 309.398C170.952 309.146 170.812 308.838 170.728 308.474C170.653 308.101 170.616 307.671 170.616 307.186V300.69L171.918 300.466V302.72ZM180.875 303.042C181.034 302.939 181.272 302.832 181.589 302.72C181.916 302.608 182.289 302.552 182.709 302.552C183.232 302.552 183.694 302.645 184.095 302.832C184.506 303.019 184.851 303.28 185.131 303.616C185.411 303.952 185.621 304.353 185.761 304.82C185.91 305.287 185.985 305.8 185.985 306.36C185.985 306.948 185.896 307.48 185.719 307.956C185.551 308.423 185.308 308.819 184.991 309.146C184.674 309.473 184.291 309.725 183.843 309.902C183.395 310.079 182.891 310.168 182.331 310.168C181.724 310.168 181.188 310.126 180.721 310.042C180.254 309.958 179.872 309.874 179.573 309.79V299.36L180.875 299.136V303.042ZM180.875 308.866C181.006 308.903 181.188 308.941 181.421 308.978C181.664 309.006 181.962 309.02 182.317 309.02C183.017 309.02 183.577 308.791 183.997 308.334C184.417 307.867 184.627 307.209 184.627 306.36C184.627 305.987 184.59 305.637 184.515 305.31C184.44 304.983 184.319 304.703 184.151 304.47C183.983 304.227 183.764 304.041 183.493 303.91C183.232 303.77 182.914 303.7 182.541 303.7C182.186 303.7 181.86 303.761 181.561 303.882C181.262 304.003 181.034 304.129 180.875 304.26V308.866ZM186.786 311.358C186.888 311.405 187.019 311.447 187.178 311.484C187.346 311.531 187.509 311.554 187.668 311.554C188.181 311.554 188.582 311.437 188.872 311.204C189.161 310.98 189.422 310.611 189.656 310.098C189.068 308.978 188.517 307.793 188.004 306.542C187.5 305.282 187.08 304.008 186.744 302.72H188.144C188.246 303.14 188.368 303.593 188.508 304.078C188.657 304.563 188.82 305.063 188.998 305.576C189.175 306.089 189.366 306.603 189.572 307.116C189.777 307.629 189.992 308.124 190.216 308.6C190.57 307.62 190.878 306.649 191.14 305.688C191.401 304.727 191.648 303.737 191.882 302.72H193.226C192.89 304.092 192.516 305.413 192.106 306.682C191.695 307.942 191.252 309.123 190.776 310.224C190.589 310.644 190.393 311.003 190.188 311.302C189.992 311.61 189.772 311.862 189.53 312.058C189.287 312.254 189.012 312.399 188.704 312.492C188.405 312.585 188.064 312.632 187.682 312.632C187.579 312.632 187.472 312.623 187.36 312.604C187.248 312.595 187.136 312.576 187.024 312.548C186.921 312.529 186.823 312.506 186.73 312.478C186.646 312.45 186.585 312.427 186.548 312.408L186.786 311.358ZM200.681 299.136C201.007 299.136 201.287 299.159 201.521 299.206C201.754 299.243 201.922 299.281 202.025 299.318L201.843 300.438C201.74 300.401 201.6 300.363 201.423 300.326C201.245 300.279 201.031 300.256 200.779 300.256C200.172 300.256 199.747 300.424 199.505 300.76C199.262 301.087 199.141 301.53 199.141 302.09V302.72H201.941V303.812H199.141V310H197.839V302.062C197.839 301.129 198.067 300.41 198.525 299.906C198.982 299.393 199.701 299.136 200.681 299.136ZM204.601 310H203.299V302.72H204.601V310ZM203.943 301.404C203.709 301.404 203.509 301.329 203.341 301.18C203.182 301.021 203.103 300.811 203.103 300.55C203.103 300.289 203.182 300.083 203.341 299.934C203.509 299.775 203.709 299.696 203.943 299.696C204.176 299.696 204.372 299.775 204.531 299.934C204.699 300.083 204.783 300.289 204.783 300.55C204.783 300.811 204.699 301.021 204.531 301.18C204.372 301.329 204.176 301.404 203.943 301.404ZM209.019 310.14C208.216 310.121 207.647 309.949 207.311 309.622C206.975 309.295 206.807 308.787 206.807 308.096V299.36L208.109 299.136V307.886C208.109 308.101 208.128 308.278 208.165 308.418C208.202 308.558 208.263 308.67 208.347 308.754C208.431 308.838 208.543 308.903 208.683 308.95C208.823 308.987 208.996 309.02 209.201 309.048L209.019 310.14ZM212.847 310.14C212.044 310.121 211.475 309.949 211.139 309.622C210.803 309.295 210.635 308.787 210.635 308.096V299.36L211.937 299.136V307.886C211.937 308.101 211.956 308.278 211.993 308.418C212.03 308.558 212.091 308.67 212.175 308.754C212.259 308.838 212.371 308.903 212.511 308.95C212.651 308.987 212.824 309.02 213.029 309.048L212.847 310.14ZM215.793 310H214.491V302.72H215.793V310ZM215.135 301.404C214.902 301.404 214.701 301.329 214.533 301.18C214.374 301.021 214.295 300.811 214.295 300.55C214.295 300.289 214.374 300.083 214.533 299.934C214.701 299.775 214.902 299.696 215.135 299.696C215.368 299.696 215.564 299.775 215.723 299.934C215.891 300.083 215.975 300.289 215.975 300.55C215.975 300.811 215.891 301.021 215.723 301.18C215.564 301.329 215.368 301.404 215.135 301.404ZM218.032 302.93C218.331 302.855 218.727 302.776 219.222 302.692C219.717 302.608 220.286 302.566 220.93 302.566C221.509 302.566 221.989 302.65 222.372 302.818C222.755 302.977 223.058 303.205 223.282 303.504C223.515 303.793 223.679 304.143 223.772 304.554C223.865 304.965 223.912 305.417 223.912 305.912V310H222.61V306.192C222.61 305.744 222.577 305.361 222.512 305.044C222.456 304.727 222.358 304.47 222.218 304.274C222.078 304.078 221.891 303.938 221.658 303.854C221.425 303.761 221.135 303.714 220.79 303.714C220.65 303.714 220.505 303.719 220.356 303.728C220.207 303.737 220.062 303.751 219.922 303.77C219.791 303.779 219.67 303.793 219.558 303.812C219.455 303.831 219.381 303.845 219.334 303.854V310H218.032V302.93ZM230.635 309.272C230.523 309.347 230.304 309.445 229.977 309.566C229.66 309.678 229.287 309.734 228.857 309.734C228.419 309.734 228.003 309.664 227.611 309.524C227.229 309.384 226.893 309.169 226.603 308.88C226.314 308.581 226.085 308.213 225.917 307.774C225.749 307.335 225.665 306.813 225.665 306.206C225.665 305.674 225.745 305.189 225.903 304.75C226.062 304.302 226.291 303.919 226.589 303.602C226.897 303.275 227.271 303.023 227.709 302.846C228.148 302.659 228.643 302.566 229.193 302.566C229.8 302.566 230.327 302.613 230.775 302.706C231.233 302.79 231.615 302.869 231.923 302.944V309.44C231.923 310.56 231.634 311.372 231.055 311.876C230.477 312.38 229.599 312.632 228.423 312.632C227.966 312.632 227.532 312.595 227.121 312.52C226.72 312.445 226.37 312.357 226.071 312.254L226.309 311.12C226.571 311.223 226.888 311.311 227.261 311.386C227.644 311.47 228.041 311.512 228.451 311.512C229.226 311.512 229.781 311.358 230.117 311.05C230.463 310.742 230.635 310.252 230.635 309.58V309.272ZM230.621 303.868C230.491 303.831 230.313 303.798 230.089 303.77C229.875 303.733 229.581 303.714 229.207 303.714C228.507 303.714 227.966 303.943 227.583 304.4C227.21 304.857 227.023 305.464 227.023 306.22C227.023 306.64 227.075 306.999 227.177 307.298C227.289 307.597 227.434 307.844 227.611 308.04C227.798 308.236 228.008 308.381 228.241 308.474C228.484 308.567 228.731 308.614 228.983 308.614C229.329 308.614 229.646 308.567 229.935 308.474C230.225 308.371 230.453 308.255 230.621 308.124V303.868ZM238.707 310H237.405V302.72H238.707V310ZM238.049 301.404C237.816 301.404 237.615 301.329 237.447 301.18C237.288 301.021 237.209 300.811 237.209 300.55C237.209 300.289 237.288 300.083 237.447 299.934C237.615 299.775 237.816 299.696 238.049 299.696C238.282 299.696 238.478 299.775 238.637 299.934C238.805 300.083 238.889 300.289 238.889 300.55C238.889 300.811 238.805 301.021 238.637 301.18C238.478 301.329 238.282 301.404 238.049 301.404ZM240.946 302.93C241.245 302.855 241.642 302.776 242.136 302.692C242.631 302.608 243.2 302.566 243.844 302.566C244.423 302.566 244.904 302.65 245.286 302.818C245.669 302.977 245.972 303.205 246.196 303.504C246.43 303.793 246.593 304.143 246.686 304.554C246.78 304.965 246.826 305.417 246.826 305.912V310H245.524V306.192C245.524 305.744 245.492 305.361 245.426 305.044C245.37 304.727 245.272 304.47 245.132 304.274C244.992 304.078 244.806 303.938 244.572 303.854C244.339 303.761 244.05 303.714 243.704 303.714C243.564 303.714 243.42 303.719 243.27 303.728C243.121 303.737 242.976 303.751 242.836 303.77C242.706 303.779 242.584 303.793 242.472 303.812C242.37 303.831 242.295 303.845 242.248 303.854V310H240.946V302.93ZM253.443 302.72H256.201V303.812H253.443V307.172C253.443 307.536 253.471 307.839 253.527 308.082C253.583 308.315 253.667 308.502 253.779 308.642C253.891 308.773 254.031 308.866 254.199 308.922C254.367 308.978 254.563 309.006 254.787 309.006C255.179 309.006 255.492 308.964 255.725 308.88C255.968 308.787 256.136 308.721 256.229 308.684L256.481 309.762C256.351 309.827 256.122 309.907 255.795 310C255.469 310.103 255.095 310.154 254.675 310.154C254.181 310.154 253.77 310.093 253.443 309.972C253.126 309.841 252.869 309.65 252.673 309.398C252.477 309.146 252.337 308.838 252.253 308.474C252.179 308.101 252.141 307.671 252.141 307.186V300.69L253.443 300.466V302.72ZM257.858 310V299.36L259.16 299.136V302.86C259.403 302.767 259.66 302.697 259.93 302.65C260.21 302.594 260.486 302.566 260.756 302.566C261.335 302.566 261.816 302.65 262.198 302.818C262.581 302.977 262.884 303.205 263.108 303.504C263.342 303.793 263.505 304.143 263.598 304.554C263.692 304.965 263.738 305.417 263.738 305.912V310H262.436V306.192C262.436 305.744 262.404 305.361 262.338 305.044C262.282 304.727 262.184 304.47 262.044 304.274C261.904 304.078 261.718 303.938 261.484 303.854C261.251 303.761 260.962 303.714 260.616 303.714C260.476 303.714 260.332 303.723 260.182 303.742C260.033 303.761 259.888 303.784 259.748 303.812C259.618 303.831 259.496 303.854 259.384 303.882C259.282 303.91 259.207 303.933 259.16 303.952V310H257.858ZM265.45 306.374C265.45 305.73 265.544 305.17 265.73 304.694C265.917 304.209 266.164 303.807 266.472 303.49C266.78 303.173 267.135 302.935 267.536 302.776C267.938 302.617 268.348 302.538 268.768 302.538C269.748 302.538 270.5 302.846 271.022 303.462C271.545 304.069 271.806 304.997 271.806 306.248C271.806 306.304 271.806 306.379 271.806 306.472C271.806 306.556 271.802 306.635 271.792 306.71H266.808C266.864 307.466 267.084 308.04 267.466 308.432C267.849 308.824 268.446 309.02 269.258 309.02C269.716 309.02 270.098 308.983 270.406 308.908C270.724 308.824 270.962 308.745 271.12 308.67L271.302 309.762C271.144 309.846 270.864 309.935 270.462 310.028C270.07 310.121 269.622 310.168 269.118 310.168C268.484 310.168 267.933 310.075 267.466 309.888C267.009 309.692 266.631 309.426 266.332 309.09C266.034 308.754 265.81 308.357 265.66 307.9C265.52 307.433 265.45 306.925 265.45 306.374ZM270.448 305.66C270.458 305.072 270.308 304.591 270 304.218C269.702 303.835 269.286 303.644 268.754 303.644C268.456 303.644 268.19 303.705 267.956 303.826C267.732 303.938 267.541 304.087 267.382 304.274C267.224 304.461 267.098 304.675 267.004 304.918C266.92 305.161 266.864 305.408 266.836 305.66H270.448ZM66.174 322.374C66.174 321.525 65.964 320.871 65.544 320.414C65.124 319.957 64.564 319.728 63.864 319.728C63.472 319.728 63.164 319.742 62.94 319.77C62.7253 319.798 62.5527 319.831 62.422 319.868V324.46C62.5807 324.591 62.8093 324.717 63.108 324.838C63.4067 324.959 63.7333 325.02 64.088 325.02C64.4613 325.02 64.7787 324.955 65.04 324.824C65.3107 324.684 65.53 324.497 65.698 324.264C65.866 324.021 65.9873 323.741 66.062 323.424C66.1367 323.097 66.174 322.747 66.174 322.374ZM67.532 322.374C67.532 322.925 67.4573 323.433 67.308 323.9C67.168 324.367 66.958 324.768 66.678 325.104C66.398 325.44 66.0527 325.701 65.642 325.888C65.2407 326.075 64.7787 326.168 64.256 326.168C63.836 326.168 63.4627 326.112 63.136 326C62.8187 325.888 62.5807 325.781 62.422 325.678V328.59H61.12V318.944C61.428 318.869 61.8107 318.79 62.268 318.706C62.7347 318.613 63.2713 318.566 63.878 318.566C64.438 318.566 64.942 318.655 65.39 318.832C65.838 319.009 66.2207 319.261 66.538 319.588C66.8553 319.915 67.098 320.316 67.266 320.792C67.4433 321.259 67.532 321.786 67.532 322.374ZM72.0521 318.566C72.1641 318.566 72.2901 318.575 72.4301 318.594C72.5795 318.603 72.7241 318.622 72.8641 318.65C73.0041 318.669 73.1301 318.692 73.2421 318.72C73.3635 318.739 73.4521 318.757 73.5081 318.776L73.2841 319.91C73.1815 319.873 73.0088 319.831 72.7661 319.784C72.5328 319.728 72.2295 319.7 71.8561 319.7C71.6135 319.7 71.3708 319.728 71.1281 319.784C70.8948 319.831 70.7408 319.863 70.6661 319.882V326H69.3641V319.028C69.6721 318.916 70.0548 318.813 70.5121 318.72C70.9695 318.617 71.4828 318.566 72.0521 318.566ZM81.1905 322.36C81.1905 322.939 81.1065 323.461 80.9385 323.928C80.7705 324.395 80.5325 324.796 80.2245 325.132C79.9259 325.468 79.5665 325.729 79.1465 325.916C78.7265 326.093 78.2692 326.182 77.7745 326.182C77.2799 326.182 76.8225 326.093 76.4025 325.916C75.9825 325.729 75.6185 325.468 75.3105 325.132C75.0119 324.796 74.7785 324.395 74.6105 323.928C74.4425 323.461 74.3585 322.939 74.3585 322.36C74.3585 321.791 74.4425 321.273 74.6105 320.806C74.7785 320.33 75.0119 319.924 75.3105 319.588C75.6185 319.252 75.9825 318.995 76.4025 318.818C76.8225 318.631 77.2799 318.538 77.7745 318.538C78.2692 318.538 78.7265 318.631 79.1465 318.818C79.5665 318.995 79.9259 319.252 80.2245 319.588C80.5325 319.924 80.7705 320.33 80.9385 320.806C81.1065 321.273 81.1905 321.791 81.1905 322.36ZM79.8325 322.36C79.8325 321.539 79.6459 320.89 79.2725 320.414C78.9085 319.929 78.4092 319.686 77.7745 319.686C77.1399 319.686 76.6359 319.929 76.2625 320.414C75.8985 320.89 75.7165 321.539 75.7165 322.36C75.7165 323.181 75.8985 323.835 76.2625 324.32C76.6359 324.796 77.1399 325.034 77.7745 325.034C78.4092 325.034 78.9085 324.796 79.2725 324.32C79.6459 323.835 79.8325 323.181 79.8325 322.36ZM88.5149 318.72C88.1509 320.083 87.7216 321.389 87.2269 322.64C86.7416 323.891 86.2703 325.011 85.8129 326H84.6369C84.1796 325.011 83.7036 323.891 83.2089 322.64C82.7236 321.389 82.2989 320.083 81.9349 318.72H83.3349C83.4469 319.177 83.5776 319.667 83.7269 320.19C83.8856 320.703 84.0489 321.217 84.2169 321.73C84.3943 322.234 84.5716 322.724 84.7489 323.2C84.9263 323.676 85.0943 324.101 85.2529 324.474C85.4116 324.101 85.5796 323.676 85.7569 323.2C85.9343 322.724 86.1069 322.234 86.2749 321.73C86.4523 321.217 86.6156 320.703 86.7649 320.19C86.9236 319.667 87.0589 319.177 87.1709 318.72H88.5149ZM91.1603 326H89.8583V318.72H91.1603V326ZM90.5023 317.404C90.2689 317.404 90.0683 317.329 89.9003 317.18C89.7416 317.021 89.6623 316.811 89.6623 316.55C89.6623 316.289 89.7416 316.083 89.9003 315.934C90.0683 315.775 90.2689 315.696 90.5023 315.696C90.7356 315.696 90.9316 315.775 91.0903 315.934C91.2583 316.083 91.3423 316.289 91.3423 316.55C91.3423 316.811 91.2583 317.021 91.0903 317.18C90.9316 317.329 90.7356 317.404 90.5023 317.404ZM98.1033 320.26C97.9446 320.129 97.716 320.003 97.4173 319.882C97.1186 319.761 96.792 319.7 96.4373 319.7C96.064 319.7 95.742 319.77 95.4713 319.91C95.21 320.041 94.9953 320.227 94.8273 320.47C94.6593 320.703 94.538 320.983 94.4633 321.31C94.3886 321.637 94.3513 321.987 94.3513 322.36C94.3513 323.209 94.5613 323.867 94.9813 324.334C95.4013 324.791 95.9613 325.02 96.6613 325.02C97.016 325.02 97.31 325.006 97.5433 324.978C97.786 324.941 97.9726 324.903 98.1033 324.866V320.26ZM98.1033 315.36L99.4053 315.136V325.79C99.1066 325.874 98.724 325.958 98.2573 326.042C97.7906 326.126 97.254 326.168 96.6473 326.168C96.0873 326.168 95.5833 326.079 95.1353 325.902C94.6873 325.725 94.3046 325.473 93.9873 325.146C93.67 324.819 93.4226 324.423 93.2453 323.956C93.0773 323.48 92.9933 322.948 92.9933 322.36C92.9933 321.8 93.0633 321.287 93.2033 320.82C93.3526 320.353 93.5673 319.952 93.8473 319.616C94.1273 319.28 94.468 319.019 94.8693 318.832C95.28 318.645 95.7466 318.552 96.2693 318.552C96.6893 318.552 97.058 318.608 97.3753 318.72C97.702 318.832 97.9446 318.939 98.1033 319.042V315.36ZM101.237 322.374C101.237 321.73 101.331 321.17 101.517 320.694C101.704 320.209 101.951 319.807 102.259 319.49C102.567 319.173 102.922 318.935 103.323 318.776C103.725 318.617 104.135 318.538 104.555 318.538C105.535 318.538 106.287 318.846 106.809 319.462C107.332 320.069 107.593 320.997 107.593 322.248C107.593 322.304 107.593 322.379 107.593 322.472C107.593 322.556 107.589 322.635 107.579 322.71H102.595C102.651 323.466 102.871 324.04 103.253 324.432C103.636 324.824 104.233 325.02 105.045 325.02C105.503 325.02 105.885 324.983 106.193 324.908C106.511 324.824 106.749 324.745 106.907 324.67L107.089 325.762C106.931 325.846 106.651 325.935 106.249 326.028C105.857 326.121 105.409 326.168 104.905 326.168C104.271 326.168 103.72 326.075 103.253 325.888C102.796 325.692 102.418 325.426 102.119 325.09C101.821 324.754 101.597 324.357 101.447 323.9C101.307 323.433 101.237 322.925 101.237 322.374ZM106.235 321.66C106.245 321.072 106.095 320.591 105.787 320.218C105.489 319.835 105.073 319.644 104.541 319.644C104.243 319.644 103.977 319.705 103.743 319.826C103.519 319.938 103.328 320.087 103.169 320.274C103.011 320.461 102.885 320.675 102.791 320.918C102.707 321.161 102.651 321.408 102.623 321.66H106.235ZM114.168 320.26C114.009 320.129 113.78 320.003 113.482 319.882C113.183 319.761 112.856 319.7 112.502 319.7C112.128 319.7 111.806 319.77 111.536 319.91C111.274 320.041 111.06 320.227 110.892 320.47C110.724 320.703 110.602 320.983 110.528 321.31C110.453 321.637 110.416 321.987 110.416 322.36C110.416 323.209 110.626 323.867 111.046 324.334C111.466 324.791 112.026 325.02 112.726 325.02C113.08 325.02 113.374 325.006 113.608 324.978C113.85 324.941 114.037 324.903 114.168 324.866V320.26ZM114.168 315.36L115.47 315.136V325.79C115.171 325.874 114.788 325.958 114.322 326.042C113.855 326.126 113.318 326.168 112.712 326.168C112.152 326.168 111.648 326.079 111.2 325.902C110.752 325.725 110.369 325.473 110.052 325.146C109.734 324.819 109.487 324.423 109.31 323.956C109.142 323.48 109.058 322.948 109.058 322.36C109.058 321.8 109.128 321.287 109.268 320.82C109.417 320.353 109.632 319.952 109.912 319.616C110.192 319.28 110.532 319.019 110.934 318.832C111.344 318.645 111.811 318.552 112.334 318.552C112.754 318.552 113.122 318.608 113.44 318.72C113.766 318.832 114.009 318.939 114.168 319.042V315.36ZM123.79 315.136C124.117 315.136 124.397 315.159 124.63 315.206C124.863 315.243 125.031 315.281 125.134 315.318L124.952 316.438C124.849 316.401 124.709 316.363 124.532 316.326C124.355 316.279 124.14 316.256 123.888 316.256C123.281 316.256 122.857 316.424 122.614 316.76C122.371 317.087 122.25 317.53 122.25 318.09V318.72H125.05V319.812H122.25V326H120.948V318.062C120.948 317.129 121.177 316.41 121.634 315.906C122.091 315.393 122.81 315.136 123.79 315.136ZM127.71 326H126.408V318.72H127.71V326ZM127.052 317.404C126.819 317.404 126.618 317.329 126.45 317.18C126.291 317.021 126.212 316.811 126.212 316.55C126.212 316.289 126.291 316.083 126.45 315.934C126.618 315.775 126.819 315.696 127.052 315.696C127.285 315.696 127.481 315.775 127.64 315.934C127.808 316.083 127.892 316.289 127.892 316.55C127.892 316.811 127.808 317.021 127.64 317.18C127.481 317.329 127.285 317.404 127.052 317.404ZM129.538 322.374C129.538 321.73 129.632 321.17 129.818 320.694C130.005 320.209 130.252 319.807 130.56 319.49C130.868 319.173 131.223 318.935 131.624 318.776C132.026 318.617 132.436 318.538 132.856 318.538C133.836 318.538 134.588 318.846 135.11 319.462C135.633 320.069 135.894 320.997 135.894 322.248C135.894 322.304 135.894 322.379 135.894 322.472C135.894 322.556 135.89 322.635 135.88 322.71H130.896C130.952 323.466 131.172 324.04 131.554 324.432C131.937 324.824 132.534 325.02 133.346 325.02C133.804 325.02 134.186 324.983 134.494 324.908C134.812 324.824 135.05 324.745 135.208 324.67L135.39 325.762C135.232 325.846 134.952 325.935 134.55 326.028C134.158 326.121 133.71 326.168 133.206 326.168C132.572 326.168 132.021 326.075 131.554 325.888C131.097 325.692 130.719 325.426 130.42 325.09C130.122 324.754 129.898 324.357 129.748 323.9C129.608 323.433 129.538 322.925 129.538 322.374ZM134.536 321.66C134.546 321.072 134.396 320.591 134.088 320.218C133.79 319.835 133.374 319.644 132.842 319.644C132.544 319.644 132.278 319.705 132.044 319.826C131.82 319.938 131.629 320.087 131.47 320.274C131.312 320.461 131.186 320.675 131.092 320.918C131.008 321.161 130.952 321.408 130.924 321.66H134.536ZM139.949 326.14C139.146 326.121 138.577 325.949 138.241 325.622C137.905 325.295 137.737 324.787 137.737 324.096V315.36L139.039 315.136V323.886C139.039 324.101 139.057 324.278 139.095 324.418C139.132 324.558 139.193 324.67 139.277 324.754C139.361 324.838 139.473 324.903 139.613 324.95C139.753 324.987 139.925 325.02 140.131 325.048L139.949 326.14ZM146.297 320.26C146.138 320.129 145.909 320.003 145.611 319.882C145.312 319.761 144.985 319.7 144.631 319.7C144.257 319.7 143.935 319.77 143.665 319.91C143.403 320.041 143.189 320.227 143.021 320.47C142.853 320.703 142.731 320.983 142.657 321.31C142.582 321.637 142.545 321.987 142.545 322.36C142.545 323.209 142.755 323.867 143.175 324.334C143.595 324.791 144.155 325.02 144.855 325.02C145.209 325.02 145.503 325.006 145.737 324.978C145.979 324.941 146.166 324.903 146.297 324.866V320.26ZM146.297 315.36L147.599 315.136V325.79C147.3 325.874 146.917 325.958 146.451 326.042C145.984 326.126 145.447 326.168 144.841 326.168C144.281 326.168 143.777 326.079 143.329 325.902C142.881 325.725 142.498 325.473 142.181 325.146C141.863 324.819 141.616 324.423 141.439 323.956C141.271 323.48 141.187 322.948 141.187 322.36C141.187 321.8 141.257 321.287 141.397 320.82C141.546 320.353 141.761 319.952 142.041 319.616C142.321 319.28 142.661 319.019 143.063 318.832C143.473 318.645 143.94 318.552 144.463 318.552C144.883 318.552 145.251 318.608 145.569 318.72C145.895 318.832 146.138 318.939 146.297 319.042V315.36ZM151.531 325.062C152.063 325.062 152.455 324.992 152.707 324.852C152.968 324.712 153.099 324.488 153.099 324.18C153.099 323.863 152.973 323.611 152.721 323.424C152.469 323.237 152.053 323.027 151.475 322.794C151.195 322.682 150.924 322.57 150.663 322.458C150.411 322.337 150.191 322.197 150.005 322.038C149.818 321.879 149.669 321.688 149.557 321.464C149.445 321.24 149.389 320.965 149.389 320.638C149.389 319.994 149.627 319.485 150.103 319.112C150.579 318.729 151.227 318.538 152.049 318.538C152.254 318.538 152.459 318.552 152.665 318.58C152.87 318.599 153.061 318.627 153.239 318.664C153.416 318.692 153.57 318.725 153.701 318.762C153.841 318.799 153.948 318.832 154.023 318.86L153.785 319.98C153.645 319.905 153.425 319.831 153.127 319.756C152.828 319.672 152.469 319.63 152.049 319.63C151.685 319.63 151.367 319.705 151.097 319.854C150.826 319.994 150.691 320.218 150.691 320.526C150.691 320.685 150.719 320.825 150.775 320.946C150.84 321.067 150.933 321.179 151.055 321.282C151.185 321.375 151.344 321.464 151.531 321.548C151.717 321.632 151.941 321.721 152.203 321.814C152.548 321.945 152.856 322.075 153.127 322.206C153.397 322.327 153.626 322.472 153.813 322.64C154.009 322.808 154.158 323.013 154.261 323.256C154.363 323.489 154.415 323.779 154.415 324.124C154.415 324.796 154.163 325.305 153.659 325.65C153.164 325.995 152.455 326.168 151.531 326.168C150.887 326.168 150.383 326.112 150.019 326C149.655 325.897 149.407 325.818 149.277 325.762L149.515 324.642C149.664 324.698 149.902 324.782 150.229 324.894C150.555 325.006 150.989 325.062 151.531 325.062ZM160.543 318.72H163.301V319.812H160.543V323.172C160.543 323.536 160.571 323.839 160.627 324.082C160.683 324.315 160.767 324.502 160.879 324.642C160.991 324.773 161.131 324.866 161.299 324.922C161.467 324.978 161.663 325.006 161.887 325.006C162.279 325.006 162.592 324.964 162.825 324.88C163.068 324.787 163.236 324.721 163.329 324.684L163.581 325.762C163.45 325.827 163.222 325.907 162.895 326C162.568 326.103 162.195 326.154 161.775 326.154C161.28 326.154 160.87 326.093 160.543 325.972C160.226 325.841 159.969 325.65 159.773 325.398C159.577 325.146 159.437 324.838 159.353 324.474C159.278 324.101 159.241 323.671 159.241 323.186V316.69L160.543 316.466V318.72ZM171.192 322.36C171.192 322.939 171.108 323.461 170.94 323.928C170.772 324.395 170.534 324.796 170.226 325.132C169.928 325.468 169.568 325.729 169.148 325.916C168.728 326.093 168.271 326.182 167.776 326.182C167.282 326.182 166.824 326.093 166.404 325.916C165.984 325.729 165.62 325.468 165.312 325.132C165.014 324.796 164.78 324.395 164.612 323.928C164.444 323.461 164.36 322.939 164.36 322.36C164.36 321.791 164.444 321.273 164.612 320.806C164.78 320.33 165.014 319.924 165.312 319.588C165.62 319.252 165.984 318.995 166.404 318.818C166.824 318.631 167.282 318.538 167.776 318.538C168.271 318.538 168.728 318.631 169.148 318.818C169.568 318.995 169.928 319.252 170.226 319.588C170.534 319.924 170.772 320.33 170.94 320.806C171.108 321.273 171.192 321.791 171.192 322.36ZM169.834 322.36C169.834 321.539 169.648 320.89 169.274 320.414C168.91 319.929 168.411 319.686 167.776 319.686C167.142 319.686 166.638 319.929 166.264 320.414C165.9 320.89 165.718 321.539 165.718 322.36C165.718 323.181 165.9 323.835 166.264 324.32C166.638 324.796 167.142 325.034 167.776 325.034C168.411 325.034 168.91 324.796 169.274 324.32C169.648 323.835 169.834 323.181 169.834 322.36ZM178.729 325.062C179.037 325.062 179.307 325.057 179.541 325.048C179.783 325.029 179.984 325.001 180.143 324.964V322.794C180.049 322.747 179.895 322.71 179.681 322.682C179.475 322.645 179.223 322.626 178.925 322.626C178.729 322.626 178.519 322.64 178.295 322.668C178.08 322.696 177.879 322.757 177.693 322.85C177.515 322.934 177.366 323.055 177.245 323.214C177.123 323.363 177.063 323.564 177.063 323.816C177.063 324.283 177.212 324.609 177.511 324.796C177.809 324.973 178.215 325.062 178.729 325.062ZM178.617 318.538C179.139 318.538 179.578 318.608 179.933 318.748C180.297 318.879 180.586 319.07 180.801 319.322C181.025 319.565 181.183 319.859 181.277 320.204C181.37 320.54 181.417 320.913 181.417 321.324V325.874C181.305 325.893 181.146 325.921 180.941 325.958C180.745 325.986 180.521 326.014 180.269 326.042C180.017 326.07 179.741 326.093 179.443 326.112C179.153 326.14 178.864 326.154 178.575 326.154C178.164 326.154 177.786 326.112 177.441 326.028C177.095 325.944 176.797 325.813 176.545 325.636C176.293 325.449 176.097 325.207 175.957 324.908C175.817 324.609 175.747 324.25 175.747 323.83C175.747 323.429 175.826 323.083 175.985 322.794C176.153 322.505 176.377 322.271 176.657 322.094C176.937 321.917 177.263 321.786 177.637 321.702C178.01 321.618 178.402 321.576 178.813 321.576C178.943 321.576 179.079 321.585 179.219 321.604C179.359 321.613 179.489 321.632 179.611 321.66C179.741 321.679 179.853 321.697 179.947 321.716C180.04 321.735 180.105 321.749 180.143 321.758V321.394C180.143 321.179 180.119 320.969 180.073 320.764C180.026 320.549 179.942 320.363 179.821 320.204C179.699 320.036 179.531 319.905 179.317 319.812C179.111 319.709 178.841 319.658 178.505 319.658C178.075 319.658 177.697 319.691 177.371 319.756C177.053 319.812 176.815 319.873 176.657 319.938L176.503 318.86C176.671 318.785 176.951 318.715 177.343 318.65C177.735 318.575 178.159 318.538 178.617 318.538ZM188.283 320.26C188.124 320.129 187.896 320.003 187.597 319.882C187.298 319.761 186.972 319.7 186.617 319.7C186.244 319.7 185.922 319.77 185.651 319.91C185.39 320.041 185.175 320.227 185.007 320.47C184.839 320.703 184.718 320.983 184.643 321.31C184.568 321.637 184.531 321.987 184.531 322.36C184.531 323.209 184.741 323.867 185.161 324.334C185.581 324.791 186.141 325.02 186.841 325.02C187.196 325.02 187.49 325.006 187.723 324.978C187.966 324.941 188.152 324.903 188.283 324.866V320.26ZM188.283 315.36L189.585 315.136V325.79C189.286 325.874 188.904 325.958 188.437 326.042C187.97 326.126 187.434 326.168 186.827 326.168C186.267 326.168 185.763 326.079 185.315 325.902C184.867 325.725 184.484 325.473 184.167 325.146C183.85 324.819 183.602 324.423 183.425 323.956C183.257 323.48 183.173 322.948 183.173 322.36C183.173 321.8 183.243 321.287 183.383 320.82C183.532 320.353 183.747 319.952 184.027 319.616C184.307 319.28 184.648 319.019 185.049 318.832C185.46 318.645 185.926 318.552 186.449 318.552C186.869 318.552 187.238 318.608 187.555 318.72C187.882 318.832 188.124 318.939 188.283 319.042V315.36ZM196.527 320.26C196.368 320.129 196.14 320.003 195.841 319.882C195.542 319.761 195.216 319.7 194.861 319.7C194.488 319.7 194.166 319.77 193.895 319.91C193.634 320.041 193.419 320.227 193.251 320.47C193.083 320.703 192.962 320.983 192.887 321.31C192.812 321.637 192.775 321.987 192.775 322.36C192.775 323.209 192.985 323.867 193.405 324.334C193.825 324.791 194.385 325.02 195.085 325.02C195.44 325.02 195.734 325.006 195.967 324.978C196.21 324.941 196.396 324.903 196.527 324.866V320.26ZM196.527 315.36L197.829 315.136V325.79C197.53 325.874 197.148 325.958 196.681 326.042C196.214 326.126 195.678 326.168 195.071 326.168C194.511 326.168 194.007 326.079 193.559 325.902C193.111 325.725 192.728 325.473 192.411 325.146C192.094 324.819 191.846 324.423 191.669 323.956C191.501 323.48 191.417 322.948 191.417 322.36C191.417 321.8 191.487 321.287 191.627 320.82C191.776 320.353 191.991 319.952 192.271 319.616C192.551 319.28 192.892 319.019 193.293 318.832C193.704 318.645 194.17 318.552 194.693 318.552C195.113 318.552 195.482 318.608 195.799 318.72C196.126 318.832 196.368 318.939 196.527 319.042V315.36ZM208.012 320.26C207.853 320.129 207.624 320.003 207.326 319.882C207.027 319.761 206.7 319.7 206.346 319.7C205.972 319.7 205.65 319.77 205.38 319.91C205.118 320.041 204.904 320.227 204.736 320.47C204.568 320.703 204.446 320.983 204.372 321.31C204.297 321.637 204.26 321.987 204.26 322.36C204.26 323.209 204.47 323.867 204.89 324.334C205.31 324.791 205.87 325.02 206.57 325.02C206.924 325.02 207.218 325.006 207.452 324.978C207.694 324.941 207.881 324.903 208.012 324.866V320.26ZM208.012 315.36L209.314 315.136V325.79C209.015 325.874 208.632 325.958 208.166 326.042C207.699 326.126 207.162 326.168 206.556 326.168C205.996 326.168 205.492 326.079 205.044 325.902C204.596 325.725 204.213 325.473 203.896 325.146C203.578 324.819 203.331 324.423 203.154 323.956C202.986 323.48 202.902 322.948 202.902 322.36C202.902 321.8 202.972 321.287 203.111 320.82C203.261 320.353 203.476 319.952 203.756 319.616C204.036 319.28 204.376 319.019 204.778 318.832C205.188 318.645 205.655 318.552 206.178 318.552C206.598 318.552 206.966 318.608 207.284 318.72C207.61 318.832 207.853 318.939 208.012 319.042V315.36ZM214.016 325.062C214.324 325.062 214.594 325.057 214.828 325.048C215.07 325.029 215.271 325.001 215.43 324.964V322.794C215.336 322.747 215.182 322.71 214.968 322.682C214.762 322.645 214.51 322.626 214.212 322.626C214.016 322.626 213.806 322.64 213.582 322.668C213.367 322.696 213.166 322.757 212.98 322.85C212.802 322.934 212.653 323.055 212.532 323.214C212.41 323.363 212.35 323.564 212.35 323.816C212.35 324.283 212.499 324.609 212.798 324.796C213.096 324.973 213.502 325.062 214.016 325.062ZM213.904 318.538C214.426 318.538 214.865 318.608 215.22 318.748C215.584 318.879 215.873 319.07 216.088 319.322C216.312 319.565 216.47 319.859 216.564 320.204C216.657 320.54 216.704 320.913 216.704 321.324V325.874C216.592 325.893 216.433 325.921 216.228 325.958C216.032 325.986 215.808 326.014 215.556 326.042C215.304 326.07 215.028 326.093 214.73 326.112C214.44 326.14 214.151 326.154 213.862 326.154C213.451 326.154 213.073 326.112 212.728 326.028C212.382 325.944 212.084 325.813 211.832 325.636C211.58 325.449 211.384 325.207 211.244 324.908C211.104 324.609 211.034 324.25 211.034 323.83C211.034 323.429 211.113 323.083 211.272 322.794C211.44 322.505 211.664 322.271 211.944 322.094C212.224 321.917 212.55 321.786 212.924 321.702C213.297 321.618 213.689 321.576 214.1 321.576C214.23 321.576 214.366 321.585 214.506 321.604C214.646 321.613 214.776 321.632 214.898 321.66C215.028 321.679 215.14 321.697 215.234 321.716C215.327 321.735 215.392 321.749 215.43 321.758V321.394C215.43 321.179 215.406 320.969 215.36 320.764C215.313 320.549 215.229 320.363 215.108 320.204C214.986 320.036 214.818 319.905 214.604 319.812C214.398 319.709 214.128 319.658 213.792 319.658C213.362 319.658 212.984 319.691 212.658 319.756C212.34 319.812 212.102 319.873 211.944 319.938L211.79 318.86C211.958 318.785 212.238 318.715 212.63 318.65C213.022 318.575 213.446 318.538 213.904 318.538ZM220.084 318.72H222.842V319.812H220.084V323.172C220.084 323.536 220.112 323.839 220.168 324.082C220.224 324.315 220.308 324.502 220.42 324.642C220.532 324.773 220.672 324.866 220.84 324.922C221.008 324.978 221.204 325.006 221.428 325.006C221.82 325.006 222.133 324.964 222.366 324.88C222.609 324.787 222.777 324.721 222.87 324.684L223.122 325.762C222.991 325.827 222.763 325.907 222.436 326C222.109 326.103 221.736 326.154 221.316 326.154C220.821 326.154 220.411 326.093 220.084 325.972C219.767 325.841 219.51 325.65 219.314 325.398C219.118 325.146 218.978 324.838 218.894 324.474C218.819 324.101 218.782 323.671 218.782 323.186V316.69L220.084 316.466V318.72ZM226.963 325.062C227.271 325.062 227.542 325.057 227.775 325.048C228.018 325.029 228.218 325.001 228.377 324.964V322.794C228.284 322.747 228.13 322.71 227.915 322.682C227.71 322.645 227.458 322.626 227.159 322.626C226.963 322.626 226.753 322.64 226.529 322.668C226.314 322.696 226.114 322.757 225.927 322.85C225.75 322.934 225.6 323.055 225.479 323.214C225.358 323.363 225.297 323.564 225.297 323.816C225.297 324.283 225.446 324.609 225.745 324.796C226.044 324.973 226.45 325.062 226.963 325.062ZM226.851 318.538C227.374 318.538 227.812 318.608 228.167 318.748C228.531 318.879 228.82 319.07 229.035 319.322C229.259 319.565 229.418 319.859 229.511 320.204C229.604 320.54 229.651 320.913 229.651 321.324V325.874C229.539 325.893 229.38 325.921 229.175 325.958C228.979 325.986 228.755 326.014 228.503 326.042C228.251 326.07 227.976 326.093 227.677 326.112C227.388 326.14 227.098 326.154 226.809 326.154C226.398 326.154 226.02 326.112 225.675 326.028C225.33 325.944 225.031 325.813 224.779 325.636C224.527 325.449 224.331 325.207 224.191 324.908C224.051 324.609 223.981 324.25 223.981 323.83C223.981 323.429 224.06 323.083 224.219 322.794C224.387 322.505 224.611 322.271 224.891 322.094C225.171 321.917 225.498 321.786 225.871 321.702C226.244 321.618 226.636 321.576 227.047 321.576C227.178 321.576 227.313 321.585 227.453 321.604C227.593 321.613 227.724 321.632 227.845 321.66C227.976 321.679 228.088 321.697 228.181 321.716C228.274 321.735 228.34 321.749 228.377 321.758V321.394C228.377 321.179 228.354 320.969 228.307 320.764C228.26 320.549 228.176 320.363 228.055 320.204C227.934 320.036 227.766 319.905 227.551 319.812C227.346 319.709 227.075 319.658 226.739 319.658C226.31 319.658 225.932 319.691 225.605 319.756C225.288 319.812 225.05 319.873 224.891 319.938L224.737 318.86C224.905 318.785 225.185 318.715 225.577 318.65C225.969 318.575 226.394 318.538 226.851 318.538ZM233.353 325.244C233.353 325.496 233.269 325.715 233.101 325.902C232.933 326.089 232.705 326.182 232.415 326.182C232.126 326.182 231.897 326.089 231.729 325.902C231.561 325.715 231.477 325.496 231.477 325.244C231.477 324.992 231.561 324.773 231.729 324.586C231.897 324.399 232.126 324.306 232.415 324.306C232.705 324.306 232.933 324.399 233.101 324.586C233.269 324.773 233.353 324.992 233.353 325.244Z" fill="white"/>
<path opacity="0.2" fill-rule="evenodd" clip-rule="evenodd" d="M134 285.499C134 285.665 134 285.832 133.999 285.999H111.349C111.35 285.832 111.351 285.665 111.351 285.498C111.351 251.506 83.9289 223.919 50 223.65V201C96.438 201.269 134 238.997 134 285.499Z" fill="white"/>
<path opacity="0.2" fill-rule="evenodd" clip-rule="evenodd" d="M298 211.92C287.981 213.94 277.614 215 267 215C180.844 215 111 145.156 111 59C111 47.6778 112.206 36.6373 114.497 26H181.348C177.4 36.2406 175.235 47.3676 175.235 59C175.235 109.68 216.32 150.765 267 150.765C277.879 150.765 288.317 148.871 298 145.396V211.92Z" fill="white"/>
<path d="M65.808 258.754C66.072 259.238 66.3727 259.839 66.71 260.558C67.062 261.262 67.4213 262.032 67.788 262.868C68.1693 263.689 68.5433 264.533 68.91 265.398C69.2767 266.263 69.6213 267.077 69.944 267.84C70.2667 267.077 70.6113 266.263 70.978 265.398C71.3447 264.533 71.7113 263.689 72.078 262.868C72.4593 262.032 72.8187 261.262 73.156 260.558C73.508 259.839 73.816 259.238 74.08 258.754H77.204C77.3507 259.766 77.4827 260.903 77.6 262.164C77.732 263.411 77.842 264.716 77.93 266.08C78.0327 267.429 78.1207 268.786 78.194 270.15C78.282 271.514 78.3553 272.797 78.414 274H75.07C75.026 272.519 74.9673 270.905 74.894 269.16C74.8207 267.415 74.7107 265.655 74.564 263.88C74.3 264.496 74.0067 265.178 73.684 265.926C73.3613 266.674 73.0387 267.422 72.716 268.17C72.408 268.918 72.1073 269.637 71.814 270.326C71.5207 271.001 71.2713 271.58 71.066 272.064H68.668C68.4627 271.58 68.2133 271.001 67.92 270.326C67.6267 269.637 67.3187 268.918 66.996 268.17C66.688 267.422 66.3727 266.674 66.05 265.926C65.7273 265.178 65.434 264.496 65.17 263.88C65.0233 265.655 64.9133 267.415 64.84 269.16C64.7667 270.905 64.708 272.519 64.664 274H61.32C61.3787 272.797 61.4447 271.514 61.518 270.15C61.606 268.786 61.694 267.429 61.782 266.08C61.8847 264.716 61.9947 263.411 62.112 262.164C62.244 260.903 62.3833 259.766 62.53 258.754H65.808ZM85.7061 271.712C86.0288 271.712 86.3368 271.705 86.6301 271.69C86.9235 271.675 87.1581 271.653 87.3341 271.624V269.138C87.2021 269.109 87.0041 269.079 86.7401 269.05C86.4761 269.021 86.2341 269.006 86.0141 269.006C85.7061 269.006 85.4128 269.028 85.1341 269.072C84.8701 269.101 84.6355 269.167 84.4301 269.27C84.2248 269.373 84.0635 269.512 83.9461 269.688C83.8288 269.864 83.7701 270.084 83.7701 270.348C83.7701 270.861 83.9388 271.221 84.2761 271.426C84.6281 271.617 85.1048 271.712 85.7061 271.712ZM85.4421 262.12C86.4101 262.12 87.2168 262.23 87.8621 262.45C88.5075 262.67 89.0208 262.985 89.4021 263.396C89.7981 263.807 90.0768 264.305 90.2381 264.892C90.3995 265.479 90.4801 266.131 90.4801 266.85V273.67C90.0108 273.773 89.3581 273.89 88.5221 274.022C87.6861 274.169 86.6741 274.242 85.4861 274.242C84.7381 274.242 84.0561 274.176 83.4401 274.044C82.8388 273.912 82.3181 273.699 81.8781 273.406C81.4381 273.098 81.1008 272.702 80.8661 272.218C80.6315 271.734 80.5141 271.14 80.5141 270.436C80.5141 269.761 80.6461 269.189 80.9101 268.72C81.1888 268.251 81.5555 267.877 82.0101 267.598C82.4648 267.319 82.9855 267.121 83.5721 267.004C84.1588 266.872 84.7675 266.806 85.3981 266.806C85.8235 266.806 86.1975 266.828 86.5201 266.872C86.8575 266.901 87.1288 266.945 87.3341 267.004V266.696C87.3341 266.139 87.1655 265.691 86.8281 265.354C86.4908 265.017 85.9041 264.848 85.0681 264.848C84.5108 264.848 83.9608 264.892 83.4181 264.98C82.8755 265.053 82.4061 265.163 82.0101 265.31L81.5921 262.67C81.7828 262.611 82.0175 262.553 82.2961 262.494C82.5895 262.421 82.9048 262.362 83.2421 262.318C83.5795 262.259 83.9315 262.215 84.2981 262.186C84.6795 262.142 85.0608 262.12 85.4421 262.12ZM93.4443 262.824C94.0016 262.663 94.7203 262.516 95.6003 262.384C96.4803 262.237 97.4043 262.164 98.3723 262.164C99.355 262.164 100.169 262.296 100.814 262.56C101.474 262.809 101.995 263.169 102.376 263.638C102.758 264.107 103.029 264.665 103.19 265.31C103.352 265.955 103.432 266.674 103.432 267.466V274H100.154V267.862C100.154 266.806 100.015 266.058 99.7363 265.618C99.4576 265.178 98.937 264.958 98.1743 264.958C97.9396 264.958 97.6903 264.973 97.4263 265.002C97.1623 265.017 96.9276 265.039 96.7223 265.068V274H93.4443V262.824ZM116.277 273.604C115.72 273.765 115.001 273.912 114.121 274.044C113.241 274.191 112.317 274.264 111.349 274.264C110.367 274.264 109.545 274.132 108.885 273.868C108.24 273.604 107.727 273.237 107.345 272.768C106.964 272.284 106.693 271.712 106.531 271.052C106.37 270.392 106.289 269.666 106.289 268.874V262.428H109.567V268.478C109.567 269.534 109.707 270.297 109.985 270.766C110.264 271.235 110.785 271.47 111.547 271.47C111.782 271.47 112.031 271.463 112.295 271.448C112.559 271.419 112.794 271.389 112.999 271.36V262.428H116.277V273.604ZM123.776 271.712C124.099 271.712 124.407 271.705 124.7 271.69C124.994 271.675 125.228 271.653 125.404 271.624V269.138C125.272 269.109 125.074 269.079 124.81 269.05C124.546 269.021 124.304 269.006 124.084 269.006C123.776 269.006 123.483 269.028 123.204 269.072C122.94 269.101 122.706 269.167 122.5 269.27C122.295 269.373 122.134 269.512 122.016 269.688C121.899 269.864 121.84 270.084 121.84 270.348C121.84 270.861 122.009 271.221 122.346 271.426C122.698 271.617 123.175 271.712 123.776 271.712ZM123.512 262.12C124.48 262.12 125.287 262.23 125.932 262.45C126.578 262.67 127.091 262.985 127.472 263.396C127.868 263.807 128.147 264.305 128.308 264.892C128.47 265.479 128.55 266.131 128.55 266.85V273.67C128.081 273.773 127.428 273.89 126.592 274.022C125.756 274.169 124.744 274.242 123.556 274.242C122.808 274.242 122.126 274.176 121.51 274.044C120.909 273.912 120.388 273.699 119.948 273.406C119.508 273.098 119.171 272.702 118.936 272.218C118.702 271.734 118.584 271.14 118.584 270.436C118.584 269.761 118.716 269.189 118.98 268.72C119.259 268.251 119.626 267.877 120.08 267.598C120.535 267.319 121.056 267.121 121.642 267.004C122.229 266.872 122.838 266.806 123.468 266.806C123.894 266.806 124.268 266.828 124.59 266.872C124.928 266.901 125.199 266.945 125.404 267.004V266.696C125.404 266.139 125.236 265.691 124.898 265.354C124.561 265.017 123.974 264.848 123.138 264.848C122.581 264.848 122.031 264.892 121.488 264.98C120.946 265.053 120.476 265.163 120.08 265.31L119.662 262.67C119.853 262.611 120.088 262.553 120.366 262.494C120.66 262.421 120.975 262.362 121.312 262.318C121.65 262.259 122.002 262.215 122.368 262.186C122.75 262.142 123.131 262.12 123.512 262.12ZM136.135 274.22C135.181 274.205 134.404 274.103 133.803 273.912C133.216 273.721 132.747 273.457 132.395 273.12C132.057 272.768 131.823 272.35 131.691 271.866C131.573 271.367 131.515 270.81 131.515 270.194V257.456L134.793 256.928V269.534C134.793 269.827 134.815 270.091 134.859 270.326C134.903 270.561 134.983 270.759 135.101 270.92C135.233 271.081 135.416 271.213 135.651 271.316C135.885 271.419 136.201 271.485 136.597 271.514L136.135 274.22ZM147.413 271.206C147.574 271.221 147.757 271.235 147.963 271.25C148.183 271.25 148.439 271.25 148.733 271.25C150.449 271.25 151.717 270.817 152.539 269.952C153.375 269.087 153.793 267.891 153.793 266.366C153.793 264.767 153.397 263.557 152.605 262.736C151.813 261.915 150.559 261.504 148.843 261.504C148.608 261.504 148.366 261.511 148.117 261.526C147.867 261.526 147.633 261.541 147.413 261.57V271.206ZM157.335 266.366C157.335 267.686 157.129 268.837 156.719 269.82C156.308 270.803 155.721 271.617 154.959 272.262C154.211 272.907 153.294 273.391 152.209 273.714C151.123 274.037 149.906 274.198 148.557 274.198C147.941 274.198 147.222 274.169 146.401 274.11C145.579 274.066 144.773 273.963 143.981 273.802V258.952C144.773 258.805 145.594 258.71 146.445 258.666C147.31 258.607 148.051 258.578 148.667 258.578C149.972 258.578 151.153 258.725 152.209 259.018C153.279 259.311 154.196 259.773 154.959 260.404C155.721 261.035 156.308 261.841 156.719 262.824C157.129 263.807 157.335 264.987 157.335 266.366ZM164.403 271.712C164.726 271.712 165.034 271.705 165.327 271.69C165.621 271.675 165.855 271.653 166.031 271.624V269.138C165.899 269.109 165.701 269.079 165.437 269.05C165.173 269.021 164.931 269.006 164.711 269.006C164.403 269.006 164.11 269.028 163.831 269.072C163.567 269.101 163.333 269.167 163.127 269.27C162.922 269.373 162.761 269.512 162.643 269.688C162.526 269.864 162.467 270.084 162.467 270.348C162.467 270.861 162.636 271.221 162.973 271.426C163.325 271.617 163.802 271.712 164.403 271.712ZM164.139 262.12C165.107 262.12 165.914 262.23 166.559 262.45C167.205 262.67 167.718 262.985 168.099 263.396C168.495 263.807 168.774 264.305 168.935 264.892C169.097 265.479 169.177 266.131 169.177 266.85V273.67C168.708 273.773 168.055 273.89 167.219 274.022C166.383 274.169 165.371 274.242 164.183 274.242C163.435 274.242 162.753 274.176 162.137 274.044C161.536 273.912 161.015 273.699 160.575 273.406C160.135 273.098 159.798 272.702 159.563 272.218C159.329 271.734 159.211 271.14 159.211 270.436C159.211 269.761 159.343 269.189 159.607 268.72C159.886 268.251 160.253 267.877 160.707 267.598C161.162 267.319 161.683 267.121 162.269 267.004C162.856 266.872 163.465 266.806 164.095 266.806C164.521 266.806 164.895 266.828 165.217 266.872C165.555 266.901 165.826 266.945 166.031 267.004V266.696C166.031 266.139 165.863 265.691 165.525 265.354C165.188 265.017 164.601 264.848 163.765 264.848C163.208 264.848 162.658 264.892 162.115 264.98C161.573 265.053 161.103 265.163 160.707 265.31L160.289 262.67C160.48 262.611 160.715 262.553 160.993 262.494C161.287 262.421 161.602 262.362 161.939 262.318C162.277 262.259 162.629 262.215 162.995 262.186C163.377 262.142 163.758 262.12 164.139 262.12ZM172.032 259.546L175.31 259.018V262.428H179.248V265.156H175.31V269.226C175.31 269.915 175.427 270.465 175.662 270.876C175.911 271.287 176.402 271.492 177.136 271.492C177.488 271.492 177.847 271.463 178.214 271.404C178.595 271.331 178.94 271.235 179.248 271.118L179.71 273.67C179.314 273.831 178.874 273.971 178.39 274.088C177.906 274.205 177.312 274.264 176.608 274.264C175.713 274.264 174.972 274.147 174.386 273.912C173.799 273.663 173.33 273.325 172.978 272.9C172.626 272.46 172.376 271.932 172.23 271.316C172.098 270.7 172.032 270.018 172.032 269.27V259.546ZM185.909 271.712C186.232 271.712 186.54 271.705 186.833 271.69C187.127 271.675 187.361 271.653 187.537 271.624V269.138C187.405 269.109 187.207 269.079 186.943 269.05C186.679 269.021 186.437 269.006 186.217 269.006C185.909 269.006 185.616 269.028 185.337 269.072C185.073 269.101 184.839 269.167 184.633 269.27C184.428 269.373 184.267 269.512 184.149 269.688C184.032 269.864 183.973 270.084 183.973 270.348C183.973 270.861 184.142 271.221 184.479 271.426C184.831 271.617 185.308 271.712 185.909 271.712ZM185.645 262.12C186.613 262.12 187.42 262.23 188.065 262.45C188.711 262.67 189.224 262.985 189.605 263.396C190.001 263.807 190.28 264.305 190.441 264.892C190.603 265.479 190.683 266.131 190.683 266.85V273.67C190.214 273.773 189.561 273.89 188.725 274.022C187.889 274.169 186.877 274.242 185.689 274.242C184.941 274.242 184.259 274.176 183.643 274.044C183.042 273.912 182.521 273.699 182.081 273.406C181.641 273.098 181.304 272.702 181.069 272.218C180.835 271.734 180.717 271.14 180.717 270.436C180.717 269.761 180.849 269.189 181.113 268.72C181.392 268.251 181.759 267.877 182.213 267.598C182.668 267.319 183.189 267.121 183.775 267.004C184.362 266.872 184.971 266.806 185.601 266.806C186.027 266.806 186.401 266.828 186.723 266.872C187.061 266.901 187.332 266.945 187.537 267.004V266.696C187.537 266.139 187.369 265.691 187.031 265.354C186.694 265.017 186.107 264.848 185.271 264.848C184.714 264.848 184.164 264.892 183.621 264.98C183.079 265.053 182.609 265.163 182.213 265.31L181.795 262.67C181.986 262.611 182.221 262.553 182.499 262.494C182.793 262.421 183.108 262.362 183.445 262.318C183.783 262.259 184.135 262.215 184.501 262.186C184.883 262.142 185.264 262.12 185.645 262.12ZM199.153 258.754H202.585V274H199.153V258.754ZM205.894 262.824C206.451 262.663 207.17 262.516 208.05 262.384C208.93 262.237 209.854 262.164 210.822 262.164C211.804 262.164 212.618 262.296 213.264 262.56C213.924 262.809 214.444 263.169 214.826 263.638C215.207 264.107 215.478 264.665 215.64 265.31C215.801 265.955 215.882 266.674 215.882 267.466V274H212.604V267.862C212.604 266.806 212.464 266.058 212.186 265.618C211.907 265.178 211.386 264.958 210.624 264.958C210.389 264.958 210.14 264.973 209.876 265.002C209.612 265.017 209.377 265.039 209.172 265.068V274H205.894V262.824ZM226.263 268.302C226.263 267.29 226.035 266.483 225.581 265.882C225.126 265.266 224.451 264.958 223.557 264.958C223.263 264.958 222.992 264.973 222.743 265.002C222.493 265.017 222.288 265.039 222.127 265.068V270.986C222.332 271.118 222.596 271.228 222.919 271.316C223.256 271.404 223.593 271.448 223.931 271.448C225.485 271.448 226.263 270.399 226.263 268.302ZM229.607 268.214C229.607 269.109 229.497 269.923 229.277 270.656C229.057 271.389 228.734 272.02 228.309 272.548C227.883 273.076 227.355 273.487 226.725 273.78C226.094 274.073 225.368 274.22 224.547 274.22C224.092 274.22 223.667 274.176 223.271 274.088C222.875 274 222.493 273.875 222.127 273.714V278.07H218.849V262.824C219.142 262.736 219.479 262.655 219.861 262.582C220.242 262.494 220.638 262.421 221.049 262.362C221.474 262.303 221.899 262.259 222.325 262.23C222.765 262.186 223.183 262.164 223.579 262.164C224.532 262.164 225.383 262.311 226.131 262.604C226.879 262.883 227.509 263.286 228.023 263.814C228.536 264.327 228.925 264.958 229.189 265.706C229.467 266.454 229.607 267.29 229.607 268.214ZM242.004 273.604C241.447 273.765 240.728 273.912 239.848 274.044C238.968 274.191 238.044 274.264 237.076 274.264C236.093 274.264 235.272 274.132 234.612 273.868C233.967 273.604 233.453 273.237 233.072 272.768C232.691 272.284 232.419 271.712 232.258 271.052C232.097 270.392 232.016 269.666 232.016 268.874V262.428H235.294V268.478C235.294 269.534 235.433 270.297 235.712 270.766C235.991 271.235 236.511 271.47 237.274 271.47C237.509 271.47 237.758 271.463 238.022 271.448C238.286 271.419 238.521 271.389 238.726 271.36V262.428H242.004V273.604ZM244.971 259.546L248.249 259.018V262.428H252.187V265.156H248.249V269.226C248.249 269.915 248.366 270.465 248.601 270.876C248.85 271.287 249.342 271.492 250.075 271.492C250.427 271.492 250.786 271.463 251.153 271.404C251.534 271.331 251.879 271.235 252.187 271.118L252.649 273.67C252.253 273.831 251.813 273.971 251.329 274.088C250.845 274.205 250.251 274.264 249.547 274.264C248.652 274.264 247.912 274.147 247.325 273.912C246.738 273.663 246.269 273.325 245.917 272.9C245.565 272.46 245.316 271.932 245.169 271.316C245.037 270.7 244.971 270.018 244.971 269.27V259.546Z" fill="white"/>
<defs>
<filter id="filter0_d" x="0" y="0" width="348" height="440" filterUnits="userSpaceOnUse" color-interpolation-filters="sRGB">
<feFlood flood-opacity="0" result="BackgroundImageFix"/>
<feColorMatrix in="SourceAlpha" type="matrix" values="0 0 0 0 0 0 0 0 0 0 0 0 0 0 0 0 0 0 127 0"/>
<feOffset dy="24"/>
<feGaussianBlur stdDeviation="25"/>
<feColorMatrix type="matrix" values="0 0 0 0 0.258824 0 0 0 0 0.258824 0 0 0 0 0.258824 0 0 0 0.2 0"/>
<feBlend mode="normal" in2="BackgroundImageFix" result="effect1_dropShadow"/>
<feBlend mode="normal" in="SourceGraphic" in2="effect1_dropShadow" result="shape"/>
</filter>
<linearGradient id="paint0_linear" x1="298" y1="26" x2="50" y2="366" gradientUnits="userSpaceOnUse">
<stop stop-color="#8BFFC7"/>
<stop offset="1" stop-color="#0093E6"/>
</linearGradient>
</defs>
</svg>
