<svg width="340" height="408" viewBox="0 0 340 408" fill="none" xmlns="http://www.w3.org/2000/svg">
<g filter="url(#filter0_d)">
<rect x="50" y="26" width="240" height="308" rx="12" fill="url(#paint0_linear)"/>
</g>
<path opacity="0.2" fill-rule="evenodd" clip-rule="evenodd" d="M134 255.499C134 255.665 134 255.832 133.999 255.999H111.349C111.35 255.832 111.351 255.665 111.351 255.498C111.351 221.506 83.9289 193.919 50 193.65V171C96.438 171.269 134 208.997 134 255.499Z" fill="#FFC078"/>
<path opacity="0.2" fill-rule="evenodd" clip-rule="evenodd" d="M290 211.92C279.981 213.94 269.614 215 259 215C172.844 215 103 145.156 103 59C103 47.6778 104.206 36.6373 106.497 26H173.348C169.4 36.2406 167.235 47.3676 167.235 59C167.235 109.68 208.32 150.765 259 150.765C269.879 150.765 280.317 148.871 290 145.396V211.92Z" fill="#FFC078"/>
<path d="M50 256H290V322C290 328.627 284.627 334 278 334H62C55.3726 334 50 328.627 50 322V256Z" fill="#F76707"/>
<path d="M88.9722 277.448C88.9722 278.408 88.8229 279.245 88.5242 279.96C88.2255 280.664 87.8042 281.251 87.2602 281.72C86.7162 282.179 86.0655 282.525 85.3082 282.76C84.5509 282.984 83.7189 283.096 82.8122 283.096C82.3642 283.096 81.8682 283.075 81.3242 283.032C80.7909 283 80.3055 282.931 79.8682 282.824V272.072C80.3055 271.965 80.7909 271.896 81.3242 271.864C81.8682 271.821 82.3642 271.8 82.8122 271.8C83.7189 271.8 84.5509 271.917 85.3082 272.152C86.0655 272.376 86.7162 272.723 87.2602 273.192C87.8042 273.651 88.2255 274.237 88.5242 274.952C88.8229 275.656 88.9722 276.488 88.9722 277.448ZM82.9402 281.736C84.4122 281.736 85.5109 281.363 86.2362 280.616C86.9615 279.859 87.3242 278.803 87.3242 277.448C87.3242 276.093 86.9615 275.043 86.2362 274.296C85.5109 273.539 84.4122 273.16 82.9402 273.16C82.5029 273.16 82.1615 273.165 81.9162 273.176C81.6815 273.187 81.5162 273.197 81.4202 273.208V281.688C81.5162 281.699 81.6815 281.709 81.9162 281.72C82.1615 281.731 82.5029 281.736 82.9402 281.736ZM90.7144 278.856C90.7144 278.12 90.8211 277.48 91.0344 276.936C91.2478 276.381 91.5304 275.923 91.8824 275.56C92.2344 275.197 92.6398 274.925 93.0984 274.744C93.5571 274.563 94.0264 274.472 94.5064 274.472C95.6264 274.472 96.4851 274.824 97.0824 275.528C97.6798 276.221 97.9784 277.283 97.9784 278.712C97.9784 278.776 97.9784 278.861 97.9784 278.968C97.9784 279.064 97.9731 279.155 97.9624 279.24H92.2664C92.3304 280.104 92.5811 280.76 93.0184 281.208C93.4558 281.656 94.1384 281.88 95.0664 281.88C95.5891 281.88 96.0264 281.837 96.3784 281.752C96.7411 281.656 97.0131 281.565 97.1944 281.48L97.4024 282.728C97.2211 282.824 96.9011 282.925 96.4424 283.032C95.9944 283.139 95.4824 283.192 94.9064 283.192C94.1811 283.192 93.5518 283.085 93.0184 282.872C92.4958 282.648 92.0638 282.344 91.7224 281.96C91.3811 281.576 91.1251 281.123 90.9544 280.6C90.7944 280.067 90.7144 279.485 90.7144 278.856ZM96.4264 278.04C96.4371 277.368 96.2664 276.819 95.9144 276.392C95.5731 275.955 95.0984 275.736 94.4904 275.736C94.1491 275.736 93.8451 275.805 93.5784 275.944C93.3224 276.072 93.1038 276.243 92.9224 276.456C92.7411 276.669 92.5971 276.915 92.4904 277.192C92.3944 277.469 92.3304 277.752 92.2984 278.04H96.4264ZM103.732 283.192C103.06 283.192 102.468 283.085 101.956 282.872C101.455 282.659 101.028 282.36 100.676 281.976C100.335 281.592 100.079 281.139 99.9079 280.616C99.7373 280.083 99.6519 279.496 99.6519 278.856C99.6519 278.216 99.7426 277.629 99.9239 277.096C100.116 276.563 100.383 276.104 100.724 275.72C101.065 275.325 101.481 275.021 101.972 274.808C102.473 274.584 103.028 274.472 103.636 274.472C104.009 274.472 104.383 274.504 104.756 274.568C105.129 274.632 105.487 274.733 105.828 274.872L105.492 276.136C105.268 276.029 105.007 275.944 104.708 275.88C104.42 275.816 104.111 275.784 103.78 275.784C102.948 275.784 102.308 276.045 101.86 276.568C101.423 277.091 101.204 277.853 101.204 278.856C101.204 279.304 101.252 279.715 101.348 280.088C101.455 280.461 101.615 280.781 101.828 281.048C102.052 281.315 102.335 281.523 102.676 281.672C103.017 281.811 103.433 281.88 103.924 281.88C104.319 281.88 104.676 281.843 104.996 281.768C105.316 281.693 105.567 281.613 105.748 281.528L105.956 282.776C105.871 282.829 105.748 282.883 105.588 282.936C105.428 282.979 105.247 283.016 105.044 283.048C104.841 283.091 104.623 283.123 104.388 283.144C104.164 283.176 103.945 283.192 103.732 283.192ZM110.625 274.504C110.753 274.504 110.897 274.515 111.057 274.536C111.228 274.547 111.393 274.568 111.553 274.6C111.713 274.621 111.857 274.648 111.985 274.68C112.124 274.701 112.225 274.723 112.289 274.744L112.033 276.04C111.916 275.997 111.719 275.949 111.441 275.896C111.175 275.832 110.828 275.8 110.401 275.8C110.124 275.8 109.847 275.832 109.569 275.896C109.303 275.949 109.127 275.987 109.041 276.008V283H107.553V275.032C107.905 274.904 108.343 274.787 108.865 274.68C109.388 274.563 109.975 274.504 110.625 274.504ZM113.261 278.856C113.261 278.12 113.368 277.48 113.581 276.936C113.795 276.381 114.077 275.923 114.429 275.56C114.781 275.197 115.187 274.925 115.645 274.744C116.104 274.563 116.573 274.472 117.053 274.472C118.173 274.472 119.032 274.824 119.629 275.528C120.227 276.221 120.525 277.283 120.525 278.712C120.525 278.776 120.525 278.861 120.525 278.968C120.525 279.064 120.52 279.155 120.509 279.24H114.813C114.877 280.104 115.128 280.76 115.565 281.208C116.003 281.656 116.685 281.88 117.613 281.88C118.136 281.88 118.573 281.837 118.925 281.752C119.288 281.656 119.56 281.565 119.741 281.48L119.949 282.728C119.768 282.824 119.448 282.925 118.989 283.032C118.541 283.139 118.029 283.192 117.453 283.192C116.728 283.192 116.099 283.085 115.565 282.872C115.043 282.648 114.611 282.344 114.269 281.96C113.928 281.576 113.672 281.123 113.501 280.6C113.341 280.067 113.261 279.485 113.261 278.856ZM118.973 278.04C118.984 277.368 118.813 276.819 118.461 276.392C118.12 275.955 117.645 275.736 117.037 275.736C116.696 275.736 116.392 275.805 116.125 275.944C115.869 276.072 115.651 276.243 115.469 276.456C115.288 276.669 115.144 276.915 115.037 277.192C114.941 277.469 114.877 277.752 114.845 278.04H118.973ZM125.479 281.928C125.831 281.928 126.14 281.923 126.407 281.912C126.684 281.891 126.913 281.859 127.095 281.816V279.336C126.988 279.283 126.812 279.24 126.567 279.208C126.332 279.165 126.044 279.144 125.703 279.144C125.479 279.144 125.239 279.16 124.983 279.192C124.737 279.224 124.508 279.293 124.295 279.4C124.092 279.496 123.921 279.635 123.783 279.816C123.644 279.987 123.575 280.216 123.575 280.504C123.575 281.037 123.745 281.411 124.087 281.624C124.428 281.827 124.892 281.928 125.479 281.928ZM125.351 274.472C125.948 274.472 126.449 274.552 126.855 274.712C127.271 274.861 127.601 275.08 127.847 275.368C128.103 275.645 128.284 275.981 128.391 276.376C128.497 276.76 128.551 277.187 128.551 277.656V282.856C128.423 282.877 128.241 282.909 128.007 282.952C127.783 282.984 127.527 283.016 127.239 283.048C126.951 283.08 126.636 283.107 126.295 283.128C125.964 283.16 125.633 283.176 125.303 283.176C124.833 283.176 124.401 283.128 124.007 283.032C123.612 282.936 123.271 282.787 122.983 282.584C122.695 282.371 122.471 282.093 122.311 281.752C122.151 281.411 122.071 281 122.071 280.52C122.071 280.061 122.161 279.667 122.343 279.336C122.535 279.005 122.791 278.739 123.111 278.536C123.431 278.333 123.804 278.184 124.231 278.088C124.657 277.992 125.105 277.944 125.575 277.944C125.724 277.944 125.879 277.955 126.039 277.976C126.199 277.987 126.348 278.008 126.487 278.04C126.636 278.061 126.764 278.083 126.871 278.104C126.977 278.125 127.052 278.141 127.095 278.152V277.736C127.095 277.491 127.068 277.251 127.015 277.016C126.961 276.771 126.865 276.557 126.727 276.376C126.588 276.184 126.396 276.035 126.151 275.928C125.916 275.811 125.607 275.752 125.223 275.752C124.732 275.752 124.3 275.789 123.927 275.864C123.564 275.928 123.292 275.997 123.111 276.072L122.935 274.84C123.127 274.755 123.447 274.675 123.895 274.6C124.343 274.515 124.828 274.472 125.351 274.472ZM132.958 281.928C133.566 281.928 134.014 281.848 134.302 281.688C134.601 281.528 134.75 281.272 134.75 280.92C134.75 280.557 134.606 280.269 134.318 280.056C134.03 279.843 133.556 279.603 132.894 279.336C132.574 279.208 132.265 279.08 131.966 278.952C131.678 278.813 131.428 278.653 131.214 278.472C131.001 278.291 130.83 278.072 130.702 277.816C130.574 277.56 130.51 277.245 130.51 276.872C130.51 276.136 130.782 275.555 131.326 275.128C131.87 274.691 132.612 274.472 133.55 274.472C133.785 274.472 134.02 274.488 134.254 274.52C134.489 274.541 134.708 274.573 134.91 274.616C135.113 274.648 135.289 274.685 135.438 274.728C135.598 274.771 135.721 274.808 135.806 274.84L135.534 276.12C135.374 276.035 135.124 275.949 134.782 275.864C134.441 275.768 134.03 275.72 133.55 275.72C133.134 275.72 132.772 275.805 132.462 275.976C132.153 276.136 131.998 276.392 131.998 276.744C131.998 276.925 132.03 277.085 132.094 277.224C132.169 277.363 132.276 277.491 132.414 277.608C132.564 277.715 132.745 277.816 132.958 277.912C133.172 278.008 133.428 278.109 133.726 278.216C134.121 278.365 134.473 278.515 134.782 278.664C135.092 278.803 135.353 278.968 135.566 279.16C135.79 279.352 135.961 279.587 136.078 279.864C136.196 280.131 136.254 280.461 136.254 280.856C136.254 281.624 135.966 282.205 135.39 282.6C134.825 282.995 134.014 283.192 132.958 283.192C132.222 283.192 131.646 283.128 131.23 283C130.814 282.883 130.532 282.792 130.382 282.728L130.654 281.448C130.825 281.512 131.097 281.608 131.47 281.736C131.844 281.864 132.34 281.928 132.958 281.928ZM139.651 283H138.163V274.68H139.651V283ZM138.899 273.176C138.632 273.176 138.403 273.091 138.211 272.92C138.029 272.739 137.939 272.499 137.939 272.2C137.939 271.901 138.029 271.667 138.211 271.496C138.403 271.315 138.632 271.224 138.899 271.224C139.165 271.224 139.389 271.315 139.571 271.496C139.763 271.667 139.859 271.901 139.859 272.2C139.859 272.499 139.763 272.739 139.571 272.92C139.389 273.091 139.165 273.176 138.899 273.176ZM142.21 274.92C142.551 274.835 143.004 274.744 143.57 274.648C144.135 274.552 144.786 274.504 145.522 274.504C146.183 274.504 146.732 274.6 147.17 274.792C147.607 274.973 147.954 275.235 148.21 275.576C148.476 275.907 148.663 276.307 148.77 276.776C148.876 277.245 148.93 277.763 148.93 278.328V283H147.442V278.648C147.442 278.136 147.404 277.699 147.33 277.336C147.266 276.973 147.154 276.68 146.994 276.456C146.834 276.232 146.62 276.072 146.354 275.976C146.087 275.869 145.756 275.816 145.362 275.816C145.202 275.816 145.036 275.821 144.866 275.832C144.695 275.843 144.53 275.859 144.37 275.88C144.22 275.891 144.082 275.907 143.954 275.928C143.836 275.949 143.751 275.965 143.698 275.976V283H142.21V274.92ZM156.613 282.168C156.485 282.253 156.235 282.365 155.861 282.504C155.499 282.632 155.072 282.696 154.581 282.696C154.08 282.696 153.605 282.616 153.157 282.456C152.72 282.296 152.336 282.051 152.005 281.72C151.675 281.379 151.413 280.957 151.221 280.456C151.029 279.955 150.933 279.357 150.933 278.664C150.933 278.056 151.024 277.501 151.205 277C151.387 276.488 151.648 276.051 151.989 275.688C152.341 275.315 152.768 275.027 153.269 274.824C153.771 274.611 154.336 274.504 154.965 274.504C155.659 274.504 156.261 274.557 156.773 274.664C157.296 274.76 157.733 274.851 158.085 274.936V282.36C158.085 283.64 157.755 284.568 157.093 285.144C156.432 285.72 155.429 286.008 154.085 286.008C153.563 286.008 153.067 285.965 152.597 285.88C152.139 285.795 151.739 285.693 151.397 285.576L151.669 284.28C151.968 284.397 152.331 284.499 152.757 284.584C153.195 284.68 153.648 284.728 154.117 284.728C155.003 284.728 155.637 284.552 156.021 284.2C156.416 283.848 156.613 283.288 156.613 282.52V282.168ZM156.597 275.992C156.448 275.949 156.245 275.912 155.989 275.88C155.744 275.837 155.408 275.816 154.981 275.816C154.181 275.816 153.563 276.077 153.125 276.6C152.699 277.123 152.485 277.816 152.485 278.68C152.485 279.16 152.544 279.571 152.661 279.912C152.789 280.253 152.955 280.536 153.157 280.76C153.371 280.984 153.611 281.149 153.877 281.256C154.155 281.363 154.437 281.416 154.725 281.416C155.12 281.416 155.483 281.363 155.813 281.256C156.144 281.139 156.405 281.005 156.597 280.856V275.992ZM171.118 281.656V283H164.446V271.912H165.998V281.656H171.118ZM175.463 281.928C175.815 281.928 176.125 281.923 176.391 281.912C176.669 281.891 176.898 281.859 177.079 281.816V279.336C176.973 279.283 176.797 279.24 176.551 279.208C176.317 279.165 176.029 279.144 175.687 279.144C175.463 279.144 175.223 279.16 174.967 279.192C174.722 279.224 174.493 279.293 174.279 279.4C174.077 279.496 173.906 279.635 173.767 279.816C173.629 279.987 173.559 280.216 173.559 280.504C173.559 281.037 173.73 281.411 174.071 281.624C174.413 281.827 174.877 281.928 175.463 281.928ZM175.335 274.472C175.933 274.472 176.434 274.552 176.839 274.712C177.255 274.861 177.586 275.08 177.831 275.368C178.087 275.645 178.269 275.981 178.375 276.376C178.482 276.76 178.535 277.187 178.535 277.656V282.856C178.407 282.877 178.226 282.909 177.991 282.952C177.767 282.984 177.511 283.016 177.223 283.048C176.935 283.08 176.621 283.107 176.279 283.128C175.949 283.16 175.618 283.176 175.287 283.176C174.818 283.176 174.386 283.128 173.991 283.032C173.597 282.936 173.255 282.787 172.967 282.584C172.679 282.371 172.455 282.093 172.295 281.752C172.135 281.411 172.055 281 172.055 280.52C172.055 280.061 172.146 279.667 172.327 279.336C172.519 279.005 172.775 278.739 173.095 278.536C173.415 278.333 173.789 278.184 174.215 278.088C174.642 277.992 175.09 277.944 175.559 277.944C175.709 277.944 175.863 277.955 176.023 277.976C176.183 277.987 176.333 278.008 176.471 278.04C176.621 278.061 176.749 278.083 176.855 278.104C176.962 278.125 177.037 278.141 177.079 278.152V277.736C177.079 277.491 177.053 277.251 176.999 277.016C176.946 276.771 176.85 276.557 176.711 276.376C176.573 276.184 176.381 276.035 176.135 275.928C175.901 275.811 175.591 275.752 175.207 275.752C174.717 275.752 174.285 275.789 173.911 275.864C173.549 275.928 173.277 275.997 173.095 276.072L172.919 274.84C173.111 274.755 173.431 274.675 173.879 274.6C174.327 274.515 174.813 274.472 175.335 274.472ZM182.399 274.68H185.551V275.928H182.399V279.768C182.399 280.184 182.431 280.531 182.495 280.808C182.559 281.075 182.655 281.288 182.783 281.448C182.911 281.597 183.071 281.704 183.263 281.768C183.455 281.832 183.679 281.864 183.935 281.864C184.383 281.864 184.74 281.816 185.007 281.72C185.284 281.613 185.476 281.539 185.583 281.496L185.871 282.728C185.721 282.803 185.46 282.893 185.087 283C184.713 283.117 184.287 283.176 183.807 283.176C183.241 283.176 182.772 283.107 182.399 282.968C182.036 282.819 181.743 282.6 181.519 282.312C181.295 282.024 181.135 281.672 181.039 281.256C180.953 280.829 180.911 280.339 180.911 279.784V272.36L182.399 272.104V274.68ZM186.824 278.856C186.824 278.12 186.93 277.48 187.144 276.936C187.357 276.381 187.64 275.923 187.992 275.56C188.344 275.197 188.749 274.925 189.208 274.744C189.666 274.563 190.136 274.472 190.616 274.472C191.736 274.472 192.594 274.824 193.192 275.528C193.789 276.221 194.088 277.283 194.088 278.712C194.088 278.776 194.088 278.861 194.088 278.968C194.088 279.064 194.082 279.155 194.072 279.24H188.376C188.44 280.104 188.69 280.76 189.128 281.208C189.565 281.656 190.248 281.88 191.176 281.88C191.698 281.88 192.136 281.837 192.488 281.752C192.85 281.656 193.122 281.565 193.304 281.48L193.512 282.728C193.33 282.824 193.01 282.925 192.552 283.032C192.104 283.139 191.592 283.192 191.016 283.192C190.29 283.192 189.661 283.085 189.128 282.872C188.605 282.648 188.173 282.344 187.832 281.96C187.49 281.576 187.234 281.123 187.064 280.6C186.904 280.067 186.824 279.485 186.824 278.856ZM192.536 278.04C192.546 277.368 192.376 276.819 192.024 276.392C191.682 275.955 191.208 275.736 190.6 275.736C190.258 275.736 189.954 275.805 189.688 275.944C189.432 276.072 189.213 276.243 189.032 276.456C188.85 276.669 188.706 276.915 188.6 277.192C188.504 277.469 188.44 277.752 188.408 278.04H192.536ZM202.968 271.8C204.526 271.8 205.72 272.099 206.552 272.696C207.395 273.283 207.816 274.163 207.816 275.336C207.816 275.976 207.699 276.525 207.464 276.984C207.24 277.432 206.91 277.8 206.472 278.088C206.046 278.365 205.523 278.568 204.904 278.696C204.286 278.824 203.587 278.888 202.808 278.888H201.576V283H200.024V272.072C200.462 271.965 200.947 271.896 201.48 271.864C202.024 271.821 202.52 271.8 202.968 271.8ZM203.096 273.16C202.435 273.16 201.928 273.176 201.576 273.208V277.56H202.744C203.278 277.56 203.758 277.528 204.184 277.464C204.611 277.389 204.968 277.272 205.256 277.112C205.555 276.941 205.784 276.712 205.944 276.424C206.104 276.136 206.184 275.768 206.184 275.32C206.184 274.893 206.099 274.541 205.928 274.264C205.768 273.987 205.544 273.768 205.256 273.608C204.979 273.437 204.654 273.32 204.28 273.256C203.907 273.192 203.512 273.16 203.096 273.16ZM212.182 281.928C212.534 281.928 212.843 281.923 213.11 281.912C213.387 281.891 213.617 281.859 213.798 281.816V279.336C213.691 279.283 213.515 279.24 213.27 279.208C213.035 279.165 212.747 279.144 212.406 279.144C212.182 279.144 211.942 279.16 211.686 279.192C211.441 279.224 211.211 279.293 210.998 279.4C210.795 279.496 210.625 279.635 210.486 279.816C210.347 279.987 210.278 280.216 210.278 280.504C210.278 281.037 210.449 281.411 210.79 281.624C211.131 281.827 211.595 281.928 212.182 281.928ZM212.054 274.472C212.651 274.472 213.153 274.552 213.558 274.712C213.974 274.861 214.305 275.08 214.55 275.368C214.806 275.645 214.987 275.981 215.094 276.376C215.201 276.76 215.254 277.187 215.254 277.656V282.856C215.126 282.877 214.945 282.909 214.71 282.952C214.486 282.984 214.23 283.016 213.942 283.048C213.654 283.08 213.339 283.107 212.998 283.128C212.667 283.16 212.337 283.176 212.006 283.176C211.537 283.176 211.105 283.128 210.71 283.032C210.315 282.936 209.974 282.787 209.686 282.584C209.398 282.371 209.174 282.093 209.014 281.752C208.854 281.411 208.774 281 208.774 280.52C208.774 280.061 208.865 279.667 209.046 279.336C209.238 279.005 209.494 278.739 209.814 278.536C210.134 278.333 210.507 278.184 210.934 278.088C211.361 277.992 211.809 277.944 212.278 277.944C212.427 277.944 212.582 277.955 212.742 277.976C212.902 277.987 213.051 278.008 213.19 278.04C213.339 278.061 213.467 278.083 213.574 278.104C213.681 278.125 213.755 278.141 213.798 278.152V277.736C213.798 277.491 213.771 277.251 213.718 277.016C213.665 276.771 213.569 276.557 213.43 276.376C213.291 276.184 213.099 276.035 212.854 275.928C212.619 275.811 212.31 275.752 211.926 275.752C211.435 275.752 211.003 275.789 210.63 275.864C210.267 275.928 209.995 275.997 209.814 276.072L209.638 274.84C209.83 274.755 210.15 274.675 210.598 274.6C211.046 274.515 211.531 274.472 212.054 274.472ZM216.515 284.552C216.632 284.605 216.782 284.653 216.963 284.696C217.155 284.749 217.342 284.776 217.523 284.776C218.11 284.776 218.568 284.643 218.899 284.376C219.23 284.12 219.528 283.699 219.795 283.112C219.123 281.832 218.494 280.477 217.907 279.048C217.331 277.608 216.851 276.152 216.467 274.68H218.067C218.184 275.16 218.323 275.677 218.483 276.232C218.654 276.787 218.84 277.357 219.043 277.944C219.246 278.531 219.464 279.117 219.699 279.704C219.934 280.291 220.179 280.856 220.435 281.4C220.84 280.28 221.192 279.171 221.491 278.072C221.79 276.973 222.072 275.843 222.339 274.68H223.875C223.491 276.248 223.064 277.757 222.595 279.208C222.126 280.648 221.619 281.997 221.075 283.256C220.862 283.736 220.638 284.147 220.403 284.488C220.179 284.84 219.928 285.128 219.651 285.352C219.374 285.576 219.059 285.741 218.707 285.848C218.366 285.955 217.976 286.008 217.539 286.008C217.422 286.008 217.299 285.997 217.171 285.976C217.043 285.965 216.915 285.944 216.787 285.912C216.67 285.891 216.558 285.864 216.451 285.832C216.355 285.8 216.286 285.773 216.243 285.752L216.515 284.552ZM225.444 274.92C225.785 274.835 226.233 274.744 226.788 274.648C227.353 274.552 228.004 274.504 228.74 274.504C229.273 274.504 229.721 274.579 230.084 274.728C230.447 274.867 230.751 275.075 230.996 275.352C231.071 275.299 231.188 275.224 231.348 275.128C231.508 275.032 231.705 274.941 231.94 274.856C232.175 274.76 232.436 274.68 232.724 274.616C233.012 274.541 233.321 274.504 233.652 274.504C234.292 274.504 234.815 274.6 235.22 274.792C235.625 274.973 235.94 275.235 236.164 275.576C236.399 275.917 236.553 276.323 236.628 276.792C236.713 277.261 236.756 277.773 236.756 278.328V283H235.268V278.648C235.268 278.157 235.241 277.736 235.188 277.384C235.145 277.032 235.055 276.739 234.916 276.504C234.788 276.269 234.607 276.099 234.372 275.992C234.148 275.875 233.855 275.816 233.492 275.816C232.991 275.816 232.575 275.885 232.244 276.024C231.924 276.152 231.705 276.269 231.588 276.376C231.673 276.653 231.737 276.957 231.78 277.288C231.823 277.619 231.844 277.965 231.844 278.328V283H230.356V278.648C230.356 278.157 230.329 277.736 230.276 277.384C230.223 277.032 230.127 276.739 229.988 276.504C229.86 276.269 229.679 276.099 229.444 275.992C229.22 275.875 228.932 275.816 228.58 275.816C228.431 275.816 228.271 275.821 228.1 275.832C227.929 275.843 227.764 275.859 227.604 275.88C227.455 275.891 227.316 275.907 227.188 275.928C227.06 275.949 226.975 275.965 226.932 275.976V283H225.444V274.92ZM238.761 278.856C238.761 278.12 238.868 277.48 239.081 276.936C239.295 276.381 239.577 275.923 239.929 275.56C240.281 275.197 240.687 274.925 241.145 274.744C241.604 274.563 242.073 274.472 242.553 274.472C243.673 274.472 244.532 274.824 245.129 275.528C245.727 276.221 246.025 277.283 246.025 278.712C246.025 278.776 246.025 278.861 246.025 278.968C246.025 279.064 246.02 279.155 246.009 279.24H240.313C240.377 280.104 240.628 280.76 241.065 281.208C241.503 281.656 242.185 281.88 243.113 281.88C243.636 281.88 244.073 281.837 244.425 281.752C244.788 281.656 245.06 281.565 245.241 281.48L245.449 282.728C245.268 282.824 244.948 282.925 244.489 283.032C244.041 283.139 243.529 283.192 242.953 283.192C242.228 283.192 241.599 283.085 241.065 282.872C240.543 282.648 240.111 282.344 239.769 281.96C239.428 281.576 239.172 281.123 239.001 280.6C238.841 280.067 238.761 279.485 238.761 278.856ZM244.473 278.04C244.484 277.368 244.313 276.819 243.961 276.392C243.62 275.955 243.145 275.736 242.537 275.736C242.196 275.736 241.892 275.805 241.625 275.944C241.369 276.072 241.151 276.243 240.969 276.456C240.788 276.669 240.644 276.915 240.537 277.192C240.441 277.469 240.377 277.752 240.345 278.04H244.473ZM248.163 274.92C248.504 274.835 248.957 274.744 249.523 274.648C250.088 274.552 250.739 274.504 251.475 274.504C252.136 274.504 252.685 274.6 253.123 274.792C253.56 274.973 253.907 275.235 254.163 275.576C254.429 275.907 254.616 276.307 254.723 276.776C254.829 277.245 254.883 277.763 254.883 278.328V283H253.395V278.648C253.395 278.136 253.357 277.699 253.283 277.336C253.219 276.973 253.107 276.68 252.947 276.456C252.787 276.232 252.573 276.072 252.307 275.976C252.04 275.869 251.709 275.816 251.315 275.816C251.155 275.816 250.989 275.821 250.819 275.832C250.648 275.843 250.483 275.859 250.323 275.88C250.173 275.891 250.035 275.907 249.907 275.928C249.789 275.949 249.704 275.965 249.651 275.976V283H248.163V274.92ZM258.742 274.68H261.894V275.928H258.742V279.768C258.742 280.184 258.774 280.531 258.838 280.808C258.902 281.075 258.998 281.288 259.126 281.448C259.254 281.597 259.414 281.704 259.606 281.768C259.798 281.832 260.022 281.864 260.278 281.864C260.726 281.864 261.084 281.816 261.35 281.72C261.628 281.613 261.82 281.539 261.926 281.496L262.214 282.728C262.065 282.803 261.804 282.893 261.43 283C261.057 283.117 260.63 283.176 260.15 283.176C259.585 283.176 259.116 283.107 258.742 282.968C258.38 282.819 258.086 282.6 257.862 282.312C257.638 282.024 257.478 281.672 257.382 281.256C257.297 280.829 257.254 280.339 257.254 279.784V272.36L258.742 272.104V274.68ZM138.188 301.096C137.964 301.096 137.719 301.091 137.452 301.08C137.196 301.069 136.935 301.053 136.668 301.032C136.412 301.011 136.156 300.984 135.9 300.952C135.644 300.92 135.41 300.877 135.196 300.824V290.072C135.41 290.019 135.644 289.976 135.9 289.944C136.156 289.912 136.412 289.885 136.668 289.864C136.935 289.843 137.196 289.827 137.452 289.816C137.708 289.805 137.948 289.8 138.172 289.8C138.812 289.8 139.41 289.848 139.964 289.944C140.53 290.04 141.015 290.205 141.42 290.44C141.836 290.664 142.162 290.963 142.396 291.336C142.631 291.709 142.748 292.168 142.748 292.712C142.748 293.32 142.604 293.821 142.316 294.216C142.028 294.6 141.644 294.888 141.164 295.08C141.815 295.272 142.332 295.576 142.716 295.992C143.1 296.408 143.292 296.995 143.292 297.752C143.292 298.861 142.882 299.699 142.06 300.264C141.25 300.819 139.959 301.096 138.188 301.096ZM136.732 295.832V299.736C136.85 299.747 136.988 299.757 137.148 299.768C137.287 299.779 137.447 299.789 137.628 299.8C137.82 299.8 138.039 299.8 138.284 299.8C138.743 299.8 139.175 299.773 139.58 299.72C139.996 299.656 140.359 299.549 140.668 299.4C140.978 299.251 141.223 299.043 141.404 298.776C141.596 298.509 141.692 298.173 141.692 297.768C141.692 297.405 141.623 297.101 141.484 296.856C141.346 296.6 141.143 296.397 140.876 296.248C140.62 296.099 140.311 295.992 139.948 295.928C139.586 295.864 139.18 295.832 138.732 295.832H136.732ZM136.732 294.584H138.364C138.748 294.584 139.111 294.557 139.452 294.504C139.794 294.451 140.087 294.355 140.332 294.216C140.588 294.077 140.786 293.896 140.924 293.672C141.074 293.448 141.148 293.165 141.148 292.824C141.148 292.504 141.074 292.237 140.924 292.024C140.775 291.8 140.567 291.624 140.3 291.496C140.044 291.357 139.74 291.256 139.388 291.192C139.036 291.128 138.663 291.096 138.268 291.096C137.874 291.096 137.564 291.101 137.34 291.112C137.116 291.123 136.914 291.139 136.732 291.16V294.584ZM144.918 296.856C144.918 296.12 145.024 295.48 145.238 294.936C145.451 294.381 145.734 293.923 146.086 293.56C146.438 293.197 146.843 292.925 147.302 292.744C147.76 292.563 148.23 292.472 148.71 292.472C149.83 292.472 150.688 292.824 151.286 293.528C151.883 294.221 152.182 295.283 152.182 296.712C152.182 296.776 152.182 296.861 152.182 296.968C152.182 297.064 152.176 297.155 152.166 297.24H146.47C146.534 298.104 146.784 298.76 147.222 299.208C147.659 299.656 148.342 299.88 149.27 299.88C149.792 299.88 150.23 299.837 150.582 299.752C150.944 299.656 151.216 299.565 151.398 299.48L151.606 300.728C151.424 300.824 151.104 300.925 150.646 301.032C150.198 301.139 149.686 301.192 149.11 301.192C148.384 301.192 147.755 301.085 147.222 300.872C146.699 300.648 146.267 300.344 145.926 299.96C145.584 299.576 145.328 299.123 145.158 298.6C144.998 298.067 144.918 297.485 144.918 296.856ZM150.63 296.04C150.64 295.368 150.47 294.819 150.118 294.392C149.776 293.955 149.302 293.736 148.694 293.736C148.352 293.736 148.048 293.805 147.782 293.944C147.526 294.072 147.307 294.243 147.126 294.456C146.944 294.669 146.8 294.915 146.694 295.192C146.598 295.469 146.534 295.752 146.502 296.04H150.63ZM154.319 301V288.84L155.807 288.584V292.84C156.084 292.733 156.378 292.653 156.687 292.6C157.007 292.536 157.322 292.504 157.631 292.504C158.292 292.504 158.842 292.6 159.279 292.792C159.716 292.973 160.063 293.235 160.319 293.576C160.586 293.907 160.772 294.307 160.879 294.776C160.986 295.245 161.039 295.763 161.039 296.328V301H159.551V296.648C159.551 296.136 159.514 295.699 159.439 295.336C159.375 294.973 159.263 294.68 159.103 294.456C158.943 294.232 158.73 294.072 158.463 293.976C158.196 293.869 157.866 293.816 157.471 293.816C157.311 293.816 157.146 293.827 156.975 293.848C156.804 293.869 156.639 293.896 156.479 293.928C156.33 293.949 156.191 293.976 156.063 294.008C155.946 294.04 155.86 294.067 155.807 294.088V301H154.319ZM166.276 299.928C166.628 299.928 166.937 299.923 167.204 299.912C167.481 299.891 167.71 299.859 167.892 299.816V297.336C167.785 297.283 167.609 297.24 167.364 297.208C167.129 297.165 166.841 297.144 166.5 297.144C166.276 297.144 166.036 297.16 165.78 297.192C165.534 297.224 165.305 297.293 165.092 297.4C164.889 297.496 164.718 297.635 164.58 297.816C164.441 297.987 164.372 298.216 164.372 298.504C164.372 299.037 164.542 299.411 164.884 299.624C165.225 299.827 165.689 299.928 166.276 299.928ZM166.148 292.472C166.745 292.472 167.246 292.552 167.652 292.712C168.068 292.861 168.398 293.08 168.644 293.368C168.9 293.645 169.081 293.981 169.188 294.376C169.294 294.76 169.348 295.187 169.348 295.656V300.856C169.22 300.877 169.038 300.909 168.804 300.952C168.58 300.984 168.324 301.016 168.036 301.048C167.748 301.08 167.433 301.107 167.092 301.128C166.761 301.16 166.43 301.176 166.1 301.176C165.63 301.176 165.198 301.128 164.804 301.032C164.409 300.936 164.068 300.787 163.78 300.584C163.492 300.371 163.268 300.093 163.108 299.752C162.948 299.411 162.868 299 162.868 298.52C162.868 298.061 162.958 297.667 163.14 297.336C163.332 297.005 163.588 296.739 163.908 296.536C164.228 296.333 164.601 296.184 165.028 296.088C165.454 295.992 165.902 295.944 166.372 295.944C166.521 295.944 166.676 295.955 166.836 295.976C166.996 295.987 167.145 296.008 167.284 296.04C167.433 296.061 167.561 296.083 167.668 296.104C167.774 296.125 167.849 296.141 167.892 296.152V295.736C167.892 295.491 167.865 295.251 167.812 295.016C167.758 294.771 167.662 294.557 167.524 294.376C167.385 294.184 167.193 294.035 166.948 293.928C166.713 293.811 166.404 293.752 166.02 293.752C165.529 293.752 165.097 293.789 164.724 293.864C164.361 293.928 164.089 293.997 163.908 294.072L163.732 292.84C163.924 292.755 164.244 292.675 164.692 292.6C165.14 292.515 165.625 292.472 166.148 292.472ZM178.081 292.68C177.665 294.237 177.174 295.731 176.609 297.16C176.054 298.589 175.515 299.869 174.993 301H173.649C173.126 299.869 172.582 298.589 172.017 297.16C171.462 295.731 170.977 294.237 170.561 292.68H172.161C172.289 293.203 172.438 293.763 172.609 294.36C172.79 294.947 172.977 295.533 173.169 296.12C173.371 296.696 173.574 297.256 173.777 297.8C173.979 298.344 174.171 298.829 174.353 299.256C174.534 298.829 174.726 298.344 174.929 297.8C175.131 297.256 175.329 296.696 175.521 296.12C175.723 295.533 175.91 294.947 176.081 294.36C176.262 293.763 176.417 293.203 176.545 292.68H178.081ZM181.104 301H179.616V292.68H181.104V301ZM180.352 291.176C180.085 291.176 179.856 291.091 179.664 290.92C179.483 290.739 179.392 290.499 179.392 290.2C179.392 289.901 179.483 289.667 179.664 289.496C179.856 289.315 180.085 289.224 180.352 289.224C180.619 289.224 180.843 289.315 181.024 289.496C181.216 289.667 181.312 289.901 181.312 290.2C181.312 290.499 181.216 290.739 181.024 290.92C180.843 291.091 180.619 291.176 180.352 291.176ZM191.007 296.84C191.007 297.501 190.911 298.099 190.719 298.632C190.527 299.165 190.255 299.624 189.903 300.008C189.561 300.392 189.151 300.691 188.671 300.904C188.191 301.107 187.668 301.208 187.103 301.208C186.537 301.208 186.015 301.107 185.535 300.904C185.055 300.691 184.639 300.392 184.287 300.008C183.945 299.624 183.679 299.165 183.487 298.632C183.295 298.099 183.199 297.501 183.199 296.84C183.199 296.189 183.295 295.597 183.487 295.064C183.679 294.52 183.945 294.056 184.287 293.672C184.639 293.288 185.055 292.995 185.535 292.792C186.015 292.579 186.537 292.472 187.103 292.472C187.668 292.472 188.191 292.579 188.671 292.792C189.151 292.995 189.561 293.288 189.903 293.672C190.255 294.056 190.527 294.52 190.719 295.064C190.911 295.597 191.007 296.189 191.007 296.84ZM189.455 296.84C189.455 295.901 189.241 295.16 188.815 294.616C188.399 294.061 187.828 293.784 187.103 293.784C186.377 293.784 185.801 294.061 185.375 294.616C184.959 295.16 184.751 295.901 184.751 296.84C184.751 297.779 184.959 298.525 185.375 299.08C185.801 299.624 186.377 299.896 187.103 299.896C187.828 299.896 188.399 299.624 188.815 299.08C189.241 298.525 189.455 297.779 189.455 296.84ZM199.724 300.76C199.383 300.845 198.93 300.936 198.364 301.032C197.81 301.128 197.164 301.176 196.428 301.176C195.788 301.176 195.25 301.085 194.812 300.904C194.375 300.712 194.023 300.445 193.756 300.104C193.49 299.763 193.298 299.363 193.18 298.904C193.063 298.435 193.004 297.917 193.004 297.352V292.68H194.492V297.032C194.492 298.045 194.652 298.771 194.972 299.208C195.292 299.645 195.831 299.864 196.588 299.864C196.748 299.864 196.914 299.859 197.084 299.848C197.255 299.837 197.415 299.827 197.564 299.816C197.714 299.795 197.847 299.779 197.964 299.768C198.092 299.747 198.183 299.725 198.236 299.704V292.68H199.724V300.76ZM205.36 292.504C205.488 292.504 205.632 292.515 205.792 292.536C205.962 292.547 206.128 292.568 206.288 292.6C206.448 292.621 206.592 292.648 206.72 292.68C206.858 292.701 206.96 292.723 207.024 292.744L206.768 294.04C206.65 293.997 206.453 293.949 206.176 293.896C205.909 293.832 205.562 293.8 205.136 293.8C204.858 293.8 204.581 293.832 204.304 293.896C204.037 293.949 203.861 293.987 203.776 294.008V301H202.288V293.032C202.64 292.904 203.077 292.787 203.6 292.68C204.122 292.563 204.709 292.504 205.36 292.504ZM90.0407 314.216C90.0407 315.581 90.238 316.845 90.6327 318.008C91.0274 319.171 91.6087 320.248 92.3767 321.24L91.3207 321.96C90.4887 320.947 89.8167 319.784 89.3047 318.472C88.8034 317.149 88.5527 315.731 88.5527 314.216C88.5527 312.701 88.8034 311.288 89.3047 309.976C89.8167 308.653 90.4887 307.485 91.3207 306.472L92.3767 307.192C91.6087 308.184 91.0274 309.261 90.6327 310.424C90.238 311.587 90.0407 312.851 90.0407 314.216ZM101.468 319C101.234 318.605 100.962 318.163 100.652 317.672C100.354 317.181 100.028 316.675 99.6762 316.152C99.3242 315.619 98.9562 315.08 98.5722 314.536C98.1989 313.992 97.8255 313.469 97.4522 312.968C97.0789 312.456 96.7162 311.976 96.3642 311.528C96.0122 311.08 95.6869 310.685 95.3882 310.344V319H93.8682V307.912H95.1002C95.6015 308.445 96.1349 309.069 96.7002 309.784C97.2762 310.488 97.8415 311.219 98.3962 311.976C98.9615 312.723 99.4895 313.459 99.9802 314.184C100.482 314.909 100.903 315.555 101.244 316.12V307.912H102.764V319H101.468ZM112.757 314.84C112.757 315.501 112.661 316.099 112.469 316.632C112.277 317.165 112.005 317.624 111.653 318.008C111.311 318.392 110.901 318.691 110.421 318.904C109.941 319.107 109.418 319.208 108.853 319.208C108.287 319.208 107.765 319.107 107.285 318.904C106.805 318.691 106.389 318.392 106.037 318.008C105.695 317.624 105.429 317.165 105.237 316.632C105.045 316.099 104.949 315.501 104.949 314.84C104.949 314.189 105.045 313.597 105.237 313.064C105.429 312.52 105.695 312.056 106.037 311.672C106.389 311.288 106.805 310.995 107.285 310.792C107.765 310.579 108.287 310.472 108.853 310.472C109.418 310.472 109.941 310.579 110.421 310.792C110.901 310.995 111.311 311.288 111.653 311.672C112.005 312.056 112.277 312.52 112.469 313.064C112.661 313.597 112.757 314.189 112.757 314.84ZM111.205 314.84C111.205 313.901 110.991 313.16 110.565 312.616C110.149 312.061 109.578 311.784 108.853 311.784C108.127 311.784 107.551 312.061 107.125 312.616C106.709 313.16 106.501 313.901 106.501 314.84C106.501 315.779 106.709 316.525 107.125 317.08C107.551 317.624 108.127 317.896 108.853 317.896C109.578 317.896 110.149 317.624 110.565 317.08C110.991 316.525 111.205 315.779 111.205 314.84ZM114.85 310.92C115.192 310.835 115.645 310.744 116.21 310.648C116.776 310.552 117.426 310.504 118.162 310.504C118.824 310.504 119.373 310.6 119.81 310.792C120.248 310.973 120.594 311.235 120.85 311.576C121.117 311.907 121.304 312.307 121.41 312.776C121.517 313.245 121.57 313.763 121.57 314.328V319H120.082V314.648C120.082 314.136 120.045 313.699 119.97 313.336C119.906 312.973 119.794 312.68 119.634 312.456C119.474 312.232 119.261 312.072 118.994 311.976C118.728 311.869 118.397 311.816 118.002 311.816C117.842 311.816 117.677 311.821 117.506 311.832C117.336 311.843 117.17 311.859 117.01 311.88C116.861 311.891 116.722 311.907 116.594 311.928C116.477 311.949 116.392 311.965 116.338 311.976V319H114.85V310.92ZM123.174 313.512H127.126V314.904H123.174V313.512ZM134.595 314.856C134.595 313.885 134.355 313.139 133.875 312.616C133.395 312.093 132.755 311.832 131.955 311.832C131.507 311.832 131.155 311.848 130.899 311.88C130.654 311.912 130.456 311.949 130.307 311.992V317.24C130.488 317.389 130.75 317.533 131.091 317.672C131.432 317.811 131.806 317.88 132.211 317.88C132.638 317.88 133 317.805 133.299 317.656C133.608 317.496 133.859 317.283 134.051 317.016C134.243 316.739 134.382 316.419 134.467 316.056C134.552 315.683 134.595 315.283 134.595 314.856ZM136.147 314.856C136.147 315.485 136.062 316.067 135.891 316.6C135.731 317.133 135.491 317.592 135.171 317.976C134.851 318.36 134.456 318.659 133.987 318.872C133.528 319.085 133 319.192 132.403 319.192C131.923 319.192 131.496 319.128 131.123 319C130.76 318.872 130.488 318.749 130.307 318.632V321.96H128.819V310.936C129.171 310.851 129.608 310.76 130.131 310.664C130.664 310.557 131.278 310.504 131.971 310.504C132.611 310.504 133.187 310.605 133.699 310.808C134.211 311.011 134.648 311.299 135.011 311.672C135.374 312.045 135.651 312.504 135.843 313.048C136.046 313.581 136.147 314.184 136.147 314.856ZM137.777 314.856C137.777 314.12 137.884 313.48 138.097 312.936C138.31 312.381 138.593 311.923 138.945 311.56C139.297 311.197 139.702 310.925 140.161 310.744C140.62 310.563 141.089 310.472 141.569 310.472C142.689 310.472 143.548 310.824 144.145 311.528C144.742 312.221 145.041 313.283 145.041 314.712C145.041 314.776 145.041 314.861 145.041 314.968C145.041 315.064 145.036 315.155 145.025 315.24H139.329C139.393 316.104 139.644 316.76 140.081 317.208C140.518 317.656 141.201 317.88 142.129 317.88C142.652 317.88 143.089 317.837 143.441 317.752C143.804 317.656 144.076 317.565 144.257 317.48L144.465 318.728C144.284 318.824 143.964 318.925 143.505 319.032C143.057 319.139 142.545 319.192 141.969 319.192C141.244 319.192 140.614 319.085 140.081 318.872C139.558 318.648 139.126 318.344 138.785 317.96C138.444 317.576 138.188 317.123 138.017 316.6C137.857 316.067 137.777 315.485 137.777 314.856ZM143.489 314.04C143.5 313.368 143.329 312.819 142.977 312.392C142.636 311.955 142.161 311.736 141.553 311.736C141.212 311.736 140.908 311.805 140.641 311.944C140.385 312.072 140.166 312.243 139.985 312.456C139.804 312.669 139.66 312.915 139.553 313.192C139.457 313.469 139.393 313.752 139.361 314.04H143.489ZM150.25 310.504C150.378 310.504 150.522 310.515 150.682 310.536C150.853 310.547 151.018 310.568 151.178 310.6C151.338 310.621 151.482 310.648 151.61 310.68C151.749 310.701 151.85 310.723 151.914 310.744L151.658 312.04C151.541 311.997 151.344 311.949 151.066 311.896C150.8 311.832 150.453 311.8 150.026 311.8C149.749 311.8 149.472 311.832 149.194 311.896C148.928 311.949 148.752 311.987 148.666 312.008V319H147.178V311.032C147.53 310.904 147.968 310.787 148.49 310.68C149.013 310.563 149.6 310.504 150.25 310.504ZM156.598 306.584C157.036 306.584 157.409 306.616 157.718 306.68C158.038 306.744 158.262 306.803 158.39 306.856L158.118 308.136C157.99 308.072 157.809 308.013 157.574 307.96C157.34 307.896 157.052 307.864 156.71 307.864C156.017 307.864 155.532 308.056 155.254 308.44C154.977 308.813 154.838 309.32 154.838 309.96V310.68H158.038V311.928H154.838V319H153.35V309.928C153.35 308.861 153.612 308.04 154.134 307.464C154.657 306.877 155.478 306.584 156.598 306.584ZM166.866 314.84C166.866 315.501 166.77 316.099 166.578 316.632C166.386 317.165 166.114 317.624 165.762 318.008C165.421 318.392 165.01 318.691 164.53 318.904C164.05 319.107 163.528 319.208 162.962 319.208C162.397 319.208 161.874 319.107 161.394 318.904C160.914 318.691 160.498 318.392 160.146 318.008C159.805 317.624 159.538 317.165 159.346 316.632C159.154 316.099 159.058 315.501 159.058 314.84C159.058 314.189 159.154 313.597 159.346 313.064C159.538 312.52 159.805 312.056 160.146 311.672C160.498 311.288 160.914 310.995 161.394 310.792C161.874 310.579 162.397 310.472 162.962 310.472C163.528 310.472 164.05 310.579 164.53 310.792C165.01 310.995 165.421 311.288 165.762 311.672C166.114 312.056 166.386 312.52 166.578 313.064C166.77 313.597 166.866 314.189 166.866 314.84ZM165.314 314.84C165.314 313.901 165.101 313.16 164.674 312.616C164.258 312.061 163.688 311.784 162.962 311.784C162.237 311.784 161.661 312.061 161.234 312.616C160.818 313.16 160.61 313.901 160.61 314.84C160.61 315.779 160.818 316.525 161.234 317.08C161.661 317.624 162.237 317.896 162.962 317.896C163.688 317.896 164.258 317.624 164.674 317.08C165.101 316.525 165.314 315.779 165.314 314.84ZM172.032 310.504C172.16 310.504 172.304 310.515 172.464 310.536C172.634 310.547 172.8 310.568 172.96 310.6C173.12 310.621 173.264 310.648 173.392 310.68C173.53 310.701 173.632 310.723 173.696 310.744L173.44 312.04C173.322 311.997 173.125 311.949 172.848 311.896C172.581 311.832 172.234 311.8 171.808 311.8C171.53 311.8 171.253 311.832 170.976 311.896C170.709 311.949 170.533 311.987 170.448 312.008V319H168.96V311.032C169.312 310.904 169.749 310.787 170.272 310.68C170.794 310.563 171.381 310.504 172.032 310.504ZM175.132 310.92C175.473 310.835 175.921 310.744 176.476 310.648C177.041 310.552 177.692 310.504 178.428 310.504C178.961 310.504 179.409 310.579 179.772 310.728C180.134 310.867 180.438 311.075 180.684 311.352C180.758 311.299 180.876 311.224 181.036 311.128C181.196 311.032 181.393 310.941 181.628 310.856C181.862 310.76 182.124 310.68 182.412 310.616C182.7 310.541 183.009 310.504 183.34 310.504C183.98 310.504 184.502 310.6 184.908 310.792C185.313 310.973 185.628 311.235 185.852 311.576C186.086 311.917 186.241 312.323 186.316 312.792C186.401 313.261 186.444 313.773 186.444 314.328V319H184.956V314.648C184.956 314.157 184.929 313.736 184.876 313.384C184.833 313.032 184.742 312.739 184.604 312.504C184.476 312.269 184.294 312.099 184.06 311.992C183.836 311.875 183.542 311.816 183.18 311.816C182.678 311.816 182.262 311.885 181.932 312.024C181.612 312.152 181.393 312.269 181.276 312.376C181.361 312.653 181.425 312.957 181.468 313.288C181.51 313.619 181.532 313.965 181.532 314.328V319H180.044V314.648C180.044 314.157 180.017 313.736 179.964 313.384C179.91 313.032 179.814 312.739 179.676 312.504C179.548 312.269 179.366 312.099 179.132 311.992C178.908 311.875 178.62 311.816 178.268 311.816C178.118 311.816 177.958 311.821 177.788 311.832C177.617 311.843 177.452 311.859 177.292 311.88C177.142 311.891 177.004 311.907 176.876 311.928C176.748 311.949 176.662 311.965 176.62 311.976V319H175.132V310.92ZM190.401 319H188.913V310.68H190.401V319ZM189.649 309.176C189.382 309.176 189.153 309.091 188.961 308.92C188.779 308.739 188.689 308.499 188.689 308.2C188.689 307.901 188.779 307.667 188.961 307.496C189.153 307.315 189.382 307.224 189.649 307.224C189.915 307.224 190.139 307.315 190.321 307.496C190.513 307.667 190.609 307.901 190.609 308.2C190.609 308.499 190.513 308.739 190.321 308.92C190.139 309.091 189.915 309.176 189.649 309.176ZM192.96 310.92C193.301 310.835 193.754 310.744 194.32 310.648C194.885 310.552 195.536 310.504 196.272 310.504C196.933 310.504 197.482 310.6 197.92 310.792C198.357 310.973 198.704 311.235 198.96 311.576C199.226 311.907 199.413 312.307 199.52 312.776C199.626 313.245 199.68 313.763 199.68 314.328V319H198.192V314.648C198.192 314.136 198.154 313.699 198.08 313.336C198.016 312.973 197.904 312.68 197.744 312.456C197.584 312.232 197.37 312.072 197.104 311.976C196.837 311.869 196.506 311.816 196.112 311.816C195.952 311.816 195.786 311.821 195.616 311.832C195.445 311.843 195.28 311.859 195.12 311.88C194.97 311.891 194.832 311.907 194.704 311.928C194.586 311.949 194.501 311.965 194.448 311.976V319H192.96V310.92ZM207.363 318.168C207.235 318.253 206.985 318.365 206.611 318.504C206.249 318.632 205.822 318.696 205.331 318.696C204.83 318.696 204.355 318.616 203.907 318.456C203.47 318.296 203.086 318.051 202.755 317.72C202.425 317.379 202.163 316.957 201.971 316.456C201.779 315.955 201.683 315.357 201.683 314.664C201.683 314.056 201.774 313.501 201.955 313C202.137 312.488 202.398 312.051 202.739 311.688C203.091 311.315 203.518 311.027 204.019 310.824C204.521 310.611 205.086 310.504 205.715 310.504C206.409 310.504 207.011 310.557 207.523 310.664C208.046 310.76 208.483 310.851 208.835 310.936V318.36C208.835 319.64 208.505 320.568 207.843 321.144C207.182 321.72 206.179 322.008 204.835 322.008C204.313 322.008 203.817 321.965 203.347 321.88C202.889 321.795 202.489 321.693 202.147 321.576L202.419 320.28C202.718 320.397 203.081 320.499 203.507 320.584C203.945 320.68 204.398 320.728 204.867 320.728C205.753 320.728 206.387 320.552 206.771 320.2C207.166 319.848 207.363 319.288 207.363 318.52V318.168ZM207.347 311.992C207.198 311.949 206.995 311.912 206.739 311.88C206.494 311.837 206.158 311.816 205.731 311.816C204.931 311.816 204.313 312.077 203.875 312.6C203.449 313.123 203.235 313.816 203.235 314.68C203.235 315.16 203.294 315.571 203.411 315.912C203.539 316.253 203.705 316.536 203.907 316.76C204.121 316.984 204.361 317.149 204.627 317.256C204.905 317.363 205.187 317.416 205.475 317.416C205.87 317.416 206.233 317.363 206.563 317.256C206.894 317.139 207.155 317.005 207.347 316.856V311.992ZM221.868 317.656V319H215.196V307.912H216.748V317.656H221.868ZM230.554 314.84C230.554 315.501 230.458 316.099 230.266 316.632C230.074 317.165 229.802 317.624 229.45 318.008C229.108 318.392 228.698 318.691 228.218 318.904C227.738 319.107 227.215 319.208 226.65 319.208C226.084 319.208 225.562 319.107 225.082 318.904C224.602 318.691 224.186 318.392 223.834 318.008C223.492 317.624 223.226 317.165 223.034 316.632C222.842 316.099 222.746 315.501 222.746 314.84C222.746 314.189 222.842 313.597 223.034 313.064C223.226 312.52 223.492 312.056 223.834 311.672C224.186 311.288 224.602 310.995 225.082 310.792C225.562 310.579 226.084 310.472 226.65 310.472C227.215 310.472 227.738 310.579 228.218 310.792C228.698 310.995 229.108 311.288 229.45 311.672C229.802 312.056 230.074 312.52 230.266 313.064C230.458 313.597 230.554 314.189 230.554 314.84ZM229.002 314.84C229.002 313.901 228.788 313.16 228.362 312.616C227.946 312.061 227.375 311.784 226.65 311.784C225.924 311.784 225.348 312.061 224.922 312.616C224.506 313.16 224.298 313.901 224.298 314.84C224.298 315.779 224.506 316.525 224.922 317.08C225.348 317.624 225.924 317.896 226.65 317.896C227.375 317.896 227.946 317.624 228.362 317.08C228.788 316.525 229.002 315.779 229.002 314.84ZM235.463 317.928C235.815 317.928 236.125 317.923 236.391 317.912C236.669 317.891 236.898 317.859 237.079 317.816V315.336C236.973 315.283 236.797 315.24 236.551 315.208C236.317 315.165 236.029 315.144 235.687 315.144C235.463 315.144 235.223 315.16 234.967 315.192C234.722 315.224 234.493 315.293 234.279 315.4C234.077 315.496 233.906 315.635 233.767 315.816C233.629 315.987 233.559 316.216 233.559 316.504C233.559 317.037 233.73 317.411 234.071 317.624C234.413 317.827 234.877 317.928 235.463 317.928ZM235.335 310.472C235.933 310.472 236.434 310.552 236.839 310.712C237.255 310.861 237.586 311.08 237.831 311.368C238.087 311.645 238.269 311.981 238.375 312.376C238.482 312.76 238.535 313.187 238.535 313.656V318.856C238.407 318.877 238.226 318.909 237.991 318.952C237.767 318.984 237.511 319.016 237.223 319.048C236.935 319.08 236.621 319.107 236.279 319.128C235.949 319.16 235.618 319.176 235.287 319.176C234.818 319.176 234.386 319.128 233.991 319.032C233.597 318.936 233.255 318.787 232.967 318.584C232.679 318.371 232.455 318.093 232.295 317.752C232.135 317.411 232.055 317 232.055 316.52C232.055 316.061 232.146 315.667 232.327 315.336C232.519 315.005 232.775 314.739 233.095 314.536C233.415 314.333 233.789 314.184 234.215 314.088C234.642 313.992 235.09 313.944 235.559 313.944C235.709 313.944 235.863 313.955 236.023 313.976C236.183 313.987 236.333 314.008 236.471 314.04C236.621 314.061 236.749 314.083 236.855 314.104C236.962 314.125 237.037 314.141 237.079 314.152V313.736C237.079 313.491 237.053 313.251 236.999 313.016C236.946 312.771 236.85 312.557 236.711 312.376C236.573 312.184 236.381 312.035 236.135 311.928C235.901 311.811 235.591 311.752 235.207 311.752C234.717 311.752 234.285 311.789 233.911 311.864C233.549 311.928 233.277 311.997 233.095 312.072L232.919 310.84C233.111 310.755 233.431 310.675 233.879 310.6C234.327 310.515 234.813 310.472 235.335 310.472ZM241.007 310.92C241.348 310.835 241.801 310.744 242.367 310.648C242.932 310.552 243.583 310.504 244.319 310.504C244.98 310.504 245.529 310.6 245.967 310.792C246.404 310.973 246.751 311.235 247.007 311.576C247.273 311.907 247.46 312.307 247.567 312.776C247.673 313.245 247.727 313.763 247.727 314.328V319H246.239V314.648C246.239 314.136 246.201 313.699 246.127 313.336C246.063 312.973 245.951 312.68 245.791 312.456C245.631 312.232 245.417 312.072 245.151 311.976C244.884 311.869 244.553 311.816 244.159 311.816C243.999 311.816 243.833 311.821 243.663 311.832C243.492 311.843 243.327 311.859 243.167 311.88C243.017 311.891 242.879 311.907 242.751 311.928C242.633 311.949 242.548 311.965 242.495 311.976V319H241.007V310.92ZM250.956 314.216C250.956 312.851 250.758 311.587 250.364 310.424C249.969 309.261 249.388 308.184 248.62 307.192L249.676 306.472C250.508 307.485 251.174 308.653 251.676 309.976C252.188 311.288 252.444 312.701 252.444 314.216C252.444 315.731 252.188 317.149 251.676 318.472C251.174 319.784 250.508 320.947 249.676 321.96L248.62 321.24C249.388 320.248 249.969 319.171 250.364 318.008C250.758 316.845 250.956 315.581 250.956 314.216Z" fill="white"/>
<g filter="url(#filter1_d)">
<path d="M188.45 188.647L210.865 179.016C213.305 178.072 216.065 179.116 217.269 181.438C218.724 184.242 217.323 187.681 214.324 188.672L202.476 192.757L184.269 198.501V190.272L188.45 188.647Z" fill="#AF6837"/>
<path d="M217.848 183.796C217.848 185.925 216.512 187.95 214.325 188.673L202.476 192.757L184.27 198.501V194.001L200.785 188.794L212.633 184.707C214.767 184.002 216.089 182.061 216.151 179.99C216.596 180.391 216.978 180.877 217.268 181.438C217.662 182.196 217.848 183.004 217.848 183.796Z" fill="#9B592D"/>
<path d="M176.275 116.639C170.86 116.639 166.455 112.234 166.455 106.819C166.455 101.405 170.86 97 176.275 97C181.689 97 186.094 101.405 186.094 106.819C186.094 112.234 181.689 116.639 176.275 116.639ZM176.275 100.516C172.799 100.516 169.971 103.343 169.971 106.819C169.971 110.295 172.799 113.123 176.275 113.123C179.75 113.123 182.578 110.295 182.578 106.819C182.578 103.343 179.751 100.516 176.275 100.516Z" fill="#9C9C9C"/>
<path d="M180.575 123.749H171.974V113.213C171.974 110.838 173.9 108.912 176.275 108.912C178.65 108.912 180.576 110.838 180.576 113.213V123.749H180.575Z" fill="#5A5A5A"/>
<path d="M180.575 113.214V123.75H176.517V113.276C176.517 111.842 175.936 110.542 174.995 109.601C174.871 109.477 174.743 109.36 174.607 109.248C175.119 109.032 175.683 108.913 176.274 108.913C177.462 108.913 178.536 109.394 179.315 110.172C180.094 110.951 180.575 112.026 180.575 113.214Z" fill="#444444"/>
<path d="M176.275 193.499C196.154 193.499 212.27 177.383 212.27 157.504C212.27 137.624 196.154 121.508 176.275 121.508C156.395 121.508 140.279 137.624 140.279 157.504C140.279 177.383 156.395 193.499 176.275 193.499Z" fill="#FAC600"/>
<path d="M212.271 157.385C212.271 177.263 196.155 193.379 176.274 193.379C170.02 193.379 164.138 191.783 159.015 188.978C162.875 190.39 167.043 191.162 171.392 191.162C191.273 191.162 207.388 175.046 207.388 155.165C207.388 141.543 199.82 129.687 188.66 123.574C202.44 128.625 212.271 141.857 212.271 157.385Z" fill="#E8B800"/>
<path d="M176.275 184.985C191.518 184.985 203.876 172.628 203.876 157.384C203.876 142.14 191.518 129.783 176.275 129.783C161.031 129.783 148.674 142.14 148.674 157.384C148.674 172.628 161.031 184.985 176.275 184.985Z" fill="#F9F7F8"/>
<path d="M203.876 157.385C203.876 172.626 191.518 184.984 176.274 184.984C169.708 184.984 163.676 182.691 158.937 178.859C162.819 180.943 167.258 182.126 171.975 182.126C187.217 182.126 199.575 169.769 199.575 154.527C199.575 145.851 195.574 138.111 189.315 133.055C197.984 137.706 203.876 146.858 203.876 157.385Z" fill="#EFEDEF"/>
<path d="M176.275 141.665C175.304 141.665 174.517 140.878 174.517 139.907V137.004C174.517 136.033 175.304 135.246 176.275 135.246C177.246 135.246 178.033 136.033 178.033 137.004V139.907C178.033 140.878 177.246 141.665 176.275 141.665Z" fill="#9C9C9C"/>
<path d="M176.275 179.522C175.304 179.522 174.517 178.735 174.517 177.764V174.861C174.517 173.89 175.304 173.103 176.275 173.103C177.246 173.103 178.033 173.89 178.033 174.861V177.764C178.033 178.735 177.246 179.522 176.275 179.522Z" fill="#9C9C9C"/>
<path d="M167.538 144.007C166.93 144.007 166.34 143.692 166.014 143.128L164.563 140.614C164.077 139.773 164.365 138.698 165.206 138.212C166.047 137.727 167.122 138.015 167.607 138.856L169.059 141.37C169.544 142.211 169.256 143.286 168.415 143.771C168.138 143.931 167.836 144.007 167.538 144.007Z" fill="#9C9C9C"/>
<path d="M186.466 176.791C185.859 176.791 185.268 176.476 184.942 175.912L183.491 173.398C183.005 172.557 183.294 171.482 184.134 170.997C184.975 170.511 186.05 170.799 186.535 171.64L187.987 174.154C188.472 174.995 188.184 176.07 187.344 176.555C187.067 176.715 186.764 176.791 186.466 176.791Z" fill="#9C9C9C"/>
<path d="M161.138 150.404C160.84 150.404 160.537 150.328 160.261 150.168L157.746 148.717C156.906 148.231 156.618 147.156 157.103 146.315C157.588 145.474 158.663 145.186 159.504 145.672L162.018 147.123C162.859 147.609 163.147 148.684 162.662 149.525C162.336 150.088 161.745 150.404 161.138 150.404Z" fill="#9C9C9C"/>
<path d="M193.922 169.332C193.624 169.332 193.322 169.256 193.045 169.096L190.531 167.645C189.69 167.159 189.402 166.084 189.888 165.244C190.373 164.403 191.448 164.115 192.289 164.6L194.803 166.052C195.644 166.537 195.932 167.612 195.446 168.453C195.121 169.017 194.53 169.332 193.922 169.332Z" fill="#9C9C9C"/>
<path d="M158.798 159.142H155.895C154.924 159.142 154.137 158.355 154.137 157.384C154.137 156.413 154.924 155.626 155.895 155.626H158.798C159.769 155.626 160.556 156.413 160.556 157.384C160.556 158.355 159.769 159.142 158.798 159.142Z" fill="#9C9C9C"/>
<path d="M196.655 159.142H193.752C192.781 159.142 191.994 158.355 191.994 157.384C191.994 156.413 192.781 155.626 193.752 155.626H196.655C197.626 155.626 198.412 156.413 198.412 157.384C198.412 158.355 197.625 159.142 196.655 159.142Z" fill="#9C9C9C"/>
<path d="M158.627 169.332C158.02 169.332 157.429 169.017 157.103 168.453C156.618 167.612 156.906 166.537 157.746 166.052L160.261 164.6C161.101 164.115 162.176 164.403 162.662 165.243C163.147 166.084 162.859 167.159 162.018 167.645L159.504 169.096C159.227 169.256 158.925 169.332 158.627 169.332Z" fill="#9C9C9C"/>
<path d="M191.412 150.404C190.804 150.404 190.213 150.088 189.888 149.524C189.402 148.684 189.69 147.609 190.531 147.123L193.045 145.672C193.885 145.187 194.961 145.474 195.446 146.315C195.932 147.156 195.644 148.231 194.803 148.716L192.289 150.168C192.012 150.327 191.71 150.404 191.412 150.404Z" fill="#9C9C9C"/>
<path d="M166.083 176.792C165.785 176.792 165.483 176.716 165.206 176.556C164.365 176.071 164.077 174.995 164.563 174.155L166.014 171.641C166.499 170.8 167.574 170.511 168.415 170.997C169.256 171.483 169.544 172.558 169.059 173.398L167.607 175.913C167.282 176.477 166.691 176.792 166.083 176.792Z" fill="#9C9C9C"/>
<path d="M185.012 144.007C184.713 144.007 184.411 143.931 184.134 143.771C183.294 143.286 183.006 142.211 183.491 141.37L184.942 138.856C185.428 138.015 186.502 137.727 187.344 138.213C188.184 138.698 188.472 139.773 187.987 140.614L186.535 143.128C186.21 143.692 185.619 144.007 185.012 144.007Z" fill="#9C9C9C"/>
<path d="M176.275 159.602C177.5 159.602 178.493 158.609 178.493 157.384C178.493 156.159 177.5 155.166 176.275 155.166C175.05 155.166 174.057 156.159 174.057 157.384C174.057 158.609 175.05 159.602 176.275 159.602Z" fill="#5A5A5A"/>
<path d="M228.826 189.136C226.883 186.127 223.048 184.964 219.76 186.388L186.144 197.49L186.083 197.485C188.11 196.796 189.68 195.011 189.982 192.744C190.407 189.559 188.169 186.634 184.985 186.209C178.836 184.999 172.688 183.789 166.54 182.58C164.08 182.096 155.61 180.262 153.923 180.37C150.485 180.591 147.409 183.116 144.756 184.999C138.795 189.229 132.808 187.965 126.703 185.899V208.388L141.412 207.53C144.527 207.264 147.661 207.686 150.595 208.766C150.595 208.766 164.66 213.947 164.668 213.95C174.293 217.495 182.763 213.355 191.7 210.344C203.023 206.529 214.62 203.584 225.915 199.681C229.842 197.742 231.202 192.815 228.826 189.136Z" fill="#D88A55"/>
<path d="M225.914 199.682C214.619 203.585 203.022 206.528 191.701 210.344C182.762 213.355 174.292 217.495 164.669 213.95C164.659 213.947 150.594 208.766 150.594 208.766C147.661 207.686 144.527 207.266 141.411 207.531L126.702 208.389V203.578L141.411 202.717C144.527 202.452 148.113 202.422 151.046 203.503C151.046 203.503 165.111 208.684 165.121 208.686C174.743 212.231 182.762 208.544 191.701 205.533C203.022 201.717 214.619 198.771 225.914 194.868C227.725 193.974 228.988 192.447 229.592 190.7C230.784 194.102 229.305 198.005 225.914 199.682Z" fill="#C57A44"/>
<path d="M123.76 216.172H113.746C111.677 216.172 110 214.495 110 212.426V183.162C110 181.093 111.677 179.416 113.746 179.416H123.76C125.829 179.416 127.505 181.093 127.505 183.162V212.426C127.506 214.495 125.829 216.172 123.76 216.172Z" fill="#60B7FF"/>
<path d="M127.505 183.162V212.427C127.505 214.496 125.828 216.173 123.759 216.173H118.926C120.995 216.173 122.672 214.496 122.672 212.427V183.162C122.672 181.094 120.995 179.417 118.926 179.417H123.759C125.828 179.417 127.505 181.094 127.505 183.162Z" fill="#26A6FE"/>
<path d="M190.03 191.879C190.037 192.164 190.02 192.453 189.982 192.745C189.68 195.01 188.11 196.797 186.082 197.485L186.143 197.49L186.559 197.352C185.909 197.621 185.212 197.762 184.507 197.733L184.033 197.692L160.847 192.465C160.214 192.127 159.852 191.48 159.852 190.807C159.852 190.513 159.923 190.211 160.071 189.932C160.557 189.015 161.69 188.67 162.607 189.156C162.607 189.156 183.313 193.603 184.385 193.802C187.298 194.346 189.174 192.465 190.03 191.879Z" fill="#C57A44"/>
</g>
<defs>
<filter id="filter0_d" x="0" y="0" width="340" height="408" filterUnits="userSpaceOnUse" color-interpolation-filters="sRGB">
<feFlood flood-opacity="0" result="BackgroundImageFix"/>
<feColorMatrix in="SourceAlpha" type="matrix" values="0 0 0 0 0 0 0 0 0 0 0 0 0 0 0 0 0 0 127 0"/>
<feOffset dy="24"/>
<feGaussianBlur stdDeviation="25"/>
<feColorMatrix type="matrix" values="0 0 0 0 0.258824 0 0 0 0 0.258824 0 0 0 0 0.258824 0 0 0 0.2 0"/>
<feBlend mode="normal" in2="BackgroundImageFix" result="effect1_dropShadow"/>
<feBlend mode="normal" in="SourceGraphic" in2="effect1_dropShadow" result="shape"/>
</filter>
<filter id="filter1_d" x="100" y="91" width="140" height="139.173" filterUnits="userSpaceOnUse" color-interpolation-filters="sRGB">
<feFlood flood-opacity="0" result="BackgroundImageFix"/>
<feColorMatrix in="SourceAlpha" type="matrix" values="0 0 0 0 0 0 0 0 0 0 0 0 0 0 0 0 0 0 127 0"/>
<feOffset dy="4"/>
<feGaussianBlur stdDeviation="5"/>
<feColorMatrix type="matrix" values="0 0 0 0 0.8875 0 0 0 0 0.707664 0 0 0 0 0.576875 0 0 0 0.5 0"/>
<feBlend mode="normal" in2="BackgroundImageFix" result="effect1_dropShadow"/>
<feBlend mode="normal" in="SourceGraphic" in2="effect1_dropShadow" result="shape"/>
</filter>
<linearGradient id="paint0_linear" x1="290" y1="26" x2="50" y2="334" gradientUnits="userSpaceOnUse">
<stop stop-color="white"/>
<stop offset="1" stop-color="#FFE1CC"/>
</linearGradient>
</defs>
</svg>
