<svg width="340" height="408" viewBox="0 0 340 408" fill="none" xmlns="http://www.w3.org/2000/svg">
<g filter="url(#filter0_d)">
<rect x="50" y="26" width="240" height="308" rx="12" fill="url(#paint0_linear)"/>
</g>
<path opacity="0.2" fill-rule="evenodd" clip-rule="evenodd" d="M134 255.499C134 255.665 134 255.832 133.999 255.999H111.349C111.35 255.832 111.351 255.665 111.351 255.498C111.351 221.506 83.9289 193.919 50 193.65V171C96.438 171.269 134 208.997 134 255.499Z" fill="#FFC078"/>
<path opacity="0.2" fill-rule="evenodd" clip-rule="evenodd" d="M290 211.92C279.981 213.94 269.614 215 259 215C172.844 215 103 145.156 103 59C103 47.6778 104.206 36.6373 106.497 26H173.348C169.4 36.2406 167.235 47.3676 167.235 59C167.235 109.68 208.32 150.765 259 150.765C269.879 150.765 280.317 148.871 290 145.396V211.92Z" fill="#FFC078"/>
<path d="M50 256H290V322C290 328.627 284.627 334 278 334H62C55.3726 334 50 328.627 50 322V256Z" fill="#F76707"/>
<path d="M83.6963 283V271.912H90.4643V273.24H85.2483V276.536H89.8883V277.832H85.2483V281.672H90.8643V283H83.6963ZM92.7409 274.92C93.0823 274.835 93.5356 274.744 94.1009 274.648C94.6663 274.552 95.3169 274.504 96.0529 274.504C96.7143 274.504 97.2636 274.6 97.7009 274.792C98.1383 274.973 98.4849 275.235 98.7409 275.576C99.0076 275.907 99.1943 276.307 99.3009 276.776C99.4076 277.245 99.4609 277.763 99.4609 278.328V283H97.9729V278.648C97.9729 278.136 97.9356 277.699 97.8609 277.336C97.7969 276.973 97.6849 276.68 97.5249 276.456C97.3649 276.232 97.1516 276.072 96.8849 275.976C96.6183 275.869 96.2876 275.816 95.8929 275.816C95.7329 275.816 95.5676 275.821 95.3969 275.832C95.2263 275.843 95.0609 275.859 94.9009 275.88C94.7516 275.891 94.6129 275.907 94.4849 275.928C94.3676 275.949 94.2823 275.965 94.2289 275.976V283H92.7409V274.92ZM105 274.504C105.128 274.504 105.272 274.515 105.432 274.536C105.603 274.547 105.768 274.568 105.928 274.6C106.088 274.621 106.232 274.648 106.36 274.68C106.499 274.701 106.6 274.723 106.664 274.744L106.408 276.04C106.291 275.997 106.094 275.949 105.816 275.896C105.55 275.832 105.203 275.8 104.776 275.8C104.499 275.8 104.222 275.832 103.944 275.896C103.678 275.949 103.502 275.987 103.416 276.008V283H101.928V275.032C102.28 274.904 102.718 274.787 103.24 274.68C103.763 274.563 104.35 274.504 105 274.504ZM109.588 283H108.1V274.68H109.588V283ZM108.836 273.176C108.57 273.176 108.34 273.091 108.148 272.92C107.967 272.739 107.876 272.499 107.876 272.2C107.876 271.901 107.967 271.667 108.148 271.496C108.34 271.315 108.57 271.224 108.836 271.224C109.103 271.224 109.327 271.315 109.508 271.496C109.7 271.667 109.796 271.901 109.796 272.2C109.796 272.499 109.7 272.739 109.508 272.92C109.327 273.091 109.103 273.176 108.836 273.176ZM115.763 283.192C115.091 283.192 114.499 283.085 113.987 282.872C113.486 282.659 113.059 282.36 112.707 281.976C112.366 281.592 112.11 281.139 111.939 280.616C111.769 280.083 111.683 279.496 111.683 278.856C111.683 278.216 111.774 277.629 111.955 277.096C112.147 276.563 112.414 276.104 112.755 275.72C113.097 275.325 113.513 275.021 114.003 274.808C114.505 274.584 115.059 274.472 115.667 274.472C116.041 274.472 116.414 274.504 116.787 274.568C117.161 274.632 117.518 274.733 117.859 274.872L117.523 276.136C117.299 276.029 117.038 275.944 116.739 275.88C116.451 275.816 116.142 275.784 115.811 275.784C114.979 275.784 114.339 276.045 113.891 276.568C113.454 277.091 113.235 277.853 113.235 278.856C113.235 279.304 113.283 279.715 113.379 280.088C113.486 280.461 113.646 280.781 113.859 281.048C114.083 281.315 114.366 281.523 114.707 281.672C115.049 281.811 115.465 281.88 115.955 281.88C116.35 281.88 116.707 281.843 117.027 281.768C117.347 281.693 117.598 281.613 117.779 281.528L117.987 282.776C117.902 282.829 117.779 282.883 117.619 282.936C117.459 282.979 117.278 283.016 117.075 283.048C116.873 283.091 116.654 283.123 116.419 283.144C116.195 283.176 115.977 283.192 115.763 283.192ZM119.585 283V270.84L121.073 270.584V274.84C121.35 274.733 121.643 274.653 121.953 274.6C122.273 274.536 122.587 274.504 122.897 274.504C123.558 274.504 124.107 274.6 124.545 274.792C124.982 274.973 125.329 275.235 125.585 275.576C125.851 275.907 126.038 276.307 126.145 276.776C126.251 277.245 126.305 277.763 126.305 278.328V283H124.817V278.648C124.817 278.136 124.779 277.699 124.705 277.336C124.641 276.973 124.529 276.68 124.369 276.456C124.209 276.232 123.995 276.072 123.729 275.976C123.462 275.869 123.131 275.816 122.737 275.816C122.577 275.816 122.411 275.827 122.241 275.848C122.07 275.869 121.905 275.896 121.745 275.928C121.595 275.949 121.457 275.976 121.329 276.008C121.211 276.04 121.126 276.067 121.073 276.088V283H119.585ZM128.261 278.856C128.261 278.12 128.368 277.48 128.581 276.936C128.795 276.381 129.077 275.923 129.429 275.56C129.781 275.197 130.187 274.925 130.645 274.744C131.104 274.563 131.573 274.472 132.053 274.472C133.173 274.472 134.032 274.824 134.629 275.528C135.227 276.221 135.525 277.283 135.525 278.712C135.525 278.776 135.525 278.861 135.525 278.968C135.525 279.064 135.52 279.155 135.509 279.24H129.813C129.877 280.104 130.128 280.76 130.565 281.208C131.003 281.656 131.685 281.88 132.613 281.88C133.136 281.88 133.573 281.837 133.925 281.752C134.288 281.656 134.56 281.565 134.741 281.48L134.949 282.728C134.768 282.824 134.448 282.925 133.989 283.032C133.541 283.139 133.029 283.192 132.453 283.192C131.728 283.192 131.099 283.085 130.565 282.872C130.043 282.648 129.611 282.344 129.269 281.96C128.928 281.576 128.672 281.123 128.501 280.6C128.341 280.067 128.261 279.485 128.261 278.856ZM133.973 278.04C133.984 277.368 133.813 276.819 133.461 276.392C133.12 275.955 132.645 275.736 132.037 275.736C131.696 275.736 131.392 275.805 131.125 275.944C130.869 276.072 130.651 276.243 130.469 276.456C130.288 276.669 130.144 276.915 130.037 277.192C129.941 277.469 129.877 277.752 129.845 278.04H133.973ZM143.039 276.44C142.857 276.291 142.596 276.147 142.255 276.008C141.913 275.869 141.54 275.8 141.135 275.8C140.708 275.8 140.34 275.88 140.031 276.04C139.732 276.189 139.487 276.403 139.295 276.68C139.103 276.947 138.964 277.267 138.879 277.64C138.793 278.013 138.751 278.413 138.751 278.84C138.751 279.811 138.991 280.563 139.471 281.096C139.951 281.619 140.591 281.88 141.391 281.88C141.796 281.88 142.132 281.864 142.399 281.832C142.676 281.789 142.889 281.747 143.039 281.704V276.44ZM143.039 270.84L144.527 270.584V282.76C144.185 282.856 143.748 282.952 143.215 283.048C142.681 283.144 142.068 283.192 141.375 283.192C140.735 283.192 140.159 283.091 139.647 282.888C139.135 282.685 138.697 282.397 138.335 282.024C137.972 281.651 137.689 281.197 137.487 280.664C137.295 280.12 137.199 279.512 137.199 278.84C137.199 278.2 137.279 277.613 137.439 277.08C137.609 276.547 137.855 276.088 138.175 275.704C138.495 275.32 138.884 275.021 139.343 274.808C139.812 274.595 140.345 274.488 140.943 274.488C141.423 274.488 141.844 274.552 142.207 274.68C142.58 274.808 142.857 274.931 143.039 275.048V270.84ZM156.164 276.44C155.982 276.291 155.721 276.147 155.38 276.008C155.038 275.869 154.665 275.8 154.26 275.8C153.833 275.8 153.465 275.88 153.156 276.04C152.857 276.189 152.612 276.403 152.42 276.68C152.228 276.947 152.089 277.267 152.004 277.64C151.918 278.013 151.876 278.413 151.876 278.84C151.876 279.811 152.116 280.563 152.596 281.096C153.076 281.619 153.716 281.88 154.516 281.88C154.921 281.88 155.257 281.864 155.524 281.832C155.801 281.789 156.014 281.747 156.164 281.704V276.44ZM156.164 270.84L157.652 270.584V282.76C157.31 282.856 156.873 282.952 156.34 283.048C155.806 283.144 155.193 283.192 154.5 283.192C153.86 283.192 153.284 283.091 152.772 282.888C152.26 282.685 151.822 282.397 151.46 282.024C151.097 281.651 150.814 281.197 150.612 280.664C150.42 280.12 150.324 279.512 150.324 278.84C150.324 278.2 150.404 277.613 150.564 277.08C150.734 276.547 150.98 276.088 151.3 275.704C151.62 275.32 152.009 275.021 152.468 274.808C152.937 274.595 153.47 274.488 154.068 274.488C154.548 274.488 154.969 274.552 155.332 274.68C155.705 274.808 155.982 274.931 156.164 275.048V270.84ZM163.026 281.928C163.378 281.928 163.687 281.923 163.954 281.912C164.231 281.891 164.46 281.859 164.642 281.816V279.336C164.535 279.283 164.359 279.24 164.114 279.208C163.879 279.165 163.591 279.144 163.25 279.144C163.026 279.144 162.786 279.16 162.53 279.192C162.284 279.224 162.055 279.293 161.842 279.4C161.639 279.496 161.468 279.635 161.33 279.816C161.191 279.987 161.122 280.216 161.122 280.504C161.122 281.037 161.292 281.411 161.634 281.624C161.975 281.827 162.439 281.928 163.026 281.928ZM162.898 274.472C163.495 274.472 163.996 274.552 164.402 274.712C164.818 274.861 165.148 275.08 165.394 275.368C165.65 275.645 165.831 275.981 165.938 276.376C166.044 276.76 166.098 277.187 166.098 277.656V282.856C165.97 282.877 165.788 282.909 165.554 282.952C165.33 282.984 165.074 283.016 164.786 283.048C164.498 283.08 164.183 283.107 163.842 283.128C163.511 283.16 163.18 283.176 162.85 283.176C162.38 283.176 161.948 283.128 161.554 283.032C161.159 282.936 160.818 282.787 160.53 282.584C160.242 282.371 160.018 282.093 159.858 281.752C159.698 281.411 159.618 281 159.618 280.52C159.618 280.061 159.708 279.667 159.89 279.336C160.082 279.005 160.338 278.739 160.658 278.536C160.978 278.333 161.351 278.184 161.778 278.088C162.204 277.992 162.652 277.944 163.122 277.944C163.271 277.944 163.426 277.955 163.586 277.976C163.746 277.987 163.895 278.008 164.034 278.04C164.183 278.061 164.311 278.083 164.418 278.104C164.524 278.125 164.599 278.141 164.642 278.152V277.736C164.642 277.491 164.615 277.251 164.562 277.016C164.508 276.771 164.412 276.557 164.274 276.376C164.135 276.184 163.943 276.035 163.698 275.928C163.463 275.811 163.154 275.752 162.77 275.752C162.279 275.752 161.847 275.789 161.474 275.864C161.111 275.928 160.839 275.997 160.658 276.072L160.482 274.84C160.674 274.755 160.994 274.675 161.442 274.6C161.89 274.515 162.375 274.472 162.898 274.472ZM169.961 274.68H173.113V275.928H169.961V279.768C169.961 280.184 169.993 280.531 170.057 280.808C170.121 281.075 170.217 281.288 170.345 281.448C170.473 281.597 170.633 281.704 170.825 281.768C171.017 281.832 171.241 281.864 171.497 281.864C171.945 281.864 172.302 281.816 172.569 281.72C172.846 281.613 173.038 281.539 173.145 281.496L173.433 282.728C173.284 282.803 173.022 282.893 172.649 283C172.276 283.117 171.849 283.176 171.369 283.176C170.804 283.176 170.334 283.107 169.961 282.968C169.598 282.819 169.305 282.6 169.081 282.312C168.857 282.024 168.697 281.672 168.601 281.256C168.516 280.829 168.473 280.339 168.473 279.784V272.36L169.961 272.104V274.68ZM177.823 281.928C178.175 281.928 178.484 281.923 178.751 281.912C179.028 281.891 179.257 281.859 179.439 281.816V279.336C179.332 279.283 179.156 279.24 178.911 279.208C178.676 279.165 178.388 279.144 178.047 279.144C177.823 279.144 177.583 279.16 177.327 279.192C177.081 279.224 176.852 279.293 176.639 279.4C176.436 279.496 176.265 279.635 176.127 279.816C175.988 279.987 175.919 280.216 175.919 280.504C175.919 281.037 176.089 281.411 176.431 281.624C176.772 281.827 177.236 281.928 177.823 281.928ZM177.695 274.472C178.292 274.472 178.793 274.552 179.199 274.712C179.615 274.861 179.945 275.08 180.191 275.368C180.447 275.645 180.628 275.981 180.735 276.376C180.841 276.76 180.895 277.187 180.895 277.656V282.856C180.767 282.877 180.585 282.909 180.351 282.952C180.127 282.984 179.871 283.016 179.583 283.048C179.295 283.08 178.98 283.107 178.639 283.128C178.308 283.16 177.977 283.176 177.647 283.176C177.177 283.176 176.745 283.128 176.351 283.032C175.956 282.936 175.615 282.787 175.327 282.584C175.039 282.371 174.815 282.093 174.655 281.752C174.495 281.411 174.415 281 174.415 280.52C174.415 280.061 174.505 279.667 174.687 279.336C174.879 279.005 175.135 278.739 175.455 278.536C175.775 278.333 176.148 278.184 176.575 278.088C177.001 277.992 177.449 277.944 177.919 277.944C178.068 277.944 178.223 277.955 178.383 277.976C178.543 277.987 178.692 278.008 178.831 278.04C178.98 278.061 179.108 278.083 179.215 278.104C179.321 278.125 179.396 278.141 179.439 278.152V277.736C179.439 277.491 179.412 277.251 179.359 277.016C179.305 276.771 179.209 276.557 179.071 276.376C178.932 276.184 178.74 276.035 178.495 275.928C178.26 275.811 177.951 275.752 177.567 275.752C177.076 275.752 176.644 275.789 176.271 275.864C175.908 275.928 175.636 275.997 175.455 276.072L175.279 274.84C175.471 274.755 175.791 274.675 176.239 274.6C176.687 274.515 177.172 274.472 177.695 274.472ZM190.141 274.504C190.269 274.504 190.413 274.515 190.573 274.536C190.744 274.547 190.909 274.568 191.069 274.6C191.229 274.621 191.373 274.648 191.501 274.68C191.64 274.701 191.741 274.723 191.805 274.744L191.549 276.04C191.432 275.997 191.234 275.949 190.957 275.896C190.69 275.832 190.344 275.8 189.917 275.8C189.64 275.8 189.362 275.832 189.085 275.896C188.818 275.949 188.642 275.987 188.557 276.008V283H187.069V275.032C187.421 274.904 187.858 274.787 188.381 274.68C188.904 274.563 189.49 274.504 190.141 274.504ZM192.777 278.856C192.777 278.12 192.884 277.48 193.097 276.936C193.31 276.381 193.593 275.923 193.945 275.56C194.297 275.197 194.702 274.925 195.161 274.744C195.62 274.563 196.089 274.472 196.569 274.472C197.689 274.472 198.548 274.824 199.145 275.528C199.742 276.221 200.041 277.283 200.041 278.712C200.041 278.776 200.041 278.861 200.041 278.968C200.041 279.064 200.036 279.155 200.025 279.24H194.329C194.393 280.104 194.644 280.76 195.081 281.208C195.518 281.656 196.201 281.88 197.129 281.88C197.652 281.88 198.089 281.837 198.441 281.752C198.804 281.656 199.076 281.565 199.257 281.48L199.465 282.728C199.284 282.824 198.964 282.925 198.505 283.032C198.057 283.139 197.545 283.192 196.969 283.192C196.244 283.192 195.614 283.085 195.081 282.872C194.558 282.648 194.126 282.344 193.785 281.96C193.444 281.576 193.188 281.123 193.017 280.6C192.857 280.067 192.777 279.485 192.777 278.856ZM198.489 278.04C198.5 277.368 198.329 276.819 197.977 276.392C197.636 275.955 197.161 275.736 196.553 275.736C196.212 275.736 195.908 275.805 195.641 275.944C195.385 276.072 195.166 276.243 194.985 276.456C194.804 276.669 194.66 276.915 194.553 277.192C194.457 277.469 194.393 277.752 194.361 278.04H198.489ZM205.426 270.584C205.864 270.584 206.237 270.616 206.546 270.68C206.866 270.744 207.09 270.803 207.218 270.856L206.946 272.136C206.818 272.072 206.637 272.013 206.402 271.96C206.168 271.896 205.88 271.864 205.538 271.864C204.845 271.864 204.36 272.056 204.082 272.44C203.805 272.813 203.666 273.32 203.666 273.96V274.68H206.866V275.928H203.666V283H202.178V273.928C202.178 272.861 202.44 272.04 202.962 271.464C203.485 270.877 204.306 270.584 205.426 270.584ZM207.886 278.856C207.886 278.12 207.993 277.48 208.206 276.936C208.42 276.381 208.702 275.923 209.054 275.56C209.406 275.197 209.812 274.925 210.27 274.744C210.729 274.563 211.198 274.472 211.678 274.472C212.798 274.472 213.657 274.824 214.254 275.528C214.852 276.221 215.15 277.283 215.15 278.712C215.15 278.776 215.15 278.861 215.15 278.968C215.15 279.064 215.145 279.155 215.134 279.24H209.438C209.502 280.104 209.753 280.76 210.19 281.208C210.628 281.656 211.31 281.88 212.238 281.88C212.761 281.88 213.198 281.837 213.55 281.752C213.913 281.656 214.185 281.565 214.366 281.48L214.574 282.728C214.393 282.824 214.073 282.925 213.614 283.032C213.166 283.139 212.654 283.192 212.078 283.192C211.353 283.192 210.724 283.085 210.19 282.872C209.668 282.648 209.236 282.344 208.894 281.96C208.553 281.576 208.297 281.123 208.126 280.6C207.966 280.067 207.886 279.485 207.886 278.856ZM213.598 278.04C213.609 277.368 213.438 276.819 213.086 276.392C212.745 275.955 212.27 275.736 211.662 275.736C211.321 275.736 211.017 275.805 210.75 275.944C210.494 276.072 210.276 276.243 210.094 276.456C209.913 276.669 209.769 276.915 209.662 277.192C209.566 277.469 209.502 277.752 209.47 278.04H213.598ZM220.36 274.504C220.488 274.504 220.632 274.515 220.792 274.536C220.962 274.547 221.128 274.568 221.288 274.6C221.448 274.621 221.592 274.648 221.72 274.68C221.858 274.701 221.96 274.723 222.024 274.744L221.768 276.04C221.65 275.997 221.453 275.949 221.176 275.896C220.909 275.832 220.562 275.8 220.136 275.8C219.858 275.8 219.581 275.832 219.304 275.896C219.037 275.949 218.861 275.987 218.776 276.008V283H217.288V275.032C217.64 274.904 218.077 274.787 218.6 274.68C219.122 274.563 219.709 274.504 220.36 274.504ZM222.996 278.856C222.996 278.12 223.102 277.48 223.316 276.936C223.529 276.381 223.812 275.923 224.164 275.56C224.516 275.197 224.921 274.925 225.38 274.744C225.838 274.563 226.308 274.472 226.788 274.472C227.908 274.472 228.766 274.824 229.364 275.528C229.961 276.221 230.26 277.283 230.26 278.712C230.26 278.776 230.26 278.861 230.26 278.968C230.26 279.064 230.254 279.155 230.244 279.24H224.548C224.612 280.104 224.862 280.76 225.3 281.208C225.737 281.656 226.42 281.88 227.348 281.88C227.87 281.88 228.308 281.837 228.66 281.752C229.022 281.656 229.294 281.565 229.476 281.48L229.684 282.728C229.502 282.824 229.182 282.925 228.724 283.032C228.276 283.139 227.764 283.192 227.188 283.192C226.462 283.192 225.833 283.085 225.3 282.872C224.777 282.648 224.345 282.344 224.004 281.96C223.662 281.576 223.406 281.123 223.236 280.6C223.076 280.067 222.996 279.485 222.996 278.856ZM228.708 278.04C228.718 277.368 228.548 276.819 228.196 276.392C227.854 275.955 227.38 275.736 226.772 275.736C226.43 275.736 226.126 275.805 225.86 275.944C225.604 276.072 225.385 276.243 225.204 276.456C225.022 276.669 224.878 276.915 224.772 277.192C224.676 277.469 224.612 277.752 224.58 278.04H228.708ZM232.397 274.92C232.739 274.835 233.192 274.744 233.757 274.648C234.323 274.552 234.973 274.504 235.709 274.504C236.371 274.504 236.92 274.6 237.357 274.792C237.795 274.973 238.141 275.235 238.397 275.576C238.664 275.907 238.851 276.307 238.957 276.776C239.064 277.245 239.117 277.763 239.117 278.328V283H237.629V278.648C237.629 278.136 237.592 277.699 237.517 277.336C237.453 276.973 237.341 276.68 237.181 276.456C237.021 276.232 236.808 276.072 236.541 275.976C236.275 275.869 235.944 275.816 235.549 275.816C235.389 275.816 235.224 275.821 235.053 275.832C234.883 275.843 234.717 275.859 234.557 275.88C234.408 275.891 234.269 275.907 234.141 275.928C234.024 275.949 233.939 275.965 233.885 275.976V283H232.397V274.92ZM245.201 283.192C244.529 283.192 243.937 283.085 243.425 282.872C242.923 282.659 242.497 282.36 242.145 281.976C241.803 281.592 241.547 281.139 241.377 280.616C241.206 280.083 241.121 279.496 241.121 278.856C241.121 278.216 241.211 277.629 241.393 277.096C241.585 276.563 241.851 276.104 242.193 275.72C242.534 275.325 242.95 275.021 243.441 274.808C243.942 274.584 244.497 274.472 245.105 274.472C245.478 274.472 245.851 274.504 246.225 274.568C246.598 274.632 246.955 274.733 247.297 274.872L246.961 276.136C246.737 276.029 246.475 275.944 246.177 275.88C245.889 275.816 245.579 275.784 245.249 275.784C244.417 275.784 243.777 276.045 243.329 276.568C242.891 277.091 242.673 277.853 242.673 278.856C242.673 279.304 242.721 279.715 242.817 280.088C242.923 280.461 243.083 280.781 243.297 281.048C243.521 281.315 243.803 281.523 244.145 281.672C244.486 281.811 244.902 281.88 245.393 281.88C245.787 281.88 246.145 281.843 246.465 281.768C246.785 281.693 247.035 281.613 247.217 281.528L247.425 282.776C247.339 282.829 247.217 282.883 247.057 282.936C246.897 282.979 246.715 283.016 246.513 283.048C246.31 283.091 246.091 283.123 245.857 283.144C245.633 283.176 245.414 283.192 245.201 283.192ZM248.558 278.856C248.558 278.12 248.665 277.48 248.878 276.936C249.092 276.381 249.374 275.923 249.726 275.56C250.078 275.197 250.484 274.925 250.942 274.744C251.401 274.563 251.87 274.472 252.35 274.472C253.47 274.472 254.329 274.824 254.926 275.528C255.524 276.221 255.822 277.283 255.822 278.712C255.822 278.776 255.822 278.861 255.822 278.968C255.822 279.064 255.817 279.155 255.806 279.24H250.11C250.174 280.104 250.425 280.76 250.862 281.208C251.3 281.656 251.982 281.88 252.91 281.88C253.433 281.88 253.87 281.837 254.222 281.752C254.585 281.656 254.857 281.565 255.038 281.48L255.246 282.728C255.065 282.824 254.745 282.925 254.286 283.032C253.838 283.139 253.326 283.192 252.75 283.192C252.025 283.192 251.396 283.085 250.862 282.872C250.34 282.648 249.908 282.344 249.566 281.96C249.225 281.576 248.969 281.123 248.798 280.6C248.638 280.067 248.558 279.485 248.558 278.856ZM254.27 278.04C254.281 277.368 254.11 276.819 253.758 276.392C253.417 275.955 252.942 275.736 252.334 275.736C251.993 275.736 251.689 275.805 251.422 275.944C251.166 276.072 250.948 276.243 250.766 276.456C250.585 276.669 250.441 276.915 250.334 277.192C250.238 277.469 250.174 277.752 250.142 278.04H254.27ZM112.392 296.216C112.392 297.581 112.59 298.845 112.984 300.008C113.379 301.171 113.96 302.248 114.728 303.24L113.672 303.96C112.84 302.947 112.168 301.784 111.656 300.472C111.155 299.149 110.904 297.731 110.904 296.216C110.904 294.701 111.155 293.288 111.656 291.976C112.168 290.653 112.84 289.485 113.672 288.472L114.728 289.192C113.96 290.184 113.379 291.261 112.984 292.424C112.59 293.587 112.392 294.851 112.392 296.216ZM120.503 301.24C119.725 301.24 119.015 301.112 118.375 300.856C117.735 300.6 117.186 300.227 116.727 299.736C116.269 299.245 115.911 298.643 115.655 297.928C115.41 297.203 115.287 296.376 115.287 295.448C115.287 294.52 115.426 293.699 115.703 292.984C115.991 292.259 116.375 291.651 116.855 291.16C117.335 290.669 117.895 290.296 118.535 290.04C119.175 289.784 119.858 289.656 120.583 289.656C121.042 289.656 121.453 289.688 121.815 289.752C122.189 289.816 122.509 289.891 122.775 289.976C123.053 290.061 123.277 290.147 123.447 290.232C123.618 290.317 123.735 290.381 123.799 290.424L123.351 291.704C123.255 291.64 123.117 291.571 122.935 291.496C122.754 291.421 122.546 291.347 122.311 291.272C122.087 291.197 121.837 291.139 121.559 291.096C121.293 291.043 121.021 291.016 120.743 291.016C120.157 291.016 119.629 291.117 119.159 291.32C118.69 291.523 118.29 291.816 117.959 292.2C117.629 292.584 117.373 293.053 117.191 293.608C117.021 294.152 116.935 294.765 116.935 295.448C116.935 296.109 117.01 296.712 117.159 297.256C117.319 297.8 117.554 298.269 117.863 298.664C118.173 299.048 118.557 299.347 119.015 299.56C119.485 299.773 120.029 299.88 120.647 299.88C121.362 299.88 121.954 299.805 122.423 299.656C122.893 299.507 123.245 299.373 123.479 299.256L123.879 300.536C123.805 300.589 123.671 300.659 123.479 300.744C123.287 300.819 123.047 300.893 122.759 300.968C122.471 301.043 122.135 301.107 121.751 301.16C121.367 301.213 120.951 301.24 120.503 301.24ZM128.633 292.504C128.761 292.504 128.905 292.515 129.065 292.536C129.236 292.547 129.401 292.568 129.561 292.6C129.721 292.621 129.865 292.648 129.993 292.68C130.132 292.701 130.233 292.723 130.297 292.744L130.041 294.04C129.924 293.997 129.727 293.949 129.449 293.896C129.183 293.832 128.836 293.8 128.409 293.8C128.132 293.8 127.855 293.832 127.577 293.896C127.311 293.949 127.135 293.987 127.049 294.008V301H125.561V293.032C125.913 292.904 126.351 292.787 126.873 292.68C127.396 292.563 127.983 292.504 128.633 292.504ZM139.077 296.84C139.077 297.501 138.981 298.099 138.789 298.632C138.597 299.165 138.325 299.624 137.973 300.008C137.632 300.392 137.221 300.691 136.741 300.904C136.261 301.107 135.738 301.208 135.173 301.208C134.608 301.208 134.085 301.107 133.605 300.904C133.125 300.691 132.709 300.392 132.357 300.008C132.016 299.624 131.749 299.165 131.557 298.632C131.365 298.099 131.269 297.501 131.269 296.84C131.269 296.189 131.365 295.597 131.557 295.064C131.749 294.52 132.016 294.056 132.357 293.672C132.709 293.288 133.125 292.995 133.605 292.792C134.085 292.579 134.608 292.472 135.173 292.472C135.738 292.472 136.261 292.579 136.741 292.792C137.221 292.995 137.632 293.288 137.973 293.672C138.325 294.056 138.597 294.52 138.789 295.064C138.981 295.597 139.077 296.189 139.077 296.84ZM137.525 296.84C137.525 295.901 137.312 295.16 136.885 294.616C136.469 294.061 135.898 293.784 135.173 293.784C134.448 293.784 133.872 294.061 133.445 294.616C133.029 295.16 132.821 295.901 132.821 296.84C132.821 297.779 133.029 298.525 133.445 299.08C133.872 299.624 134.448 299.896 135.173 299.896C135.898 299.896 136.469 299.624 136.885 299.08C137.312 298.525 137.525 297.779 137.525 296.84ZM143.107 299.928C143.715 299.928 144.163 299.848 144.451 299.688C144.749 299.528 144.899 299.272 144.899 298.92C144.899 298.557 144.755 298.269 144.467 298.056C144.179 297.843 143.704 297.603 143.043 297.336C142.723 297.208 142.413 297.08 142.115 296.952C141.827 296.813 141.576 296.653 141.363 296.472C141.149 296.291 140.979 296.072 140.851 295.816C140.723 295.56 140.659 295.245 140.659 294.872C140.659 294.136 140.931 293.555 141.475 293.128C142.019 292.691 142.76 292.472 143.699 292.472C143.933 292.472 144.168 292.488 144.403 292.52C144.637 292.541 144.856 292.573 145.059 292.616C145.261 292.648 145.437 292.685 145.587 292.728C145.747 292.771 145.869 292.808 145.955 292.84L145.683 294.12C145.523 294.035 145.272 293.949 144.931 293.864C144.589 293.768 144.179 293.72 143.699 293.72C143.283 293.72 142.92 293.805 142.611 293.976C142.301 294.136 142.147 294.392 142.147 294.744C142.147 294.925 142.179 295.085 142.243 295.224C142.317 295.363 142.424 295.491 142.563 295.608C142.712 295.715 142.893 295.816 143.107 295.912C143.32 296.008 143.576 296.109 143.875 296.216C144.269 296.365 144.621 296.515 144.931 296.664C145.24 296.803 145.501 296.968 145.715 297.16C145.939 297.352 146.109 297.587 146.227 297.864C146.344 298.131 146.403 298.461 146.403 298.856C146.403 299.624 146.115 300.205 145.539 300.6C144.973 300.995 144.163 301.192 143.107 301.192C142.371 301.192 141.795 301.128 141.379 301C140.963 300.883 140.68 300.792 140.531 300.728L140.803 299.448C140.973 299.512 141.245 299.608 141.619 299.736C141.992 299.864 142.488 299.928 143.107 299.928ZM150.247 299.928C150.855 299.928 151.303 299.848 151.591 299.688C151.89 299.528 152.039 299.272 152.039 298.92C152.039 298.557 151.895 298.269 151.607 298.056C151.319 297.843 150.845 297.603 150.183 297.336C149.863 297.208 149.554 297.08 149.255 296.952C148.967 296.813 148.717 296.653 148.503 296.472C148.29 296.291 148.119 296.072 147.991 295.816C147.863 295.56 147.799 295.245 147.799 294.872C147.799 294.136 148.071 293.555 148.615 293.128C149.159 292.691 149.901 292.472 150.839 292.472C151.074 292.472 151.309 292.488 151.543 292.52C151.778 292.541 151.997 292.573 152.199 292.616C152.402 292.648 152.578 292.685 152.727 292.728C152.887 292.771 153.01 292.808 153.095 292.84L152.823 294.12C152.663 294.035 152.413 293.949 152.071 293.864C151.73 293.768 151.319 293.72 150.839 293.72C150.423 293.72 150.061 293.805 149.751 293.976C149.442 294.136 149.287 294.392 149.287 294.744C149.287 294.925 149.319 295.085 149.383 295.224C149.458 295.363 149.565 295.491 149.703 295.608C149.853 295.715 150.034 295.816 150.247 295.912C150.461 296.008 150.717 296.109 151.015 296.216C151.41 296.365 151.762 296.515 152.071 296.664C152.381 296.803 152.642 296.968 152.855 297.16C153.079 297.352 153.25 297.587 153.367 297.864C153.485 298.131 153.543 298.461 153.543 298.856C153.543 299.624 153.255 300.205 152.679 300.6C152.114 300.995 151.303 301.192 150.247 301.192C149.511 301.192 148.935 301.128 148.519 301C148.103 300.883 147.821 300.792 147.671 300.728L147.943 299.448C148.114 299.512 148.386 299.608 148.759 299.736C149.133 299.864 149.629 299.928 150.247 299.928ZM164.019 301.24C163.24 301.24 162.531 301.112 161.891 300.856C161.251 300.6 160.702 300.227 160.243 299.736C159.784 299.245 159.427 298.643 159.171 297.928C158.926 297.203 158.803 296.376 158.803 295.448C158.803 294.52 158.942 293.699 159.219 292.984C159.507 292.259 159.891 291.651 160.371 291.16C160.851 290.669 161.411 290.296 162.051 290.04C162.691 289.784 163.374 289.656 164.099 289.656C164.558 289.656 164.968 289.688 165.331 289.752C165.704 289.816 166.024 289.891 166.291 289.976C166.568 290.061 166.792 290.147 166.963 290.232C167.134 290.317 167.251 290.381 167.315 290.424L166.867 291.704C166.771 291.64 166.632 291.571 166.451 291.496C166.27 291.421 166.062 291.347 165.827 291.272C165.603 291.197 165.352 291.139 165.075 291.096C164.808 291.043 164.536 291.016 164.259 291.016C163.672 291.016 163.144 291.117 162.675 291.32C162.206 291.523 161.806 291.816 161.475 292.2C161.144 292.584 160.888 293.053 160.707 293.608C160.536 294.152 160.451 294.765 160.451 295.448C160.451 296.109 160.526 296.712 160.675 297.256C160.835 297.8 161.07 298.269 161.379 298.664C161.688 299.048 162.072 299.347 162.531 299.56C163 299.773 163.544 299.88 164.163 299.88C164.878 299.88 165.47 299.805 165.939 299.656C166.408 299.507 166.76 299.373 166.995 299.256L167.395 300.536C167.32 300.589 167.187 300.659 166.995 300.744C166.803 300.819 166.563 300.893 166.275 300.968C165.987 301.043 165.651 301.107 165.267 301.16C164.883 301.213 164.467 301.24 164.019 301.24ZM169.077 301V288.84L170.565 288.584V292.84C170.842 292.733 171.136 292.653 171.445 292.6C171.765 292.536 172.08 292.504 172.389 292.504C173.05 292.504 173.6 292.6 174.037 292.792C174.474 292.973 174.821 293.235 175.077 293.576C175.344 293.907 175.53 294.307 175.637 294.776C175.744 295.245 175.797 295.763 175.797 296.328V301H174.309V296.648C174.309 296.136 174.272 295.699 174.197 295.336C174.133 294.973 174.021 294.68 173.861 294.456C173.701 294.232 173.488 294.072 173.221 293.976C172.954 293.869 172.624 293.816 172.229 293.816C172.069 293.816 171.904 293.827 171.733 293.848C171.562 293.869 171.397 293.896 171.237 293.928C171.088 293.949 170.949 293.976 170.821 294.008C170.704 294.04 170.618 294.067 170.565 294.088V301H169.077ZM177.754 296.856C177.754 296.12 177.86 295.48 178.074 294.936C178.287 294.381 178.57 293.923 178.922 293.56C179.274 293.197 179.679 292.925 180.138 292.744C180.596 292.563 181.066 292.472 181.546 292.472C182.666 292.472 183.524 292.824 184.122 293.528C184.719 294.221 185.017 295.283 185.017 296.712C185.017 296.776 185.017 296.861 185.017 296.968C185.017 297.064 185.012 297.155 185.002 297.24H179.306C179.37 298.104 179.62 298.76 180.058 299.208C180.495 299.656 181.178 299.88 182.106 299.88C182.628 299.88 183.066 299.837 183.418 299.752C183.78 299.656 184.052 299.565 184.234 299.48L184.442 300.728C184.26 300.824 183.94 300.925 183.482 301.032C183.034 301.139 182.522 301.192 181.946 301.192C181.22 301.192 180.591 301.085 180.058 300.872C179.535 300.648 179.103 300.344 178.762 299.96C178.42 299.576 178.164 299.123 177.993 298.6C177.834 298.067 177.754 297.485 177.754 296.856ZM183.466 296.04C183.476 295.368 183.306 294.819 182.954 294.392C182.612 293.955 182.138 293.736 181.53 293.736C181.188 293.736 180.884 293.805 180.618 293.944C180.362 294.072 180.143 294.243 179.962 294.456C179.78 294.669 179.636 294.915 179.53 295.192C179.434 295.469 179.37 295.752 179.338 296.04H183.466ZM190.771 301.192C190.099 301.192 189.507 301.085 188.995 300.872C188.494 300.659 188.067 300.36 187.715 299.976C187.374 299.592 187.118 299.139 186.947 298.616C186.776 298.083 186.691 297.496 186.691 296.856C186.691 296.216 186.782 295.629 186.963 295.096C187.155 294.563 187.422 294.104 187.763 293.72C188.104 293.325 188.52 293.021 189.011 292.808C189.512 292.584 190.067 292.472 190.675 292.472C191.048 292.472 191.422 292.504 191.795 292.568C192.168 292.632 192.526 292.733 192.867 292.872L192.531 294.136C192.307 294.029 192.046 293.944 191.747 293.88C191.459 293.816 191.15 293.784 190.819 293.784C189.987 293.784 189.347 294.045 188.899 294.568C188.462 295.091 188.243 295.853 188.243 296.856C188.243 297.304 188.291 297.715 188.387 298.088C188.494 298.461 188.654 298.781 188.867 299.048C189.091 299.315 189.374 299.523 189.715 299.672C190.056 299.811 190.472 299.88 190.963 299.88C191.358 299.88 191.715 299.843 192.035 299.768C192.355 299.693 192.606 299.613 192.787 299.528L192.995 300.776C192.91 300.829 192.787 300.883 192.627 300.936C192.467 300.979 192.286 301.016 192.083 301.048C191.88 301.091 191.662 301.123 191.427 301.144C191.203 301.176 190.984 301.192 190.771 301.192ZM197.601 296.424C197.921 296.669 198.257 296.973 198.609 297.336C198.971 297.699 199.323 298.093 199.665 298.52C200.017 298.936 200.347 299.363 200.657 299.8C200.966 300.227 201.227 300.627 201.441 301H199.697C199.473 300.627 199.211 300.248 198.913 299.864C198.625 299.469 198.321 299.096 198.001 298.744C197.681 298.381 197.355 298.051 197.025 297.752C196.694 297.453 196.379 297.203 196.081 297V301H194.593V288.84L196.081 288.584V296.168C196.337 295.912 196.619 295.629 196.929 295.32C197.238 295.011 197.542 294.696 197.841 294.376C198.139 294.056 198.422 293.752 198.689 293.464C198.955 293.165 199.185 292.904 199.377 292.68H201.121C200.875 292.947 200.609 293.24 200.321 293.56C200.033 293.88 199.734 294.205 199.425 294.536C199.115 294.856 198.801 295.181 198.481 295.512C198.171 295.832 197.878 296.136 197.601 296.424ZM204.44 301H202.952V292.68H204.44V301ZM203.688 291.176C203.421 291.176 203.192 291.091 203 290.92C202.819 290.739 202.728 290.499 202.728 290.2C202.728 289.901 202.819 289.667 203 289.496C203.192 289.315 203.421 289.224 203.688 289.224C203.955 289.224 204.179 289.315 204.36 289.496C204.552 289.667 204.648 289.901 204.648 290.2C204.648 290.499 204.552 290.739 204.36 290.92C204.179 291.091 203.955 291.176 203.688 291.176ZM206.999 292.92C207.34 292.835 207.793 292.744 208.359 292.648C208.924 292.552 209.575 292.504 210.311 292.504C210.972 292.504 211.521 292.6 211.959 292.792C212.396 292.973 212.743 293.235 212.999 293.576C213.265 293.907 213.452 294.307 213.559 294.776C213.665 295.245 213.719 295.763 213.719 296.328V301H212.231V296.648C212.231 296.136 212.193 295.699 212.119 295.336C212.055 294.973 211.943 294.68 211.783 294.456C211.623 294.232 211.409 294.072 211.143 293.976C210.876 293.869 210.545 293.816 210.151 293.816C209.991 293.816 209.825 293.821 209.655 293.832C209.484 293.843 209.319 293.859 209.159 293.88C209.009 293.891 208.871 293.907 208.743 293.928C208.625 293.949 208.54 293.965 208.487 293.976V301H206.999V292.92ZM221.402 300.168C221.274 300.253 221.024 300.365 220.65 300.504C220.288 300.632 219.861 300.696 219.37 300.696C218.869 300.696 218.394 300.616 217.946 300.456C217.509 300.296 217.125 300.051 216.794 299.72C216.464 299.379 216.202 298.957 216.01 298.456C215.818 297.955 215.722 297.357 215.722 296.664C215.722 296.056 215.813 295.501 215.994 295C216.176 294.488 216.437 294.051 216.778 293.688C217.13 293.315 217.557 293.027 218.058 292.824C218.56 292.611 219.125 292.504 219.754 292.504C220.448 292.504 221.05 292.557 221.562 292.664C222.085 292.76 222.522 292.851 222.874 292.936V300.36C222.874 301.64 222.544 302.568 221.882 303.144C221.221 303.72 220.218 304.008 218.874 304.008C218.352 304.008 217.856 303.965 217.386 303.88C216.928 303.795 216.528 303.693 216.186 303.576L216.458 302.28C216.757 302.397 217.12 302.499 217.546 302.584C217.984 302.68 218.437 302.728 218.906 302.728C219.792 302.728 220.426 302.552 220.81 302.2C221.205 301.848 221.402 301.288 221.402 300.52V300.168ZM221.386 293.992C221.237 293.949 221.034 293.912 220.778 293.88C220.533 293.837 220.197 293.816 219.77 293.816C218.97 293.816 218.352 294.077 217.914 294.6C217.488 295.123 217.274 295.816 217.274 296.68C217.274 297.16 217.333 297.571 217.45 297.912C217.578 298.253 217.744 298.536 217.946 298.76C218.16 298.984 218.4 299.149 218.666 299.256C218.944 299.363 219.226 299.416 219.514 299.416C219.909 299.416 220.272 299.363 220.602 299.256C220.933 299.139 221.194 299.005 221.386 298.856V293.992ZM226.604 296.216C226.604 294.851 226.407 293.587 226.012 292.424C225.618 291.261 225.036 290.184 224.268 289.192L225.324 288.472C226.156 289.485 226.823 290.653 227.324 291.976C227.836 293.288 228.092 294.701 228.092 296.216C228.092 297.731 227.836 299.149 227.324 300.472C226.823 301.784 226.156 302.947 225.324 303.96L224.268 303.24C225.036 302.248 225.618 301.171 226.012 300.008C226.407 298.845 226.604 297.581 226.604 296.216Z" fill="white"/>
<g filter="url(#filter1_d)">
<path d="M212.525 226.208H115.909C112.645 226.208 110 223.562 110 220.299V94.1656C110 90.9023 112.645 88.2568 115.909 88.2568H212.525C215.788 88.2568 218.434 90.9023 218.434 94.1656V220.299C218.434 223.562 215.788 226.208 212.525 226.208Z" fill="#DC8758"/>
<path d="M218.434 94.1643V220.298C218.434 223.562 215.788 226.208 212.524 226.208H206.625C209.886 226.208 212.533 223.562 212.533 220.298V94.1643C212.533 90.9005 209.886 88.2573 206.625 88.2573H212.524C215.788 88.2573 218.434 90.9005 218.434 94.1643Z" fill="#CE7345"/>
<path d="M201.843 210.571H126.591C125.633 210.571 124.856 209.795 124.856 208.837V105.627C124.856 104.669 125.633 103.892 126.591 103.892H201.843C202.801 103.892 203.578 104.669 203.578 105.627V208.837C203.578 209.795 202.801 210.571 201.843 210.571Z" fill="#F9F7F8"/>
<path d="M203.578 105.627V208.836C203.578 209.794 202.8 210.571 201.842 210.571H195.941C196.902 210.571 197.676 209.794 197.676 208.836V105.627C197.676 104.669 196.902 103.892 195.941 103.892H201.842C202.8 103.892 203.578 104.669 203.578 105.627Z" fill="#EFEDEF"/>
<path d="M182.213 121.701H135.754C134.527 121.701 133.533 120.707 133.533 119.48C133.533 118.254 134.527 117.259 135.754 117.259H182.213C183.439 117.259 184.434 118.254 184.434 119.48C184.434 120.707 183.439 121.701 182.213 121.701Z" fill="#9C9C9C"/>
<path d="M172.663 133.237H135.754C134.527 133.237 133.533 132.243 133.533 131.016C133.533 129.789 134.527 128.795 135.754 128.795H172.663C173.889 128.795 174.884 129.789 174.884 131.016C174.884 132.243 173.889 133.237 172.663 133.237Z" fill="#9C9C9C"/>
<path d="M172.663 144.773H135.754C134.527 144.773 133.533 143.778 133.533 142.552C133.533 141.325 134.527 140.331 135.754 140.331H172.663C173.889 140.331 174.884 141.325 174.884 142.552C174.884 143.778 173.889 144.773 172.663 144.773Z" fill="#9C9C9C"/>
<path d="M172.663 156.308H135.754C134.527 156.308 133.533 155.314 133.533 154.087C133.533 152.86 134.527 151.866 135.754 151.866H172.663C173.889 151.866 174.884 152.86 174.884 154.087C174.884 155.314 173.889 156.308 172.663 156.308Z" fill="#9C9C9C"/>
<path d="M182.212 167.843H135.754C134.527 167.843 133.533 166.849 133.533 165.622C133.533 164.396 134.527 163.401 135.754 163.401H182.212C183.439 163.401 184.434 164.396 184.434 165.622C184.434 166.849 183.439 167.843 182.212 167.843Z" fill="#9C9C9C"/>
<path d="M192.68 179.38H135.754C134.527 179.38 133.533 178.385 133.533 177.159C133.533 175.932 134.527 174.938 135.754 174.938H192.68C193.907 174.938 194.901 175.932 194.901 177.159C194.901 178.385 193.907 179.38 192.68 179.38Z" fill="#9C9C9C"/>
<path d="M176.096 88.3176C175.304 88.3176 174.596 87.7894 174.404 87.0206C173.262 82.4557 169.135 79.0742 164.217 79.0742C159.298 79.0742 155.172 82.456 154.03 87.0206C153.838 87.7894 153.13 88.3176 152.337 88.3176H137.863V103.892H190.571V88.3176H176.096Z" fill="#5A5A5A"/>
<path d="M190.571 88.2445V103.893H184.754V94.4839C184.754 93.5313 183.981 92.7591 183.029 92.7591H171.936C171.143 92.7591 170.436 92.2318 170.242 91.4632C169.102 86.8986 164.757 83.123 158.399 83.5146C157.293 83.5827 156.222 83.6854 155.221 84.0062C155.866 82.9519 156.693 82.0244 157.657 81.2616C159.447 79.8453 161.709 79 164.168 79C169.087 79 173.212 82.3809 174.355 86.9455C174.546 87.714 175.253 88.2442 176.048 88.2442H190.571V88.2445Z" fill="#444444"/>
<path d="M207.909 164.691C220.109 164.691 229.999 154.801 229.999 142.602C229.999 130.402 220.109 120.512 207.909 120.512C195.709 120.512 185.819 130.402 185.819 142.602C185.819 154.801 195.709 164.691 207.909 164.691Z" fill="#57BE92"/>
<path d="M230 142.601C230 154.802 220.11 164.691 207.91 164.691C202.548 164.691 197.635 162.785 193.809 159.609C196.581 160.86 199.654 161.556 202.893 161.556C215.094 161.556 224.983 151.666 224.983 139.466C224.983 132.624 221.873 126.51 216.994 122.458C224.663 125.923 230 133.637 230 142.601Z" fill="#09A76D"/>
<path d="M219.343 133.652C217.614 132.056 214.918 132.165 213.323 133.894L205.983 141.85C205.667 142.193 205.126 142.193 204.81 141.85L202.514 139.361C200.915 137.628 198.213 137.519 196.479 139.118C194.751 140.712 194.636 143.403 196.222 145.138L201.598 151.023C203.61 153.225 207.075 153.234 209.098 151.041L219.587 139.672C221.181 137.943 221.073 135.247 219.343 133.652Z" fill="#F9F7F8"/>
<path d="M219.587 139.672L209.098 151.042C207.076 153.233 203.608 153.224 201.598 151.023L201.259 150.653C202.617 150.647 203.972 150.101 204.975 149.013L215.463 137.643C216.78 136.217 216.937 134.135 215.977 132.551C217.163 132.416 218.398 132.78 219.342 133.652C221.073 135.248 221.183 137.941 219.587 139.672Z" fill="#EFEDEF"/>
</g>
<defs>
<filter id="filter0_d" x="0" y="0" width="340" height="408" filterUnits="userSpaceOnUse" color-interpolation-filters="sRGB">
<feFlood flood-opacity="0" result="BackgroundImageFix"/>
<feColorMatrix in="SourceAlpha" type="matrix" values="0 0 0 0 0 0 0 0 0 0 0 0 0 0 0 0 0 0 127 0"/>
<feOffset dy="24"/>
<feGaussianBlur stdDeviation="25"/>
<feColorMatrix type="matrix" values="0 0 0 0 0.258824 0 0 0 0 0.258824 0 0 0 0 0.258824 0 0 0 0.2 0"/>
<feBlend mode="normal" in2="BackgroundImageFix" result="effect1_dropShadow"/>
<feBlend mode="normal" in="SourceGraphic" in2="effect1_dropShadow" result="shape"/>
</filter>
<filter id="filter1_d" x="100" y="73" width="140" height="167.208" filterUnits="userSpaceOnUse" color-interpolation-filters="sRGB">
<feFlood flood-opacity="0" result="BackgroundImageFix"/>
<feColorMatrix in="SourceAlpha" type="matrix" values="0 0 0 0 0 0 0 0 0 0 0 0 0 0 0 0 0 0 127 0"/>
<feOffset dy="4"/>
<feGaussianBlur stdDeviation="5"/>
<feColorMatrix type="matrix" values="0 0 0 0 0.8875 0 0 0 0 0.707664 0 0 0 0 0.576875 0 0 0 0.5 0"/>
<feBlend mode="normal" in2="BackgroundImageFix" result="effect1_dropShadow"/>
<feBlend mode="normal" in="SourceGraphic" in2="effect1_dropShadow" result="shape"/>
</filter>
<linearGradient id="paint0_linear" x1="290" y1="26" x2="50" y2="334" gradientUnits="userSpaceOnUse">
<stop stop-color="white"/>
<stop offset="1" stop-color="#FFE1CC"/>
</linearGradient>
</defs>
</svg>
