<svg width="340" height="408" viewBox="0 0 340 408" fill="none" xmlns="http://www.w3.org/2000/svg">
<g filter="url(#filter0_d)">
<rect x="50" y="26" width="240" height="308" rx="12" fill="url(#paint0_linear)"/>
</g>
<path opacity="0.2" fill-rule="evenodd" clip-rule="evenodd" d="M134 255.499C134 255.665 134 255.832 133.999 255.999H111.349C111.35 255.832 111.351 255.665 111.351 255.498C111.351 221.506 83.9289 193.919 50 193.65V171C96.438 171.269 134 208.997 134 255.499Z" fill="#FFC078"/>
<path opacity="0.2" fill-rule="evenodd" clip-rule="evenodd" d="M290 211.92C279.981 213.94 269.614 215 259 215C172.844 215 103 145.156 103 59C103 47.6778 104.206 36.6373 106.497 26H173.348C169.4 36.2406 167.235 47.3676 167.235 59C167.235 109.68 208.32 150.765 259 150.765C269.879 150.765 280.317 148.871 290 145.396V211.92Z" fill="#FFC078"/>
<path d="M50 256H290V322C290 328.627 284.627 334 278 334H62C55.3726 334 50 328.627 50 322V256Z" fill="#F76707"/>
<path d="M71.4409 277.544H72.9929V282.728C72.8649 282.771 72.6782 282.819 72.4329 282.872C72.1982 282.925 71.9209 282.979 71.6009 283.032C71.2915 283.085 70.9502 283.128 70.5769 283.16C70.2035 283.203 69.8249 283.224 69.4409 283.224C68.6622 283.224 67.9529 283.096 67.3129 282.84C66.6729 282.584 66.1235 282.211 65.6649 281.72C65.2062 281.229 64.8489 280.627 64.5929 279.912C64.3475 279.197 64.2249 278.376 64.2249 277.448C64.2249 276.52 64.3635 275.699 64.6409 274.984C64.9289 274.259 65.3129 273.651 65.7929 273.16C66.2729 272.669 66.8329 272.296 67.4729 272.04C68.1235 271.784 68.8169 271.656 69.5529 271.656C70.0542 271.656 70.4969 271.688 70.8809 271.752C71.2755 271.816 71.6115 271.891 71.8889 271.976C72.1662 272.061 72.3902 272.147 72.5609 272.232C72.7422 272.317 72.8649 272.381 72.9289 272.424L72.4329 273.72C72.1235 273.517 71.7129 273.352 71.2009 273.224C70.6889 273.085 70.1662 273.016 69.6329 273.016C69.0675 273.016 68.5502 273.117 68.0809 273.32C67.6222 273.523 67.2275 273.816 66.8969 274.2C66.5769 274.584 66.3262 275.053 66.1449 275.608C65.9635 276.152 65.8729 276.765 65.8729 277.448C65.8729 278.109 65.9475 278.712 66.0969 279.256C66.2569 279.8 66.4915 280.269 66.8009 280.664C67.1209 281.048 67.5102 281.347 67.9689 281.56C68.4382 281.773 68.9875 281.88 69.6169 281.88C70.0649 281.88 70.4435 281.859 70.7529 281.816C71.0729 281.763 71.3022 281.715 71.4409 281.672V277.544ZM76.8149 283H75.3269V274.68H76.8149V283ZM76.0629 273.176C75.7962 273.176 75.5669 273.091 75.3749 272.92C75.1935 272.739 75.1029 272.499 75.1029 272.2C75.1029 271.901 75.1935 271.667 75.3749 271.496C75.5669 271.315 75.7962 271.224 76.0629 271.224C76.3295 271.224 76.5535 271.315 76.7349 271.496C76.9269 271.667 77.0229 271.901 77.0229 272.2C77.0229 272.499 76.9269 272.739 76.7349 272.92C76.5535 273.091 76.3295 273.176 76.0629 273.176ZM85.8698 274.68C85.4538 276.237 84.9631 277.731 84.3978 279.16C83.8431 280.589 83.3044 281.869 82.7818 283H81.4378C80.9151 281.869 80.3711 280.589 79.8058 279.16C79.2511 277.731 78.7658 276.237 78.3498 274.68H79.9498C80.0778 275.203 80.2271 275.763 80.3978 276.36C80.5791 276.947 80.7658 277.533 80.9578 278.12C81.1604 278.696 81.3631 279.256 81.5658 279.8C81.7684 280.344 81.9604 280.829 82.1418 281.256C82.3231 280.829 82.5151 280.344 82.7178 279.8C82.9204 279.256 83.1178 278.696 83.3098 278.12C83.5124 277.533 83.6991 276.947 83.8698 276.36C84.0511 275.763 84.2058 275.203 84.3338 274.68H85.8698ZM86.7223 278.856C86.7223 278.12 86.8289 277.48 87.0423 276.936C87.2556 276.381 87.5383 275.923 87.8903 275.56C88.2423 275.197 88.6476 274.925 89.1063 274.744C89.5649 274.563 90.0343 274.472 90.5143 274.472C91.6343 274.472 92.4929 274.824 93.0903 275.528C93.6876 276.221 93.9862 277.283 93.9862 278.712C93.9862 278.776 93.9862 278.861 93.9862 278.968C93.9862 279.064 93.9809 279.155 93.9703 279.24H88.2743C88.3383 280.104 88.5889 280.76 89.0263 281.208C89.4636 281.656 90.1463 281.88 91.0743 281.88C91.5969 281.88 92.0343 281.837 92.3863 281.752C92.7489 281.656 93.0209 281.565 93.2023 281.48L93.4103 282.728C93.2289 282.824 92.9089 282.925 92.4503 283.032C92.0023 283.139 91.4903 283.192 90.9143 283.192C90.1889 283.192 89.5596 283.085 89.0263 282.872C88.5036 282.648 88.0716 282.344 87.7303 281.96C87.3889 281.576 87.1329 281.123 86.9622 280.6C86.8023 280.067 86.7223 279.485 86.7223 278.856ZM92.4343 278.04C92.4449 277.368 92.2743 276.819 91.9223 276.392C91.5809 275.955 91.1063 275.736 90.4983 275.736C90.1569 275.736 89.8529 275.805 89.5863 275.944C89.3303 276.072 89.1116 276.243 88.9303 276.456C88.7489 276.669 88.6049 276.915 88.4983 277.192C88.4023 277.469 88.3383 277.752 88.3063 278.04H92.4343ZM102.899 274.504C103.027 274.504 103.171 274.515 103.331 274.536C103.502 274.547 103.667 274.568 103.827 274.6C103.987 274.621 104.131 274.648 104.259 274.68C104.398 274.701 104.499 274.723 104.563 274.744L104.307 276.04C104.19 275.997 103.992 275.949 103.715 275.896C103.448 275.832 103.102 275.8 102.675 275.8C102.398 275.8 102.12 275.832 101.843 275.896C101.576 275.949 101.4 275.987 101.315 276.008V283H99.8269V275.032C100.179 274.904 100.616 274.787 101.139 274.68C101.662 274.563 102.248 274.504 102.899 274.504ZM105.535 278.856C105.535 278.12 105.641 277.48 105.855 276.936C106.068 276.381 106.351 275.923 106.703 275.56C107.055 275.197 107.46 274.925 107.919 274.744C108.377 274.563 108.847 274.472 109.327 274.472C110.447 274.472 111.305 274.824 111.903 275.528C112.5 276.221 112.799 277.283 112.799 278.712C112.799 278.776 112.799 278.861 112.799 278.968C112.799 279.064 112.793 279.155 112.783 279.24H107.087C107.151 280.104 107.401 280.76 107.839 281.208C108.276 281.656 108.959 281.88 109.887 281.88C110.409 281.88 110.847 281.837 111.199 281.752C111.561 281.656 111.833 281.565 112.015 281.48L112.223 282.728C112.041 282.824 111.721 282.925 111.263 283.032C110.815 283.139 110.303 283.192 109.727 283.192C109.001 283.192 108.372 283.085 107.839 282.872C107.316 282.648 106.884 282.344 106.543 281.96C106.201 281.576 105.945 281.123 105.775 280.6C105.615 280.067 105.535 279.485 105.535 278.856ZM111.247 278.04C111.257 277.368 111.087 276.819 110.735 276.392C110.393 275.955 109.919 275.736 109.311 275.736C108.969 275.736 108.665 275.805 108.399 275.944C108.143 276.072 107.924 276.243 107.743 276.456C107.561 276.669 107.417 276.915 107.311 277.192C107.215 277.469 107.151 277.752 107.119 278.04H111.247ZM118.184 270.584C118.622 270.584 118.995 270.616 119.304 270.68C119.624 270.744 119.848 270.803 119.976 270.856L119.704 272.136C119.576 272.072 119.395 272.013 119.16 271.96C118.926 271.896 118.638 271.864 118.296 271.864C117.603 271.864 117.118 272.056 116.84 272.44C116.563 272.813 116.424 273.32 116.424 273.96V274.68H119.624V275.928H116.424V283H114.936V273.928C114.936 272.861 115.198 272.04 115.72 271.464C116.243 270.877 117.064 270.584 118.184 270.584ZM120.644 278.856C120.644 278.12 120.751 277.48 120.964 276.936C121.177 276.381 121.46 275.923 121.812 275.56C122.164 275.197 122.569 274.925 123.028 274.744C123.487 274.563 123.956 274.472 124.436 274.472C125.556 274.472 126.415 274.824 127.012 275.528C127.609 276.221 127.908 277.283 127.908 278.712C127.908 278.776 127.908 278.861 127.908 278.968C127.908 279.064 127.903 279.155 127.892 279.24H122.196C122.26 280.104 122.511 280.76 122.948 281.208C123.385 281.656 124.068 281.88 124.996 281.88C125.519 281.88 125.956 281.837 126.308 281.752C126.671 281.656 126.943 281.565 127.124 281.48L127.332 282.728C127.151 282.824 126.831 282.925 126.372 283.032C125.924 283.139 125.412 283.192 124.836 283.192C124.111 283.192 123.481 283.085 122.948 282.872C122.425 282.648 121.993 282.344 121.652 281.96C121.311 281.576 121.055 281.123 120.884 280.6C120.724 280.067 120.644 279.485 120.644 278.856ZM126.356 278.04C126.367 277.368 126.196 276.819 125.844 276.392C125.503 275.955 125.028 275.736 124.42 275.736C124.079 275.736 123.775 275.805 123.508 275.944C123.252 276.072 123.033 276.243 122.852 276.456C122.671 276.669 122.527 276.915 122.42 277.192C122.324 277.469 122.26 277.752 122.228 278.04H126.356ZM133.118 274.504C133.246 274.504 133.39 274.515 133.55 274.536C133.72 274.547 133.886 274.568 134.046 274.6C134.206 274.621 134.35 274.648 134.478 274.68C134.616 274.701 134.718 274.723 134.782 274.744L134.526 276.04C134.408 275.997 134.211 275.949 133.934 275.896C133.667 275.832 133.32 275.8 132.894 275.8C132.616 275.8 132.339 275.832 132.062 275.896C131.795 275.949 131.619 275.987 131.534 276.008V283H130.046V275.032C130.398 274.904 130.835 274.787 131.358 274.68C131.88 274.563 132.467 274.504 133.118 274.504ZM135.754 278.856C135.754 278.12 135.86 277.48 136.074 276.936C136.287 276.381 136.57 275.923 136.922 275.56C137.274 275.197 137.679 274.925 138.138 274.744C138.596 274.563 139.066 274.472 139.546 274.472C140.666 274.472 141.524 274.824 142.122 275.528C142.719 276.221 143.017 277.283 143.017 278.712C143.017 278.776 143.017 278.861 143.017 278.968C143.017 279.064 143.012 279.155 143.002 279.24H137.306C137.37 280.104 137.62 280.76 138.058 281.208C138.495 281.656 139.178 281.88 140.106 281.88C140.628 281.88 141.066 281.837 141.418 281.752C141.78 281.656 142.052 281.565 142.234 281.48L142.442 282.728C142.26 282.824 141.94 282.925 141.482 283.032C141.034 283.139 140.522 283.192 139.946 283.192C139.22 283.192 138.591 283.085 138.058 282.872C137.535 282.648 137.103 282.344 136.762 281.96C136.42 281.576 136.164 281.123 135.993 280.6C135.834 280.067 135.754 279.485 135.754 278.856ZM141.466 278.04C141.476 277.368 141.306 276.819 140.954 276.392C140.612 275.955 140.138 275.736 139.53 275.736C139.188 275.736 138.884 275.805 138.618 275.944C138.362 276.072 138.143 276.243 137.962 276.456C137.78 276.669 137.636 276.915 137.53 277.192C137.434 277.469 137.37 277.752 137.338 278.04H141.466ZM145.155 274.92C145.496 274.835 145.95 274.744 146.515 274.648C147.08 274.552 147.731 274.504 148.467 274.504C149.128 274.504 149.678 274.6 150.115 274.792C150.552 274.973 150.899 275.235 151.155 275.576C151.422 275.907 151.608 276.307 151.715 276.776C151.822 277.245 151.875 277.763 151.875 278.328V283H150.387V278.648C150.387 278.136 150.35 277.699 150.275 277.336C150.211 276.973 150.099 276.68 149.939 276.456C149.779 276.232 149.566 276.072 149.299 275.976C149.032 275.869 148.702 275.816 148.307 275.816C148.147 275.816 147.982 275.821 147.811 275.832C147.64 275.843 147.475 275.859 147.315 275.88C147.166 275.891 147.027 275.907 146.899 275.928C146.782 275.949 146.696 275.965 146.643 275.976V283H145.155V274.92ZM157.959 283.192C157.287 283.192 156.695 283.085 156.183 282.872C155.681 282.659 155.255 282.36 154.903 281.976C154.561 281.592 154.305 281.139 154.135 280.616C153.964 280.083 153.879 279.496 153.879 278.856C153.879 278.216 153.969 277.629 154.151 277.096C154.343 276.563 154.609 276.104 154.951 275.72C155.292 275.325 155.708 275.021 156.199 274.808C156.7 274.584 157.255 274.472 157.863 274.472C158.236 274.472 158.609 274.504 158.983 274.568C159.356 274.632 159.713 274.733 160.055 274.872L159.719 276.136C159.495 276.029 159.233 275.944 158.935 275.88C158.647 275.816 158.337 275.784 158.007 275.784C157.175 275.784 156.535 276.045 156.087 276.568C155.649 277.091 155.431 277.853 155.431 278.856C155.431 279.304 155.479 279.715 155.575 280.088C155.681 280.461 155.841 280.781 156.055 281.048C156.279 281.315 156.561 281.523 156.903 281.672C157.244 281.811 157.66 281.88 158.151 281.88C158.545 281.88 158.903 281.843 159.223 281.768C159.543 281.693 159.793 281.613 159.975 281.528L160.183 282.776C160.097 282.829 159.975 282.883 159.815 282.936C159.655 282.979 159.473 283.016 159.271 283.048C159.068 283.091 158.849 283.123 158.615 283.144C158.391 283.176 158.172 283.192 157.959 283.192ZM161.316 278.856C161.316 278.12 161.423 277.48 161.636 276.936C161.849 276.381 162.132 275.923 162.484 275.56C162.836 275.197 163.241 274.925 163.7 274.744C164.159 274.563 164.628 274.472 165.108 274.472C166.228 274.472 167.087 274.824 167.684 275.528C168.281 276.221 168.58 277.283 168.58 278.712C168.58 278.776 168.58 278.861 168.58 278.968C168.58 279.064 168.575 279.155 168.564 279.24H162.868C162.932 280.104 163.183 280.76 163.62 281.208C164.057 281.656 164.74 281.88 165.668 281.88C166.191 281.88 166.628 281.837 166.98 281.752C167.343 281.656 167.615 281.565 167.796 281.48L168.004 282.728C167.823 282.824 167.503 282.925 167.044 283.032C166.596 283.139 166.084 283.192 165.508 283.192C164.783 283.192 164.153 283.085 163.62 282.872C163.097 282.648 162.665 282.344 162.324 281.96C161.983 281.576 161.727 281.123 161.556 280.6C161.396 280.067 161.316 279.485 161.316 278.856ZM167.028 278.04C167.039 277.368 166.868 276.819 166.516 276.392C166.175 275.955 165.7 275.736 165.092 275.736C164.751 275.736 164.447 275.805 164.18 275.944C163.924 276.072 163.705 276.243 163.524 276.456C163.343 276.669 163.199 276.915 163.092 277.192C162.996 277.469 162.932 277.752 162.9 278.04H167.028ZM175.813 274.68H178.965V275.928H175.813V279.768C175.813 280.184 175.845 280.531 175.909 280.808C175.973 281.075 176.069 281.288 176.197 281.448C176.325 281.597 176.485 281.704 176.677 281.768C176.869 281.832 177.093 281.864 177.349 281.864C177.797 281.864 178.154 281.816 178.421 281.72C178.698 281.613 178.89 281.539 178.997 281.496L179.285 282.728C179.135 282.803 178.874 282.893 178.501 283C178.127 283.117 177.701 283.176 177.221 283.176C176.655 283.176 176.186 283.107 175.813 282.968C175.45 282.819 175.157 282.6 174.933 282.312C174.709 282.024 174.549 281.672 174.453 281.256C174.367 280.829 174.325 280.339 174.325 279.784V272.36L175.813 272.104V274.68ZM187.983 278.84C187.983 279.501 187.887 280.099 187.695 280.632C187.503 281.165 187.231 281.624 186.879 282.008C186.538 282.392 186.127 282.691 185.647 282.904C185.167 283.107 184.645 283.208 184.079 283.208C183.514 283.208 182.991 283.107 182.511 282.904C182.031 282.691 181.615 282.392 181.263 282.008C180.922 281.624 180.655 281.165 180.463 280.632C180.271 280.099 180.175 279.501 180.175 278.84C180.175 278.189 180.271 277.597 180.463 277.064C180.655 276.52 180.922 276.056 181.263 275.672C181.615 275.288 182.031 274.995 182.511 274.792C182.991 274.579 183.514 274.472 184.079 274.472C184.645 274.472 185.167 274.579 185.647 274.792C186.127 274.995 186.538 275.288 186.879 275.672C187.231 276.056 187.503 276.52 187.695 277.064C187.887 277.597 187.983 278.189 187.983 278.84ZM186.431 278.84C186.431 277.901 186.218 277.16 185.791 276.616C185.375 276.061 184.805 275.784 184.079 275.784C183.354 275.784 182.778 276.061 182.351 276.616C181.935 277.16 181.727 277.901 181.727 278.84C181.727 279.779 181.935 280.525 182.351 281.08C182.778 281.624 183.354 281.896 184.079 281.896C184.805 281.896 185.375 281.624 185.791 281.08C186.218 280.525 186.431 279.779 186.431 278.84ZM199.556 278.856C199.556 277.885 199.316 277.139 198.836 276.616C198.356 276.093 197.716 275.832 196.916 275.832C196.468 275.832 196.116 275.848 195.86 275.88C195.615 275.912 195.417 275.949 195.268 275.992V281.24C195.449 281.389 195.711 281.533 196.052 281.672C196.393 281.811 196.767 281.88 197.172 281.88C197.599 281.88 197.961 281.805 198.26 281.656C198.569 281.496 198.82 281.283 199.012 281.016C199.204 280.739 199.343 280.419 199.428 280.056C199.513 279.683 199.556 279.283 199.556 278.856ZM201.108 278.856C201.108 279.485 201.023 280.067 200.852 280.6C200.692 281.133 200.452 281.592 200.132 281.976C199.812 282.36 199.417 282.659 198.948 282.872C198.489 283.085 197.961 283.192 197.364 283.192C196.884 283.192 196.457 283.128 196.084 283C195.721 282.872 195.449 282.749 195.268 282.632V285.96H193.78V274.936C194.132 274.851 194.569 274.76 195.092 274.664C195.625 274.557 196.239 274.504 196.932 274.504C197.572 274.504 198.148 274.605 198.66 274.808C199.172 275.011 199.609 275.299 199.972 275.672C200.335 276.045 200.612 276.504 200.804 277.048C201.007 277.581 201.108 278.184 201.108 278.856ZM206.274 274.504C206.402 274.504 206.546 274.515 206.706 274.536C206.877 274.547 207.042 274.568 207.202 274.6C207.362 274.621 207.506 274.648 207.634 274.68C207.773 274.701 207.874 274.723 207.938 274.744L207.682 276.04C207.565 275.997 207.367 275.949 207.09 275.896C206.823 275.832 206.477 275.8 206.05 275.8C205.773 275.8 205.495 275.832 205.218 275.896C204.951 275.949 204.775 275.987 204.69 276.008V283H203.202V275.032C203.554 274.904 203.991 274.787 204.514 274.68C205.037 274.563 205.623 274.504 206.274 274.504ZM216.718 278.84C216.718 279.501 216.622 280.099 216.43 280.632C216.238 281.165 215.966 281.624 215.614 282.008C215.272 282.392 214.862 282.691 214.382 282.904C213.902 283.107 213.379 283.208 212.814 283.208C212.248 283.208 211.726 283.107 211.246 282.904C210.766 282.691 210.35 282.392 209.998 282.008C209.656 281.624 209.39 281.165 209.198 280.632C209.006 280.099 208.91 279.501 208.91 278.84C208.91 278.189 209.006 277.597 209.198 277.064C209.39 276.52 209.656 276.056 209.998 275.672C210.35 275.288 210.766 274.995 211.246 274.792C211.726 274.579 212.248 274.472 212.814 274.472C213.379 274.472 213.902 274.579 214.382 274.792C214.862 274.995 215.272 275.288 215.614 275.672C215.966 276.056 216.238 276.52 216.43 277.064C216.622 277.597 216.718 278.189 216.718 278.84ZM215.166 278.84C215.166 277.901 214.952 277.16 214.526 276.616C214.11 276.061 213.539 275.784 212.814 275.784C212.088 275.784 211.512 276.061 211.086 276.616C210.67 277.16 210.462 277.901 210.462 278.84C210.462 279.779 210.67 280.525 211.086 281.08C211.512 281.624 212.088 281.896 212.814 281.896C213.539 281.896 214.11 281.624 214.526 281.08C214.952 280.525 215.166 279.779 215.166 278.84ZM220.747 281.928C221.355 281.928 221.803 281.848 222.091 281.688C222.39 281.528 222.539 281.272 222.539 280.92C222.539 280.557 222.395 280.269 222.107 280.056C221.819 279.843 221.345 279.603 220.683 279.336C220.363 279.208 220.054 279.08 219.755 278.952C219.467 278.813 219.217 278.653 219.003 278.472C218.79 278.291 218.619 278.072 218.491 277.816C218.363 277.56 218.299 277.245 218.299 276.872C218.299 276.136 218.571 275.555 219.115 275.128C219.659 274.691 220.401 274.472 221.339 274.472C221.574 274.472 221.809 274.488 222.043 274.52C222.278 274.541 222.497 274.573 222.699 274.616C222.902 274.648 223.078 274.685 223.227 274.728C223.387 274.771 223.51 274.808 223.595 274.84L223.323 276.12C223.163 276.035 222.913 275.949 222.571 275.864C222.23 275.768 221.819 275.72 221.339 275.72C220.923 275.72 220.561 275.805 220.251 275.976C219.942 276.136 219.787 276.392 219.787 276.744C219.787 276.925 219.819 277.085 219.883 277.224C219.958 277.363 220.065 277.491 220.203 277.608C220.353 277.715 220.534 277.816 220.747 277.912C220.961 278.008 221.217 278.109 221.515 278.216C221.91 278.365 222.262 278.515 222.571 278.664C222.881 278.803 223.142 278.968 223.355 279.16C223.579 279.352 223.75 279.587 223.867 279.864C223.985 280.131 224.043 280.461 224.043 280.856C224.043 281.624 223.755 282.205 223.179 282.6C222.614 282.995 221.803 283.192 220.747 283.192C220.011 283.192 219.435 283.128 219.019 283C218.603 282.883 218.321 282.792 218.171 282.728L218.443 281.448C218.614 281.512 218.886 281.608 219.259 281.736C219.633 281.864 220.129 281.928 220.747 281.928ZM231.728 278.856C231.728 277.885 231.488 277.139 231.008 276.616C230.528 276.093 229.888 275.832 229.088 275.832C228.64 275.832 228.288 275.848 228.032 275.88C227.787 275.912 227.589 275.949 227.44 275.992V281.24C227.621 281.389 227.883 281.533 228.224 281.672C228.565 281.811 228.939 281.88 229.344 281.88C229.771 281.88 230.133 281.805 230.432 281.656C230.741 281.496 230.992 281.283 231.184 281.016C231.376 280.739 231.515 280.419 231.6 280.056C231.685 279.683 231.728 279.283 231.728 278.856ZM233.28 278.856C233.28 279.485 233.195 280.067 233.024 280.6C232.864 281.133 232.624 281.592 232.304 281.976C231.984 282.36 231.589 282.659 231.12 282.872C230.661 283.085 230.133 283.192 229.536 283.192C229.056 283.192 228.629 283.128 228.256 283C227.893 282.872 227.621 282.749 227.44 282.632V285.96H225.952V274.936C226.304 274.851 226.741 274.76 227.264 274.664C227.797 274.557 228.411 274.504 229.104 274.504C229.744 274.504 230.32 274.605 230.832 274.808C231.344 275.011 231.781 275.299 232.144 275.672C232.507 276.045 232.784 276.504 232.976 277.048C233.179 277.581 233.28 278.184 233.28 278.856ZM234.91 278.856C234.91 278.12 235.016 277.48 235.23 276.936C235.443 276.381 235.726 275.923 236.078 275.56C236.43 275.197 236.835 274.925 237.294 274.744C237.752 274.563 238.222 274.472 238.702 274.472C239.822 274.472 240.68 274.824 241.278 275.528C241.875 276.221 242.174 277.283 242.174 278.712C242.174 278.776 242.174 278.861 242.174 278.968C242.174 279.064 242.168 279.155 242.158 279.24H236.462C236.526 280.104 236.776 280.76 237.214 281.208C237.651 281.656 238.334 281.88 239.262 281.88C239.784 281.88 240.222 281.837 240.574 281.752C240.936 281.656 241.208 281.565 241.39 281.48L241.598 282.728C241.416 282.824 241.096 282.925 240.638 283.032C240.19 283.139 239.678 283.192 239.102 283.192C238.376 283.192 237.747 283.085 237.214 282.872C236.691 282.648 236.259 282.344 235.918 281.96C235.576 281.576 235.32 281.123 235.15 280.6C234.99 280.067 234.91 279.485 234.91 278.856ZM240.622 278.04C240.632 277.368 240.462 276.819 240.11 276.392C239.768 275.955 239.294 275.736 238.686 275.736C238.344 275.736 238.04 275.805 237.774 275.944C237.518 276.072 237.299 276.243 237.118 276.456C236.936 276.669 236.792 276.915 236.686 277.192C236.59 277.469 236.526 277.752 236.494 278.04H240.622ZM247.927 283.192C247.255 283.192 246.663 283.085 246.151 282.872C245.65 282.659 245.223 282.36 244.871 281.976C244.53 281.592 244.274 281.139 244.103 280.616C243.933 280.083 243.847 279.496 243.847 278.856C243.847 278.216 243.938 277.629 244.119 277.096C244.311 276.563 244.578 276.104 244.919 275.72C245.261 275.325 245.677 275.021 246.167 274.808C246.669 274.584 247.223 274.472 247.831 274.472C248.205 274.472 248.578 274.504 248.951 274.568C249.325 274.632 249.682 274.733 250.023 274.872L249.687 276.136C249.463 276.029 249.202 275.944 248.903 275.88C248.615 275.816 248.306 275.784 247.975 275.784C247.143 275.784 246.503 276.045 246.055 276.568C245.618 277.091 245.399 277.853 245.399 278.856C245.399 279.304 245.447 279.715 245.543 280.088C245.65 280.461 245.81 280.781 246.023 281.048C246.247 281.315 246.53 281.523 246.871 281.672C247.213 281.811 247.629 281.88 248.119 281.88C248.514 281.88 248.871 281.843 249.191 281.768C249.511 281.693 249.762 281.613 249.943 281.528L250.151 282.776C250.066 282.829 249.943 282.883 249.783 282.936C249.623 282.979 249.442 283.016 249.239 283.048C249.037 283.091 248.818 283.123 248.583 283.144C248.359 283.176 248.141 283.192 247.927 283.192ZM253.141 274.68H256.293V275.928H253.141V279.768C253.141 280.184 253.173 280.531 253.237 280.808C253.301 281.075 253.397 281.288 253.525 281.448C253.653 281.597 253.813 281.704 254.005 281.768C254.197 281.832 254.421 281.864 254.677 281.864C255.125 281.864 255.482 281.816 255.749 281.72C256.026 281.613 256.218 281.539 256.325 281.496L256.613 282.728C256.463 282.803 256.202 282.893 255.829 283C255.455 283.117 255.029 283.176 254.549 283.176C253.983 283.176 253.514 283.107 253.141 282.968C252.778 282.819 252.485 282.6 252.261 282.312C252.037 282.024 251.877 281.672 251.781 281.256C251.695 280.829 251.653 280.339 251.653 279.784V272.36L253.141 272.104V274.68ZM259.674 283H258.186V274.68H259.674V283ZM258.922 273.176C258.656 273.176 258.426 273.091 258.234 272.92C258.053 272.739 257.962 272.499 257.962 272.2C257.962 271.901 258.053 271.667 258.234 271.496C258.426 271.315 258.656 271.224 258.922 271.224C259.189 271.224 259.413 271.315 259.594 271.496C259.786 271.667 259.882 271.901 259.882 272.2C259.882 272.499 259.786 272.739 259.594 272.92C259.413 273.091 259.189 273.176 258.922 273.176ZM268.729 274.68C268.313 276.237 267.822 277.731 267.257 279.16C266.702 280.589 266.164 281.869 265.641 283H264.297C263.774 281.869 263.23 280.589 262.665 279.16C262.11 277.731 261.625 276.237 261.209 274.68H262.809C262.937 275.203 263.086 275.763 263.257 276.36C263.438 276.947 263.625 277.533 263.817 278.12C264.02 278.696 264.222 279.256 264.425 279.8C264.628 280.344 264.82 280.829 265.001 281.256C265.182 280.829 265.374 280.344 265.577 279.8C265.78 279.256 265.977 278.696 266.169 278.12C266.372 277.533 266.558 276.947 266.729 276.36C266.91 275.763 267.065 275.203 267.193 274.68H268.729ZM269.582 278.856C269.582 278.12 269.688 277.48 269.902 276.936C270.115 276.381 270.398 275.923 270.75 275.56C271.102 275.197 271.507 274.925 271.966 274.744C272.424 274.563 272.894 274.472 273.374 274.472C274.494 274.472 275.352 274.824 275.95 275.528C276.547 276.221 276.846 277.283 276.846 278.712C276.846 278.776 276.846 278.861 276.846 278.968C276.846 279.064 276.84 279.155 276.83 279.24H271.134C271.198 280.104 271.448 280.76 271.886 281.208C272.323 281.656 273.006 281.88 273.934 281.88C274.456 281.88 274.894 281.837 275.246 281.752C275.608 281.656 275.88 281.565 276.062 281.48L276.27 282.728C276.088 282.824 275.768 282.925 275.31 283.032C274.862 283.139 274.35 283.192 273.774 283.192C273.048 283.192 272.419 283.085 271.886 282.872C271.363 282.648 270.931 282.344 270.59 281.96C270.248 281.576 269.992 281.123 269.822 280.6C269.662 280.067 269.582 279.485 269.582 278.856ZM275.294 278.04C275.304 277.368 275.134 276.819 274.782 276.392C274.44 275.955 273.966 275.736 273.358 275.736C273.016 275.736 272.712 275.805 272.446 275.944C272.19 276.072 271.971 276.243 271.79 276.456C271.608 276.669 271.464 276.915 271.358 277.192C271.262 277.469 271.198 277.752 271.166 278.04H275.294ZM95.1773 301.192C94.5053 301.192 93.9133 301.085 93.4013 300.872C92.8999 300.659 92.4733 300.36 92.1213 299.976C91.7799 299.592 91.5239 299.139 91.3533 298.616C91.1826 298.083 91.0973 297.496 91.0973 296.856C91.0973 296.216 91.1879 295.629 91.3693 295.096C91.5613 294.563 91.8279 294.104 92.1693 293.72C92.5106 293.325 92.9266 293.021 93.4173 292.808C93.9186 292.584 94.4733 292.472 95.0813 292.472C95.4546 292.472 95.8279 292.504 96.2013 292.568C96.5746 292.632 96.9319 292.733 97.2733 292.872L96.9373 294.136C96.7133 294.029 96.4519 293.944 96.1533 293.88C95.8653 293.816 95.5559 293.784 95.2253 293.784C94.3933 293.784 93.7533 294.045 93.3053 294.568C92.8679 295.091 92.6493 295.853 92.6493 296.856C92.6493 297.304 92.6973 297.715 92.7933 298.088C92.8999 298.461 93.0599 298.781 93.2733 299.048C93.4973 299.315 93.7799 299.523 94.1213 299.672C94.4626 299.811 94.8786 299.88 95.3693 299.88C95.7639 299.88 96.1213 299.843 96.4413 299.768C96.7613 299.693 97.0119 299.613 97.1933 299.528L97.4013 300.776C97.3159 300.829 97.1933 300.883 97.0333 300.936C96.8733 300.979 96.6919 301.016 96.4893 301.048C96.2866 301.091 96.0679 301.123 95.8333 301.144C95.6093 301.176 95.3906 301.192 95.1773 301.192ZM102.071 292.504C102.199 292.504 102.343 292.515 102.503 292.536C102.673 292.547 102.839 292.568 102.999 292.6C103.159 292.621 103.303 292.648 103.431 292.68C103.569 292.701 103.671 292.723 103.735 292.744L103.479 294.04C103.361 293.997 103.164 293.949 102.887 293.896C102.62 293.832 102.273 293.8 101.847 293.8C101.569 293.8 101.292 293.832 101.015 293.896C100.748 293.949 100.572 293.987 100.487 294.008V301H98.9988V293.032C99.3508 292.904 99.7881 292.787 100.311 292.68C100.833 292.563 101.42 292.504 102.071 292.504ZM104.707 296.856C104.707 296.12 104.813 295.48 105.027 294.936C105.24 294.381 105.523 293.923 105.875 293.56C106.227 293.197 106.632 292.925 107.091 292.744C107.549 292.563 108.019 292.472 108.499 292.472C109.619 292.472 110.477 292.824 111.075 293.528C111.672 294.221 111.971 295.283 111.971 296.712C111.971 296.776 111.971 296.861 111.971 296.968C111.971 297.064 111.965 297.155 111.955 297.24H106.259C106.323 298.104 106.573 298.76 107.011 299.208C107.448 299.656 108.131 299.88 109.059 299.88C109.581 299.88 110.019 299.837 110.371 299.752C110.733 299.656 111.005 299.565 111.187 299.48L111.395 300.728C111.213 300.824 110.893 300.925 110.435 301.032C109.987 301.139 109.475 301.192 108.899 301.192C108.173 301.192 107.544 301.085 107.011 300.872C106.488 300.648 106.056 300.344 105.715 299.96C105.373 299.576 105.117 299.123 104.947 298.6C104.787 298.067 104.707 297.485 104.707 296.856ZM110.419 296.04C110.429 295.368 110.259 294.819 109.907 294.392C109.565 293.955 109.091 293.736 108.483 293.736C108.141 293.736 107.837 293.805 107.571 293.944C107.315 294.072 107.096 294.243 106.915 294.456C106.733 294.669 106.589 294.915 106.483 295.192C106.387 295.469 106.323 295.752 106.291 296.04H110.419ZM119.484 294.44C119.303 294.291 119.041 294.147 118.7 294.008C118.359 293.869 117.985 293.8 117.58 293.8C117.153 293.8 116.785 293.88 116.476 294.04C116.177 294.189 115.932 294.403 115.74 294.68C115.548 294.947 115.409 295.267 115.324 295.64C115.239 296.013 115.196 296.413 115.196 296.84C115.196 297.811 115.436 298.563 115.916 299.096C116.396 299.619 117.036 299.88 117.836 299.88C118.241 299.88 118.577 299.864 118.844 299.832C119.121 299.789 119.335 299.747 119.484 299.704V294.44ZM119.484 288.84L120.972 288.584V300.76C120.631 300.856 120.193 300.952 119.66 301.048C119.127 301.144 118.513 301.192 117.82 301.192C117.18 301.192 116.604 301.091 116.092 300.888C115.58 300.685 115.143 300.397 114.78 300.024C114.417 299.651 114.135 299.197 113.932 298.664C113.74 298.12 113.644 297.512 113.644 296.84C113.644 296.2 113.724 295.613 113.884 295.08C114.055 294.547 114.3 294.088 114.62 293.704C114.94 293.32 115.329 293.021 115.788 292.808C116.257 292.595 116.791 292.488 117.388 292.488C117.868 292.488 118.289 292.552 118.652 292.68C119.025 292.808 119.303 292.931 119.484 293.048V288.84ZM125.018 301H123.53V292.68H125.018V301ZM124.266 291.176C123.999 291.176 123.77 291.091 123.578 290.92C123.397 290.739 123.306 290.499 123.306 290.2C123.306 289.901 123.397 289.667 123.578 289.496C123.77 289.315 123.999 289.224 124.266 289.224C124.533 289.224 124.757 289.315 124.938 289.496C125.13 289.667 125.226 289.901 125.226 290.2C125.226 290.499 125.13 290.739 124.938 290.92C124.757 291.091 124.533 291.176 124.266 291.176ZM128.969 292.68H132.121V293.928H128.969V297.768C128.969 298.184 129.001 298.531 129.065 298.808C129.129 299.075 129.225 299.288 129.353 299.448C129.481 299.597 129.641 299.704 129.833 299.768C130.025 299.832 130.249 299.864 130.505 299.864C130.953 299.864 131.31 299.816 131.577 299.72C131.854 299.613 132.046 299.539 132.153 299.496L132.441 300.728C132.292 300.803 132.03 300.893 131.657 301C131.284 301.117 130.857 301.176 130.377 301.176C129.812 301.176 129.342 301.107 128.969 300.968C128.606 300.819 128.313 300.6 128.089 300.312C127.865 300.024 127.705 299.672 127.609 299.256C127.524 298.829 127.481 298.339 127.481 297.784V290.36L128.969 290.104V292.68ZM140.79 292.504C140.918 292.504 141.062 292.515 141.222 292.536C141.392 292.547 141.558 292.568 141.718 292.6C141.878 292.621 142.022 292.648 142.15 292.68C142.288 292.701 142.39 292.723 142.454 292.744L142.198 294.04C142.08 293.997 141.883 293.949 141.606 293.896C141.339 293.832 140.992 293.8 140.566 293.8C140.288 293.8 140.011 293.832 139.734 293.896C139.467 293.949 139.291 293.987 139.206 294.008V301H137.718V293.032C138.07 292.904 138.507 292.787 139.03 292.68C139.552 292.563 140.139 292.504 140.79 292.504ZM143.425 296.856C143.425 296.12 143.532 295.48 143.745 294.936C143.959 294.381 144.241 293.923 144.593 293.56C144.945 293.197 145.351 292.925 145.809 292.744C146.268 292.563 146.737 292.472 147.217 292.472C148.337 292.472 149.196 292.824 149.793 293.528C150.391 294.221 150.689 295.283 150.689 296.712C150.689 296.776 150.689 296.861 150.689 296.968C150.689 297.064 150.684 297.155 150.673 297.24H144.977C145.041 298.104 145.292 298.76 145.729 299.208C146.167 299.656 146.849 299.88 147.777 299.88C148.3 299.88 148.737 299.837 149.089 299.752C149.452 299.656 149.724 299.565 149.905 299.48L150.113 300.728C149.932 300.824 149.612 300.925 149.153 301.032C148.705 301.139 148.193 301.192 147.617 301.192C146.892 301.192 146.263 301.085 145.729 300.872C145.207 300.648 144.775 300.344 144.433 299.96C144.092 299.576 143.836 299.123 143.665 298.6C143.505 298.067 143.425 297.485 143.425 296.856ZM149.137 296.04C149.148 295.368 148.977 294.819 148.625 294.392C148.284 293.955 147.809 293.736 147.201 293.736C146.86 293.736 146.556 293.805 146.289 293.944C146.033 294.072 145.815 294.243 145.633 294.456C145.452 294.669 145.308 294.915 145.201 295.192C145.105 295.469 145.041 295.752 145.009 296.04H149.137ZM156.443 301.192C155.771 301.192 155.179 301.085 154.667 300.872C154.166 300.659 153.739 300.36 153.387 299.976C153.046 299.592 152.79 299.139 152.619 298.616C152.448 298.083 152.363 297.496 152.363 296.856C152.363 296.216 152.454 295.629 152.635 295.096C152.827 294.563 153.094 294.104 153.435 293.72C153.776 293.325 154.192 293.021 154.683 292.808C155.184 292.584 155.739 292.472 156.347 292.472C156.72 292.472 157.094 292.504 157.467 292.568C157.84 292.632 158.198 292.733 158.539 292.872L158.203 294.136C157.979 294.029 157.718 293.944 157.419 293.88C157.131 293.816 156.822 293.784 156.491 293.784C155.659 293.784 155.019 294.045 154.571 294.568C154.134 295.091 153.915 295.853 153.915 296.856C153.915 297.304 153.963 297.715 154.059 298.088C154.166 298.461 154.326 298.781 154.539 299.048C154.763 299.315 155.046 299.523 155.387 299.672C155.728 299.811 156.144 299.88 156.635 299.88C157.03 299.88 157.387 299.843 157.707 299.768C158.027 299.693 158.278 299.613 158.459 299.528L158.667 300.776C158.582 300.829 158.459 300.883 158.299 300.936C158.139 300.979 157.958 301.016 157.755 301.048C157.552 301.091 157.334 301.123 157.099 301.144C156.875 301.176 156.656 301.192 156.443 301.192ZM161.752 301H160.264V292.68H161.752V301ZM161 291.176C160.734 291.176 160.504 291.091 160.312 290.92C160.131 290.739 160.04 290.499 160.04 290.2C160.04 289.901 160.131 289.667 160.312 289.496C160.504 289.315 160.734 289.224 161 289.224C161.267 289.224 161.491 289.315 161.672 289.496C161.864 289.667 161.96 289.901 161.96 290.2C161.96 290.499 161.864 290.739 161.672 290.92C161.491 291.091 161.267 291.176 161 291.176ZM170.087 296.856C170.087 295.885 169.847 295.139 169.367 294.616C168.887 294.093 168.247 293.832 167.447 293.832C166.999 293.832 166.647 293.848 166.391 293.88C166.146 293.912 165.949 293.949 165.799 293.992V299.24C165.981 299.389 166.242 299.533 166.583 299.672C166.925 299.811 167.298 299.88 167.703 299.88C168.13 299.88 168.493 299.805 168.791 299.656C169.101 299.496 169.351 299.283 169.543 299.016C169.735 298.739 169.874 298.419 169.959 298.056C170.045 297.683 170.087 297.283 170.087 296.856ZM171.639 296.856C171.639 297.485 171.554 298.067 171.383 298.6C171.223 299.133 170.983 299.592 170.663 299.976C170.343 300.36 169.949 300.659 169.479 300.872C169.021 301.085 168.493 301.192 167.895 301.192C167.415 301.192 166.989 301.128 166.615 301C166.253 300.872 165.981 300.749 165.799 300.632V303.96H164.311V292.936C164.663 292.851 165.101 292.76 165.623 292.664C166.157 292.557 166.77 292.504 167.463 292.504C168.103 292.504 168.679 292.605 169.191 292.808C169.703 293.011 170.141 293.299 170.503 293.672C170.866 294.045 171.143 294.504 171.335 295.048C171.538 295.581 171.639 296.184 171.639 296.856ZM175.221 301H173.733V292.68H175.221V301ZM174.469 291.176C174.202 291.176 173.973 291.091 173.781 290.92C173.6 290.739 173.509 290.499 173.509 290.2C173.509 289.901 173.6 289.667 173.781 289.496C173.973 289.315 174.202 289.224 174.469 289.224C174.736 289.224 174.96 289.315 175.141 289.496C175.333 289.667 175.429 289.901 175.429 290.2C175.429 290.499 175.333 290.739 175.141 290.92C174.96 291.091 174.736 291.176 174.469 291.176ZM177.316 296.856C177.316 296.12 177.423 295.48 177.636 294.936C177.849 294.381 178.132 293.923 178.484 293.56C178.836 293.197 179.241 292.925 179.7 292.744C180.159 292.563 180.628 292.472 181.108 292.472C182.228 292.472 183.087 292.824 183.684 293.528C184.281 294.221 184.58 295.283 184.58 296.712C184.58 296.776 184.58 296.861 184.58 296.968C184.58 297.064 184.575 297.155 184.564 297.24H178.868C178.932 298.104 179.183 298.76 179.62 299.208C180.057 299.656 180.74 299.88 181.668 299.88C182.191 299.88 182.628 299.837 182.98 299.752C183.343 299.656 183.615 299.565 183.796 299.48L184.004 300.728C183.823 300.824 183.503 300.925 183.044 301.032C182.596 301.139 182.084 301.192 181.508 301.192C180.783 301.192 180.153 301.085 179.62 300.872C179.097 300.648 178.665 300.344 178.324 299.96C177.983 299.576 177.727 299.123 177.556 298.6C177.396 298.067 177.316 297.485 177.316 296.856ZM183.028 296.04C183.039 295.368 182.868 294.819 182.516 294.392C182.175 293.955 181.7 293.736 181.092 293.736C180.751 293.736 180.447 293.805 180.18 293.944C179.924 294.072 179.705 294.243 179.524 294.456C179.343 294.669 179.199 294.915 179.092 295.192C178.996 295.469 178.932 295.752 178.9 296.04H183.028ZM186.718 292.92C187.059 292.835 187.512 292.744 188.078 292.648C188.643 292.552 189.294 292.504 190.03 292.504C190.691 292.504 191.24 292.6 191.678 292.792C192.115 292.973 192.462 293.235 192.718 293.576C192.984 293.907 193.171 294.307 193.278 294.776C193.384 295.245 193.438 295.763 193.438 296.328V301H191.95V296.648C191.95 296.136 191.912 295.699 191.838 295.336C191.774 294.973 191.662 294.68 191.502 294.456C191.342 294.232 191.128 294.072 190.862 293.976C190.595 293.869 190.264 293.816 189.87 293.816C189.71 293.816 189.544 293.821 189.374 293.832C189.203 293.843 189.038 293.859 188.878 293.88C188.728 293.891 188.59 293.907 188.462 293.928C188.344 293.949 188.259 293.965 188.206 293.976V301H186.718V292.92ZM197.297 292.68H200.449V293.928H197.297V297.768C197.297 298.184 197.329 298.531 197.393 298.808C197.457 299.075 197.553 299.288 197.681 299.448C197.809 299.597 197.969 299.704 198.161 299.768C198.353 299.832 198.577 299.864 198.833 299.864C199.281 299.864 199.638 299.816 199.905 299.72C200.182 299.613 200.374 299.539 200.481 299.496L200.769 300.728C200.62 300.803 200.358 300.893 199.985 301C199.612 301.117 199.185 301.176 198.705 301.176C198.14 301.176 197.67 301.107 197.297 300.968C196.934 300.819 196.641 300.6 196.417 300.312C196.193 300.024 196.033 299.672 195.937 299.256C195.852 298.829 195.809 298.339 195.809 297.784V290.36L197.297 290.104V292.68ZM204.279 299.928C204.887 299.928 205.335 299.848 205.623 299.688C205.921 299.528 206.071 299.272 206.071 298.92C206.071 298.557 205.927 298.269 205.639 298.056C205.351 297.843 204.876 297.603 204.215 297.336C203.895 297.208 203.585 297.08 203.287 296.952C202.999 296.813 202.748 296.653 202.535 296.472C202.321 296.291 202.151 296.072 202.023 295.816C201.895 295.56 201.831 295.245 201.831 294.872C201.831 294.136 202.103 293.555 202.647 293.128C203.191 292.691 203.932 292.472 204.871 292.472C205.105 292.472 205.34 292.488 205.575 292.52C205.809 292.541 206.028 292.573 206.231 292.616C206.433 292.648 206.609 292.685 206.759 292.728C206.919 292.771 207.041 292.808 207.127 292.84L206.855 294.12C206.695 294.035 206.444 293.949 206.103 293.864C205.761 293.768 205.351 293.72 204.871 293.72C204.455 293.72 204.092 293.805 203.783 293.976C203.473 294.136 203.319 294.392 203.319 294.744C203.319 294.925 203.351 295.085 203.414 295.224C203.489 295.363 203.596 295.491 203.735 295.608C203.884 295.715 204.065 295.816 204.279 295.912C204.492 296.008 204.748 296.109 205.047 296.216C205.441 296.365 205.793 296.515 206.103 296.664C206.412 296.803 206.673 296.968 206.887 297.16C207.111 297.352 207.281 297.587 207.399 297.864C207.516 298.131 207.575 298.461 207.575 298.856C207.575 299.624 207.287 300.205 206.711 300.6C206.145 300.995 205.335 301.192 204.279 301.192C203.543 301.192 202.967 301.128 202.551 301C202.135 300.883 201.852 300.792 201.703 300.728L201.975 299.448C202.145 299.512 202.417 299.608 202.791 299.736C203.164 299.864 203.66 299.928 204.279 299.928ZM219.81 300.76C219.469 300.845 219.016 300.936 218.45 301.032C217.896 301.128 217.25 301.176 216.514 301.176C215.874 301.176 215.336 301.085 214.898 300.904C214.461 300.712 214.109 300.445 213.842 300.104C213.576 299.763 213.384 299.363 213.266 298.904C213.149 298.435 213.09 297.917 213.09 297.352V292.68H214.578V297.032C214.578 298.045 214.738 298.771 215.058 299.208C215.378 299.645 215.917 299.864 216.674 299.864C216.834 299.864 217 299.859 217.17 299.848C217.341 299.837 217.501 299.827 217.65 299.816C217.8 299.795 217.933 299.779 218.05 299.768C218.178 299.747 218.269 299.725 218.322 299.704V292.68H219.81V300.76ZM224.31 299.928C224.918 299.928 225.366 299.848 225.654 299.688C225.952 299.528 226.102 299.272 226.102 298.92C226.102 298.557 225.958 298.269 225.67 298.056C225.382 297.843 224.907 297.603 224.246 297.336C223.926 297.208 223.616 297.08 223.318 296.952C223.03 296.813 222.779 296.653 222.566 296.472C222.352 296.291 222.182 296.072 222.054 295.816C221.926 295.56 221.862 295.245 221.862 294.872C221.862 294.136 222.134 293.555 222.678 293.128C223.222 292.691 223.963 292.472 224.902 292.472C225.136 292.472 225.371 292.488 225.606 292.52C225.84 292.541 226.059 292.573 226.262 292.616C226.464 292.648 226.64 292.685 226.79 292.728C226.95 292.771 227.072 292.808 227.158 292.84L226.886 294.12C226.726 294.035 226.475 293.949 226.134 293.864C225.792 293.768 225.382 293.72 224.902 293.72C224.486 293.72 224.123 293.805 223.814 293.976C223.504 294.136 223.35 294.392 223.35 294.744C223.35 294.925 223.382 295.085 223.446 295.224C223.52 295.363 223.627 295.491 223.766 295.608C223.915 295.715 224.096 295.816 224.31 295.912C224.523 296.008 224.779 296.109 225.078 296.216C225.472 296.365 225.824 296.515 226.134 296.664C226.443 296.803 226.704 296.968 226.918 297.16C227.142 297.352 227.312 297.587 227.43 297.864C227.547 298.131 227.606 298.461 227.606 298.856C227.606 299.624 227.318 300.205 226.742 300.6C226.176 300.995 225.366 301.192 224.31 301.192C223.574 301.192 222.998 301.128 222.582 301C222.166 300.883 221.883 300.792 221.734 300.728L222.006 299.448C222.176 299.512 222.448 299.608 222.822 299.736C223.195 299.864 223.691 299.928 224.31 299.928ZM231.002 301H229.514V292.68H231.002V301ZM230.25 291.176C229.984 291.176 229.754 291.091 229.562 290.92C229.381 290.739 229.29 290.499 229.29 290.2C229.29 289.901 229.381 289.667 229.562 289.496C229.754 289.315 229.984 289.224 230.25 289.224C230.517 289.224 230.741 289.315 230.922 289.496C231.114 289.667 231.21 289.901 231.21 290.2C231.21 290.499 231.114 290.739 230.922 290.92C230.741 291.091 230.517 291.176 230.25 291.176ZM233.561 292.92C233.903 292.835 234.356 292.744 234.921 292.648C235.487 292.552 236.137 292.504 236.873 292.504C237.535 292.504 238.084 292.6 238.521 292.792C238.959 292.973 239.305 293.235 239.561 293.576C239.828 293.907 240.015 294.307 240.121 294.776C240.228 295.245 240.281 295.763 240.281 296.328V301H238.793V296.648C238.793 296.136 238.756 295.699 238.681 295.336C238.617 294.973 238.505 294.68 238.345 294.456C238.185 294.232 237.972 294.072 237.705 293.976C237.439 293.869 237.108 293.816 236.713 293.816C236.553 293.816 236.388 293.821 236.217 293.832C236.047 293.843 235.881 293.859 235.721 293.88C235.572 293.891 235.433 293.907 235.305 293.928C235.188 293.949 235.103 293.965 235.049 293.976V301H233.561V292.92ZM247.965 300.168C247.837 300.253 247.586 300.365 247.213 300.504C246.85 300.632 246.423 300.696 245.933 300.696C245.431 300.696 244.957 300.616 244.509 300.456C244.071 300.296 243.687 300.051 243.357 299.72C243.026 299.379 242.765 298.957 242.573 298.456C242.381 297.955 242.285 297.357 242.285 296.664C242.285 296.056 242.375 295.501 242.557 295C242.738 294.488 242.999 294.051 243.341 293.688C243.693 293.315 244.119 293.027 244.621 292.824C245.122 292.611 245.687 292.504 246.317 292.504C247.01 292.504 247.613 292.557 248.125 292.664C248.647 292.76 249.085 292.851 249.437 292.936V300.36C249.437 301.64 249.106 302.568 248.445 303.144C247.783 303.72 246.781 304.008 245.437 304.008C244.914 304.008 244.418 303.965 243.949 303.88C243.49 303.795 243.09 303.693 242.749 303.576L243.021 302.28C243.319 302.397 243.682 302.499 244.109 302.584C244.546 302.68 244.999 302.728 245.469 302.728C246.354 302.728 246.989 302.552 247.373 302.2C247.767 301.848 247.965 301.288 247.965 300.52V300.168ZM247.949 293.992C247.799 293.949 247.597 293.912 247.341 293.88C247.095 293.837 246.759 293.816 246.333 293.816C245.533 293.816 244.914 294.077 244.477 294.6C244.05 295.123 243.837 295.816 243.837 296.68C243.837 297.16 243.895 297.571 244.013 297.912C244.141 298.253 244.306 298.536 244.509 298.76C244.722 298.984 244.962 299.149 245.229 299.256C245.506 299.363 245.789 299.416 246.077 299.416C246.471 299.416 246.834 299.363 247.165 299.256C247.495 299.139 247.757 299.005 247.949 298.856V293.992ZM121.635 317.928C121.987 317.928 122.296 317.923 122.563 317.912C122.84 317.891 123.07 317.859 123.251 317.816V315.336C123.144 315.283 122.968 315.24 122.723 315.208C122.488 315.165 122.2 315.144 121.859 315.144C121.635 315.144 121.395 315.16 121.139 315.192C120.894 315.224 120.664 315.293 120.451 315.4C120.248 315.496 120.078 315.635 119.939 315.816C119.8 315.987 119.731 316.216 119.731 316.504C119.731 317.037 119.902 317.411 120.243 317.624C120.584 317.827 121.048 317.928 121.635 317.928ZM121.507 310.472C122.104 310.472 122.606 310.552 123.011 310.712C123.427 310.861 123.758 311.08 124.003 311.368C124.259 311.645 124.44 311.981 124.547 312.376C124.654 312.76 124.707 313.187 124.707 313.656V318.856C124.579 318.877 124.398 318.909 124.163 318.952C123.939 318.984 123.683 319.016 123.395 319.048C123.107 319.08 122.792 319.107 122.451 319.128C122.12 319.16 121.79 319.176 121.459 319.176C120.99 319.176 120.558 319.128 120.163 319.032C119.768 318.936 119.427 318.787 119.139 318.584C118.851 318.371 118.627 318.093 118.467 317.752C118.307 317.411 118.227 317 118.227 316.52C118.227 316.061 118.318 315.667 118.499 315.336C118.691 315.005 118.947 314.739 119.267 314.536C119.587 314.333 119.96 314.184 120.387 314.088C120.814 313.992 121.262 313.944 121.731 313.944C121.88 313.944 122.035 313.955 122.195 313.976C122.355 313.987 122.504 314.008 122.643 314.04C122.792 314.061 122.92 314.083 123.027 314.104C123.134 314.125 123.208 314.141 123.251 314.152V313.736C123.251 313.491 123.224 313.251 123.171 313.016C123.118 312.771 123.022 312.557 122.883 312.376C122.744 312.184 122.552 312.035 122.307 311.928C122.072 311.811 121.763 311.752 121.379 311.752C120.888 311.752 120.456 311.789 120.083 311.864C119.72 311.928 119.448 311.997 119.267 312.072L119.091 310.84C119.283 310.755 119.603 310.675 120.051 310.6C120.499 310.515 120.984 310.472 121.507 310.472ZM132.818 317.928C133.426 317.928 133.874 317.848 134.162 317.688C134.46 317.528 134.61 317.272 134.61 316.92C134.61 316.557 134.466 316.269 134.178 316.056C133.89 315.843 133.415 315.603 132.754 315.336C132.434 315.208 132.124 315.08 131.826 314.952C131.538 314.813 131.287 314.653 131.074 314.472C130.86 314.291 130.69 314.072 130.562 313.816C130.434 313.56 130.37 313.245 130.37 312.872C130.37 312.136 130.642 311.555 131.186 311.128C131.73 310.691 132.471 310.472 133.41 310.472C133.644 310.472 133.879 310.488 134.114 310.52C134.348 310.541 134.567 310.573 134.77 310.616C134.972 310.648 135.148 310.685 135.298 310.728C135.458 310.771 135.58 310.808 135.666 310.84L135.394 312.12C135.234 312.035 134.983 311.949 134.642 311.864C134.3 311.768 133.89 311.72 133.41 311.72C132.994 311.72 132.631 311.805 132.322 311.976C132.012 312.136 131.858 312.392 131.858 312.744C131.858 312.925 131.89 313.085 131.954 313.224C132.028 313.363 132.135 313.491 132.274 313.608C132.423 313.715 132.604 313.816 132.818 313.912C133.031 314.008 133.287 314.109 133.586 314.216C133.98 314.365 134.332 314.515 134.642 314.664C134.951 314.803 135.212 314.968 135.426 315.16C135.65 315.352 135.82 315.587 135.938 315.864C136.055 316.131 136.114 316.461 136.114 316.856C136.114 317.624 135.826 318.205 135.25 318.6C134.684 318.995 133.874 319.192 132.818 319.192C132.082 319.192 131.506 319.128 131.09 319C130.674 318.883 130.391 318.792 130.242 318.728L130.514 317.448C130.684 317.512 130.956 317.608 131.33 317.736C131.703 317.864 132.199 317.928 132.818 317.928ZM141.638 319.192C140.966 319.192 140.374 319.085 139.862 318.872C139.361 318.659 138.934 318.36 138.582 317.976C138.241 317.592 137.985 317.139 137.814 316.616C137.644 316.083 137.558 315.496 137.558 314.856C137.558 314.216 137.649 313.629 137.83 313.096C138.022 312.563 138.289 312.104 138.63 311.72C138.972 311.325 139.388 311.021 139.878 310.808C140.38 310.584 140.934 310.472 141.542 310.472C141.916 310.472 142.289 310.504 142.662 310.568C143.036 310.632 143.393 310.733 143.734 310.872L143.398 312.136C143.174 312.029 142.913 311.944 142.614 311.88C142.326 311.816 142.017 311.784 141.686 311.784C140.854 311.784 140.214 312.045 139.766 312.568C139.329 313.091 139.11 313.853 139.11 314.856C139.11 315.304 139.158 315.715 139.254 316.088C139.361 316.461 139.521 316.781 139.734 317.048C139.958 317.315 140.241 317.523 140.582 317.672C140.924 317.811 141.34 317.88 141.83 317.88C142.225 317.88 142.582 317.843 142.902 317.768C143.222 317.693 143.473 317.613 143.654 317.528L143.862 318.776C143.777 318.829 143.654 318.883 143.494 318.936C143.334 318.979 143.153 319.016 142.95 319.048C142.748 319.091 142.529 319.123 142.294 319.144C142.07 319.176 141.852 319.192 141.638 319.192ZM152.601 314.84C152.601 315.501 152.505 316.099 152.313 316.632C152.121 317.165 151.849 317.624 151.497 318.008C151.155 318.392 150.745 318.691 150.265 318.904C149.785 319.107 149.262 319.208 148.697 319.208C148.131 319.208 147.609 319.107 147.129 318.904C146.649 318.691 146.233 318.392 145.881 318.008C145.539 317.624 145.273 317.165 145.081 316.632C144.889 316.099 144.793 315.501 144.793 314.84C144.793 314.189 144.889 313.597 145.081 313.064C145.273 312.52 145.539 312.056 145.881 311.672C146.233 311.288 146.649 310.995 147.129 310.792C147.609 310.579 148.131 310.472 148.697 310.472C149.262 310.472 149.785 310.579 150.265 310.792C150.745 310.995 151.155 311.288 151.497 311.672C151.849 312.056 152.121 312.52 152.313 313.064C152.505 313.597 152.601 314.189 152.601 314.84ZM151.049 314.84C151.049 313.901 150.835 313.16 150.409 312.616C149.993 312.061 149.422 311.784 148.697 311.784C147.971 311.784 147.395 312.061 146.969 312.616C146.553 313.16 146.345 313.901 146.345 314.84C146.345 315.779 146.553 316.525 146.969 317.08C147.395 317.624 147.971 317.896 148.697 317.896C149.422 317.896 149.993 317.624 150.409 317.08C150.835 316.525 151.049 315.779 151.049 314.84ZM157.766 310.504C157.894 310.504 158.038 310.515 158.198 310.536C158.369 310.547 158.534 310.568 158.694 310.6C158.854 310.621 158.998 310.648 159.126 310.68C159.265 310.701 159.366 310.723 159.43 310.744L159.174 312.04C159.057 311.997 158.859 311.949 158.582 311.896C158.315 311.832 157.969 311.8 157.542 311.8C157.265 311.8 156.987 311.832 156.71 311.896C156.443 311.949 156.267 311.987 156.182 312.008V319H154.694V311.032C155.046 310.904 155.483 310.787 156.006 310.68C156.529 310.563 157.115 310.504 157.766 310.504ZM160.402 314.856C160.402 314.12 160.509 313.48 160.722 312.936C160.935 312.381 161.218 311.923 161.57 311.56C161.922 311.197 162.327 310.925 162.786 310.744C163.245 310.563 163.714 310.472 164.194 310.472C165.314 310.472 166.173 310.824 166.77 311.528C167.367 312.221 167.666 313.283 167.666 314.712C167.666 314.776 167.666 314.861 167.666 314.968C167.666 315.064 167.661 315.155 167.65 315.24H161.954C162.018 316.104 162.269 316.76 162.706 317.208C163.143 317.656 163.826 317.88 164.754 317.88C165.277 317.88 165.714 317.837 166.066 317.752C166.429 317.656 166.701 317.565 166.882 317.48L167.09 318.728C166.909 318.824 166.589 318.925 166.13 319.032C165.682 319.139 165.17 319.192 164.594 319.192C163.869 319.192 163.239 319.085 162.706 318.872C162.183 318.648 161.751 318.344 161.41 317.96C161.069 317.576 160.813 317.123 160.642 316.6C160.482 316.067 160.402 315.485 160.402 314.856ZM166.114 314.04C166.125 313.368 165.954 312.819 165.602 312.392C165.261 311.955 164.786 311.736 164.178 311.736C163.837 311.736 163.533 311.805 163.266 311.944C163.01 312.072 162.791 312.243 162.61 312.456C162.429 312.669 162.285 312.915 162.178 313.192C162.082 313.469 162.018 313.752 161.986 314.04H166.114ZM175.443 317.928C176.051 317.928 176.499 317.848 176.787 317.688C177.085 317.528 177.235 317.272 177.235 316.92C177.235 316.557 177.091 316.269 176.803 316.056C176.515 315.843 176.04 315.603 175.379 315.336C175.059 315.208 174.749 315.08 174.451 314.952C174.163 314.813 173.912 314.653 173.699 314.472C173.485 314.291 173.315 314.072 173.187 313.816C173.059 313.56 172.995 313.245 172.995 312.872C172.995 312.136 173.267 311.555 173.811 311.128C174.355 310.691 175.096 310.472 176.035 310.472C176.269 310.472 176.504 310.488 176.739 310.52C176.973 310.541 177.192 310.573 177.395 310.616C177.597 310.648 177.773 310.685 177.923 310.728C178.083 310.771 178.205 310.808 178.291 310.84L178.019 312.12C177.859 312.035 177.608 311.949 177.267 311.864C176.925 311.768 176.515 311.72 176.035 311.72C175.619 311.72 175.256 311.805 174.947 311.976C174.637 312.136 174.483 312.392 174.483 312.744C174.483 312.925 174.515 313.085 174.579 313.224C174.653 313.363 174.76 313.491 174.899 313.608C175.048 313.715 175.229 313.816 175.443 313.912C175.656 314.008 175.912 314.109 176.211 314.216C176.605 314.365 176.957 314.515 177.267 314.664C177.576 314.803 177.837 314.968 178.051 315.16C178.275 315.352 178.445 315.587 178.563 315.864C178.68 316.131 178.739 316.461 178.739 316.856C178.739 317.624 178.451 318.205 177.875 318.6C177.309 318.995 176.499 319.192 175.443 319.192C174.707 319.192 174.131 319.128 173.715 319C173.299 318.883 173.016 318.792 172.867 318.728L173.139 317.448C173.309 317.512 173.581 317.608 173.955 317.736C174.328 317.864 174.824 317.928 175.443 317.928ZM179.671 320.552C179.789 320.605 179.938 320.653 180.119 320.696C180.311 320.749 180.498 320.776 180.679 320.776C181.266 320.776 181.725 320.643 182.055 320.376C182.386 320.12 182.685 319.699 182.951 319.112C182.279 317.832 181.65 316.477 181.063 315.048C180.487 313.608 180.007 312.152 179.623 310.68H181.223C181.341 311.16 181.479 311.677 181.639 312.232C181.81 312.787 181.997 313.357 182.199 313.944C182.402 314.531 182.621 315.117 182.855 315.704C183.09 316.291 183.335 316.856 183.591 317.4C183.997 316.28 184.349 315.171 184.647 314.072C184.946 312.973 185.229 311.843 185.495 310.68H187.031C186.647 312.248 186.221 313.757 185.751 315.208C185.282 316.648 184.775 317.997 184.231 319.256C184.018 319.736 183.794 320.147 183.559 320.488C183.335 320.84 183.085 321.128 182.807 321.352C182.53 321.576 182.215 321.741 181.863 321.848C181.522 321.955 181.133 322.008 180.695 322.008C180.578 322.008 180.455 321.997 180.327 321.976C180.199 321.965 180.071 321.944 179.943 321.912C179.826 321.891 179.714 321.864 179.607 321.832C179.511 321.8 179.442 321.773 179.399 321.752L179.671 320.552ZM190.536 317.928C191.144 317.928 191.592 317.848 191.88 317.688C192.179 317.528 192.328 317.272 192.328 316.92C192.328 316.557 192.184 316.269 191.896 316.056C191.608 315.843 191.134 315.603 190.472 315.336C190.152 315.208 189.843 315.08 189.544 314.952C189.256 314.813 189.006 314.653 188.792 314.472C188.579 314.291 188.408 314.072 188.28 313.816C188.152 313.56 188.088 313.245 188.088 312.872C188.088 312.136 188.36 311.555 188.904 311.128C189.448 310.691 190.19 310.472 191.128 310.472C191.363 310.472 191.598 310.488 191.832 310.52C192.067 310.541 192.286 310.573 192.488 310.616C192.691 310.648 192.867 310.685 193.016 310.728C193.176 310.771 193.299 310.808 193.384 310.84L193.112 312.12C192.952 312.035 192.702 311.949 192.36 311.864C192.019 311.768 191.608 311.72 191.128 311.72C190.712 311.72 190.35 311.805 190.04 311.976C189.731 312.136 189.576 312.392 189.576 312.744C189.576 312.925 189.608 313.085 189.672 313.224C189.747 313.363 189.854 313.491 189.992 313.608C190.142 313.715 190.323 313.816 190.536 313.912C190.75 314.008 191.006 314.109 191.304 314.216C191.699 314.365 192.051 314.515 192.36 314.664C192.67 314.803 192.931 314.968 193.144 315.16C193.368 315.352 193.539 315.587 193.656 315.864C193.774 316.131 193.832 316.461 193.832 316.856C193.832 317.624 193.544 318.205 192.968 318.6C192.403 318.995 191.592 319.192 190.536 319.192C189.8 319.192 189.224 319.128 188.808 319C188.392 318.883 188.11 318.792 187.96 318.728L188.232 317.448C188.403 317.512 188.675 317.608 189.048 317.736C189.422 317.864 189.918 317.928 190.536 317.928ZM197.133 310.68H200.285V311.928H197.133V315.768C197.133 316.184 197.165 316.531 197.229 316.808C197.293 317.075 197.389 317.288 197.517 317.448C197.645 317.597 197.805 317.704 197.997 317.768C198.189 317.832 198.413 317.864 198.669 317.864C199.117 317.864 199.474 317.816 199.741 317.72C200.018 317.613 200.21 317.539 200.317 317.496L200.605 318.728C200.456 318.803 200.194 318.893 199.821 319C199.448 319.117 199.021 319.176 198.541 319.176C197.976 319.176 197.506 319.107 197.133 318.968C196.77 318.819 196.477 318.6 196.253 318.312C196.029 318.024 195.869 317.672 195.773 317.256C195.688 316.829 195.645 316.339 195.645 315.784V308.36L197.133 308.104V310.68ZM201.558 314.856C201.558 314.12 201.665 313.48 201.878 312.936C202.092 312.381 202.374 311.923 202.726 311.56C203.078 311.197 203.484 310.925 203.942 310.744C204.401 310.563 204.87 310.472 205.35 310.472C206.47 310.472 207.329 310.824 207.926 311.528C208.524 312.221 208.822 313.283 208.822 314.712C208.822 314.776 208.822 314.861 208.822 314.968C208.822 315.064 208.817 315.155 208.806 315.24H203.11C203.174 316.104 203.425 316.76 203.862 317.208C204.3 317.656 204.982 317.88 205.91 317.88C206.433 317.88 206.87 317.837 207.222 317.752C207.585 317.656 207.857 317.565 208.038 317.48L208.246 318.728C208.065 318.824 207.745 318.925 207.286 319.032C206.838 319.139 206.326 319.192 205.75 319.192C205.025 319.192 204.396 319.085 203.862 318.872C203.34 318.648 202.908 318.344 202.566 317.96C202.225 317.576 201.969 317.123 201.798 316.6C201.638 316.067 201.558 315.485 201.558 314.856ZM207.27 314.04C207.281 313.368 207.11 312.819 206.758 312.392C206.417 311.955 205.942 311.736 205.334 311.736C204.993 311.736 204.689 311.805 204.422 311.944C204.166 312.072 203.948 312.243 203.766 312.456C203.585 312.669 203.441 312.915 203.334 313.192C203.238 313.469 203.174 313.752 203.142 314.04H207.27ZM210.96 310.92C211.301 310.835 211.749 310.744 212.304 310.648C212.869 310.552 213.52 310.504 214.256 310.504C214.789 310.504 215.237 310.579 215.6 310.728C215.962 310.867 216.266 311.075 216.512 311.352C216.586 311.299 216.704 311.224 216.864 311.128C217.024 311.032 217.221 310.941 217.456 310.856C217.69 310.76 217.952 310.68 218.24 310.616C218.528 310.541 218.837 310.504 219.168 310.504C219.808 310.504 220.33 310.6 220.736 310.792C221.141 310.973 221.456 311.235 221.68 311.576C221.914 311.917 222.069 312.323 222.144 312.792C222.229 313.261 222.272 313.773 222.272 314.328V319H220.784V314.648C220.784 314.157 220.757 313.736 220.704 313.384C220.661 313.032 220.57 312.739 220.432 312.504C220.304 312.269 220.122 312.099 219.888 311.992C219.664 311.875 219.37 311.816 219.008 311.816C218.506 311.816 218.09 311.885 217.76 312.024C217.44 312.152 217.221 312.269 217.104 312.376C217.189 312.653 217.253 312.957 217.296 313.288C217.338 313.619 217.36 313.965 217.36 314.328V319H215.872V314.648C215.872 314.157 215.845 313.736 215.792 313.384C215.738 313.032 215.642 312.739 215.504 312.504C215.376 312.269 215.194 312.099 214.96 311.992C214.736 311.875 214.448 311.816 214.096 311.816C213.946 311.816 213.786 311.821 213.616 311.832C213.445 311.843 213.28 311.859 213.12 311.88C212.97 311.891 212.832 311.907 212.704 311.928C212.576 311.949 212.49 311.965 212.448 311.976V319H210.96V310.92Z" fill="white"/>
<g filter="url(#filter1_d)">
<path d="M110 120.934C110 121.661 110.344 122.348 110.929 122.778C117.677 127.741 128.779 125.713 135.296 122.629C144.572 118.239 154.135 117.837 163.598 122.156V87.2387C154.135 82.9202 144.572 83.3225 135.296 87.7122C129.473 90.468 119.991 92.3801 113.223 89.2169C111.721 88.5143 110 89.6468 110 91.3058V120.934Z" fill="#EE6161"/>
<path d="M163.598 87.2396V122.155C161.554 121.223 159.507 120.509 157.457 120.012V85.0967C159.507 85.5941 161.554 86.3074 163.598 87.2396Z" fill="#E94444"/>
<path d="M211.286 129.652C209.433 129.286 208.078 127.693 208.078 125.805V125.775H196.888V126.688C196.888 128.62 195.477 130.262 193.568 130.554L160.621 135.584C157.098 135.584 154.257 138.502 154.384 142.053C154.504 145.435 157.387 148.067 160.771 148.067H164.099H184.632C185.786 148.067 186.721 149.004 186.718 150.158L186.708 154.238V220.158C186.708 224.397 190.144 227.833 194.384 227.833C198.622 227.833 202.059 224.397 202.059 220.158H202.069C202.069 224.397 205.506 227.833 209.745 227.833C213.984 227.833 217.42 224.397 217.42 220.158L217.517 179.469C217.517 182.916 220.311 185.71 223.758 185.71C227.206 185.71 230 182.916 230 179.469V152.44C230 141.156 221.954 131.753 211.286 129.652Z" fill="#57BE92"/>
<path d="M230 152.44V179.469C230 182.916 227.206 185.709 223.759 185.709C222.674 185.709 221.652 185.434 220.762 184.945C222.696 183.884 224.005 181.831 224.005 179.469V152.44C224.005 146.157 221.161 140.72 216.398 136.923C214.422 135.347 212.091 134.422 209.729 133.551C207.544 132.744 204.482 131.583 203.102 129.46C202.4 128.374 202.083 127.089 202.083 125.806V125.776H208.077V125.806C208.077 127.694 209.432 129.286 211.284 129.651C221.955 131.752 230 141.155 230 152.44Z" fill="#09A76D"/>
<path d="M204.307 184.142V225.577C202.925 224.186 202.068 222.273 202.068 220.158H202.059C202.059 222.277 201.199 224.195 199.811 225.586V184.142C199.811 182.901 200.818 181.894 202.059 181.894C203.3 181.894 204.307 182.901 204.307 184.142Z" fill="#09A76D"/>
<path d="M202.483 127.645C212.247 127.645 220.162 119.73 220.162 109.967C220.162 100.203 212.247 92.2881 202.483 92.2881C192.719 92.2881 184.804 100.203 184.804 109.967C184.804 119.73 192.719 127.645 202.483 127.645Z" fill="#FED2A4"/>
<path d="M220.162 109.968C220.162 119.73 212.247 127.646 202.482 127.646C197.875 127.646 193.679 125.883 190.534 122.994C192.56 123.803 194.772 124.247 197.086 124.247C206.851 124.247 214.767 116.334 214.767 106.569C214.767 101.413 212.558 96.7709 209.033 93.5396C215.556 96.1444 220.162 102.517 220.162 109.968Z" fill="#FFBD86"/>
<path d="M202.478 122.16C200.584 122.16 198.839 121.295 197.692 119.786C196.94 118.798 197.132 117.387 198.12 116.636C199.108 115.884 200.519 116.076 201.27 117.064C201.56 117.445 202.001 117.664 202.478 117.664C202.958 117.664 203.4 117.444 203.69 117.059C204.438 116.069 205.847 115.871 206.839 116.619C207.83 117.367 208.027 118.776 207.279 119.767C206.149 121.266 204.354 122.16 202.478 122.16Z" fill="#F6A96C"/>
<path d="M167.532 227.57C170.268 227.57 172.485 225.353 172.485 222.617V83.9531C172.485 81.2177 170.267 79 167.532 79C164.796 79 162.579 81.2177 162.579 83.9531V222.617C162.579 225.353 164.796 227.57 167.532 227.57Z" fill="#DC8758"/>
<path d="M172.485 83.9545V222.618C172.485 225.352 170.267 227.57 167.533 227.57C166.52 227.57 165.579 227.267 164.797 226.745C166.133 225.855 167.012 224.339 167.012 222.618V83.9545C167.012 82.231 166.133 80.7145 164.797 79.8241C165.579 79.3026 166.52 79 167.533 79C170.267 79 172.485 81.218 172.485 83.9545Z" fill="#CE7345"/>
</g>
<defs>
<filter id="filter0_d" x="0" y="0" width="340" height="408" filterUnits="userSpaceOnUse" color-interpolation-filters="sRGB">
<feFlood flood-opacity="0" result="BackgroundImageFix"/>
<feColorMatrix in="SourceAlpha" type="matrix" values="0 0 0 0 0 0 0 0 0 0 0 0 0 0 0 0 0 0 127 0"/>
<feOffset dy="24"/>
<feGaussianBlur stdDeviation="25"/>
<feColorMatrix type="matrix" values="0 0 0 0 0.258824 0 0 0 0 0.258824 0 0 0 0 0.258824 0 0 0 0.2 0"/>
<feBlend mode="normal" in2="BackgroundImageFix" result="effect1_dropShadow"/>
<feBlend mode="normal" in="SourceGraphic" in2="effect1_dropShadow" result="shape"/>
</filter>
<filter id="filter1_d" x="100" y="73" width="140" height="168.833" filterUnits="userSpaceOnUse" color-interpolation-filters="sRGB">
<feFlood flood-opacity="0" result="BackgroundImageFix"/>
<feColorMatrix in="SourceAlpha" type="matrix" values="0 0 0 0 0 0 0 0 0 0 0 0 0 0 0 0 0 0 127 0"/>
<feOffset dy="4"/>
<feGaussianBlur stdDeviation="5"/>
<feColorMatrix type="matrix" values="0 0 0 0 0.8875 0 0 0 0 0.707664 0 0 0 0 0.576875 0 0 0 0.5 0"/>
<feBlend mode="normal" in2="BackgroundImageFix" result="effect1_dropShadow"/>
<feBlend mode="normal" in="SourceGraphic" in2="effect1_dropShadow" result="shape"/>
</filter>
<linearGradient id="paint0_linear" x1="290" y1="26" x2="50" y2="334" gradientUnits="userSpaceOnUse">
<stop stop-color="white"/>
<stop offset="1" stop-color="#FFE1CC"/>
</linearGradient>
</defs>
</svg>
