<svg width="348" height="440" viewBox="0 0 348 440" fill="none" xmlns="http://www.w3.org/2000/svg">
<g filter="url(#filter0_d)">
<path d="M50 38C50 31.3726 55.3726 26 62 26H286C292.627 26 298 31.3726 298 38V354C298 360.627 292.627 366 286 366H62C55.3726 366 50 360.627 50 354V38Z" fill="url(#paint0_linear)"/>
</g>
<path d="M50 286H298V354C298 360.627 292.627 366 286 366H62C55.3726 366 50 360.627 50 354V286Z" fill="#F40058"/>
<path d="M60.204 310V300.298H66.126V301.46H61.562V304.344H65.622V305.478H61.562V308.838H66.476V310H60.204ZM70.582 309.062C70.89 309.062 71.1607 309.057 71.394 309.048C71.6367 309.029 71.8374 309.001 71.996 308.964V306.794C71.9027 306.747 71.7487 306.71 71.534 306.682C71.3287 306.645 71.0767 306.626 70.778 306.626C70.582 306.626 70.372 306.64 70.148 306.668C69.9334 306.696 69.7327 306.757 69.546 306.85C69.3687 306.934 69.2194 307.055 69.098 307.214C68.9767 307.363 68.916 307.564 68.916 307.816C68.916 308.283 69.0654 308.609 69.364 308.796C69.6627 308.973 70.0687 309.062 70.582 309.062ZM70.47 302.538C70.9927 302.538 71.4314 302.608 71.786 302.748C72.15 302.879 72.4394 303.07 72.654 303.322C72.878 303.565 73.0367 303.859 73.13 304.204C73.2234 304.54 73.27 304.913 73.27 305.324V309.874C73.158 309.893 72.9994 309.921 72.794 309.958C72.598 309.986 72.374 310.014 72.122 310.042C71.87 310.07 71.5947 310.093 71.296 310.112C71.0067 310.14 70.7174 310.154 70.428 310.154C70.0174 310.154 69.6394 310.112 69.294 310.028C68.9487 309.944 68.65 309.813 68.398 309.636C68.146 309.449 67.95 309.207 67.81 308.908C67.67 308.609 67.6 308.25 67.6 307.83C67.6 307.429 67.6794 307.083 67.838 306.794C68.006 306.505 68.23 306.271 68.51 306.094C68.79 305.917 69.1167 305.786 69.49 305.702C69.8634 305.618 70.2554 305.576 70.666 305.576C70.7967 305.576 70.932 305.585 71.072 305.604C71.212 305.613 71.3427 305.632 71.464 305.66C71.5947 305.679 71.7067 305.697 71.8 305.716C71.8934 305.735 71.9587 305.749 71.996 305.758V305.394C71.996 305.179 71.9727 304.969 71.926 304.764C71.8794 304.549 71.7954 304.363 71.674 304.204C71.5527 304.036 71.3847 303.905 71.17 303.812C70.9647 303.709 70.694 303.658 70.358 303.658C69.9287 303.658 69.5507 303.691 69.224 303.756C68.9067 303.812 68.6687 303.873 68.51 303.938L68.356 302.86C68.524 302.785 68.804 302.715 69.196 302.65C69.588 302.575 70.0127 302.538 70.47 302.538ZM77.1265 309.062C77.6585 309.062 78.0505 308.992 78.3025 308.852C78.5638 308.712 78.6945 308.488 78.6945 308.18C78.6945 307.863 78.5685 307.611 78.3165 307.424C78.0645 307.237 77.6492 307.027 77.0705 306.794C76.7905 306.682 76.5198 306.57 76.2585 306.458C76.0065 306.337 75.7872 306.197 75.6005 306.038C75.4138 305.879 75.2645 305.688 75.1525 305.464C75.0405 305.24 74.9845 304.965 74.9845 304.638C74.9845 303.994 75.2225 303.485 75.6985 303.112C76.1745 302.729 76.8232 302.538 77.6445 302.538C77.8498 302.538 78.0552 302.552 78.2605 302.58C78.4658 302.599 78.6572 302.627 78.8345 302.664C79.0118 302.692 79.1658 302.725 79.2965 302.762C79.4365 302.799 79.5438 302.832 79.6185 302.86L79.3805 303.98C79.2405 303.905 79.0212 303.831 78.7225 303.756C78.4238 303.672 78.0645 303.63 77.6445 303.63C77.2805 303.63 76.9632 303.705 76.6925 303.854C76.4218 303.994 76.2865 304.218 76.2865 304.526C76.2865 304.685 76.3145 304.825 76.3705 304.946C76.4358 305.067 76.5292 305.179 76.6505 305.282C76.7812 305.375 76.9398 305.464 77.1265 305.548C77.3132 305.632 77.5372 305.721 77.7985 305.814C78.1438 305.945 78.4518 306.075 78.7225 306.206C78.9932 306.327 79.2218 306.472 79.4085 306.64C79.6045 306.808 79.7538 307.013 79.8565 307.256C79.9592 307.489 80.0105 307.779 80.0105 308.124C80.0105 308.796 79.7585 309.305 79.2545 309.65C78.7598 309.995 78.0505 310.168 77.1265 310.168C76.4825 310.168 75.9785 310.112 75.6145 310C75.2505 309.897 75.0032 309.818 74.8725 309.762L75.1105 308.642C75.2598 308.698 75.4978 308.782 75.8245 308.894C76.1512 309.006 76.5852 309.062 77.1265 309.062ZM82.9825 310H81.6805V302.72H82.9825V310ZM82.3245 301.404C82.0912 301.404 81.8905 301.329 81.7225 301.18C81.5639 301.021 81.4845 300.811 81.4845 300.55C81.4845 300.289 81.5639 300.083 81.7225 299.934C81.8905 299.775 82.0912 299.696 82.3245 299.696C82.5579 299.696 82.7539 299.775 82.9125 299.934C83.0805 300.083 83.1645 300.289 83.1645 300.55C83.1645 300.811 83.0805 301.021 82.9125 301.18C82.7539 301.329 82.5579 301.404 82.3245 301.404ZM84.8156 306.374C84.8156 305.73 84.9089 305.17 85.0956 304.694C85.2822 304.209 85.5296 303.807 85.8376 303.49C86.1456 303.173 86.5002 302.935 86.9016 302.776C87.3029 302.617 87.7136 302.538 88.1336 302.538C89.1136 302.538 89.8649 302.846 90.3876 303.462C90.9102 304.069 91.1716 304.997 91.1716 306.248C91.1716 306.304 91.1716 306.379 91.1716 306.472C91.1716 306.556 91.1669 306.635 91.1576 306.71H86.1736C86.2296 307.466 86.4489 308.04 86.8316 308.432C87.2142 308.824 87.8116 309.02 88.6236 309.02C89.0809 309.02 89.4636 308.983 89.7716 308.908C90.0889 308.824 90.3269 308.745 90.4856 308.67L90.6676 309.762C90.5089 309.846 90.2289 309.935 89.8276 310.028C89.4356 310.121 88.9876 310.168 88.4836 310.168C87.8489 310.168 87.2982 310.075 86.8316 309.888C86.3742 309.692 85.9962 309.426 85.6976 309.09C85.3989 308.754 85.1749 308.357 85.0256 307.9C84.8856 307.433 84.8156 306.925 84.8156 306.374ZM89.8136 305.66C89.8229 305.072 89.6736 304.591 89.3656 304.218C89.0669 303.835 88.6516 303.644 88.1196 303.644C87.8209 303.644 87.5549 303.705 87.3216 303.826C87.0976 303.938 86.9062 304.087 86.7476 304.274C86.5889 304.461 86.4629 304.675 86.3696 304.918C86.2856 305.161 86.2296 305.408 86.2016 305.66H89.8136ZM95.7299 302.566C95.8419 302.566 95.9679 302.575 96.1079 302.594C96.2572 302.603 96.4019 302.622 96.5419 302.65C96.6819 302.669 96.8079 302.692 96.9199 302.72C97.0412 302.739 97.1299 302.757 97.1859 302.776L96.9619 303.91C96.8592 303.873 96.6865 303.831 96.4439 303.784C96.2105 303.728 95.9072 303.7 95.5339 303.7C95.2912 303.7 95.0485 303.728 94.8059 303.784C94.5725 303.831 94.4185 303.863 94.3439 303.882V310H93.0419V303.028C93.3499 302.916 93.7325 302.813 94.1899 302.72C94.6472 302.617 95.1605 302.566 95.7299 302.566ZM106.387 304.26C106.228 304.129 105.999 304.003 105.701 303.882C105.402 303.761 105.075 303.7 104.721 303.7C104.347 303.7 104.025 303.77 103.755 303.91C103.493 304.041 103.279 304.227 103.111 304.47C102.943 304.703 102.821 304.983 102.747 305.31C102.672 305.637 102.635 305.987 102.635 306.36C102.635 307.209 102.845 307.867 103.265 308.334C103.685 308.791 104.245 309.02 104.945 309.02C105.299 309.02 105.593 309.006 105.827 308.978C106.069 308.941 106.256 308.903 106.387 308.866V304.26ZM106.387 299.36L107.689 299.136V309.79C107.39 309.874 107.007 309.958 106.541 310.042C106.074 310.126 105.537 310.168 104.931 310.168C104.371 310.168 103.867 310.079 103.419 309.902C102.971 309.725 102.588 309.473 102.271 309.146C101.953 308.819 101.706 308.423 101.529 307.956C101.361 307.48 101.277 306.948 101.277 306.36C101.277 305.8 101.347 305.287 101.486 304.82C101.636 304.353 101.851 303.952 102.131 303.616C102.411 303.28 102.751 303.019 103.153 302.832C103.563 302.645 104.03 302.552 104.553 302.552C104.973 302.552 105.341 302.608 105.659 302.72C105.985 302.832 106.228 302.939 106.387 303.042V299.36ZM112.391 309.062C112.699 309.062 112.969 309.057 113.203 309.048C113.445 309.029 113.646 309.001 113.805 308.964V306.794C113.711 306.747 113.557 306.71 113.343 306.682C113.137 306.645 112.885 306.626 112.587 306.626C112.391 306.626 112.181 306.64 111.957 306.668C111.742 306.696 111.541 306.757 111.355 306.85C111.177 306.934 111.028 307.055 110.907 307.214C110.785 307.363 110.725 307.564 110.725 307.816C110.725 308.283 110.874 308.609 111.173 308.796C111.471 308.973 111.877 309.062 112.391 309.062ZM112.279 302.538C112.801 302.538 113.24 302.608 113.595 302.748C113.959 302.879 114.248 303.07 114.463 303.322C114.687 303.565 114.845 303.859 114.939 304.204C115.032 304.54 115.079 304.913 115.079 305.324V309.874C114.967 309.893 114.808 309.921 114.603 309.958C114.407 309.986 114.183 310.014 113.931 310.042C113.679 310.07 113.403 310.093 113.105 310.112C112.815 310.14 112.526 310.154 112.237 310.154C111.826 310.154 111.448 310.112 111.103 310.028C110.757 309.944 110.459 309.813 110.207 309.636C109.955 309.449 109.759 309.207 109.619 308.908C109.479 308.609 109.409 308.25 109.409 307.83C109.409 307.429 109.488 307.083 109.647 306.794C109.815 306.505 110.039 306.271 110.319 306.094C110.599 305.917 110.925 305.786 111.299 305.702C111.672 305.618 112.064 305.576 112.475 305.576C112.605 305.576 112.741 305.585 112.881 305.604C113.021 305.613 113.151 305.632 113.273 305.66C113.403 305.679 113.515 305.697 113.609 305.716C113.702 305.735 113.767 305.749 113.805 305.758V305.394C113.805 305.179 113.781 304.969 113.735 304.764C113.688 304.549 113.604 304.363 113.483 304.204C113.361 304.036 113.193 303.905 112.979 303.812C112.773 303.709 112.503 303.658 112.167 303.658C111.737 303.658 111.359 303.691 111.033 303.756C110.715 303.812 110.477 303.873 110.319 303.938L110.165 302.86C110.333 302.785 110.613 302.715 111.005 302.65C111.397 302.575 111.821 302.538 112.279 302.538ZM118.459 302.72H121.217V303.812H118.459V307.172C118.459 307.536 118.487 307.839 118.543 308.082C118.599 308.315 118.683 308.502 118.795 308.642C118.907 308.773 119.047 308.866 119.215 308.922C119.383 308.978 119.579 309.006 119.803 309.006C120.195 309.006 120.508 308.964 120.741 308.88C120.984 308.787 121.152 308.721 121.245 308.684L121.497 309.762C121.366 309.827 121.138 309.907 120.811 310C120.484 310.103 120.111 310.154 119.691 310.154C119.196 310.154 118.786 310.093 118.459 309.972C118.142 309.841 117.885 309.65 117.689 309.398C117.493 309.146 117.353 308.838 117.269 308.474C117.194 308.101 117.157 307.671 117.157 307.186V300.69L118.459 300.466V302.72ZM125.338 309.062C125.646 309.062 125.917 309.057 126.15 309.048C126.393 309.029 126.593 309.001 126.752 308.964V306.794C126.659 306.747 126.505 306.71 126.29 306.682C126.085 306.645 125.833 306.626 125.534 306.626C125.338 306.626 125.128 306.64 124.904 306.668C124.689 306.696 124.489 306.757 124.302 306.85C124.125 306.934 123.975 307.055 123.854 307.214C123.733 307.363 123.672 307.564 123.672 307.816C123.672 308.283 123.821 308.609 124.12 308.796C124.419 308.973 124.825 309.062 125.338 309.062ZM125.226 302.538C125.749 302.538 126.187 302.608 126.542 302.748C126.906 302.879 127.195 303.07 127.41 303.322C127.634 303.565 127.793 303.859 127.886 304.204C127.979 304.54 128.026 304.913 128.026 305.324V309.874C127.914 309.893 127.755 309.921 127.55 309.958C127.354 309.986 127.13 310.014 126.878 310.042C126.626 310.07 126.351 310.093 126.052 310.112C125.763 310.14 125.473 310.154 125.184 310.154C124.773 310.154 124.395 310.112 124.05 310.028C123.705 309.944 123.406 309.813 123.154 309.636C122.902 309.449 122.706 309.207 122.566 308.908C122.426 308.609 122.356 308.25 122.356 307.83C122.356 307.429 122.435 307.083 122.594 306.794C122.762 306.505 122.986 306.271 123.266 306.094C123.546 305.917 123.873 305.786 124.246 305.702C124.619 305.618 125.011 305.576 125.422 305.576C125.553 305.576 125.688 305.585 125.828 305.604C125.968 305.613 126.099 305.632 126.22 305.66C126.351 305.679 126.463 305.697 126.556 305.716C126.649 305.735 126.715 305.749 126.752 305.758V305.394C126.752 305.179 126.729 304.969 126.682 304.764C126.635 304.549 126.551 304.363 126.43 304.204C126.309 304.036 126.141 303.905 125.926 303.812C125.721 303.709 125.45 303.658 125.114 303.658C124.685 303.658 124.307 303.691 123.98 303.756C123.663 303.812 123.425 303.873 123.266 303.938L123.112 302.86C123.28 302.785 123.56 302.715 123.952 302.65C124.344 302.575 124.769 302.538 125.226 302.538ZM134.731 310H133.429V302.72H134.731V310ZM134.073 301.404C133.839 301.404 133.639 301.329 133.471 301.18C133.312 301.021 133.233 300.811 133.233 300.55C133.233 300.289 133.312 300.083 133.471 299.934C133.639 299.775 133.839 299.696 134.073 299.696C134.306 299.696 134.502 299.775 134.661 299.934C134.829 300.083 134.913 300.289 134.913 300.55C134.913 300.811 134.829 301.021 134.661 301.18C134.502 301.329 134.306 301.404 134.073 301.404ZM136.97 302.93C137.268 302.855 137.665 302.776 138.16 302.692C138.654 302.608 139.224 302.566 139.868 302.566C140.446 302.566 140.927 302.65 141.31 302.818C141.692 302.977 141.996 303.205 142.22 303.504C142.453 303.793 142.616 304.143 142.71 304.554C142.803 304.965 142.85 305.417 142.85 305.912V310H141.548V306.192C141.548 305.744 141.515 305.361 141.45 305.044C141.394 304.727 141.296 304.47 141.156 304.274C141.016 304.078 140.829 303.938 140.596 303.854C140.362 303.761 140.073 303.714 139.728 303.714C139.588 303.714 139.443 303.719 139.294 303.728C139.144 303.737 139 303.751 138.86 303.77C138.729 303.779 138.608 303.793 138.496 303.812C138.393 303.831 138.318 303.845 138.272 303.854V310H136.97V302.93ZM150.063 306.374C150.063 305.525 149.853 304.871 149.433 304.414C149.013 303.957 148.453 303.728 147.753 303.728C147.361 303.728 147.053 303.742 146.829 303.77C146.614 303.798 146.441 303.831 146.311 303.868V308.46C146.469 308.591 146.698 308.717 146.997 308.838C147.295 308.959 147.622 309.02 147.977 309.02C148.35 309.02 148.667 308.955 148.929 308.824C149.199 308.684 149.419 308.497 149.587 308.264C149.755 308.021 149.876 307.741 149.951 307.424C150.025 307.097 150.063 306.747 150.063 306.374ZM151.421 306.374C151.421 306.925 151.346 307.433 151.197 307.9C151.057 308.367 150.847 308.768 150.567 309.104C150.287 309.44 149.941 309.701 149.531 309.888C149.129 310.075 148.667 310.168 148.145 310.168C147.725 310.168 147.351 310.112 147.025 310C146.707 309.888 146.469 309.781 146.311 309.678V312.59H145.009V302.944C145.317 302.869 145.699 302.79 146.157 302.706C146.623 302.613 147.16 302.566 147.767 302.566C148.327 302.566 148.831 302.655 149.279 302.832C149.727 303.009 150.109 303.261 150.427 303.588C150.744 303.915 150.987 304.316 151.155 304.792C151.332 305.259 151.421 305.786 151.421 306.374ZM159.049 309.79C158.75 309.865 158.353 309.944 157.859 310.028C157.373 310.112 156.809 310.154 156.165 310.154C155.605 310.154 155.133 310.075 154.751 309.916C154.368 309.748 154.06 309.515 153.827 309.216C153.593 308.917 153.425 308.567 153.323 308.166C153.22 307.755 153.169 307.303 153.169 306.808V302.72H154.471V306.528C154.471 307.415 154.611 308.049 154.891 308.432C155.171 308.815 155.642 309.006 156.305 309.006C156.445 309.006 156.589 309.001 156.739 308.992C156.888 308.983 157.028 308.973 157.159 308.964C157.289 308.945 157.406 308.931 157.509 308.922C157.621 308.903 157.7 308.885 157.747 308.866V302.72H159.049V309.79ZM162.51 302.72H165.268V303.812H162.51V307.172C162.51 307.536 162.538 307.839 162.594 308.082C162.65 308.315 162.734 308.502 162.846 308.642C162.958 308.773 163.098 308.866 163.266 308.922C163.434 308.978 163.63 309.006 163.854 309.006C164.246 309.006 164.559 308.964 164.792 308.88C165.035 308.787 165.203 308.721 165.296 308.684L165.548 309.762C165.417 309.827 165.189 309.907 164.862 310C164.535 310.103 164.162 310.154 163.742 310.154C163.247 310.154 162.837 310.093 162.51 309.972C162.193 309.841 161.936 309.65 161.74 309.398C161.544 309.146 161.404 308.838 161.32 308.474C161.245 308.101 161.208 307.671 161.208 307.186V300.69L162.51 300.466V302.72ZM176.115 310C175.854 309.328 175.574 308.563 175.275 307.704C174.986 306.836 174.72 305.935 174.477 305.002C174.234 305.935 173.968 306.836 173.679 307.704C173.39 308.563 173.114 309.328 172.853 310H171.719C171.29 309.039 170.87 307.942 170.459 306.71C170.048 305.478 169.661 304.148 169.297 302.72H170.697C170.79 303.159 170.902 303.635 171.033 304.148C171.164 304.661 171.299 305.175 171.439 305.688C171.588 306.201 171.742 306.696 171.901 307.172C172.06 307.648 172.209 308.063 172.349 308.418C172.508 307.979 172.662 307.517 172.811 307.032C172.97 306.537 173.119 306.043 173.259 305.548C173.399 305.044 173.53 304.554 173.651 304.078C173.782 303.593 173.894 303.14 173.987 302.72H175.065C175.149 303.14 175.252 303.593 175.373 304.078C175.494 304.554 175.625 305.044 175.765 305.548C175.905 306.043 176.05 306.537 176.199 307.032C176.358 307.517 176.516 307.979 176.675 308.418C176.815 308.063 176.96 307.648 177.109 307.172C177.268 306.696 177.422 306.201 177.571 305.688C177.72 305.175 177.86 304.661 177.991 304.148C178.122 303.635 178.234 303.159 178.327 302.72H179.671C179.307 304.148 178.92 305.478 178.509 306.71C178.098 307.942 177.678 309.039 177.249 310H176.115ZM182.35 310H181.048V302.72H182.35V310ZM181.692 301.404C181.458 301.404 181.258 301.329 181.09 301.18C180.931 301.021 180.852 300.811 180.852 300.55C180.852 300.289 180.931 300.083 181.09 299.934C181.258 299.775 181.458 299.696 181.692 299.696C181.925 299.696 182.121 299.775 182.28 299.934C182.448 300.083 182.532 300.289 182.532 300.55C182.532 300.811 182.448 301.021 182.28 301.18C182.121 301.329 181.925 301.404 181.692 301.404ZM185.807 302.72H188.565V303.812H185.807V307.172C185.807 307.536 185.835 307.839 185.891 308.082C185.947 308.315 186.031 308.502 186.143 308.642C186.255 308.773 186.395 308.866 186.563 308.922C186.731 308.978 186.927 309.006 187.151 309.006C187.543 309.006 187.855 308.964 188.089 308.88C188.331 308.787 188.499 308.721 188.593 308.684L188.845 309.762C188.714 309.827 188.485 309.907 188.159 310C187.832 310.103 187.459 310.154 187.039 310.154C186.544 310.154 186.133 310.093 185.807 309.972C185.489 309.841 185.233 309.65 185.037 309.398C184.841 309.146 184.701 308.838 184.617 308.474C184.542 308.101 184.505 307.671 184.505 307.186V300.69L185.807 300.466V302.72ZM190.222 310V299.36L191.524 299.136V302.86C191.766 302.767 192.023 302.697 192.294 302.65C192.574 302.594 192.849 302.566 193.12 302.566C193.698 302.566 194.179 302.65 194.562 302.818C194.944 302.977 195.248 303.205 195.472 303.504C195.705 303.793 195.868 304.143 195.962 304.554C196.055 304.965 196.102 305.417 196.102 305.912V310H194.8V306.192C194.8 305.744 194.767 305.361 194.702 305.044C194.646 304.727 194.548 304.47 194.408 304.274C194.268 304.078 194.081 303.938 193.848 303.854C193.614 303.761 193.325 303.714 192.98 303.714C192.84 303.714 192.695 303.723 192.546 303.742C192.396 303.761 192.252 303.784 192.112 303.812C191.981 303.831 191.86 303.854 191.748 303.882C191.645 303.91 191.57 303.933 191.524 303.952V310H190.222ZM201.544 300.298H202.902V310H201.544V300.298ZM205.22 302.93C205.518 302.855 205.91 302.776 206.396 302.692C206.89 302.608 207.46 302.566 208.104 302.566C208.57 302.566 208.962 302.631 209.28 302.762C209.597 302.883 209.863 303.065 210.078 303.308C210.143 303.261 210.246 303.196 210.386 303.112C210.526 303.028 210.698 302.949 210.904 302.874C211.109 302.79 211.338 302.72 211.59 302.664C211.842 302.599 212.112 302.566 212.402 302.566C212.962 302.566 213.419 302.65 213.774 302.818C214.128 302.977 214.404 303.205 214.6 303.504C214.805 303.803 214.94 304.157 215.006 304.568C215.08 304.979 215.118 305.427 215.118 305.912V310H213.816V306.192C213.816 305.763 213.792 305.394 213.746 305.086C213.708 304.778 213.629 304.521 213.508 304.316C213.396 304.111 213.237 303.961 213.032 303.868C212.836 303.765 212.579 303.714 212.262 303.714C211.823 303.714 211.459 303.775 211.17 303.896C210.89 304.008 210.698 304.111 210.596 304.204C210.67 304.447 210.726 304.713 210.764 305.002C210.801 305.291 210.82 305.595 210.82 305.912V310H209.518V306.192C209.518 305.763 209.494 305.394 209.448 305.086C209.401 304.778 209.317 304.521 209.196 304.316C209.084 304.111 208.925 303.961 208.72 303.868C208.524 303.765 208.272 303.714 207.964 303.714C207.833 303.714 207.693 303.719 207.544 303.728C207.394 303.737 207.25 303.751 207.11 303.77C206.979 303.779 206.858 303.793 206.746 303.812C206.634 303.831 206.559 303.845 206.522 303.854V310H205.22V302.93ZM222.332 306.374C222.332 305.525 222.122 304.871 221.702 304.414C221.282 303.957 220.722 303.728 220.022 303.728C219.63 303.728 219.322 303.742 219.098 303.77C218.884 303.798 218.711 303.831 218.58 303.868V308.46C218.739 308.591 218.968 308.717 219.266 308.838C219.565 308.959 219.892 309.02 220.246 309.02C220.62 309.02 220.937 308.955 221.198 308.824C221.469 308.684 221.688 308.497 221.856 308.264C222.024 308.021 222.146 307.741 222.22 307.424C222.295 307.097 222.332 306.747 222.332 306.374ZM223.69 306.374C223.69 306.925 223.616 307.433 223.466 307.9C223.326 308.367 223.116 308.768 222.836 309.104C222.556 309.44 222.211 309.701 221.8 309.888C221.399 310.075 220.937 310.168 220.414 310.168C219.994 310.168 219.621 310.112 219.294 310C218.977 309.888 218.739 309.781 218.58 309.678V312.59H217.278V302.944C217.586 302.869 217.969 302.79 218.426 302.706C218.893 302.613 219.43 302.566 220.036 302.566C220.596 302.566 221.1 302.655 221.548 302.832C221.996 303.009 222.379 303.261 222.696 303.588C223.014 303.915 223.256 304.316 223.424 304.792C223.602 305.259 223.69 305.786 223.69 306.374ZM231.948 306.36C231.948 306.939 231.864 307.461 231.696 307.928C231.528 308.395 231.29 308.796 230.982 309.132C230.684 309.468 230.324 309.729 229.904 309.916C229.484 310.093 229.027 310.182 228.532 310.182C228.038 310.182 227.58 310.093 227.16 309.916C226.74 309.729 226.376 309.468 226.068 309.132C225.77 308.796 225.536 308.395 225.368 307.928C225.2 307.461 225.116 306.939 225.116 306.36C225.116 305.791 225.2 305.273 225.368 304.806C225.536 304.33 225.77 303.924 226.068 303.588C226.376 303.252 226.74 302.995 227.16 302.818C227.58 302.631 228.038 302.538 228.532 302.538C229.027 302.538 229.484 302.631 229.904 302.818C230.324 302.995 230.684 303.252 230.982 303.588C231.29 303.924 231.528 304.33 231.696 304.806C231.864 305.273 231.948 305.791 231.948 306.36ZM230.59 306.36C230.59 305.539 230.404 304.89 230.03 304.414C229.666 303.929 229.167 303.686 228.532 303.686C227.898 303.686 227.394 303.929 227.02 304.414C226.656 304.89 226.474 305.539 226.474 306.36C226.474 307.181 226.656 307.835 227.02 308.32C227.394 308.796 227.898 309.034 228.532 309.034C229.167 309.034 229.666 308.796 230.03 308.32C230.404 307.835 230.59 307.181 230.59 306.36ZM236.468 302.566C236.58 302.566 236.706 302.575 236.846 302.594C236.995 302.603 237.14 302.622 237.28 302.65C237.42 302.669 237.546 302.692 237.658 302.72C237.779 302.739 237.868 302.757 237.924 302.776L237.7 303.91C237.597 303.873 237.425 303.831 237.182 303.784C236.949 303.728 236.645 303.7 236.272 303.7C236.029 303.7 235.787 303.728 235.544 303.784C235.311 303.831 235.157 303.863 235.082 303.882V310H233.78V303.028C234.088 302.916 234.471 302.813 234.928 302.72C235.385 302.617 235.899 302.566 236.468 302.566ZM240.399 302.72H243.157V303.812H240.399V307.172C240.399 307.536 240.427 307.839 240.483 308.082C240.539 308.315 240.623 308.502 240.735 308.642C240.847 308.773 240.987 308.866 241.155 308.922C241.323 308.978 241.519 309.006 241.743 309.006C242.135 309.006 242.447 308.964 242.681 308.88C242.923 308.787 243.091 308.721 243.185 308.684L243.437 309.762C243.306 309.827 243.077 309.907 242.751 310C242.424 310.103 242.051 310.154 241.631 310.154C241.136 310.154 240.725 310.093 240.399 309.972C240.081 309.841 239.825 309.65 239.629 309.398C239.433 309.146 239.293 308.838 239.209 308.474C239.134 308.101 239.097 307.671 239.097 307.186V300.69L240.399 300.466V302.72ZM252.31 310.21C251.628 310.21 251.008 310.098 250.448 309.874C249.888 309.65 249.407 309.323 249.006 308.894C248.604 308.465 248.292 307.937 248.068 307.312C247.853 306.677 247.746 305.954 247.746 305.142C247.746 304.33 247.867 303.611 248.11 302.986C248.362 302.351 248.698 301.819 249.118 301.39C249.538 300.961 250.028 300.634 250.588 300.41C251.148 300.186 251.745 300.074 252.38 300.074C252.781 300.074 253.14 300.102 253.458 300.158C253.784 300.214 254.064 300.279 254.298 300.354C254.54 300.429 254.736 300.503 254.886 300.578C255.035 300.653 255.138 300.709 255.194 300.746L254.802 301.866C254.718 301.81 254.596 301.749 254.438 301.684C254.279 301.619 254.097 301.553 253.892 301.488C253.696 301.423 253.476 301.371 253.234 301.334C253 301.287 252.762 301.264 252.52 301.264C252.006 301.264 251.544 301.353 251.134 301.53C250.723 301.707 250.373 301.964 250.084 302.3C249.794 302.636 249.57 303.047 249.412 303.532C249.262 304.008 249.188 304.545 249.188 305.142C249.188 305.721 249.253 306.248 249.384 306.724C249.524 307.2 249.729 307.611 250 307.956C250.27 308.292 250.606 308.553 251.008 308.74C251.418 308.927 251.894 309.02 252.436 309.02C253.061 309.02 253.579 308.955 253.99 308.824C254.4 308.693 254.708 308.577 254.914 308.474L255.264 309.594C255.198 309.641 255.082 309.701 254.914 309.776C254.746 309.841 254.536 309.907 254.284 309.972C254.032 310.037 253.738 310.093 253.402 310.14C253.066 310.187 252.702 310.21 252.31 310.21ZM259.21 309.034C260.629 309.034 261.338 308.549 261.338 307.578C261.338 307.279 261.273 307.027 261.142 306.822C261.021 306.607 260.853 306.425 260.638 306.276C260.423 306.117 260.176 305.982 259.896 305.87C259.625 305.758 259.336 305.646 259.028 305.534C258.673 305.413 258.337 305.277 258.02 305.128C257.703 304.969 257.427 304.787 257.194 304.582C256.961 304.367 256.774 304.115 256.634 303.826C256.503 303.537 256.438 303.187 256.438 302.776C256.438 301.927 256.727 301.264 257.306 300.788C257.885 300.312 258.683 300.074 259.7 300.074C260.288 300.074 260.82 300.139 261.296 300.27C261.781 300.391 262.136 300.527 262.36 300.676L261.926 301.782C261.73 301.661 261.436 301.544 261.044 301.432C260.661 301.311 260.213 301.25 259.7 301.25C259.439 301.25 259.196 301.278 258.972 301.334C258.748 301.39 258.552 301.474 258.384 301.586C258.216 301.698 258.081 301.843 257.978 302.02C257.885 302.188 257.838 302.389 257.838 302.622C257.838 302.883 257.889 303.103 257.992 303.28C258.095 303.457 258.239 303.616 258.426 303.756C258.613 303.887 258.827 304.008 259.07 304.12C259.322 304.232 259.597 304.344 259.896 304.456C260.316 304.624 260.699 304.792 261.044 304.96C261.399 305.128 261.702 305.329 261.954 305.562C262.215 305.795 262.416 306.075 262.556 306.402C262.696 306.719 262.766 307.107 262.766 307.564C262.766 308.413 262.453 309.067 261.828 309.524C261.212 309.981 260.339 310.21 259.21 310.21C258.827 310.21 258.473 310.182 258.146 310.126C257.829 310.079 257.544 310.023 257.292 309.958C257.04 309.883 256.821 309.809 256.634 309.734C256.457 309.65 256.317 309.58 256.214 309.524L256.62 308.404C256.835 308.525 257.161 308.661 257.6 308.81C258.039 308.959 258.575 309.034 259.21 309.034ZM272.247 300.298C271.892 301.325 271.552 302.277 271.225 303.154C270.908 304.022 270.595 304.848 270.287 305.632C269.979 306.416 269.671 307.167 269.363 307.886C269.064 308.595 268.756 309.3 268.439 310H267.165C266.848 309.3 266.535 308.595 266.227 307.886C265.928 307.167 265.62 306.416 265.303 305.632C264.995 304.848 264.678 304.022 264.351 303.154C264.024 302.277 263.688 301.325 263.343 300.298H264.841C265.345 301.773 265.84 303.191 266.325 304.554C266.81 305.917 267.31 307.195 267.823 308.39C268.336 307.205 268.836 305.931 269.321 304.568C269.806 303.196 270.296 301.773 270.791 300.298H272.247ZM62.962 315.136C63.2887 315.136 63.5687 315.159 63.802 315.206C64.0353 315.243 64.2033 315.281 64.306 315.318L64.124 316.438C64.0213 316.401 63.8813 316.363 63.704 316.326C63.5267 316.279 63.312 316.256 63.06 316.256C62.4533 316.256 62.0287 316.424 61.786 316.76C61.5433 317.087 61.422 317.53 61.422 318.09V318.72H64.222V319.812H61.422V326H60.12V318.062C60.12 317.129 60.3487 316.41 60.806 315.906C61.2633 315.393 61.982 315.136 62.962 315.136ZM66.882 326H65.58V318.72H66.882V326ZM66.224 317.404C65.9907 317.404 65.79 317.329 65.622 317.18C65.4633 317.021 65.384 316.811 65.384 316.55C65.384 316.289 65.4633 316.083 65.622 315.934C65.79 315.775 65.9907 315.696 66.224 315.696C66.4573 315.696 66.6533 315.775 66.812 315.934C66.98 316.083 67.064 316.289 67.064 316.55C67.064 316.811 66.98 317.021 66.812 317.18C66.6533 317.329 66.4573 317.404 66.224 317.404ZM71.3001 326.14C70.4974 326.121 69.9281 325.949 69.5921 325.622C69.2561 325.295 69.0881 324.787 69.0881 324.096V315.36L70.3901 315.136V323.886C70.3901 324.101 70.4088 324.278 70.4461 324.418C70.4834 324.558 70.5441 324.67 70.6281 324.754C70.7121 324.838 70.8241 324.903 70.9641 324.95C71.1041 324.987 71.2768 325.02 71.4821 325.048L71.3001 326.14ZM72.5382 322.374C72.5382 321.73 72.6316 321.17 72.8182 320.694C73.0049 320.209 73.2522 319.807 73.5602 319.49C73.8682 319.173 74.2229 318.935 74.6242 318.776C75.0256 318.617 75.4362 318.538 75.8562 318.538C76.8362 318.538 77.5876 318.846 78.1102 319.462C78.6329 320.069 78.8942 320.997 78.8942 322.248C78.8942 322.304 78.8942 322.379 78.8942 322.472C78.8942 322.556 78.8896 322.635 78.8802 322.71H73.8962C73.9522 323.466 74.1716 324.04 74.5542 324.432C74.9369 324.824 75.5342 325.02 76.3462 325.02C76.8036 325.02 77.1862 324.983 77.4942 324.908C77.8116 324.824 78.0496 324.745 78.2082 324.67L78.3902 325.762C78.2316 325.846 77.9516 325.935 77.5502 326.028C77.1582 326.121 76.7102 326.168 76.2062 326.168C75.5716 326.168 75.0209 326.075 74.5542 325.888C74.0969 325.692 73.7189 325.426 73.4202 325.09C73.1216 324.754 72.8976 324.357 72.7482 323.9C72.6082 323.433 72.5382 322.925 72.5382 322.374ZM77.5362 321.66C77.5456 321.072 77.3962 320.591 77.0882 320.218C76.7896 319.835 76.3742 319.644 75.8422 319.644C75.5436 319.644 75.2776 319.705 75.0442 319.826C74.8202 319.938 74.6289 320.087 74.4702 320.274C74.3116 320.461 74.1856 320.675 74.0922 320.918C74.0082 321.161 73.9522 321.408 73.9242 321.66H77.5362ZM82.3045 325.244C82.3045 325.496 82.2205 325.715 82.0525 325.902C81.8845 326.089 81.6559 326.182 81.3665 326.182C81.0772 326.182 80.8485 326.089 80.6805 325.902C80.5125 325.715 80.4285 325.496 80.4285 325.244C80.4285 324.992 80.5125 324.773 80.6805 324.586C80.8485 324.399 81.0772 324.306 81.3665 324.306C81.6559 324.306 81.8845 324.399 82.0525 324.586C82.2205 324.773 82.3045 324.992 82.3045 325.244ZM89.8441 326V322.108C89.2001 321.109 88.5934 320.125 88.0241 319.154C87.4547 318.183 86.9181 317.231 86.4141 316.298H88.0101C88.3647 317.063 88.7614 317.843 89.2001 318.636C89.6387 319.42 90.0914 320.176 90.5581 320.904C91.0154 320.176 91.4634 319.42 91.9021 318.636C92.3407 317.843 92.7421 317.063 93.1061 316.298H94.6181C94.1141 317.231 93.5774 318.183 93.0081 319.154C92.4387 320.115 91.8367 321.091 91.2021 322.08V326H89.8441ZM101.56 322.36C101.56 322.939 101.476 323.461 101.308 323.928C101.14 324.395 100.902 324.796 100.594 325.132C100.295 325.468 99.9357 325.729 99.5157 325.916C99.0957 326.093 98.6383 326.182 98.1437 326.182C97.649 326.182 97.1917 326.093 96.7717 325.916C96.3517 325.729 95.9877 325.468 95.6797 325.132C95.381 324.796 95.1477 324.395 94.9797 323.928C94.8117 323.461 94.7277 322.939 94.7277 322.36C94.7277 321.791 94.8117 321.273 94.9797 320.806C95.1477 320.33 95.381 319.924 95.6797 319.588C95.9877 319.252 96.3517 318.995 96.7717 318.818C97.1917 318.631 97.649 318.538 98.1437 318.538C98.6383 318.538 99.0957 318.631 99.5157 318.818C99.9357 318.995 100.295 319.252 100.594 319.588C100.902 319.924 101.14 320.33 101.308 320.806C101.476 321.273 101.56 321.791 101.56 322.36ZM100.202 322.36C100.202 321.539 100.015 320.89 99.6417 320.414C99.2777 319.929 98.7783 319.686 98.1437 319.686C97.509 319.686 97.005 319.929 96.6317 320.414C96.2677 320.89 96.0857 321.539 96.0857 322.36C96.0857 323.181 96.2677 323.835 96.6317 324.32C97.005 324.796 97.509 325.034 98.1437 325.034C98.7783 325.034 99.2777 324.796 99.6417 324.32C100.015 323.835 100.202 323.181 100.202 322.36ZM109.187 325.79C108.889 325.865 108.492 325.944 107.997 326.028C107.512 326.112 106.947 326.154 106.303 326.154C105.743 326.154 105.272 326.075 104.889 325.916C104.507 325.748 104.199 325.515 103.965 325.216C103.732 324.917 103.564 324.567 103.461 324.166C103.359 323.755 103.307 323.303 103.307 322.808V318.72H104.609V322.528C104.609 323.415 104.749 324.049 105.029 324.432C105.309 324.815 105.781 325.006 106.443 325.006C106.583 325.006 106.728 325.001 106.877 324.992C107.027 324.983 107.167 324.973 107.297 324.964C107.428 324.945 107.545 324.931 107.647 324.922C107.759 324.903 107.839 324.885 107.885 324.866V318.72H109.187V325.79ZM117.835 326.168C117.247 326.168 116.729 326.075 116.281 325.888C115.842 325.701 115.469 325.44 115.161 325.104C114.862 324.768 114.638 324.371 114.489 323.914C114.339 323.447 114.265 322.934 114.265 322.374C114.265 321.814 114.344 321.301 114.503 320.834C114.671 320.367 114.904 319.966 115.203 319.63C115.501 319.285 115.865 319.019 116.295 318.832C116.733 318.636 117.219 318.538 117.751 318.538C118.077 318.538 118.404 318.566 118.731 318.622C119.057 318.678 119.37 318.767 119.669 318.888L119.375 319.994C119.179 319.901 118.95 319.826 118.689 319.77C118.437 319.714 118.166 319.686 117.877 319.686C117.149 319.686 116.589 319.915 116.197 320.372C115.814 320.829 115.623 321.497 115.623 322.374C115.623 322.766 115.665 323.125 115.749 323.452C115.842 323.779 115.982 324.059 116.169 324.292C116.365 324.525 116.612 324.707 116.911 324.838C117.209 324.959 117.573 325.02 118.003 325.02C118.348 325.02 118.661 324.987 118.941 324.922C119.221 324.857 119.44 324.787 119.599 324.712L119.781 325.804C119.706 325.851 119.599 325.897 119.459 325.944C119.319 325.981 119.16 326.014 118.983 326.042C118.805 326.079 118.614 326.107 118.409 326.126C118.213 326.154 118.021 326.168 117.835 326.168ZM123.643 325.062C123.951 325.062 124.221 325.057 124.455 325.048C124.697 325.029 124.898 325.001 125.057 324.964V322.794C124.963 322.747 124.809 322.71 124.595 322.682C124.389 322.645 124.137 322.626 123.839 322.626C123.643 322.626 123.433 322.64 123.209 322.668C122.994 322.696 122.793 322.757 122.607 322.85C122.429 322.934 122.28 323.055 122.159 323.214C122.037 323.363 121.977 323.564 121.977 323.816C121.977 324.283 122.126 324.609 122.425 324.796C122.723 324.973 123.129 325.062 123.643 325.062ZM123.531 318.538C124.053 318.538 124.492 318.608 124.847 318.748C125.211 318.879 125.5 319.07 125.715 319.322C125.939 319.565 126.097 319.859 126.191 320.204C126.284 320.54 126.331 320.913 126.331 321.324V325.874C126.219 325.893 126.06 325.921 125.855 325.958C125.659 325.986 125.435 326.014 125.183 326.042C124.931 326.07 124.655 326.093 124.357 326.112C124.067 326.14 123.778 326.154 123.489 326.154C123.078 326.154 122.7 326.112 122.355 326.028C122.009 325.944 121.711 325.813 121.459 325.636C121.207 325.449 121.011 325.207 120.871 324.908C120.731 324.609 120.661 324.25 120.661 323.83C120.661 323.429 120.74 323.083 120.899 322.794C121.067 322.505 121.291 322.271 121.571 322.094C121.851 321.917 122.177 321.786 122.551 321.702C122.924 321.618 123.316 321.576 123.727 321.576C123.857 321.576 123.993 321.585 124.133 321.604C124.273 321.613 124.403 321.632 124.525 321.66C124.655 321.679 124.767 321.697 124.861 321.716C124.954 321.735 125.019 321.749 125.057 321.758V321.394C125.057 321.179 125.033 320.969 124.987 320.764C124.94 320.549 124.856 320.363 124.735 320.204C124.613 320.036 124.445 319.905 124.231 319.812C124.025 319.709 123.755 319.658 123.419 319.658C122.989 319.658 122.611 319.691 122.285 319.756C121.967 319.812 121.729 319.873 121.571 319.938L121.417 318.86C121.585 318.785 121.865 318.715 122.257 318.65C122.649 318.575 123.073 318.538 123.531 318.538ZM128.493 318.93C128.792 318.855 129.188 318.776 129.683 318.692C130.178 318.608 130.747 318.566 131.391 318.566C131.97 318.566 132.45 318.65 132.833 318.818C133.216 318.977 133.519 319.205 133.743 319.504C133.976 319.793 134.14 320.143 134.233 320.554C134.326 320.965 134.373 321.417 134.373 321.912V326H133.071V322.192C133.071 321.744 133.038 321.361 132.973 321.044C132.917 320.727 132.819 320.47 132.679 320.274C132.539 320.078 132.352 319.938 132.119 319.854C131.886 319.761 131.596 319.714 131.251 319.714C131.111 319.714 130.966 319.719 130.817 319.728C130.668 319.737 130.523 319.751 130.383 319.77C130.252 319.779 130.131 319.793 130.019 319.812C129.916 319.831 129.842 319.845 129.795 319.854V326H128.493V318.93ZM142.236 325.062C142.544 325.062 142.815 325.057 143.048 325.048C143.291 325.029 143.492 325.001 143.65 324.964V322.794C143.557 322.747 143.403 322.71 143.188 322.682C142.983 322.645 142.731 322.626 142.432 322.626C142.236 322.626 142.026 322.64 141.802 322.668C141.588 322.696 141.387 322.757 141.2 322.85C141.023 322.934 140.874 323.055 140.752 323.214C140.631 323.363 140.57 323.564 140.57 323.816C140.57 324.283 140.72 324.609 141.018 324.796C141.317 324.973 141.723 325.062 142.236 325.062ZM142.124 318.538C142.647 318.538 143.086 318.608 143.44 318.748C143.804 318.879 144.094 319.07 144.308 319.322C144.532 319.565 144.691 319.859 144.784 320.204C144.878 320.54 144.924 320.913 144.924 321.324V325.874C144.812 325.893 144.654 325.921 144.448 325.958C144.252 325.986 144.028 326.014 143.776 326.042C143.524 326.07 143.249 326.093 142.95 326.112C142.661 326.14 142.372 326.154 142.082 326.154C141.672 326.154 141.294 326.112 140.948 326.028C140.603 325.944 140.304 325.813 140.052 325.636C139.8 325.449 139.604 325.207 139.464 324.908C139.324 324.609 139.254 324.25 139.254 323.83C139.254 323.429 139.334 323.083 139.492 322.794C139.66 322.505 139.884 322.271 140.164 322.094C140.444 321.917 140.771 321.786 141.144 321.702C141.518 321.618 141.91 321.576 142.32 321.576C142.451 321.576 142.586 321.585 142.726 321.604C142.866 321.613 142.997 321.632 143.118 321.66C143.249 321.679 143.361 321.697 143.454 321.716C143.548 321.735 143.613 321.749 143.65 321.758V321.394C143.65 321.179 143.627 320.969 143.58 320.764C143.534 320.549 143.45 320.363 143.328 320.204C143.207 320.036 143.039 319.905 142.824 319.812C142.619 319.709 142.348 319.658 142.012 319.658C141.583 319.658 141.205 319.691 140.878 319.756C140.561 319.812 140.323 319.873 140.164 319.938L140.01 318.86C140.178 318.785 140.458 318.715 140.85 318.65C141.242 318.575 141.667 318.538 142.124 318.538ZM149.271 326.14C148.468 326.121 147.899 325.949 147.563 325.622C147.227 325.295 147.059 324.787 147.059 324.096V315.36L148.361 315.136V323.886C148.361 324.101 148.379 324.278 148.417 324.418C148.454 324.558 148.515 324.67 148.599 324.754C148.683 324.838 148.795 324.903 148.935 324.95C149.075 324.987 149.247 325.02 149.453 325.048L149.271 326.14ZM152.609 325.062C153.141 325.062 153.533 324.992 153.785 324.852C154.046 324.712 154.177 324.488 154.177 324.18C154.177 323.863 154.051 323.611 153.799 323.424C153.547 323.237 153.132 323.027 152.553 322.794C152.273 322.682 152.002 322.57 151.741 322.458C151.489 322.337 151.27 322.197 151.083 322.038C150.896 321.879 150.747 321.688 150.635 321.464C150.523 321.24 150.467 320.965 150.467 320.638C150.467 319.994 150.705 319.485 151.181 319.112C151.657 318.729 152.306 318.538 153.127 318.538C153.332 318.538 153.538 318.552 153.743 318.58C153.948 318.599 154.14 318.627 154.317 318.664C154.494 318.692 154.648 318.725 154.779 318.762C154.919 318.799 155.026 318.832 155.101 318.86L154.863 319.98C154.723 319.905 154.504 319.831 154.205 319.756C153.906 319.672 153.547 319.63 153.127 319.63C152.763 319.63 152.446 319.705 152.175 319.854C151.904 319.994 151.769 320.218 151.769 320.526C151.769 320.685 151.797 320.825 151.853 320.946C151.918 321.067 152.012 321.179 152.133 321.282C152.264 321.375 152.422 321.464 152.609 321.548C152.796 321.632 153.02 321.721 153.281 321.814C153.626 321.945 153.934 322.075 154.205 322.206C154.476 322.327 154.704 322.472 154.891 322.64C155.087 322.808 155.236 323.013 155.339 323.256C155.442 323.489 155.493 323.779 155.493 324.124C155.493 324.796 155.241 325.305 154.737 325.65C154.242 325.995 153.533 326.168 152.609 326.168C151.965 326.168 151.461 326.112 151.097 326C150.733 325.897 150.486 325.818 150.355 325.762L150.593 324.642C150.742 324.698 150.98 324.782 151.307 324.894C151.634 325.006 152.068 325.062 152.609 325.062ZM163.589 322.36C163.589 322.939 163.505 323.461 163.337 323.928C163.169 324.395 162.931 324.796 162.623 325.132C162.324 325.468 161.965 325.729 161.545 325.916C161.125 326.093 160.668 326.182 160.173 326.182C159.678 326.182 159.221 326.093 158.801 325.916C158.381 325.729 158.017 325.468 157.709 325.132C157.41 324.796 157.177 324.395 157.009 323.928C156.841 323.461 156.757 322.939 156.757 322.36C156.757 321.791 156.841 321.273 157.009 320.806C157.177 320.33 157.41 319.924 157.709 319.588C158.017 319.252 158.381 318.995 158.801 318.818C159.221 318.631 159.678 318.538 160.173 318.538C160.668 318.538 161.125 318.631 161.545 318.818C161.965 318.995 162.324 319.252 162.623 319.588C162.931 319.924 163.169 320.33 163.337 320.806C163.505 321.273 163.589 321.791 163.589 322.36ZM162.231 322.36C162.231 321.539 162.044 320.89 161.671 320.414C161.307 319.929 160.808 319.686 160.173 319.686C159.538 319.686 159.034 319.929 158.661 320.414C158.297 320.89 158.115 321.539 158.115 322.36C158.115 323.181 158.297 323.835 158.661 324.32C159.034 324.796 159.538 325.034 160.173 325.034C160.808 325.034 161.307 324.796 161.671 324.32C162.044 323.835 162.231 323.181 162.231 322.36ZM168.255 322.374C168.255 321.73 168.348 321.17 168.535 320.694C168.722 320.209 168.969 319.807 169.277 319.49C169.585 319.173 169.94 318.935 170.341 318.776C170.742 318.617 171.153 318.538 171.573 318.538C172.553 318.538 173.304 318.846 173.827 319.462C174.35 320.069 174.611 320.997 174.611 322.248C174.611 322.304 174.611 322.379 174.611 322.472C174.611 322.556 174.606 322.635 174.597 322.71H169.613C169.669 323.466 169.888 324.04 170.271 324.432C170.654 324.824 171.251 325.02 172.063 325.02C172.52 325.02 172.903 324.983 173.211 324.908C173.528 324.824 173.766 324.745 173.925 324.67L174.107 325.762C173.948 325.846 173.668 325.935 173.267 326.028C172.875 326.121 172.427 326.168 171.923 326.168C171.288 326.168 170.738 326.075 170.271 325.888C169.814 325.692 169.436 325.426 169.137 325.09C168.838 324.754 168.614 324.357 168.465 323.9C168.325 323.433 168.255 322.925 168.255 322.374ZM173.253 321.66C173.262 321.072 173.113 320.591 172.805 320.218C172.506 319.835 172.091 319.644 171.559 319.644C171.26 319.644 170.994 319.705 170.761 319.826C170.537 319.938 170.346 320.087 170.187 320.274C170.028 320.461 169.902 320.675 169.809 320.918C169.725 321.161 169.669 321.408 169.641 321.66H173.253ZM181.185 320.26C181.027 320.129 180.798 320.003 180.499 319.882C180.201 319.761 179.874 319.7 179.519 319.7C179.146 319.7 178.824 319.77 178.553 319.91C178.292 320.041 178.077 320.227 177.909 320.47C177.741 320.703 177.62 320.983 177.545 321.31C177.471 321.637 177.433 321.987 177.433 322.36C177.433 323.209 177.643 323.867 178.063 324.334C178.483 324.791 179.043 325.02 179.743 325.02C180.098 325.02 180.392 325.006 180.625 324.978C180.868 324.941 181.055 324.903 181.185 324.866V320.26ZM181.185 315.36L182.487 315.136V325.79C182.189 325.874 181.806 325.958 181.339 326.042C180.873 326.126 180.336 326.168 179.729 326.168C179.169 326.168 178.665 326.079 178.217 325.902C177.769 325.725 177.387 325.473 177.069 325.146C176.752 324.819 176.505 324.423 176.327 323.956C176.159 323.48 176.075 322.948 176.075 322.36C176.075 321.8 176.145 321.287 176.285 320.82C176.435 320.353 176.649 319.952 176.929 319.616C177.209 319.28 177.55 319.019 177.951 318.832C178.362 318.645 178.829 318.552 179.351 318.552C179.771 318.552 180.14 318.608 180.457 318.72C180.784 318.832 181.027 318.939 181.185 319.042V315.36ZM186.027 326H184.725V318.72H186.027V326ZM185.369 317.404C185.136 317.404 184.935 317.329 184.767 317.18C184.609 317.021 184.529 316.811 184.529 316.55C184.529 316.289 184.609 316.083 184.767 315.934C184.935 315.775 185.136 315.696 185.369 315.696C185.603 315.696 185.799 315.775 185.957 315.934C186.125 316.083 186.209 316.289 186.209 316.55C186.209 316.811 186.125 317.021 185.957 317.18C185.799 317.329 185.603 317.404 185.369 317.404ZM189.484 318.72H192.242V319.812H189.484V323.172C189.484 323.536 189.512 323.839 189.568 324.082C189.624 324.315 189.708 324.502 189.82 324.642C189.932 324.773 190.072 324.866 190.24 324.922C190.408 324.978 190.604 325.006 190.828 325.006C191.22 325.006 191.533 324.964 191.766 324.88C192.009 324.787 192.177 324.721 192.27 324.684L192.522 325.762C192.392 325.827 192.163 325.907 191.836 326C191.51 326.103 191.136 326.154 190.716 326.154C190.222 326.154 189.811 326.093 189.484 325.972C189.167 325.841 188.91 325.65 188.714 325.398C188.518 325.146 188.378 324.838 188.294 324.474C188.22 324.101 188.182 323.671 188.182 323.186V316.69L189.484 316.466V318.72ZM201.844 320.26C201.685 320.129 201.456 320.003 201.158 319.882C200.859 319.761 200.532 319.7 200.178 319.7C199.804 319.7 199.482 319.77 199.212 319.91C198.95 320.041 198.736 320.227 198.568 320.47C198.4 320.703 198.278 320.983 198.204 321.31C198.129 321.637 198.092 321.987 198.092 322.36C198.092 323.209 198.302 323.867 198.722 324.334C199.142 324.791 199.702 325.02 200.402 325.02C200.756 325.02 201.05 325.006 201.284 324.978C201.526 324.941 201.713 324.903 201.844 324.866V320.26ZM201.844 315.36L203.146 315.136V325.79C202.847 325.874 202.464 325.958 201.998 326.042C201.531 326.126 200.994 326.168 200.388 326.168C199.828 326.168 199.324 326.079 198.876 325.902C198.428 325.725 198.045 325.473 197.728 325.146C197.41 324.819 197.163 324.423 196.986 323.956C196.818 323.48 196.734 322.948 196.734 322.36C196.734 321.8 196.804 321.287 196.944 320.82C197.093 320.353 197.308 319.952 197.588 319.616C197.868 319.28 198.208 319.019 198.61 318.832C199.02 318.645 199.487 318.552 200.01 318.552C200.43 318.552 200.798 318.608 201.116 318.72C201.442 318.832 201.685 318.939 201.844 319.042V315.36ZM207.848 325.062C208.156 325.062 208.426 325.057 208.66 325.048C208.902 325.029 209.103 325.001 209.262 324.964V322.794C209.168 322.747 209.014 322.71 208.8 322.682C208.594 322.645 208.342 322.626 208.044 322.626C207.848 322.626 207.638 322.64 207.414 322.668C207.199 322.696 206.998 322.757 206.812 322.85C206.634 322.934 206.485 323.055 206.364 323.214C206.242 323.363 206.182 323.564 206.182 323.816C206.182 324.283 206.331 324.609 206.63 324.796C206.928 324.973 207.334 325.062 207.848 325.062ZM207.736 318.538C208.258 318.538 208.697 318.608 209.052 318.748C209.416 318.879 209.705 319.07 209.92 319.322C210.144 319.565 210.302 319.859 210.396 320.204C210.489 320.54 210.536 320.913 210.536 321.324V325.874C210.424 325.893 210.265 325.921 210.06 325.958C209.864 325.986 209.64 326.014 209.388 326.042C209.136 326.07 208.86 326.093 208.562 326.112C208.272 326.14 207.983 326.154 207.694 326.154C207.283 326.154 206.905 326.112 206.56 326.028C206.214 325.944 205.916 325.813 205.664 325.636C205.412 325.449 205.216 325.207 205.076 324.908C204.936 324.609 204.866 324.25 204.866 323.83C204.866 323.429 204.945 323.083 205.104 322.794C205.272 322.505 205.496 322.271 205.776 322.094C206.056 321.917 206.382 321.786 206.756 321.702C207.129 321.618 207.521 321.576 207.932 321.576C208.062 321.576 208.198 321.585 208.338 321.604C208.478 321.613 208.608 321.632 208.73 321.66C208.86 321.679 208.972 321.697 209.066 321.716C209.159 321.735 209.224 321.749 209.262 321.758V321.394C209.262 321.179 209.238 320.969 209.192 320.764C209.145 320.549 209.061 320.363 208.94 320.204C208.818 320.036 208.65 319.905 208.436 319.812C208.23 319.709 207.96 319.658 207.624 319.658C207.194 319.658 206.816 319.691 206.49 319.756C206.172 319.812 205.934 319.873 205.776 319.938L205.622 318.86C205.79 318.785 206.07 318.715 206.462 318.65C206.854 318.575 207.278 318.538 207.736 318.538ZM213.916 318.72H216.674V319.812H213.916V323.172C213.916 323.536 213.944 323.839 214 324.082C214.056 324.315 214.14 324.502 214.252 324.642C214.364 324.773 214.504 324.866 214.672 324.922C214.84 324.978 215.036 325.006 215.26 325.006C215.652 325.006 215.965 324.964 216.198 324.88C216.441 324.787 216.609 324.721 216.702 324.684L216.954 325.762C216.823 325.827 216.595 325.907 216.268 326C215.941 326.103 215.568 326.154 215.148 326.154C214.653 326.154 214.243 326.093 213.916 325.972C213.599 325.841 213.342 325.65 213.146 325.398C212.95 325.146 212.81 324.838 212.726 324.474C212.651 324.101 212.614 323.671 212.614 323.186V316.69L213.916 316.466V318.72ZM220.795 325.062C221.103 325.062 221.374 325.057 221.607 325.048C221.85 325.029 222.05 325.001 222.209 324.964V322.794C222.116 322.747 221.962 322.71 221.747 322.682C221.542 322.645 221.29 322.626 220.991 322.626C220.795 322.626 220.585 322.64 220.361 322.668C220.146 322.696 219.946 322.757 219.759 322.85C219.582 322.934 219.432 323.055 219.311 323.214C219.19 323.363 219.129 323.564 219.129 323.816C219.129 324.283 219.278 324.609 219.577 324.796C219.876 324.973 220.282 325.062 220.795 325.062ZM220.683 318.538C221.206 318.538 221.644 318.608 221.999 318.748C222.363 318.879 222.652 319.07 222.867 319.322C223.091 319.565 223.25 319.859 223.343 320.204C223.436 320.54 223.483 320.913 223.483 321.324V325.874C223.371 325.893 223.212 325.921 223.007 325.958C222.811 325.986 222.587 326.014 222.335 326.042C222.083 326.07 221.808 326.093 221.509 326.112C221.22 326.14 220.93 326.154 220.641 326.154C220.23 326.154 219.852 326.112 219.507 326.028C219.162 325.944 218.863 325.813 218.611 325.636C218.359 325.449 218.163 325.207 218.023 324.908C217.883 324.609 217.813 324.25 217.813 323.83C217.813 323.429 217.892 323.083 218.051 322.794C218.219 322.505 218.443 322.271 218.723 322.094C219.003 321.917 219.33 321.786 219.703 321.702C220.076 321.618 220.468 321.576 220.879 321.576C221.01 321.576 221.145 321.585 221.285 321.604C221.425 321.613 221.556 321.632 221.677 321.66C221.808 321.679 221.92 321.697 222.013 321.716C222.106 321.735 222.172 321.749 222.209 321.758V321.394C222.209 321.179 222.186 320.969 222.139 320.764C222.092 320.549 222.008 320.363 221.887 320.204C221.766 320.036 221.598 319.905 221.383 319.812C221.178 319.709 220.907 319.658 220.571 319.658C220.142 319.658 219.764 319.691 219.437 319.756C219.12 319.812 218.882 319.873 218.723 319.938L218.569 318.86C218.737 318.785 219.017 318.715 219.409 318.65C219.801 318.575 220.226 318.538 220.683 318.538ZM231.35 325.062C231.658 325.062 231.928 325.057 232.162 325.048C232.404 325.029 232.605 325.001 232.764 324.964V322.794C232.67 322.747 232.516 322.71 232.302 322.682C232.096 322.645 231.844 322.626 231.546 322.626C231.35 322.626 231.14 322.64 230.916 322.668C230.701 322.696 230.5 322.757 230.314 322.85C230.136 322.934 229.987 323.055 229.866 323.214C229.744 323.363 229.684 323.564 229.684 323.816C229.684 324.283 229.833 324.609 230.132 324.796C230.43 324.973 230.836 325.062 231.35 325.062ZM231.238 318.538C231.76 318.538 232.199 318.608 232.554 318.748C232.918 318.879 233.207 319.07 233.422 319.322C233.646 319.565 233.804 319.859 233.898 320.204C233.991 320.54 234.038 320.913 234.038 321.324V325.874C233.926 325.893 233.767 325.921 233.562 325.958C233.366 325.986 233.142 326.014 232.89 326.042C232.638 326.07 232.362 326.093 232.064 326.112C231.774 326.14 231.485 326.154 231.196 326.154C230.785 326.154 230.407 326.112 230.062 326.028C229.716 325.944 229.418 325.813 229.166 325.636C228.914 325.449 228.718 325.207 228.578 324.908C228.438 324.609 228.368 324.25 228.368 323.83C228.368 323.429 228.447 323.083 228.606 322.794C228.774 322.505 228.998 322.271 229.278 322.094C229.558 321.917 229.884 321.786 230.258 321.702C230.631 321.618 231.023 321.576 231.434 321.576C231.564 321.576 231.7 321.585 231.84 321.604C231.98 321.613 232.11 321.632 232.232 321.66C232.362 321.679 232.474 321.697 232.568 321.716C232.661 321.735 232.726 321.749 232.764 321.758V321.394C232.764 321.179 232.74 320.969 232.694 320.764C232.647 320.549 232.563 320.363 232.442 320.204C232.32 320.036 232.152 319.905 231.938 319.812C231.732 319.709 231.462 319.658 231.126 319.658C230.696 319.658 230.318 319.691 229.992 319.756C229.674 319.812 229.436 319.873 229.278 319.938L229.124 318.86C229.292 318.785 229.572 318.715 229.964 318.65C230.356 318.575 230.78 318.538 231.238 318.538ZM239.042 315.136C239.425 315.136 239.751 315.164 240.022 315.22C240.302 315.276 240.498 315.327 240.61 315.374L240.372 316.494C240.26 316.438 240.101 316.387 239.896 316.34C239.691 316.284 239.439 316.256 239.14 316.256C238.533 316.256 238.109 316.424 237.866 316.76C237.623 317.087 237.502 317.53 237.502 318.09V318.72H240.302V319.812H237.502V326H236.2V318.062C236.2 317.129 236.429 316.41 236.886 315.906C237.343 315.393 238.062 315.136 239.042 315.136ZM242.818 318.72H245.576V319.812H242.818V323.172C242.818 323.536 242.846 323.839 242.902 324.082C242.958 324.315 243.042 324.502 243.154 324.642C243.266 324.773 243.406 324.866 243.574 324.922C243.742 324.978 243.938 325.006 244.162 325.006C244.554 325.006 244.867 324.964 245.1 324.88C245.343 324.787 245.511 324.721 245.604 324.684L245.856 325.762C245.726 325.827 245.497 325.907 245.17 326C244.844 326.103 244.47 326.154 244.05 326.154C243.556 326.154 243.145 326.093 242.818 325.972C242.501 325.841 242.244 325.65 242.048 325.398C241.852 325.146 241.712 324.838 241.628 324.474C241.554 324.101 241.516 323.671 241.516 323.186V316.69L242.818 316.466V318.72ZM246.691 322.374C246.691 321.73 246.784 321.17 246.971 320.694C247.157 320.209 247.405 319.807 247.713 319.49C248.021 319.173 248.375 318.935 248.777 318.776C249.178 318.617 249.589 318.538 250.009 318.538C250.989 318.538 251.74 318.846 252.263 319.462C252.785 320.069 253.047 320.997 253.047 322.248C253.047 322.304 253.047 322.379 253.047 322.472C253.047 322.556 253.042 322.635 253.033 322.71H248.049C248.105 323.466 248.324 324.04 248.707 324.432C249.089 324.824 249.687 325.02 250.499 325.02C250.956 325.02 251.339 324.983 251.647 324.908C251.964 324.824 252.202 324.745 252.361 324.67L252.543 325.762C252.384 325.846 252.104 325.935 251.703 326.028C251.311 326.121 250.863 326.168 250.359 326.168C249.724 326.168 249.173 326.075 248.707 325.888C248.249 325.692 247.871 325.426 247.573 325.09C247.274 324.754 247.05 324.357 246.901 323.9C246.761 323.433 246.691 322.925 246.691 322.374ZM251.689 321.66C251.698 321.072 251.549 320.591 251.241 320.218C250.942 319.835 250.527 319.644 249.995 319.644C249.696 319.644 249.43 319.705 249.197 319.826C248.973 319.938 248.781 320.087 248.623 320.274C248.464 320.461 248.338 320.675 248.245 320.918C248.161 321.161 248.105 321.408 248.077 321.66H251.689ZM257.605 318.566C257.717 318.566 257.843 318.575 257.983 318.594C258.132 318.603 258.277 318.622 258.417 318.65C258.557 318.669 258.683 318.692 258.795 318.72C258.916 318.739 259.005 318.757 259.061 318.776L258.837 319.91C258.734 319.873 258.562 319.831 258.319 319.784C258.086 319.728 257.782 319.7 257.409 319.7C257.166 319.7 256.924 319.728 256.681 319.784C256.448 319.831 256.294 319.863 256.219 319.882V326H254.917V319.028C255.225 318.916 255.608 318.813 256.065 318.72C256.522 318.617 257.036 318.566 257.605 318.566ZM61.422 342H60.12V334.72H61.422V342ZM60.764 333.404C60.5307 333.404 60.33 333.329 60.162 333.18C60.0033 333.021 59.924 332.811 59.924 332.55C59.924 332.289 60.0033 332.083 60.162 331.934C60.33 331.775 60.5307 331.696 60.764 331.696C60.9973 331.696 61.1933 331.775 61.352 331.934C61.52 332.083 61.604 332.289 61.604 332.55C61.604 332.811 61.52 333.021 61.352 333.18C61.1933 333.329 60.9973 333.404 60.764 333.404ZM63.661 334.93C63.9597 334.855 64.3517 334.776 64.837 334.692C65.3317 334.608 65.901 334.566 66.545 334.566C67.0117 334.566 67.4037 334.631 67.721 334.762C68.0383 334.883 68.3043 335.065 68.519 335.308C68.5843 335.261 68.687 335.196 68.827 335.112C68.967 335.028 69.1397 334.949 69.345 334.874C69.5503 334.79 69.779 334.72 70.031 334.664C70.283 334.599 70.5537 334.566 70.843 334.566C71.403 334.566 71.8603 334.65 72.215 334.818C72.5697 334.977 72.845 335.205 73.041 335.504C73.2463 335.803 73.3817 336.157 73.447 336.568C73.5217 336.979 73.559 337.427 73.559 337.912V342H72.257V338.192C72.257 337.763 72.2337 337.394 72.187 337.086C72.1497 336.778 72.0703 336.521 71.949 336.316C71.837 336.111 71.6783 335.961 71.473 335.868C71.277 335.765 71.0203 335.714 70.703 335.714C70.2643 335.714 69.9003 335.775 69.611 335.896C69.331 336.008 69.1397 336.111 69.037 336.204C69.1117 336.447 69.1677 336.713 69.205 337.002C69.2423 337.291 69.261 337.595 69.261 337.912V342H67.959V338.192C67.959 337.763 67.9357 337.394 67.889 337.086C67.8423 336.778 67.7583 336.521 67.637 336.316C67.525 336.111 67.3663 335.961 67.161 335.868C66.965 335.765 66.713 335.714 66.405 335.714C66.2743 335.714 66.1343 335.719 65.985 335.728C65.8357 335.737 65.691 335.751 65.551 335.77C65.4203 335.779 65.299 335.793 65.187 335.812C65.075 335.831 65.0003 335.845 64.963 335.854V342H63.661V334.93ZM80.7736 338.374C80.7736 337.525 80.5636 336.871 80.1436 336.414C79.7236 335.957 79.1636 335.728 78.4636 335.728C78.0716 335.728 77.7636 335.742 77.5396 335.77C77.3249 335.798 77.1523 335.831 77.0216 335.868V340.46C77.1803 340.591 77.4089 340.717 77.7076 340.838C78.0063 340.959 78.3329 341.02 78.6876 341.02C79.0609 341.02 79.3783 340.955 79.6396 340.824C79.9103 340.684 80.1296 340.497 80.2976 340.264C80.4656 340.021 80.5869 339.741 80.6616 339.424C80.7363 339.097 80.7736 338.747 80.7736 338.374ZM82.1316 338.374C82.1316 338.925 82.0569 339.433 81.9076 339.9C81.7676 340.367 81.5576 340.768 81.2776 341.104C80.9976 341.44 80.6523 341.701 80.2416 341.888C79.8403 342.075 79.3783 342.168 78.8556 342.168C78.4356 342.168 78.0623 342.112 77.7356 342C77.4183 341.888 77.1803 341.781 77.0216 341.678V344.59H75.7196V334.944C76.0276 334.869 76.4103 334.79 76.8676 334.706C77.3343 334.613 77.8709 334.566 78.4776 334.566C79.0376 334.566 79.5416 334.655 79.9896 334.832C80.4376 335.009 80.8203 335.261 81.1376 335.588C81.4549 335.915 81.6976 336.316 81.8656 336.792C82.0429 337.259 82.1316 337.786 82.1316 338.374ZM90.3898 338.36C90.3898 338.939 90.3058 339.461 90.1378 339.928C89.9698 340.395 89.7318 340.796 89.4238 341.132C89.1251 341.468 88.7658 341.729 88.3458 341.916C87.9258 342.093 87.4684 342.182 86.9738 342.182C86.4791 342.182 86.0218 342.093 85.6018 341.916C85.1818 341.729 84.8178 341.468 84.5098 341.132C84.2111 340.796 83.9778 340.395 83.8098 339.928C83.6418 339.461 83.5578 338.939 83.5578 338.36C83.5578 337.791 83.6418 337.273 83.8098 336.806C83.9778 336.33 84.2111 335.924 84.5098 335.588C84.8178 335.252 85.1818 334.995 85.6018 334.818C86.0218 334.631 86.4791 334.538 86.9738 334.538C87.4684 334.538 87.9258 334.631 88.3458 334.818C88.7658 334.995 89.1251 335.252 89.4238 335.588C89.7318 335.924 89.9698 336.33 90.1378 336.806C90.3058 337.273 90.3898 337.791 90.3898 338.36ZM89.0318 338.36C89.0318 337.539 88.8451 336.89 88.4718 336.414C88.1078 335.929 87.6084 335.686 86.9738 335.686C86.3391 335.686 85.8351 335.929 85.4618 336.414C85.0978 336.89 84.9158 337.539 84.9158 338.36C84.9158 339.181 85.0978 339.835 85.4618 340.32C85.8351 340.796 86.3391 341.034 86.9738 341.034C87.6084 341.034 88.1078 340.796 88.4718 340.32C88.8451 339.835 89.0318 339.181 89.0318 338.36ZM94.9096 334.566C95.0216 334.566 95.1476 334.575 95.2876 334.594C95.4369 334.603 95.5816 334.622 95.7216 334.65C95.8616 334.669 95.9876 334.692 96.0996 334.72C96.2209 334.739 96.3096 334.757 96.3656 334.776L96.1416 335.91C96.0389 335.873 95.8662 335.831 95.6236 335.784C95.3902 335.728 95.0869 335.7 94.7136 335.7C94.4709 335.7 94.2282 335.728 93.9856 335.784C93.7522 335.831 93.5982 335.863 93.5236 335.882V342H92.2216V335.028C92.5296 334.916 92.9122 334.813 93.3696 334.72C93.8269 334.617 94.3402 334.566 94.9096 334.566ZM98.84 334.72H101.598V335.812H98.84V339.172C98.84 339.536 98.868 339.839 98.924 340.082C98.98 340.315 99.064 340.502 99.176 340.642C99.288 340.773 99.428 340.866 99.596 340.922C99.764 340.978 99.96 341.006 100.184 341.006C100.576 341.006 100.889 340.964 101.122 340.88C101.365 340.787 101.533 340.721 101.626 340.684L101.878 341.762C101.747 341.827 101.519 341.907 101.192 342C100.865 342.103 100.492 342.154 100.072 342.154C99.5773 342.154 99.1666 342.093 98.84 341.972C98.5226 341.841 98.266 341.65 98.07 341.398C97.874 341.146 97.734 340.838 97.65 340.474C97.5753 340.101 97.538 339.671 97.538 339.186V332.69L98.84 332.466V334.72ZM104.557 342H103.255V334.72H104.557V342ZM103.899 333.404C103.665 333.404 103.465 333.329 103.297 333.18C103.138 333.021 103.059 332.811 103.059 332.55C103.059 332.289 103.138 332.083 103.297 331.934C103.465 331.775 103.665 331.696 103.899 331.696C104.132 331.696 104.328 331.775 104.487 331.934C104.655 332.083 104.739 332.289 104.739 332.55C104.739 332.811 104.655 333.021 104.487 333.18C104.328 333.329 104.132 333.404 103.899 333.404ZM106.796 334.93C107.094 334.855 107.491 334.776 107.986 334.692C108.48 334.608 109.05 334.566 109.694 334.566C110.272 334.566 110.753 334.65 111.136 334.818C111.518 334.977 111.822 335.205 112.046 335.504C112.279 335.793 112.442 336.143 112.536 336.554C112.629 336.965 112.676 337.417 112.676 337.912V342H111.374V338.192C111.374 337.744 111.341 337.361 111.276 337.044C111.22 336.727 111.122 336.47 110.982 336.274C110.842 336.078 110.655 335.938 110.422 335.854C110.188 335.761 109.899 335.714 109.554 335.714C109.414 335.714 109.269 335.719 109.12 335.728C108.97 335.737 108.826 335.751 108.686 335.77C108.555 335.779 108.434 335.793 108.322 335.812C108.219 335.831 108.144 335.845 108.098 335.854V342H106.796V334.93ZM119.399 341.272C119.287 341.347 119.068 341.445 118.741 341.566C118.424 341.678 118.05 341.734 117.621 341.734C117.182 341.734 116.767 341.664 116.375 341.524C115.992 341.384 115.656 341.169 115.367 340.88C115.078 340.581 114.849 340.213 114.681 339.774C114.513 339.335 114.429 338.813 114.429 338.206C114.429 337.674 114.508 337.189 114.667 336.75C114.826 336.302 115.054 335.919 115.353 335.602C115.661 335.275 116.034 335.023 116.473 334.846C116.912 334.659 117.406 334.566 117.957 334.566C118.564 334.566 119.091 334.613 119.539 334.706C119.996 334.79 120.379 334.869 120.687 334.944V341.44C120.687 342.56 120.398 343.372 119.819 343.876C119.24 344.38 118.363 344.632 117.187 344.632C116.73 344.632 116.296 344.595 115.885 344.52C115.484 344.445 115.134 344.357 114.835 344.254L115.073 343.12C115.334 343.223 115.652 343.311 116.025 343.386C116.408 343.47 116.804 343.512 117.215 343.512C117.99 343.512 118.545 343.358 118.881 343.05C119.226 342.742 119.399 342.252 119.399 341.58V341.272ZM119.385 335.868C119.254 335.831 119.077 335.798 118.853 335.77C118.638 335.733 118.344 335.714 117.971 335.714C117.271 335.714 116.73 335.943 116.347 336.4C115.974 336.857 115.787 337.464 115.787 338.22C115.787 338.64 115.838 338.999 115.941 339.298C116.053 339.597 116.198 339.844 116.375 340.04C116.562 340.236 116.772 340.381 117.005 340.474C117.248 340.567 117.495 340.614 117.747 340.614C118.092 340.614 118.41 340.567 118.699 340.474C118.988 340.371 119.217 340.255 119.385 340.124V335.868ZM127.387 334.72H130.145V335.812H127.387V339.172C127.387 339.536 127.415 339.839 127.471 340.082C127.527 340.315 127.611 340.502 127.723 340.642C127.835 340.773 127.975 340.866 128.143 340.922C128.311 340.978 128.507 341.006 128.731 341.006C129.123 341.006 129.435 340.964 129.669 340.88C129.911 340.787 130.079 340.721 130.173 340.684L130.425 341.762C130.294 341.827 130.065 341.907 129.739 342C129.412 342.103 129.039 342.154 128.619 342.154C128.124 342.154 127.713 342.093 127.387 341.972C127.069 341.841 126.813 341.65 126.617 341.398C126.421 341.146 126.281 340.838 126.197 340.474C126.122 340.101 126.085 339.671 126.085 339.186V332.69L127.387 332.466V334.72ZM131.802 342V331.36L133.104 331.136V334.86C133.346 334.767 133.603 334.697 133.874 334.65C134.154 334.594 134.429 334.566 134.7 334.566C135.278 334.566 135.759 334.65 136.142 334.818C136.524 334.977 136.828 335.205 137.052 335.504C137.285 335.793 137.448 336.143 137.542 336.554C137.635 336.965 137.682 337.417 137.682 337.912V342H136.38V338.192C136.38 337.744 136.347 337.361 136.282 337.044C136.226 336.727 136.128 336.47 135.988 336.274C135.848 336.078 135.661 335.938 135.428 335.854C135.194 335.761 134.905 335.714 134.56 335.714C134.42 335.714 134.275 335.723 134.126 335.742C133.976 335.761 133.832 335.784 133.692 335.812C133.561 335.831 133.44 335.854 133.328 335.882C133.225 335.91 133.15 335.933 133.104 335.952V342H131.802ZM139.394 338.374C139.394 337.73 139.487 337.17 139.674 336.694C139.86 336.209 140.108 335.807 140.416 335.49C140.724 335.173 141.078 334.935 141.48 334.776C141.881 334.617 142.292 334.538 142.712 334.538C143.692 334.538 144.443 334.846 144.966 335.462C145.488 336.069 145.75 336.997 145.75 338.248C145.75 338.304 145.75 338.379 145.75 338.472C145.75 338.556 145.745 338.635 145.736 338.71H140.752C140.808 339.466 141.027 340.04 141.41 340.432C141.792 340.824 142.39 341.02 143.202 341.02C143.659 341.02 144.042 340.983 144.35 340.908C144.667 340.824 144.905 340.745 145.064 340.67L145.246 341.762C145.087 341.846 144.807 341.935 144.406 342.028C144.014 342.121 143.566 342.168 143.062 342.168C142.427 342.168 141.876 342.075 141.41 341.888C140.952 341.692 140.574 341.426 140.276 341.09C139.977 340.754 139.753 340.357 139.604 339.9C139.464 339.433 139.394 338.925 139.394 338.374ZM144.392 337.66C144.401 337.072 144.252 336.591 143.944 336.218C143.645 335.835 143.23 335.644 142.698 335.644C142.399 335.644 142.133 335.705 141.9 335.826C141.676 335.938 141.484 336.087 141.326 336.274C141.167 336.461 141.041 336.675 140.948 336.918C140.864 337.161 140.808 337.408 140.78 337.66H144.392ZM153.702 331.136C154.029 331.136 154.309 331.159 154.542 331.206C154.776 331.243 154.944 331.281 155.046 331.318L154.864 332.438C154.762 332.401 154.622 332.363 154.444 332.326C154.267 332.279 154.052 332.256 153.8 332.256C153.194 332.256 152.769 332.424 152.526 332.76C152.284 333.087 152.162 333.53 152.162 334.09V334.72H154.962V335.812H152.162V342H150.86V334.062C150.86 333.129 151.089 332.41 151.546 331.906C152.004 331.393 152.722 331.136 153.702 331.136ZM157.622 342H156.32V334.72H157.622V342ZM156.964 333.404C156.731 333.404 156.53 333.329 156.362 333.18C156.204 333.021 156.124 332.811 156.124 332.55C156.124 332.289 156.204 332.083 156.362 331.934C156.53 331.775 156.731 331.696 156.964 331.696C157.198 331.696 157.394 331.775 157.552 331.934C157.72 332.083 157.804 332.289 157.804 332.55C157.804 332.811 157.72 333.021 157.552 333.18C157.394 333.329 157.198 333.404 156.964 333.404ZM162.04 342.14C161.238 342.121 160.668 341.949 160.332 341.622C159.996 341.295 159.828 340.787 159.828 340.096V331.36L161.13 331.136V339.886C161.13 340.101 161.149 340.278 161.186 340.418C161.224 340.558 161.284 340.67 161.368 340.754C161.452 340.838 161.564 340.903 161.704 340.95C161.844 340.987 162.017 341.02 162.222 341.048L162.04 342.14ZM163.278 338.374C163.278 337.73 163.372 337.17 163.558 336.694C163.745 336.209 163.992 335.807 164.3 335.49C164.608 335.173 164.963 334.935 165.364 334.776C165.766 334.617 166.176 334.538 166.596 334.538C167.576 334.538 168.328 334.846 168.85 335.462C169.373 336.069 169.634 336.997 169.634 338.248C169.634 338.304 169.634 338.379 169.634 338.472C169.634 338.556 169.63 338.635 169.62 338.71H164.636C164.692 339.466 164.912 340.04 165.294 340.432C165.677 340.824 166.274 341.02 167.086 341.02C167.544 341.02 167.926 340.983 168.234 340.908C168.552 340.824 168.79 340.745 168.948 340.67L169.13 341.762C168.972 341.846 168.692 341.935 168.29 342.028C167.898 342.121 167.45 342.168 166.946 342.168C166.312 342.168 165.761 342.075 165.294 341.888C164.837 341.692 164.459 341.426 164.16 341.09C163.862 340.754 163.638 340.357 163.488 339.9C163.348 339.433 163.278 338.925 163.278 338.374ZM168.276 337.66C168.286 337.072 168.136 336.591 167.828 336.218C167.53 335.835 167.114 335.644 166.582 335.644C166.284 335.644 166.018 335.705 165.784 335.826C165.56 335.938 165.369 336.087 165.21 336.274C165.052 336.461 164.926 336.675 164.832 336.918C164.748 337.161 164.692 337.408 164.664 337.66H168.276ZM176.439 341.062C176.971 341.062 177.363 340.992 177.615 340.852C177.876 340.712 178.007 340.488 178.007 340.18C178.007 339.863 177.881 339.611 177.629 339.424C177.377 339.237 176.962 339.027 176.383 338.794C176.103 338.682 175.832 338.57 175.571 338.458C175.319 338.337 175.1 338.197 174.913 338.038C174.726 337.879 174.577 337.688 174.465 337.464C174.353 337.24 174.297 336.965 174.297 336.638C174.297 335.994 174.535 335.485 175.011 335.112C175.487 334.729 176.136 334.538 176.957 334.538C177.162 334.538 177.368 334.552 177.573 334.58C177.778 334.599 177.97 334.627 178.147 334.664C178.324 334.692 178.478 334.725 178.609 334.762C178.749 334.799 178.856 334.832 178.931 334.86L178.693 335.98C178.553 335.905 178.334 335.831 178.035 335.756C177.736 335.672 177.377 335.63 176.957 335.63C176.593 335.63 176.276 335.705 176.005 335.854C175.734 335.994 175.599 336.218 175.599 336.526C175.599 336.685 175.627 336.825 175.683 336.946C175.748 337.067 175.842 337.179 175.963 337.282C176.094 337.375 176.252 337.464 176.439 337.548C176.626 337.632 176.85 337.721 177.111 337.814C177.456 337.945 177.764 338.075 178.035 338.206C178.306 338.327 178.534 338.472 178.721 338.64C178.917 338.808 179.066 339.013 179.169 339.256C179.272 339.489 179.323 339.779 179.323 340.124C179.323 340.796 179.071 341.305 178.567 341.65C178.072 341.995 177.363 342.168 176.439 342.168C175.795 342.168 175.291 342.112 174.927 342C174.563 341.897 174.316 341.818 174.185 341.762L174.423 340.642C174.572 340.698 174.81 340.782 175.137 340.894C175.464 341.006 175.898 341.062 176.439 341.062ZM186.789 341.79C186.49 341.865 186.094 341.944 185.599 342.028C185.114 342.112 184.549 342.154 183.905 342.154C183.345 342.154 182.874 342.075 182.491 341.916C182.108 341.748 181.8 341.515 181.567 341.216C181.334 340.917 181.166 340.567 181.063 340.166C180.96 339.755 180.909 339.303 180.909 338.808V334.72H182.211V338.528C182.211 339.415 182.351 340.049 182.631 340.432C182.911 340.815 183.382 341.006 184.045 341.006C184.185 341.006 184.33 341.001 184.479 340.992C184.628 340.983 184.768 340.973 184.899 340.964C185.03 340.945 185.146 340.931 185.249 340.922C185.361 340.903 185.44 340.885 185.487 340.866V334.72H186.789V341.79ZM192.196 342.168C191.608 342.168 191.09 342.075 190.642 341.888C190.203 341.701 189.83 341.44 189.522 341.104C189.223 340.768 188.999 340.371 188.85 339.914C188.701 339.447 188.626 338.934 188.626 338.374C188.626 337.814 188.705 337.301 188.864 336.834C189.032 336.367 189.265 335.966 189.564 335.63C189.863 335.285 190.227 335.019 190.656 334.832C191.095 334.636 191.58 334.538 192.112 334.538C192.439 334.538 192.765 334.566 193.092 334.622C193.419 334.678 193.731 334.767 194.03 334.888L193.736 335.994C193.54 335.901 193.311 335.826 193.05 335.77C192.798 335.714 192.527 335.686 192.238 335.686C191.51 335.686 190.95 335.915 190.558 336.372C190.175 336.829 189.984 337.497 189.984 338.374C189.984 338.766 190.026 339.125 190.11 339.452C190.203 339.779 190.343 340.059 190.53 340.292C190.726 340.525 190.973 340.707 191.272 340.838C191.571 340.959 191.935 341.02 192.364 341.02C192.709 341.02 193.022 340.987 193.302 340.922C193.582 340.857 193.801 340.787 193.96 340.712L194.142 341.804C194.067 341.851 193.96 341.897 193.82 341.944C193.68 341.981 193.521 342.014 193.344 342.042C193.167 342.079 192.975 342.107 192.77 342.126C192.574 342.154 192.383 342.168 192.196 342.168ZM198.704 342.168C198.116 342.168 197.598 342.075 197.15 341.888C196.711 341.701 196.338 341.44 196.03 341.104C195.731 340.768 195.507 340.371 195.358 339.914C195.209 339.447 195.134 338.934 195.134 338.374C195.134 337.814 195.213 337.301 195.372 336.834C195.54 336.367 195.773 335.966 196.072 335.63C196.371 335.285 196.735 335.019 197.164 334.832C197.603 334.636 198.088 334.538 198.62 334.538C198.947 334.538 199.273 334.566 199.6 334.622C199.927 334.678 200.239 334.767 200.538 334.888L200.244 335.994C200.048 335.901 199.819 335.826 199.558 335.77C199.306 335.714 199.035 335.686 198.746 335.686C198.018 335.686 197.458 335.915 197.066 336.372C196.683 336.829 196.492 337.497 196.492 338.374C196.492 338.766 196.534 339.125 196.618 339.452C196.711 339.779 196.851 340.059 197.038 340.292C197.234 340.525 197.481 340.707 197.78 340.838C198.079 340.959 198.443 341.02 198.872 341.02C199.217 341.02 199.53 340.987 199.81 340.922C200.09 340.857 200.309 340.787 200.468 340.712L200.65 341.804C200.575 341.851 200.468 341.897 200.328 341.944C200.188 341.981 200.029 342.014 199.852 342.042C199.675 342.079 199.483 342.107 199.278 342.126C199.082 342.154 198.891 342.168 198.704 342.168ZM201.642 338.374C201.642 337.73 201.735 337.17 201.922 336.694C202.108 336.209 202.356 335.807 202.664 335.49C202.972 335.173 203.326 334.935 203.728 334.776C204.129 334.617 204.54 334.538 204.96 334.538C205.94 334.538 206.691 334.846 207.214 335.462C207.736 336.069 207.998 336.997 207.998 338.248C207.998 338.304 207.998 338.379 207.998 338.472C207.998 338.556 207.993 338.635 207.984 338.71H203C203.056 339.466 203.275 340.04 203.658 340.432C204.04 340.824 204.638 341.02 205.45 341.02C205.907 341.02 206.29 340.983 206.598 340.908C206.915 340.824 207.153 340.745 207.312 340.67L207.494 341.762C207.335 341.846 207.055 341.935 206.654 342.028C206.262 342.121 205.814 342.168 205.31 342.168C204.675 342.168 204.124 342.075 203.658 341.888C203.2 341.692 202.822 341.426 202.524 341.09C202.225 340.754 202.001 340.357 201.852 339.9C201.712 339.433 201.642 338.925 201.642 338.374ZM206.64 337.66C206.649 337.072 206.5 336.591 206.192 336.218C205.893 335.835 205.478 335.644 204.946 335.644C204.647 335.644 204.381 335.705 204.148 335.826C203.924 335.938 203.732 336.087 203.574 336.274C203.415 336.461 203.289 336.675 203.196 336.918C203.112 337.161 203.056 337.408 203.028 337.66H206.64ZM211.562 341.062C212.094 341.062 212.486 340.992 212.738 340.852C212.999 340.712 213.13 340.488 213.13 340.18C213.13 339.863 213.004 339.611 212.752 339.424C212.5 339.237 212.085 339.027 211.506 338.794C211.226 338.682 210.955 338.57 210.694 338.458C210.442 338.337 210.223 338.197 210.036 338.038C209.849 337.879 209.7 337.688 209.588 337.464C209.476 337.24 209.42 336.965 209.42 336.638C209.42 335.994 209.658 335.485 210.134 335.112C210.61 334.729 211.259 334.538 212.08 334.538C212.285 334.538 212.491 334.552 212.696 334.58C212.901 334.599 213.093 334.627 213.27 334.664C213.447 334.692 213.601 334.725 213.732 334.762C213.872 334.799 213.979 334.832 214.054 334.86L213.816 335.98C213.676 335.905 213.457 335.831 213.158 335.756C212.859 335.672 212.5 335.63 212.08 335.63C211.716 335.63 211.399 335.705 211.128 335.854C210.857 335.994 210.722 336.218 210.722 336.526C210.722 336.685 210.75 336.825 210.806 336.946C210.871 337.067 210.965 337.179 211.086 337.282C211.217 337.375 211.375 337.464 211.562 337.548C211.749 337.632 211.973 337.721 212.234 337.814C212.579 337.945 212.887 338.075 213.158 338.206C213.429 338.327 213.657 338.472 213.844 338.64C214.04 338.808 214.189 339.013 214.292 339.256C214.395 339.489 214.446 339.779 214.446 340.124C214.446 340.796 214.194 341.305 213.69 341.65C213.195 341.995 212.486 342.168 211.562 342.168C210.918 342.168 210.414 342.112 210.05 342C209.686 341.897 209.439 341.818 209.308 341.762L209.546 340.642C209.695 340.698 209.933 340.782 210.26 340.894C210.587 341.006 211.021 341.062 211.562 341.062ZM217.81 341.062C218.342 341.062 218.734 340.992 218.986 340.852C219.247 340.712 219.378 340.488 219.378 340.18C219.378 339.863 219.252 339.611 219 339.424C218.748 339.237 218.333 339.027 217.754 338.794C217.474 338.682 217.203 338.57 216.942 338.458C216.69 338.337 216.471 338.197 216.284 338.038C216.097 337.879 215.948 337.688 215.836 337.464C215.724 337.24 215.668 336.965 215.668 336.638C215.668 335.994 215.906 335.485 216.382 335.112C216.858 334.729 217.507 334.538 218.328 334.538C218.533 334.538 218.739 334.552 218.944 334.58C219.149 334.599 219.341 334.627 219.518 334.664C219.695 334.692 219.849 334.725 219.98 334.762C220.12 334.799 220.227 334.832 220.302 334.86L220.064 335.98C219.924 335.905 219.705 335.831 219.406 335.756C219.107 335.672 218.748 335.63 218.328 335.63C217.964 335.63 217.647 335.705 217.376 335.854C217.105 335.994 216.97 336.218 216.97 336.526C216.97 336.685 216.998 336.825 217.054 336.946C217.119 337.067 217.213 337.179 217.334 337.282C217.465 337.375 217.623 337.464 217.81 337.548C217.997 337.632 218.221 337.721 218.482 337.814C218.827 337.945 219.135 338.075 219.406 338.206C219.677 338.327 219.905 338.472 220.092 338.64C220.288 338.808 220.437 339.013 220.54 339.256C220.643 339.489 220.694 339.779 220.694 340.124C220.694 340.796 220.442 341.305 219.938 341.65C219.443 341.995 218.734 342.168 217.81 342.168C217.166 342.168 216.662 342.112 216.298 342C215.934 341.897 215.687 341.818 215.556 341.762L215.794 340.642C215.943 340.698 216.181 340.782 216.508 340.894C216.835 341.006 217.269 341.062 217.81 341.062ZM225.206 331.136C225.589 331.136 225.915 331.164 226.186 331.22C226.466 331.276 226.662 331.327 226.774 331.374L226.536 332.494C226.424 332.438 226.265 332.387 226.06 332.34C225.855 332.284 225.603 332.256 225.304 332.256C224.697 332.256 224.273 332.424 224.03 332.76C223.787 333.087 223.666 333.53 223.666 334.09V334.72H226.466V335.812H223.666V342H222.364V334.062C222.364 333.129 222.593 332.41 223.05 331.906C223.507 331.393 224.226 331.136 225.206 331.136ZM233.561 341.79C233.262 341.865 232.865 341.944 232.371 342.028C231.885 342.112 231.321 342.154 230.677 342.154C230.117 342.154 229.645 342.075 229.263 341.916C228.88 341.748 228.572 341.515 228.339 341.216C228.105 340.917 227.937 340.567 227.835 340.166C227.732 339.755 227.681 339.303 227.681 338.808V334.72H228.983V338.528C228.983 339.415 229.123 340.049 229.403 340.432C229.683 340.815 230.154 341.006 230.817 341.006C230.957 341.006 231.101 341.001 231.251 340.992C231.4 340.983 231.54 340.973 231.671 340.964C231.801 340.945 231.918 340.931 232.021 340.922C232.133 340.903 232.212 340.885 232.259 340.866V334.72H233.561V341.79ZM237.988 342.14C237.185 342.121 236.616 341.949 236.28 341.622C235.944 341.295 235.776 340.787 235.776 340.096V331.36L237.078 331.136V339.886C237.078 340.101 237.096 340.278 237.134 340.418C237.171 340.558 237.232 340.67 237.316 340.754C237.4 340.838 237.512 340.903 237.652 340.95C237.792 340.987 237.964 341.02 238.17 341.048L237.988 342.14ZM241.816 342.14C241.013 342.121 240.444 341.949 240.108 341.622C239.772 341.295 239.604 340.787 239.604 340.096V331.36L240.906 331.136V339.886C240.906 340.101 240.924 340.278 240.962 340.418C240.999 340.558 241.06 340.67 241.144 340.754C241.228 340.838 241.34 340.903 241.48 340.95C241.62 340.987 241.792 341.02 241.998 341.048L241.816 342.14ZM242.606 343.358C242.709 343.405 242.839 343.447 242.998 343.484C243.166 343.531 243.329 343.554 243.488 343.554C244.001 343.554 244.403 343.437 244.692 343.204C244.981 342.98 245.243 342.611 245.476 342.098C244.888 340.978 244.337 339.793 243.824 338.542C243.32 337.282 242.9 336.008 242.564 334.72H243.964C244.067 335.14 244.188 335.593 244.328 336.078C244.477 336.563 244.641 337.063 244.818 337.576C244.995 338.089 245.187 338.603 245.392 339.116C245.597 339.629 245.812 340.124 246.036 340.6C246.391 339.62 246.699 338.649 246.96 337.688C247.221 336.727 247.469 335.737 247.702 334.72H249.046C248.71 336.092 248.337 337.413 247.926 338.682C247.515 339.942 247.072 341.123 246.596 342.224C246.409 342.644 246.213 343.003 246.008 343.302C245.812 343.61 245.593 343.862 245.35 344.058C245.107 344.254 244.832 344.399 244.524 344.492C244.225 344.585 243.885 344.632 243.502 344.632C243.399 344.632 243.292 344.623 243.18 344.604C243.068 344.595 242.956 344.576 242.844 344.548C242.741 344.529 242.643 344.506 242.55 344.478C242.466 344.45 242.405 344.427 242.368 344.408L242.606 343.358ZM251.959 341.244C251.959 341.496 251.875 341.715 251.707 341.902C251.539 342.089 251.31 342.182 251.021 342.182C250.731 342.182 250.503 342.089 250.335 341.902C250.167 341.715 250.083 341.496 250.083 341.244C250.083 340.992 250.167 340.773 250.335 340.586C250.503 340.399 250.731 340.306 251.021 340.306C251.31 340.306 251.539 340.399 251.707 340.586C251.875 340.773 251.959 340.992 251.959 341.244Z" fill="white"/>
<path opacity="0.2" fill-rule="evenodd" clip-rule="evenodd" d="M134 285.499C134 285.665 134 285.832 133.999 285.999H111.349C111.35 285.832 111.351 285.665 111.351 285.498C111.351 251.506 83.9289 223.919 50 223.65V201C96.438 201.269 134 238.997 134 285.499Z" fill="white"/>
<path opacity="0.2" fill-rule="evenodd" clip-rule="evenodd" d="M298 211.92C287.981 213.94 277.614 215 267 215C180.844 215 111 145.156 111 59C111 47.6778 112.206 36.6373 114.497 26H181.348C177.4 36.2406 175.235 47.3676 175.235 59C175.235 109.68 216.32 150.765 267 150.765C277.879 150.765 288.317 148.871 298 145.396V211.92Z" fill="white"/>
<path d="M60.76 258.754H64.192V274H60.76V258.754ZM73.8589 267.862C73.8589 266.806 73.7196 266.058 73.4409 265.618C73.1769 265.178 72.7149 264.958 72.0549 264.958C71.8496 264.958 71.6369 264.973 71.4169 265.002C71.1969 265.017 70.9843 265.039 70.7789 265.068V274H67.5009V262.824C67.7796 262.751 68.1023 262.677 68.4689 262.604C68.8503 262.516 69.2463 262.443 69.6569 262.384C70.0823 262.311 70.5149 262.259 70.9549 262.23C71.3949 262.186 71.8276 262.164 72.2529 262.164C73.0889 262.164 73.7636 262.274 74.2769 262.494C74.8049 262.699 75.2376 262.949 75.5749 263.242C76.0443 262.905 76.5796 262.641 77.1809 262.45C77.7969 262.259 78.3616 262.164 78.8749 262.164C79.7989 262.164 80.5543 262.296 81.1409 262.56C81.7423 262.809 82.2189 263.169 82.5709 263.638C82.9229 264.107 83.1649 264.665 83.2969 265.31C83.4289 265.955 83.4949 266.674 83.4949 267.466V274H80.2169V267.862C80.2169 266.806 80.0776 266.058 79.7989 265.618C79.5349 265.178 79.0729 264.958 78.4129 264.958C78.2369 264.958 77.9876 265.002 77.6649 265.09C77.3569 265.178 77.1003 265.288 76.8949 265.42C76.9976 265.757 77.0636 266.117 77.0929 266.498C77.1223 266.865 77.1369 267.261 77.1369 267.686V274H73.8589V267.862ZM93.8856 268.302C93.8856 267.29 93.6583 266.483 93.2036 265.882C92.749 265.266 92.0743 264.958 91.1796 264.958C90.8863 264.958 90.615 264.973 90.3656 265.002C90.1163 265.017 89.911 265.039 89.7496 265.068V270.986C89.955 271.118 90.219 271.228 90.5416 271.316C90.879 271.404 91.2163 271.448 91.5536 271.448C93.1083 271.448 93.8856 270.399 93.8856 268.302ZM97.2296 268.214C97.2296 269.109 97.1196 269.923 96.8996 270.656C96.6796 271.389 96.357 272.02 95.9316 272.548C95.5063 273.076 94.9783 273.487 94.3476 273.78C93.717 274.073 92.991 274.22 92.1696 274.22C91.715 274.22 91.2896 274.176 90.8936 274.088C90.4976 274 90.1163 273.875 89.7496 273.714V278.07H86.4716V262.824C86.765 262.736 87.1023 262.655 87.4836 262.582C87.865 262.494 88.261 262.421 88.6716 262.362C89.097 262.303 89.5223 262.259 89.9476 262.23C90.3876 262.186 90.8056 262.164 91.2016 262.164C92.155 262.164 93.0056 262.311 93.7536 262.604C94.5016 262.883 95.1323 263.286 95.6456 263.814C96.159 264.327 96.5476 264.958 96.8116 265.706C97.0903 266.454 97.2296 267.29 97.2296 268.214ZM110.573 268.192C110.573 269.101 110.441 269.937 110.177 270.7C109.913 271.448 109.532 272.093 109.033 272.636C108.534 273.164 107.933 273.575 107.229 273.868C106.54 274.161 105.762 274.308 104.897 274.308C104.046 274.308 103.269 274.161 102.565 273.868C101.876 273.575 101.282 273.164 100.783 272.636C100.284 272.093 99.8957 271.448 99.617 270.7C99.3383 269.937 99.199 269.101 99.199 268.192C99.199 267.283 99.3383 266.454 99.617 265.706C99.9103 264.958 100.306 264.32 100.805 263.792C101.318 263.264 101.92 262.853 102.609 262.56C103.313 262.267 104.076 262.12 104.897 262.12C105.733 262.12 106.496 262.267 107.185 262.56C107.889 262.853 108.49 263.264 108.989 263.792C109.488 264.32 109.876 264.958 110.155 265.706C110.434 266.454 110.573 267.283 110.573 268.192ZM107.229 268.192C107.229 267.18 107.024 266.388 106.613 265.816C106.217 265.229 105.645 264.936 104.897 264.936C104.149 264.936 103.57 265.229 103.159 265.816C102.748 266.388 102.543 267.18 102.543 268.192C102.543 269.204 102.748 270.011 103.159 270.612C103.57 271.199 104.149 271.492 104.897 271.492C105.645 271.492 106.217 271.199 106.613 270.612C107.024 270.011 107.229 269.204 107.229 268.192ZM120.086 265.332C119.793 265.259 119.448 265.185 119.052 265.112C118.656 265.024 118.231 264.98 117.776 264.98C117.571 264.98 117.322 265.002 117.028 265.046C116.75 265.075 116.537 265.112 116.39 265.156V274H113.112V263.044C113.699 262.839 114.388 262.648 115.18 262.472C115.987 262.281 116.882 262.186 117.864 262.186C118.04 262.186 118.253 262.201 118.502 262.23C118.752 262.245 119.001 262.274 119.25 262.318C119.5 262.347 119.749 262.391 119.998 262.45C120.248 262.494 120.46 262.553 120.636 262.626L120.086 265.332ZM122.284 259.546L125.562 259.018V262.428H129.5V265.156H125.562V269.226C125.562 269.915 125.679 270.465 125.914 270.876C126.163 271.287 126.654 271.492 127.388 271.492C127.74 271.492 128.099 271.463 128.466 271.404C128.847 271.331 129.192 271.235 129.5 271.118L129.962 273.67C129.566 273.831 129.126 273.971 128.642 274.088C128.158 274.205 127.564 274.264 126.86 274.264C125.965 274.264 125.224 274.147 124.638 273.912C124.051 273.663 123.582 273.325 123.23 272.9C122.878 272.46 122.628 271.932 122.482 271.316C122.35 270.7 122.284 270.018 122.284 269.27V259.546ZM144.626 274.308C142.147 274.308 140.255 273.619 138.95 272.24C137.659 270.861 137.014 268.903 137.014 266.366C137.014 265.105 137.212 263.983 137.608 263C138.004 262.003 138.547 261.167 139.236 260.492C139.925 259.803 140.747 259.282 141.7 258.93C142.653 258.578 143.687 258.402 144.802 258.402C145.447 258.402 146.034 258.453 146.562 258.556C147.09 258.644 147.552 258.754 147.948 258.886C148.344 259.003 148.674 259.128 148.938 259.26C149.202 259.392 149.393 259.495 149.51 259.568L148.52 262.34C148.051 262.091 147.501 261.878 146.87 261.702C146.254 261.526 145.55 261.438 144.758 261.438C144.23 261.438 143.709 261.526 143.196 261.702C142.697 261.878 142.25 262.164 141.854 262.56C141.473 262.941 141.165 263.44 140.93 264.056C140.695 264.672 140.578 265.42 140.578 266.3C140.578 267.004 140.651 267.664 140.798 268.28C140.959 268.881 141.209 269.402 141.546 269.842C141.898 270.282 142.353 270.634 142.91 270.898C143.467 271.147 144.142 271.272 144.934 271.272C145.433 271.272 145.88 271.243 146.276 271.184C146.672 271.125 147.024 271.059 147.332 270.986C147.64 270.898 147.911 270.803 148.146 270.7C148.381 270.597 148.593 270.502 148.784 270.414L149.73 273.164C149.246 273.457 148.564 273.721 147.684 273.956C146.804 274.191 145.785 274.308 144.626 274.308ZM156.463 271.382C156.947 271.382 157.343 271.345 157.651 271.272C157.974 271.184 158.23 271.074 158.421 270.942C158.612 270.795 158.744 270.627 158.817 270.436C158.89 270.245 158.927 270.033 158.927 269.798C158.927 269.299 158.692 268.889 158.223 268.566C157.754 268.229 156.947 267.869 155.803 267.488C155.304 267.312 154.806 267.114 154.307 266.894C153.808 266.659 153.361 266.373 152.965 266.036C152.569 265.684 152.246 265.266 151.997 264.782C151.748 264.283 151.623 263.682 151.623 262.978C151.623 262.274 151.755 261.643 152.019 261.086C152.283 260.514 152.657 260.03 153.141 259.634C153.625 259.238 154.212 258.937 154.901 258.732C155.59 258.512 156.368 258.402 157.233 258.402C158.26 258.402 159.147 258.512 159.895 258.732C160.643 258.952 161.259 259.194 161.743 259.458L160.753 262.164C160.328 261.944 159.851 261.753 159.323 261.592C158.81 261.416 158.186 261.328 157.453 261.328C156.632 261.328 156.038 261.445 155.671 261.68C155.319 261.9 155.143 262.245 155.143 262.714C155.143 262.993 155.209 263.227 155.341 263.418C155.473 263.609 155.656 263.785 155.891 263.946C156.14 264.093 156.419 264.232 156.727 264.364C157.05 264.481 157.402 264.606 157.783 264.738C158.575 265.031 159.264 265.325 159.851 265.618C160.438 265.897 160.922 266.227 161.303 266.608C161.699 266.989 161.992 267.437 162.183 267.95C162.374 268.463 162.469 269.087 162.469 269.82C162.469 271.243 161.97 272.35 160.973 273.142C159.976 273.919 158.472 274.308 156.463 274.308C155.788 274.308 155.18 274.264 154.637 274.176C154.094 274.103 153.61 274.007 153.185 273.89C152.774 273.773 152.415 273.648 152.107 273.516C151.814 273.384 151.564 273.259 151.359 273.142L152.327 270.414C152.782 270.663 153.339 270.891 153.999 271.096C154.674 271.287 155.495 271.382 156.463 271.382ZM169.427 274C168.825 272.724 168.231 271.397 167.645 270.018C167.058 268.639 166.501 267.275 165.973 265.926C165.445 264.577 164.953 263.286 164.499 262.054C164.059 260.822 163.677 259.722 163.355 258.754H167.139C167.432 259.634 167.747 260.587 168.085 261.614C168.437 262.626 168.789 263.638 169.141 264.65C169.507 265.662 169.859 266.63 170.197 267.554C170.534 268.478 170.849 269.277 171.143 269.952C171.421 269.277 171.729 268.478 172.067 267.554C172.419 266.63 172.771 265.662 173.123 264.65C173.489 263.638 173.841 262.626 174.179 261.614C174.531 260.587 174.853 259.634 175.147 258.754H178.799C178.461 259.722 178.073 260.822 177.633 262.054C177.193 263.286 176.709 264.577 176.181 265.926C175.653 267.275 175.095 268.639 174.509 270.018C173.922 271.397 173.328 272.724 172.727 274H169.427ZM186.057 274V258.754H196.265V261.636H189.489V264.826H195.517V267.708H189.489V274H186.057ZM201.748 274H198.47V262.428H201.748V274ZM202.056 259.084C202.056 259.685 201.858 260.162 201.462 260.514C201.08 260.851 200.626 261.02 200.098 261.02C199.57 261.02 199.108 260.851 198.712 260.514C198.33 260.162 198.14 259.685 198.14 259.084C198.14 258.483 198.33 258.013 198.712 257.676C199.108 257.324 199.57 257.148 200.098 257.148C200.626 257.148 201.08 257.324 201.462 257.676C201.858 258.013 202.056 258.483 202.056 259.084ZM209.449 274.22C208.496 274.205 207.718 274.103 207.117 273.912C206.53 273.721 206.061 273.457 205.709 273.12C205.372 272.768 205.137 272.35 205.005 271.866C204.888 271.367 204.829 270.81 204.829 270.194V257.456L208.107 256.928V269.534C208.107 269.827 208.129 270.091 208.173 270.326C208.217 270.561 208.298 270.759 208.415 270.92C208.547 271.081 208.73 271.213 208.965 271.316C209.2 271.419 209.515 271.485 209.911 271.514L209.449 274.22ZM211.24 268.302C211.24 267.275 211.394 266.381 211.702 265.618C212.025 264.841 212.443 264.195 212.956 263.682C213.469 263.169 214.056 262.78 214.716 262.516C215.391 262.252 216.08 262.12 216.784 262.12C218.427 262.12 219.725 262.626 220.678 263.638C221.631 264.635 222.108 266.109 222.108 268.06C222.108 268.251 222.101 268.463 222.086 268.698C222.071 268.918 222.057 269.116 222.042 269.292H214.606C214.679 269.967 214.995 270.502 215.552 270.898C216.109 271.294 216.857 271.492 217.796 271.492C218.397 271.492 218.984 271.441 219.556 271.338C220.143 271.221 220.619 271.081 220.986 270.92L221.426 273.582C221.25 273.67 221.015 273.758 220.722 273.846C220.429 273.934 220.099 274.007 219.732 274.066C219.38 274.139 218.999 274.198 218.588 274.242C218.177 274.286 217.767 274.308 217.356 274.308C216.315 274.308 215.405 274.154 214.628 273.846C213.865 273.538 213.227 273.12 212.714 272.592C212.215 272.049 211.841 271.411 211.592 270.678C211.357 269.945 211.24 269.153 211.24 268.302ZM218.94 267.048C218.925 266.769 218.874 266.498 218.786 266.234C218.713 265.97 218.588 265.735 218.412 265.53C218.251 265.325 218.038 265.156 217.774 265.024C217.525 264.892 217.209 264.826 216.828 264.826C216.461 264.826 216.146 264.892 215.882 265.024C215.618 265.141 215.398 265.303 215.222 265.508C215.046 265.713 214.907 265.955 214.804 266.234C214.716 266.498 214.65 266.769 214.606 267.048H218.94Z" fill="white"/>
<defs>
<filter id="filter0_d" x="0" y="0" width="348" height="440" filterUnits="userSpaceOnUse" color-interpolation-filters="sRGB">
<feFlood flood-opacity="0" result="BackgroundImageFix"/>
<feColorMatrix in="SourceAlpha" type="matrix" values="0 0 0 0 0 0 0 0 0 0 0 0 0 0 0 0 0 0 127 0"/>
<feOffset dy="24"/>
<feGaussianBlur stdDeviation="25"/>
<feColorMatrix type="matrix" values="0 0 0 0 0.258824 0 0 0 0 0.258824 0 0 0 0 0.258824 0 0 0 0.2 0"/>
<feBlend mode="normal" in2="BackgroundImageFix" result="effect1_dropShadow"/>
<feBlend mode="normal" in="SourceGraphic" in2="effect1_dropShadow" result="shape"/>
</filter>
<linearGradient id="paint0_linear" x1="298" y1="26" x2="50" y2="366" gradientUnits="userSpaceOnUse">
<stop stop-color="#FFCC6A"/>
<stop offset="1" stop-color="#FD0D63"/>
</linearGradient>
</defs>
</svg>
