<svg width="237" height="238" viewBox="0 0 237 238" fill="none" xmlns="http://www.w3.org/2000/svg">
<g filter="url(#filter0_d)">
<path fill-rule="evenodd" clip-rule="evenodd" d="M74.5279 26C69.0051 26 64.5279 30.4771 64.5279 36V67.4958C60.3367 66.0513 55.6687 67.3073 52.7695 70.6959C49.7836 74.186 49.3236 79.1797 51.622 83.1566L53.4215 86.2744L64.5279 79.8627V79.8659L53.4194 86.2789L57.028 92.5286L57.024 92.531L57.8413 93.9464L64.5279 105.526V154C64.5279 159.523 69.0051 164 74.5279 164H176.528C182.051 164 186.528 159.523 186.528 154V57.5763L152.509 26H74.5279Z" fill="#F1F2F2"/>
</g>
<path d="M64.528 36C64.528 30.4772 69.0051 26 74.528 26H152.509L186.528 57.5763V154C186.528 159.523 182.051 164 176.528 164H74.528C69.0051 164 64.528 159.523 64.528 154V36Z" fill="url(#paint0_radial)"/>
<path d="M157.759 58H186.528L152.528 26V52.6667C152.528 55.6 154.882 58 157.759 58Z" fill="url(#paint1_linear)"/>
<path d="M92.1342 94.9309C92.1342 93.4516 93.3429 92.2412 94.8203 92.2412H165.405C166.882 92.2412 168.091 93.4516 168.091 94.9309C168.091 96.4102 166.882 97.6205 165.405 97.6205H94.8203C93.3429 97.6205 92.1342 96.4102 92.1342 94.9309Z" fill="#FF7956"/>
<path d="M101.507 111.069C101.507 109.59 102.715 108.379 104.193 108.379H165.405C166.883 108.379 168.091 109.59 168.091 111.069C168.091 112.548 166.883 113.759 165.405 113.759H104.193C102.715 113.759 101.507 112.548 101.507 111.069Z" fill="#FF7956"/>
<path d="M110.251 127.207C110.251 125.727 111.46 124.517 112.937 124.517H165.405C166.882 124.517 168.091 125.727 168.091 127.207C168.091 128.686 166.882 129.896 165.405 129.896H112.937C111.46 129.896 110.251 128.686 110.251 127.207Z" fill="#FF7956"/>
<path d="M82.1342 78.7932C82.1342 77.3139 83.3429 76.1035 84.8203 76.1035H143.916C145.393 76.1035 146.602 77.3139 146.602 78.7932C146.602 80.2725 145.393 81.4828 143.916 81.4828H84.8203C83.3429 81.4828 82.1342 80.2725 82.1342 78.7932Z" fill="#FF7956"/>
<path d="M100.717 146.529L102.877 128.605L90.7875 129.33L84.113 139.437L100.717 146.529Z" fill="#FFF4E6"/>
<path d="M75.7928 81.7005L72.1821 75.4473L53.4194 86.279L57.0301 92.5322L75.7928 81.7005Z" fill="#FFF4E6"/>
<path d="M64.9028 67.6329C65.4774 67.8489 66.0311 68.1159 66.558 68.4314C68.1414 69.3786 69.4563 70.7147 70.3776 72.314L72.1723 75.4497L53.4215 86.2745L51.622 83.1567C49.3236 79.1798 49.7836 74.1861 52.7695 70.696C55.7555 67.206 60.6177 65.9782 64.9028 67.6329Z" fill="#F05A63"/>
<path d="M75.7867 81.6893L102.878 128.608L91.6802 130.89L88.2604 134.745L84.1017 139.424L57.8413 93.9465L57.024 92.5311L60.6548 90.4358L75.7867 81.6893Z" fill="url(#paint2_linear)"/>
<path fill-rule="evenodd" clip-rule="evenodd" d="M101.257 142.053L100.717 146.529L96.1532 144.579C97.0059 143.041 98.6459 142 100.529 142C100.776 142 101.019 142.018 101.257 142.053Z" fill="#FF7956"/>
<path opacity="0.3" d="M87.4958 127.031C88.2015 127.221 88.9523 126.967 89.397 126.387C89.8417 125.807 89.893 125.016 89.5269 124.383L75.8252 100.662C75.5294 100.056 74.9201 99.6664 74.2461 99.651C73.5723 99.6347 72.9453 99.996 72.6216 100.587C72.2971 101.178 72.329 101.901 72.7039 102.46L86.3997 126.19C86.639 126.604 87.0334 126.907 87.4958 127.031Z" fill="white"/>
<path opacity="0.3" d="M70.1885 97.0548C70.8938 97.2428 71.6427 96.989 72.0874 96.409C72.5319 95.8299 72.5839 95.0398 72.2192 94.4082L70.4139 91.2814C69.9064 90.4372 68.8165 90.1551 67.9635 90.6476C67.1105 91.1401 66.8098 92.225 67.2871 93.0866L69.0924 96.2135C69.3307 96.6287 69.7251 96.9315 70.1885 97.0548Z" fill="white"/>
<path d="M151.974 78.7932C151.974 77.3139 153.183 76.1035 154.661 76.1035H165.405C166.883 76.1035 168.091 77.3139 168.091 78.7932C168.091 80.2725 166.883 81.4828 165.405 81.4828H154.661C153.183 81.4828 151.974 80.2725 151.974 78.7932Z" fill="#FF7956"/>
<defs>
<filter id="filter0_d" x="0.168396" y="0" width="236.36" height="238" filterUnits="userSpaceOnUse" color-interpolation-filters="sRGB">
<feFlood flood-opacity="0" result="BackgroundImageFix"/>
<feColorMatrix in="SourceAlpha" type="matrix" values="0 0 0 0 0 0 0 0 0 0 0 0 0 0 0 0 0 0 127 0"/>
<feOffset dy="24"/>
<feGaussianBlur stdDeviation="25"/>
<feColorMatrix type="matrix" values="0 0 0 0 0 0 0 0 0 0.301925 0 0 0 0 0.470833 0 0 0 0.3 0"/>
<feBlend mode="normal" in2="BackgroundImageFix" result="effect1_dropShadow"/>
<feBlend mode="normal" in="SourceGraphic" in2="effect1_dropShadow" result="shape"/>
</filter>
<radialGradient id="paint0_radial" cx="0" cy="0" r="1" gradientUnits="userSpaceOnUse" gradientTransform="translate(186.528 164) rotate(180) scale(121.528 138)">
<stop stop-color="#FFB26A"/>
<stop offset="1" stop-color="#FFE3C0"/>
</radialGradient>
<linearGradient id="paint1_linear" x1="170.114" y1="42.5926" x2="152.365" y2="57.8096" gradientUnits="userSpaceOnUse">
<stop stop-color="#FFCE93"/>
<stop offset="1" stop-color="#FFB26A"/>
</linearGradient>
<linearGradient id="paint2_linear" x1="64" y1="83.5" x2="95" y2="136" gradientUnits="userSpaceOnUse">
<stop stop-color="#43A4DB"/>
<stop offset="1" stop-color="#0099AE"/>
</linearGradient>
</defs>
</svg>
