<svg width="244" height="229" viewBox="0 0 244 229" fill="none" xmlns="http://www.w3.org/2000/svg">
<path d="M40.58 6.49V15.8H25.95V55H15.03V15.8H0.4V6.49H40.58ZM39.8844 36.87C39.8844 33.6033 40.3744 30.7567 41.3544 28.33C42.381 25.8567 43.711 23.8033 45.3444 22.17C46.9777 20.5367 48.8444 19.3 50.9444 18.46C53.091 17.62 55.2844 17.2 57.5244 17.2C62.751 17.2 66.881 18.81 69.9144 22.03C72.9477 25.2033 74.4644 29.8933 74.4644 36.1C74.4644 36.7067 74.441 37.3833 74.3944 38.13C74.3477 38.83 74.301 39.46 74.2544 40.02H50.5944C50.8277 42.1667 51.831 43.87 53.6044 45.13C55.3777 46.39 57.7577 47.02 60.7444 47.02C62.6577 47.02 64.5244 46.8567 66.3444 46.53C68.211 46.1567 69.7277 45.7133 70.8944 45.2L72.2944 53.67C71.7344 53.95 70.9877 54.23 70.0544 54.51C69.121 54.79 68.071 55.0233 66.9044 55.21C65.7844 55.4433 64.571 55.63 63.2644 55.77C61.9577 55.91 60.651 55.98 59.3444 55.98C56.031 55.98 53.1377 55.49 50.6644 54.51C48.2377 53.53 46.2077 52.2 44.5744 50.52C42.9877 48.7933 41.7977 46.7633 41.0044 44.43C40.2577 42.0967 39.8844 39.5767 39.8844 36.87ZM64.3844 32.88C64.3377 31.9933 64.1744 31.13 63.8944 30.29C63.661 29.45 63.2644 28.7033 62.7044 28.05C62.191 27.3967 61.5144 26.86 60.6744 26.44C59.881 26.02 58.8777 25.81 57.6644 25.81C56.4977 25.81 55.4944 26.02 54.6544 26.44C53.8144 26.8133 53.1144 27.3267 52.5544 27.98C51.9944 28.6333 51.551 29.4033 51.2244 30.29C50.9444 31.13 50.7344 31.9933 50.5944 32.88H64.3844ZM97.2133 55.7C94.1799 55.6533 91.7066 55.3267 89.7933 54.72C87.9266 54.1133 86.4333 53.2733 85.3133 52.2C84.2399 51.08 83.4933 49.75 83.0733 48.21C82.6999 46.6233 82.5133 44.85 82.5133 42.89V2.36L92.9433 0.679998V40.79C92.9433 41.7233 93.0133 42.5633 93.1533 43.31C93.2933 44.0567 93.5499 44.6867 93.9233 45.2C94.3433 45.7133 94.9266 46.1333 95.6733 46.46C96.4199 46.7867 97.4233 46.9967 98.6833 47.09L97.2133 55.7ZM102.912 36.59C102.912 33.93 103.332 31.4333 104.172 29.1C105.058 26.72 106.318 24.6667 107.952 22.94C109.585 21.1667 111.568 19.7667 113.902 18.74C116.235 17.7133 118.895 17.2 121.882 17.2C123.842 17.2 125.638 17.3867 127.272 17.76C128.905 18.0867 130.492 18.5767 132.032 19.23L129.862 27.56C128.882 27.1867 127.808 26.86 126.642 26.58C125.475 26.3 124.168 26.16 122.722 26.16C119.642 26.16 117.332 27.1167 115.792 29.03C114.298 30.9433 113.552 33.4633 113.552 36.59C113.552 39.9033 114.252 42.47 115.652 44.29C117.098 46.11 119.595 47.02 123.142 47.02C124.402 47.02 125.755 46.9033 127.202 46.67C128.648 46.4367 129.978 46.0633 131.192 45.55L132.662 54.09C131.448 54.6033 129.932 55.0467 128.112 55.42C126.292 55.7933 124.285 55.98 122.092 55.98C118.732 55.98 115.838 55.49 113.412 54.51C110.985 53.4833 108.978 52.1067 107.392 50.38C105.852 48.6533 104.708 46.6233 103.962 44.29C103.262 41.91 102.912 39.3433 102.912 36.59ZM172.324 36.52C172.324 39.4133 171.904 42.0733 171.064 44.5C170.224 46.88 169.011 48.9333 167.424 50.66C165.838 52.34 163.924 53.6467 161.684 54.58C159.491 55.5133 157.018 55.98 154.264 55.98C151.558 55.98 149.084 55.5133 146.844 54.58C144.651 53.6467 142.761 52.34 141.174 50.66C139.588 48.9333 138.351 46.88 137.464 44.5C136.578 42.0733 136.134 39.4133 136.134 36.52C136.134 33.6267 136.578 30.99 137.464 28.61C138.398 26.23 139.658 24.2 141.244 22.52C142.878 20.84 144.791 19.5333 146.984 18.6C149.224 17.6667 151.651 17.2 154.264 17.2C156.924 17.2 159.351 17.6667 161.544 18.6C163.784 19.5333 165.698 20.84 167.284 22.52C168.871 24.2 170.108 26.23 170.994 28.61C171.881 30.99 172.324 33.6267 172.324 36.52ZM161.684 36.52C161.684 33.3 161.031 30.78 159.724 28.96C158.464 27.0933 156.644 26.16 154.264 26.16C151.884 26.16 150.041 27.0933 148.734 28.96C147.428 30.78 146.774 33.3 146.774 36.52C146.774 39.74 147.428 42.3067 148.734 44.22C150.041 46.0867 151.884 47.02 154.264 47.02C156.644 47.02 158.464 46.0867 159.724 44.22C161.031 42.3067 161.684 39.74 161.684 36.52ZM18.81 85.93C26.09 85.93 31.6667 87.2367 35.54 89.85C39.4133 92.4167 41.35 96.43 41.35 101.89C41.35 105.297 40.5567 108.073 38.97 110.22C37.43 112.32 35.19 113.977 32.25 115.19C33.23 116.403 34.2567 117.803 35.33 119.39C36.4033 120.93 37.4533 122.563 38.48 124.29C39.5533 125.97 40.58 127.743 41.56 129.61C42.54 131.43 43.45 133.227 44.29 135H32.04C31.1533 133.413 30.2433 131.803 29.31 130.17C28.4233 128.537 27.49 126.95 26.51 125.41C25.5767 123.87 24.6433 122.423 23.71 121.07C22.7767 119.67 21.8433 118.41 20.91 117.29H15.52V135H4.6V87.19C6.98 86.7233 9.43 86.3967 11.95 86.21C14.5167 86.0233 16.8033 85.93 18.81 85.93ZM19.44 95.24C18.6467 95.24 17.9233 95.2633 17.27 95.31C16.6633 95.3567 16.08 95.4033 15.52 95.45V108.61H18.6C22.7067 108.61 25.6467 108.097 27.42 107.07C29.1933 106.043 30.08 104.293 30.08 101.82C30.08 99.44 29.17 97.76 27.35 96.78C25.5767 95.7533 22.94 95.24 19.44 95.24ZM61.0195 135H50.5895V98.18H61.0195V135ZM61.9995 87.54C61.9995 89.4533 61.3695 90.97 60.1095 92.09C58.8961 93.1633 57.4495 93.7 55.7695 93.7C54.0895 93.7 52.6195 93.1633 51.3595 92.09C50.1461 90.97 49.5395 89.4533 49.5395 87.54C49.5395 85.6267 50.1461 84.1333 51.3595 83.06C52.6195 81.94 54.0895 81.38 55.7695 81.38C57.4495 81.38 58.8961 81.94 60.1095 83.06C61.3695 84.1333 61.9995 85.6267 61.9995 87.54ZM81.3938 127.51C83.3072 127.51 84.6605 127.323 85.4538 126.95C86.2472 126.577 86.6438 125.853 86.6438 124.78C86.6438 123.94 86.1305 123.217 85.1038 122.61C84.0772 121.957 82.5138 121.233 80.4138 120.44C78.7805 119.833 77.2872 119.203 75.9338 118.55C74.6272 117.897 73.5072 117.127 72.5738 116.24C71.6405 115.307 70.9172 114.21 70.4038 112.95C69.8905 111.69 69.6338 110.173 69.6338 108.4C69.6338 104.947 70.9172 102.217 73.4838 100.21C76.0505 98.2033 79.5738 97.2 84.0538 97.2C86.2938 97.2 88.4405 97.41 90.4938 97.83C92.5472 98.2033 94.1805 98.6233 95.3938 99.09L93.5738 107.21C92.3605 106.79 91.0305 106.417 89.5838 106.09C88.1838 105.763 86.5972 105.6 84.8238 105.6C81.5572 105.6 79.9238 106.51 79.9238 108.33C79.9238 108.75 79.9938 109.123 80.1338 109.45C80.2738 109.777 80.5538 110.103 80.9738 110.43C81.3938 110.71 81.9538 111.037 82.6538 111.41C83.4005 111.737 84.3338 112.11 85.4538 112.53C87.7405 113.37 89.6305 114.21 91.1238 115.05C92.6172 115.843 93.7838 116.73 94.6238 117.71C95.5105 118.643 96.1172 119.693 96.4438 120.86C96.8172 122.027 97.0038 123.38 97.0038 124.92C97.0038 128.56 95.6272 131.313 92.8738 133.18C90.1672 135.047 86.3172 135.98 81.3238 135.98C78.0572 135.98 75.3272 135.7 73.1338 135.14C70.9872 134.58 69.4938 134.113 68.6538 133.74L70.4038 125.27C72.1772 125.97 73.9972 126.53 75.8638 126.95C77.7305 127.323 79.5738 127.51 81.3938 127.51ZM115.228 111.48C116.255 110.36 117.305 109.193 118.378 107.98C119.498 106.767 120.572 105.577 121.598 104.41C122.625 103.197 123.582 102.053 124.468 100.98C125.402 99.9067 126.195 98.9733 126.848 98.18H139.238C136.765 101.027 134.338 103.757 131.958 106.37C129.625 108.937 127.058 111.597 124.258 114.35C125.658 115.61 127.105 117.127 128.598 118.9C130.092 120.627 131.538 122.423 132.938 124.29C134.338 126.157 135.622 128.023 136.788 129.89C137.955 131.757 138.935 133.46 139.728 135H127.758C127.012 133.787 126.148 132.457 125.168 131.01C124.235 129.517 123.232 128.047 122.158 126.6C121.085 125.107 119.942 123.683 118.728 122.33C117.562 120.977 116.395 119.833 115.228 118.9V135H104.798V82.36L115.228 80.68V111.48ZM17.83 206.67C19.37 206.67 20.63 206.553 21.61 206.32C22.6367 206.04 23.4533 205.69 24.06 205.27C24.6667 204.803 25.0867 204.267 25.32 203.66C25.5533 203.053 25.67 202.377 25.67 201.63C25.67 200.043 24.9233 198.737 23.43 197.71C21.9367 196.637 19.37 195.493 15.73 194.28C14.1433 193.72 12.5567 193.09 10.97 192.39C9.38333 191.643 7.96 190.733 6.7 189.66C5.44 188.54 4.41333 187.21 3.62 185.67C2.82667 184.083 2.43 182.17 2.43 179.93C2.43 177.69 2.85 175.683 3.69 173.91C4.53 172.09 5.72 170.55 7.26 169.29C8.8 168.03 10.6667 167.073 12.86 166.42C15.0533 165.72 17.5267 165.37 20.28 165.37C23.5467 165.37 26.37 165.72 28.75 166.42C31.13 167.12 33.09 167.89 34.63 168.73L31.48 177.34C30.1267 176.64 28.61 176.033 26.93 175.52C25.2967 174.96 23.3133 174.68 20.98 174.68C18.3667 174.68 16.4767 175.053 15.31 175.8C14.19 176.5 13.63 177.597 13.63 179.09C13.63 179.977 13.84 180.723 14.26 181.33C14.68 181.937 15.2633 182.497 16.01 183.01C16.8033 183.477 17.69 183.92 18.67 184.34C19.6967 184.713 20.8167 185.11 22.03 185.53C24.55 186.463 26.7433 187.397 28.61 188.33C30.4767 189.217 32.0167 190.267 33.23 191.48C34.49 192.693 35.4233 194.117 36.03 195.75C36.6367 197.383 36.94 199.367 36.94 201.7C36.94 206.227 35.3533 209.75 32.18 212.27C29.0067 214.743 24.2233 215.98 17.83 215.98C15.6833 215.98 13.7467 215.84 12.02 215.56C10.2933 215.327 8.75333 215.023 7.4 214.65C6.09333 214.277 4.95 213.88 3.97 213.46C3.03667 213.04 2.24333 212.643 1.59 212.27L4.67 203.59C6.11667 204.383 7.89 205.107 9.99 205.76C12.1367 206.367 14.75 206.67 17.83 206.67ZM42.8922 196.59C42.8922 193.93 43.3122 191.433 44.1522 189.1C45.0389 186.72 46.2989 184.667 47.9322 182.94C49.5655 181.167 51.5489 179.767 53.8822 178.74C56.2155 177.713 58.8755 177.2 61.8622 177.2C63.8222 177.2 65.6189 177.387 67.2522 177.76C68.8855 178.087 70.4722 178.577 72.0122 179.23L69.8422 187.56C68.8622 187.187 67.7889 186.86 66.6222 186.58C65.4555 186.3 64.1489 186.16 62.7022 186.16C59.6222 186.16 57.3122 187.117 55.7722 189.03C54.2789 190.943 53.5322 193.463 53.5322 196.59C53.5322 199.903 54.2322 202.47 55.6322 204.29C57.0789 206.11 59.5755 207.02 63.1222 207.02C64.3822 207.02 65.7355 206.903 67.1822 206.67C68.6289 206.437 69.9589 206.063 71.1722 205.55L72.6422 214.09C71.4289 214.603 69.9122 215.047 68.0922 215.42C66.2722 215.793 64.2655 215.98 62.0722 215.98C58.7122 215.98 55.8189 215.49 53.3922 214.51C50.9655 213.483 48.9589 212.107 47.3722 210.38C45.8322 208.653 44.6889 206.623 43.9422 204.29C43.2422 201.91 42.8922 199.343 42.8922 196.59ZM112.305 196.52C112.305 199.413 111.885 202.073 111.045 204.5C110.205 206.88 108.992 208.933 107.405 210.66C105.818 212.34 103.905 213.647 101.665 214.58C99.4715 215.513 96.9982 215.98 94.2448 215.98C91.5382 215.98 89.0648 215.513 86.8248 214.58C84.6315 213.647 82.7415 212.34 81.1548 210.66C79.5682 208.933 78.3315 206.88 77.4448 204.5C76.5582 202.073 76.1148 199.413 76.1148 196.52C76.1148 193.627 76.5582 190.99 77.4448 188.61C78.3782 186.23 79.6382 184.2 81.2248 182.52C82.8582 180.84 84.7715 179.533 86.9648 178.6C89.2048 177.667 91.6315 177.2 94.2448 177.2C96.9048 177.2 99.3315 177.667 101.525 178.6C103.765 179.533 105.678 180.84 107.265 182.52C108.852 184.2 110.088 186.23 110.975 188.61C111.862 190.99 112.305 193.627 112.305 196.52ZM101.665 196.52C101.665 193.3 101.012 190.78 99.7048 188.96C98.4448 187.093 96.6248 186.16 94.2448 186.16C91.8648 186.16 90.0215 187.093 88.7148 188.96C87.4082 190.78 86.7548 193.3 86.7548 196.52C86.7548 199.74 87.4082 202.307 88.7148 204.22C90.0215 206.087 91.8648 207.02 94.2448 207.02C96.6248 207.02 98.4448 206.087 99.7048 204.22C101.012 202.307 101.665 199.74 101.665 196.52ZM142.574 187.42C141.641 187.187 140.544 186.953 139.284 186.72C138.024 186.44 136.671 186.3 135.224 186.3C134.571 186.3 133.778 186.37 132.844 186.51C131.958 186.603 131.281 186.72 130.814 186.86V215H120.384V180.14C122.251 179.487 124.444 178.88 126.964 178.32C129.531 177.713 132.378 177.41 135.504 177.41C136.064 177.41 136.741 177.457 137.534 177.55C138.328 177.597 139.121 177.69 139.914 177.83C140.708 177.923 141.501 178.063 142.294 178.25C143.088 178.39 143.764 178.577 144.324 178.81L142.574 187.42ZM160.346 215H149.916V178.18H160.346V215ZM161.326 167.54C161.326 169.453 160.696 170.97 159.436 172.09C158.222 173.163 156.776 173.7 155.096 173.7C153.416 173.7 151.946 173.163 150.686 172.09C149.472 170.97 148.866 169.453 148.866 167.54C148.866 165.627 149.472 164.133 150.686 163.06C151.946 161.94 153.416 161.38 155.096 161.38C156.776 161.38 158.222 161.94 159.436 163.06C160.696 164.133 161.326 165.627 161.326 167.54ZM170.15 179.44C171.923 178.927 174.21 178.46 177.01 178.04C179.81 177.573 182.75 177.34 185.83 177.34C188.957 177.34 191.547 177.76 193.6 178.6C195.7 179.393 197.357 180.537 198.57 182.03C199.783 183.523 200.647 185.297 201.16 187.35C201.673 189.403 201.93 191.69 201.93 194.21V215H191.5V195.47C191.5 192.11 191.057 189.73 190.17 188.33C189.283 186.93 187.627 186.23 185.2 186.23C184.453 186.23 183.66 186.277 182.82 186.37C181.98 186.417 181.233 186.487 180.58 186.58V215H170.15V179.44ZM220.261 195.4C220.261 201.233 222.617 204.15 227.331 204.15C228.404 204.15 229.407 204.01 230.341 203.73C231.274 203.45 232.067 203.123 232.721 202.75V186.09C232.207 185.997 231.601 185.927 230.901 185.88C230.201 185.787 229.384 185.74 228.451 185.74C225.697 185.74 223.644 186.65 222.291 188.47C220.937 190.29 220.261 192.6 220.261 195.4ZM243.151 210.38C243.151 216.4 241.611 220.857 238.531 223.75C235.497 226.69 230.784 228.16 224.391 228.16C222.151 228.16 219.911 227.95 217.671 227.53C215.431 227.157 213.354 226.643 211.441 225.99L213.261 217.24C214.894 217.893 216.597 218.407 218.371 218.78C220.191 219.153 222.244 219.34 224.531 219.34C227.517 219.34 229.617 218.687 230.831 217.38C232.091 216.073 232.721 214.393 232.721 212.34V211.01C231.601 211.523 230.434 211.92 229.221 212.2C228.054 212.433 226.771 212.55 225.371 212.55C220.284 212.55 216.387 211.057 213.681 208.07C210.974 205.037 209.621 200.813 209.621 195.4C209.621 192.693 210.041 190.243 210.881 188.05C211.721 185.81 212.934 183.897 214.521 182.31C216.154 180.723 218.137 179.51 220.471 178.67C222.804 177.783 225.441 177.34 228.381 177.34C229.641 177.34 230.924 177.41 232.231 177.55C233.584 177.643 234.914 177.783 236.221 177.97C237.527 178.157 238.764 178.39 239.931 178.67C241.144 178.903 242.217 179.16 243.151 179.44V210.38Z" fill="#212121"/>
</svg>
