<svg width="26" height="26" viewBox="0 0 26 26" fill="none" xmlns="http://www.w3.org/2000/svg">
<path fill-rule="evenodd" clip-rule="evenodd" d="M24.1451 19.3696C23.936 19.3695 23.7289 19.4105 23.5357 19.4905C23.3425 19.5704 23.1669 19.6877 23.0191 19.8355C22.8713 19.9834 22.754 20.1589 22.6741 20.3521C22.5941 20.5453 22.5531 20.7524 22.5533 20.9615V22.5532H3.44553V20.9615C3.44612 20.7521 3.40538 20.5446 3.32565 20.351C3.24592 20.1574 3.12877 19.9814 2.98091 19.8331C2.83304 19.6848 2.65737 19.5672 2.46397 19.4869C2.27056 19.4066 2.06321 19.3653 1.85381 19.3653C1.64441 19.3653 1.43706 19.4066 1.24365 19.4869C1.05025 19.5672 0.874577 19.6848 0.726714 19.8331C0.578851 19.9814 0.461699 20.1574 0.381971 20.351C0.302242 20.5446 0.261504 20.7521 0.262091 20.9615V24.1462C0.262009 24.3553 0.303123 24.5623 0.383083 24.7555C0.463043 24.9486 0.580281 25.1242 0.7281 25.272C0.875918 25.4198 1.05142 25.5371 1.24457 25.6171C1.43773 25.697 1.64475 25.7382 1.8538 25.7381H24.1451C24.3542 25.7383 24.5613 25.6973 24.7546 25.6173C24.9479 25.5374 25.1235 25.4202 25.2715 25.2723C25.4194 25.1245 25.5367 24.9489 25.6168 24.7557C25.6968 24.5625 25.738 24.3554 25.738 24.1462V20.9615C25.738 20.7524 25.6968 20.5452 25.6168 20.352C25.5367 20.1588 25.4194 19.9832 25.2715 19.8354C25.1235 19.6876 24.9479 19.5703 24.7546 19.4904C24.5613 19.4105 24.3542 19.3694 24.1451 19.3696ZM9.34893 7.75715L11.407 5.69775V17.7766C11.4065 17.9861 11.4472 18.1936 11.527 18.3874C11.6067 18.5811 11.7239 18.7571 11.8719 18.9055C12.0198 19.0538 12.1955 19.1715 12.389 19.2518C12.5825 19.3321 12.7899 19.3735 12.9994 19.3735C13.2089 19.3735 13.4163 19.3321 13.6098 19.2518C13.8033 19.1715 13.979 19.0538 14.127 18.9055C14.2749 18.7571 14.3921 18.5811 14.4719 18.3874C14.5516 18.1936 14.5924 17.9861 14.5918 17.7766V5.69775L16.6512 7.75715C16.799 7.90539 16.9745 8.02302 17.1678 8.10333C17.3611 8.18364 17.5684 8.22504 17.7777 8.22517C17.987 8.2253 18.1943 8.18415 18.3877 8.10408C18.5811 8.024 18.7568 7.90658 18.9048 7.75852C19.0528 7.61047 19.1701 7.43469 19.2501 7.24124C19.33 7.04779 19.3711 6.84048 19.3708 6.63115C19.3706 6.42183 19.3291 6.21461 19.2486 6.02136C19.1682 5.8281 19.0505 5.65259 18.9022 5.50489L14.1255 0.728276C13.9778 0.58044 13.8023 0.463167 13.6092 0.383156C13.4161 0.303145 13.2091 0.261963 13.0001 0.261963C12.791 0.261963 12.584 0.303145 12.3909 0.383156C12.1978 0.463167 12.0223 0.58044 11.8746 0.728276L7.09665 5.50489C6.79928 5.80383 6.6326 6.2085 6.63315 6.63016C6.63371 7.05182 6.80146 7.45605 7.09961 7.7542C7.39777 8.05236 7.802 8.22011 8.22366 8.22066C8.64532 8.22121 9.04999 8.05453 9.34893 7.75715Z" fill="#DE1B1B"/>
</svg>
